<svg xmlns="http://www.w3.org/2000/svg" viewBox="0 0 32 32" width="256" height="256"><path fill="#eeeeee" d="M16 7a3 3 0 0 0-3 3v12a3 3 0 0 0 3 3h4V7Z" class="coloreee svgShape"></path><path fill="#5cfaa9" d="m28.114 6.568-6-2.4A3.02 3.02 0 0 0 18 6.954v18.092a3.021 3.021 0 0 0 4.114 2.786l6.001-2.4A2.987 2.987 0 0 0 30 22.645V9.355a2.987 2.987 0 0 0-1.886-2.787Z" class="color2196f3 svgShape"></path><path fill="#212529" d="m17.096 15.321-5.362-5.803a1.006 1.006 0 0 0-1.734.678V13H4a2.003 2.003 0 0 0-2 2v2a2.003 2.003 0 0 0 2 2h6v2.804a1.006 1.006 0 0 0 1.734.678l5.362-5.803a1 1 0 0 0 0-1.358Z" class="color757575 svgShape"></path><circle cx="22" cy="16" r="1" fill="#19d273" class="color1976d2 svgShape"></circle></svg>