<svg xmlns="http://www.w3.org/2000/svg" enable-background="new 0 0 32 32" viewBox="0 0 32 32" width="256" height="256"><path fill="#ffffff" d="M22.5 28c-.276 0-.5-.224-.5-.5v-6c0-.098.029-.194.083-.276l.972-1.465c.151-.23.462-.294.693-.14.23.152.293.463.14.693L23 21.651V27.5C23 27.776 22.776 28 22.5 28zM9.5 28C9.224 28 9 27.776 9 27.5v-5.849l-.875-1.32c-.153-.23-.09-.541.14-.693.23-.155.541-.09.693.14l.959 1.446C9.971 21.306 10 21.402 10 21.5v6C10 27.776 9.776 28 9.5 28zM16 28c-.276 0-.5-.224-.5-.5v-10c0-.276.224-.5.5-.5s.5.224.5.5v10C16.5 27.776 16.276 28 16 28zM29.5 30h-27C2.224 30 2 29.776 2 29.5S2.224 29 2.5 29h27c.276 0 .5.224.5.5S29.776 30 29.5 30z" class="colorffffff svgShape"></path><path fill="#ffffff" d="M6.5 30C6.224 30 6 29.776 6 29.5v-8.768c0-1.76 1.352-3.666 3.013-4.247l4.112-1.439.271-2.17c.035-.273.281-.463.558-.434.274.034.468.284.434.558l-.31 2.478c-.023.188-.152.347-.331.41l-4.404 1.542C8.073 17.873 7 19.386 7 20.732V29.5C7 29.776 6.776 30 6.5 30zM25.5 30c-.276 0-.5-.224-.5-.5v-8.768c0-1.346-1.073-2.859-2.343-3.304l-4.404-1.541c-.179-.063-.308-.222-.331-.41l-.311-2.48c-.034-.274.16-.524.434-.558.275-.033.524.16.558.434l.272 2.173 4.112 1.439C24.648 17.066 26 18.972 26 20.732V29.5C26 29.776 25.776 30 25.5 30z" class="colorffffff svgShape"></path><path fill="#ffffff" d="M16 14.039c-.276 0-.5-.224-.5-.5s.224-.5.5-.5c1.115 0 3.191 0 3.201-5.471.002-.959-.068-1.893-.934-2.76-.51-.51-1.273-.769-2.267-.769s-1.757.259-2.268.77c-.865.867-.936 1.8-.934 2.76.005 2.583.476 4.257 1.4 4.974.218.169.258.483.088.702-.168.219-.482.259-.702.088-1.197-.929-1.782-2.813-1.787-5.762-.002-1.082.091-2.331 1.226-3.468C13.73 3.396 14.731 3.039 16 3.039s2.27.357 2.975 1.063c1.136 1.138 1.229 2.387 1.227 3.469C20.193 12.044 18.897 14.039 16 14.039zM15.997 18.152c-.122 0-.244-.044-.34-.133l-2.415-2.237c-.203-.188-.215-.504-.027-.707.188-.204.504-.215.707-.027l2.076 1.923 2.081-1.923c.202-.187.518-.176.707.028.188.203.175.519-.028.707l-2.421 2.237C16.241 18.108 16.119 18.152 15.997 18.152z" class="colorffffff svgShape"></path><path fill="#ffffff" d="M17.813 7.916c-1.421 0-2.902-.501-3.717-1.235-.205-.185-.222-.501-.037-.706.186-.205.5-.221.706-.037.985.885 3.348 1.347 4.701.622.244-.129.546-.038.677.205.13.244.039.546-.205.677C19.321 7.771 18.575 7.916 17.813 7.916zM8.5 14.8c-.276 0-.5-.224-.5-.5v-1.811c0-.157.073-.304.198-.399C8.708 11.705 9 11.125 9 10.5V9c0-1.103-.897-2-2-2S5 7.897 5 9v1.5c0 .625.292 1.205.802 1.59C5.927 12.185 6 12.332 6 12.489V14.3c0 .276-.224.5-.5.5S5 14.576 5 14.3v-1.576c-.639-.57-1-1.368-1-2.224V9c0-1.654 1.346-3 3-3s3 1.346 3 3v1.5c0 .856-.361 1.654-1 2.224V14.3C9 14.576 8.776 14.8 8.5 14.8z" class="colorffffff svgShape"></path><path fill="#ffffff" d="M7.503 13.449c-.232 0-.441-.163-.489-.4-.056-.271.119-.535.39-.59C8.329 12.27 9 11.446 9 10.5 9 10.224 9.224 10 9.5 10s.5.224.5.5c0 1.419-1.008 2.655-2.396 2.939C7.57 13.446 7.537 13.449 7.503 13.449zM1.5 27C1.224 27 1 26.776 1 26.5v-8.53c0-1.402.83-2.662 2.114-3.21l2.187-.949c.173-.074.373-.046.516.072l1.185.971 1.183-.962c.145-.118.342-.145.513-.072l2.188.939c.254.109.371.403.262.657-.109.254-.403.373-.657.262l-1.91-.82-1.265 1.029c-.184.15-.449.15-.632-.001L5.419 14.85 3.51 15.679C2.591 16.071 2 16.97 2 17.97v8.53C2 26.776 1.776 27 1.5 27zM8.939 9.91c-.997 0-1.949-.343-2.753-.991C5.971 8.746 5.938 8.431 6.111 8.216c.172-.215.487-.249.703-.075.64.516 1.394.775 2.184.769C8.95 7.848 8.072 7 7 7 5.897 7 5 7.897 5 9v.37c0 .276-.224.5-.5.5S4 9.646 4 9.37V9c0-1.654 1.346-3 3-3s3 1.346 3 3v.35c0 .246-.179.456-.422.494C9.342 9.881 9.146 9.91 8.939 9.91z" class="colorffffff svgShape"></path><path fill="#ffffff" d="M6.225,7.13c-0.145,0-0.289-0.063-0.388-0.184C5.62,6.68,5.5,6.344,5.5,6c0-0.827,0.673-1.5,1.5-1.5S8.5,5.173,8.5,6c0,0.341-0.119,0.675-0.333,0.942c-0.173,0.215-0.488,0.25-0.703,0.075C7.249,6.844,7.215,6.529,7.388,6.314C7.439,6.251,7.5,6.145,7.5,6c0-0.276-0.224-0.5-0.5-0.5S6.5,5.724,6.5,6c0,0.146,0.061,0.251,0.112,0.314c0.175,0.214,0.143,0.529-0.071,0.703C6.448,7.094,6.336,7.13,6.225,7.13z" class="colorffffff svgShape"></path><g><path fill="#ffffff" d="M26.5,14.8c-0.276,0-0.5-0.224-0.5-0.5v-1.811c0-0.157,0.073-0.304,0.198-0.399C26.708,11.705,27,11.125,27,10.5V9c0-1.103-0.897-2-2-2s-2,0.897-2,2v1.5c0,0.625,0.292,1.205,0.802,1.59C23.927,12.185,24,12.332,24,12.489V14.3c0,0.276-0.224,0.5-0.5,0.5S23,14.576,23,14.3v-1.576c-0.639-0.57-1-1.368-1-2.224V9c0-1.654,1.346-3,3-3s3,1.346,3,3v1.5c0,0.856-0.361,1.654-1,2.224V14.3C27,14.576,26.776,14.8,26.5,14.8z" class="colorffffff svgShape"></path><path fill="#ffffff" d="M25.503 13.449c-.232 0-.441-.163-.489-.4-.056-.271.119-.535.39-.59C26.329 12.27 27 11.446 27 10.5c0-.276.224-.5.5-.5s.5.224.5.5c0 1.419-1.008 2.655-2.396 2.939C25.57 13.446 25.537 13.449 25.503 13.449zM30.5 27c-.276 0-.5-.224-.5-.5v-8.53c0-1-.591-1.899-1.507-2.29l-1.912-.83-1.264 1.037c-.184.15-.449.15-.632.001l-1.265-1.029-1.91.82c-.254.109-.548-.009-.657-.262-.109-.254.008-.548.262-.657l2.188-.939c.17-.073.368-.046.513.072l1.183.962 1.185-.971c.145-.119.344-.147.516-.072l2.189.95C30.17 15.309 31 16.568 31 17.97v8.53C31 26.776 30.776 27 30.5 27z" class="colorffffff svgShape"></path></g></svg>