<svg xmlns="http://www.w3.org/2000/svg" viewBox="0 0 48 48" width="256" height="256"><path d="M1 47.5h46c.28 0 .5-.22.5-.5v-8.49c0-.28-.22-.5-.5-.5-2.88 0-5.22-2.34-5.22-5.22s2.34-5.22 5.22-5.22c.28 0 .5-.22.5-.5v-8.49c0-.28-.22-.5-.5-.5h-3.79l-.53-.79a.472.472 0 0 0-.32-.21c-.13-.03-.26 0-.38.08a5.23 5.23 0 0 1-7.25-1.43 5.24 5.24 0 0 1 1.43-7.25c.24-.17.3-.48.14-.71L31.57.72a.472.472 0 0 0-.32-.21c-.13-.03-.26 0-.38.08L4.83 18.07H1c-.28 0-.5.22-.5.5v8.49c0 .28.22.5.5.5 2.88 0 5.22 2.34 5.22 5.22S3.88 38 1 38c-.28 0-.5.22-.5.5V47c0 .28.22.5.5.5zM31.02 1.69l4.19 6.24a6.232 6.232 0 0 0-1.29 8.34c.49.73 1.13 1.34 1.85 1.79h-14.6l5.94-3.98a.498.498 0 0 0-.55-.83l-7.17 4.81H6.62l24.4-16.37zM1.5 38.99c3.2-.26 5.72-2.94 5.72-6.2s-2.52-5.95-5.72-6.2v-7.51h45v7.51c-3.2.26-5.72 2.94-5.72 6.2s2.52 5.95 5.72 6.2v7.51h-45v-7.51z" fill="#ffffff" class="color000 svgShape"></path><path d="M14.77 22.3c-.28 0-.5.22-.5.5v1.01c0 .28.22.5.5.5s.5-.22.5-.5V22.8c0-.27-.22-.5-.5-.5zm0 4.74c-.28 0-.5.22-.5.5v1.01c0 .28.22.5.5.5s.5-.22.5-.5v-1.01c0-.28-.22-.5-.5-.5zm0 4.74c-.28 0-.5.22-.5.5v1.01c0 .28.22.5.5.5s.5-.22.5-.5v-1.01c0-.28-.22-.5-.5-.5zm0 4.74c-.28 0-.5.22-.5.5v1.01c0 .28.22.5.5.5s.5-.22.5-.5v-1.01c0-.28-.22-.5-.5-.5zm0 4.73c-.28 0-.5.22-.5.5v1.01c0 .28.22.5.5.5s.5-.22.5-.5v-1.01c0-.27-.22-.5-.5-.5zm21.57-15.08H21.63c-.28 0-.5.22-.5.5s.22.5.5.5h14.71c.28 0 .5-.22.5-.5s-.22-.5-.5-.5zm0 6.11H21.63c-.28 0-.5.22-.5.5s.22.5.5.5h14.71c.28 0 .5-.22.5-.5s-.22-.5-.5-.5zm0 6.12H21.63c-.28 0-.5.22-.5.5s.22.5.5.5h14.71c.28 0 .5-.22.5-.5s-.22-.5-.5-.5z" fill="#ffffff" class="color000 svgShape"></path></svg>