<svg xmlns="http://www.w3.org/2000/svg" enable-background="new 0 0 128 128" viewBox="0 0 128 128" width="256" height="256"><circle cx="64" cy="64" r="60" fill="#ffffff" class="colorfff svgShape"></circle><path fill="#1def83" d="M64,86c-17.3,0-32.8,7.3-43.8,19c10.9,11.7,26.5,19,43.8,19s32.8-7.3,43.8-19C96.8,93.3,81.3,86,64,86z" class="colorefc71d svgShape"></path><path fill="#212529" d="M64,127c-17.4,0-34.1-7.3-46-19.9c-1-1.1-1.1-2.7-0.2-3.9c0.1-0.1,0.1-0.2,0.2-0.2C29.9,90.3,46.7,83,64,83		c12.2,0,24,3.5,34.2,10.1c1.4,0.9,1.8,2.8,0.9,4.2c-0.9,1.4-2.8,1.8-4.2,0.9C85.8,92.2,75,89,64,89c-15,0-28.9,5.7-39.6,16
		C35.1,115.3,49,121,64,121c31.4,0,57-25.6,57-57S95.4,7,64,7S7,32.6,7,64c0,9.2,2.2,18.4,6.5,26.5c0.8,1.5,0.2,3.3-1.3,4.1
		c-1.5,0.8-3.3,0.2-4.1-1.3C3.5,84.3,1,74.2,1,64C1,29.3,29.3,1,64,1s63,28.3,63,63S98.7,127,64,127z" class="color444b54 svgShape"></path><path fill="#5cfaa9" d="M64,25c-13.2,0-24,10.8-24,24s10.8,24,24,24s24-10.8,24-24S77.2,25,64,25z" class="colord3d8dd svgShape"></path></svg>