<svg xmlns="http://www.w3.org/2000/svg" data-name="Layer 5" viewBox="0 0 24 24" width="256" height="256"><path fill="#212529" d="M13 1A11.012 11.012 0 0 0 2 12v8a1 1 0 0 1-1 1 1 1 0 0 0 0 2 3.003 3.003 0 0 0 3-3v-1.695A10.995 10.995 0 1 0 13 1Zm0 20a9 9 0 1 1 9-9 9.01 9.01 0 0 1-9 9Z" class="color212529 svgShape"></path><path fill="#5cfaa9" d="M13 10a3 3 0 1 0-3-3 3.003 3.003 0 0 0 3 3zm0-4a1 1 0 1 1-1 1 1 1 0 0 1 1-1zm5 3a3 3 0 1 0 3 3 3.003 3.003 0 0 0-3-3zm0 4a1 1 0 1 1 1-1 1 1 0 0 1-1 1zm-7-1a3 3 0 1 0-3 3 3.003 3.003 0 0 0 3-3zm-3 1a1 1 0 1 1 1-1 1 1 0 0 1-1 1zm5 1a3 3 0 1 0 3 3 3.003 3.003 0 0 0-3-3zm0 4a1 1 0 1 1 1-1 1 1 0 0 1-1 1z" class="color5cfaa9 svgShape"></path></svg>