<svg xmlns="http://www.w3.org/2000/svg" fill-rule="evenodd" stroke-linejoin="round" stroke-miterlimit="2" clip-rule="evenodd" viewBox="0 0 64 64" width="256" height="256"><rect width="64" height="64" fill="none"></rect><rect width="8.485" height="39.598" x="99.163" y="259.565" fill="#5cfaa9" transform="rotate(45 428.152 57.835) scale(1.3368 1.14435)" class="color3fc1c9 svgShape"></rect><path fill="#212529" d="M117.658,290L122,290C123.104,290 124,289.104 124,288L124,285.828C124,284.725 124.896,283.828 126,283.828C127.104,283.828 128,284.725 128,285.828L128,288C128,291.311 125.311,294 122,294L116,294C114.895,294 114,293.105 114,292C114,290.896 113.104,290 112,290C110.896,290 110,290.896 110,292C110,293.105 109.105,294 108,294L102,294C98.689,294 96,291.311 96,288C96,288 96,250 96,250C96,246.689 98.689,244 102,244L108,244C109.105,244 110,244.895 110,246C110,247.104 110.896,248 112,248C113.104,248 114,247.104 114,246C114,244.895 114.895,244 116,244C116,244 122,244 122,244C125.311,244 128,246.689 128,250L128,277.343C128,278.447 127.104,279.343 126,279.343C124.896,279.343 124,278.447 124,277.343C124,277.343 124,250 124,250C124,248.896 123.104,248 122,248L117.658,248C116.834,250.329 114.61,252 112,252C109.39,252 107.166,250.329 106.342,248L102,248C100.896,248 100,248.896 100,250C100,250 100,288 100,288C100,289.104 100.896,290 102,290L106.342,290C107.166,287.671 109.39,286 112,286C114.61,286 116.834,287.671 117.658,290Z" transform="rotate(45 358.085 53.932)" class="color364f6b svgShape"></path><path fill="#212529" d="M106,260L118,260C119.104,260 120,259.104 120,258C120,256.896 119.104,256 118,256L106,256C104.896,256 104,256.896 104,258C104,259.104 104.896,260 106,260Z" transform="rotate(45 358.085 53.932)" class="color364f6b svgShape"></path><path fill="#212529" d="M104,266L104,280C104,282.576 104.896,284.667 106,284.667C107.104,284.667 108,282.576 108,280L108,266C108,263.424 107.104,261.333 106,261.333C104.896,261.333 104,263.424 104,266Z" transform="matrix(.7071 .7071 -.30304 .30304 31.293 -122.856)" class="color364f6b svgShape"></path><path fill="#212529" d="M104,266L104,280C104,281.104 104.896,282 106,282C107.104,282 108,281.104 108,280L108,266C108,264.896 107.104,264 106,264C104.896,264 104,264.896 104,266Z" transform="rotate(45 353.085 66.003)" class="color364f6b svgShape"></path></svg>