<svg xmlns="http://www.w3.org/2000/svg" enable-background="new 0 0 5000 5000" viewBox="0 0 5000 5000" width="256" height="256"><path fill="#132187" d="M2194.269 741.99c-8.967 0-16.899-6.446-18.476-15.583-1.763-10.216 5.09-19.927 15.306-21.69 67.845-11.707 137.33-19.599 206.524-23.458 10.364-.587 19.21 7.346 19.788 17.697.577 10.351-7.346 19.21-17.697 19.788-67.761 3.779-135.801 11.507-202.231 22.969C2196.403 741.9 2195.328 741.99 2194.269 741.99zM2783.861 738.36c-.984 0-1.98-.077-2.983-.237-58.443-9.333-118.19-15.795-177.583-19.208-10.35-.595-18.258-9.467-17.663-19.817.595-10.349 9.444-18.27 19.817-17.663 60.648 3.485 121.663 10.085 181.349 19.616 10.237 1.635 17.211 11.259 15.576 21.497C2800.899 731.781 2792.924 738.36 2783.861 738.36zM4182.113 3116.438c-2.128 0-4.291-.364-6.407-1.133-9.744-3.54-14.774-14.309-11.234-24.053 23.085-63.546 42.698-129.155 58.296-195.007 2.39-10.088 12.513-16.327 22.592-13.938 10.088 2.39 16.329 12.504 13.939 22.592-15.931 67.257-35.963 134.269-59.54 199.172C4196.987 3111.699 4189.785 3116.438 4182.113 3116.438zM4276.859 2716.772c-.734 0-1.476-.043-2.224-.132-10.296-1.215-17.657-10.547-16.441-20.842 5.283-44.766 8.918-90.402 10.803-135.643.935-22.456 1.455-45.189 1.547-67.565.043-10.34 8.439-18.694 18.77-18.694.026 0 .053 0 .079 0 10.367.042 18.737 8.481 18.694 18.849-.095 22.842-.626 46.047-1.58 68.971-1.923 46.186-5.634 92.777-11.029 138.481C4294.351 2709.747 4286.242 2716.772 4276.859 2716.772zM4278.41 2306.057c-9.44 0-17.57-7.104-18.634-16.707-7.452-67.284-18.904-134.782-34.037-200.621-2.322-10.104 3.985-20.177 14.089-22.5 10.105-2.321 20.177 3.985 22.499 14.089 15.456 67.244 27.152 136.181 34.764 204.898 1.142 10.304-6.287 19.583-16.591 20.724C4279.798 2306.019 4279.101 2306.057 4278.41 2306.057zM4186.427 1905.858c-7.719 0-14.95-4.796-17.686-12.484-22.655-63.674-49.297-126.749-79.184-187.471-4.578-9.301-.749-20.553 8.553-25.131 9.299-4.578 20.554-.75 25.131 8.552 30.523 62.015 57.732 126.433 80.871 191.465 3.475 9.767-1.626 20.502-11.394 23.978C4190.64 1905.507 4188.515 1905.858 4186.427 1905.858zM4005.125 1537.379c-6.168 0-12.208-3.036-15.797-8.606-36.62-56.833-76.947-112.177-119.86-164.498-6.575-8.016-5.406-19.843 2.609-26.418 8.014-6.575 19.844-5.407 26.418 2.609 43.819 53.424 84.998 109.938 122.392 167.971 5.615 8.715 3.103 20.332-5.612 25.947C4012.13 1536.412 4008.607 1537.379 4005.125 1537.379zM3744.658 1219.827c-4.704 0-9.412-1.757-13.058-5.288-48.614-47.086-100.45-91.836-154.067-133.005-8.224-6.313-9.771-18.098-3.457-26.321 6.313-8.223 18.099-9.77 26.32-3.457 54.752 42.04 107.683 87.735 157.323 135.816 7.447 7.213 7.637 19.097.424 26.543C3754.462 1217.917 3749.563 1219.827 3744.658 1219.827zM738.227 2818.665c-8.935 0-16.852-6.401-18.462-15.505-12.031-68.019-20.268-137.679-24.482-207.046l-.228-3.82c-.606-10.35 7.293-19.23 17.643-19.836 10.353-.593 19.23 7.293 19.836 17.643l.223 3.733c4.128 67.947 12.195 136.174 23.978 202.787 1.806 10.209-5.006 19.948-15.215 21.754C740.413 2818.57 739.312 2818.665 738.227 2818.665zM713.672 2399.862c-.365 0-.73-.011-1.099-.032-10.35-.598-18.256-9.472-17.658-19.822 4.072-70.542 12.377-141.488 24.683-210.867 1.811-10.208 11.552-17.016 21.761-15.205 10.208 1.811 17.015 11.553 15.205 21.761-12.049 67.932-20.181 137.399-24.168 206.474C731.819 2392.153 723.543 2399.862 713.672 2399.862zM786.943 1986.899c-1.801 0-3.632-.261-5.445-.81-9.923-3.003-15.532-13.482-12.528-23.404 20.427-67.486 45.12-134.504 73.394-199.193 4.151-9.5 15.218-13.835 24.718-9.683 9.5 4.152 13.834 15.218 9.683 24.718-27.684 63.34-51.862 128.959-71.862 195.034C802.448 1981.67 794.999 1986.899 786.943 1986.899zM954.854 1602.564c-3.222 0-6.485-.83-9.466-2.575-8.947-5.238-11.954-16.736-6.716-25.683 35.623-60.852 75.252-120.274 117.788-176.616 6.247-8.274 18.018-9.917 26.292-3.671 8.273 6.247 9.917 18.018 3.671 26.292-41.656 55.177-80.466 113.37-115.351 172.962C967.579 1599.239 961.301 1602.564 954.854 1602.564zM1207.605 1267.765c-4.667 0-9.339-1.729-12.977-5.21-7.49-7.168-7.75-19.051-.582-26.541 48.81-50.999 101.129-99.629 155.505-144.54 7.994-6.603 19.825-5.474 26.427 2.52 6.602 7.993 5.474 19.825-2.519 26.427-53.251 43.982-104.49 91.607-152.291 141.552C1217.481 1265.825 1212.547 1267.765 1207.605 1267.765z" class="color132187 svgShape"></path><circle cx="2499.967" cy="2486.451" r="1313.718" fill="#c3e5fa" class="colorc3e5fa svgShape"></circle><path fill="#ffffff" d="M3975.351,3009.381c0-91.56-198.616-165.783-443.622-165.783
					c-245.005,0-443.621,74.224-443.621,165.783c0,38.548,0,293.039,0,331.567c0,38.497,0,293.09,0,331.567
					c0,38.595,0,292.993,0,331.567c0,91.559,198.616,165.783,443.621,165.783c245.006,0,443.622-74.224,443.622-165.783
					c0-38.574,0-292.972,0-331.567c0-38.477,0-293.07,0-331.567C3975.351,3302.419,3975.351,3047.929,3975.351,3009.381z" class="colorfff svgShape"></path><path fill="#132187" d="M3531.729,4188.637c-120.684,0-234.42-17.666-320.259-49.745
					c-42.9-16.031-76.858-34.944-100.929-56.212c-27.342-24.157-41.205-50.602-41.205-78.598v-994.701
					c0-27.997,13.863-54.44,41.205-78.598c24.07-21.268,58.028-40.181,100.929-56.213c85.839-32.078,199.575-49.744,320.259-49.744
					s234.421,17.666,320.26,49.744c42.9,16.032,76.858,34.945,100.929,56.213c27.342,24.157,41.205,50.601,41.205,78.598v994.701
					c0,27.996-13.863,54.44-41.205,78.598c-24.07,21.268-58.028,40.181-100.929,56.212
					C3766.149,4170.971,3652.412,4188.637,3531.729,4188.637z M3531.729,2862.369c-116.308,0-225.377,16.822-307.116,47.368
					c-38.039,14.216-68.889,31.222-89.214,49.18c-18.924,16.721-28.52,33.699-28.52,50.464v994.701
					c0,16.765,9.596,33.743,28.52,50.463c20.325,17.959,51.175,34.965,89.214,49.18c81.739,30.547,190.809,47.369,307.116,47.369
					s225.378-16.822,307.117-47.369c38.039-14.215,68.889-31.221,89.214-49.18c18.925-16.72,28.52-33.698,28.52-50.463v-994.701
					c0-16.765-9.595-33.743-28.52-50.464c-20.325-17.958-51.175-34.964-89.214-49.18
					C3757.106,2879.191,3648.037,2862.369,3531.729,2862.369z" class="color132187 svgShape"></path><ellipse cx="3531.729" cy="3009.381" fill="#64c1fa" rx="443.621" ry="165.783" class="color64c1fa svgShape"></ellipse><path fill="#132187" d="M3531.729,3193.936c-120.684,0-234.421-17.666-320.26-49.744
					c-42.9-16.032-76.858-34.945-100.93-56.213c-27.341-24.157-41.204-50.602-41.204-78.598s13.863-54.44,41.204-78.598
					c24.071-21.268,58.029-40.181,100.93-56.213c85.839-32.078,199.576-49.744,320.26-49.744s234.42,17.666,320.259,49.744
					c42.9,16.032,76.858,34.945,100.929,56.213c27.342,24.157,41.205,50.602,41.205,78.598s-13.863,54.44-41.205,78.598
					c-24.07,21.268-58.028,40.181-100.929,56.213C3766.149,3176.27,3652.413,3193.936,3531.729,3193.936z M3531.729,2862.369
					c-116.308,0-225.378,16.822-307.117,47.369c-38.038,14.215-68.889,31.221-89.214,49.18c-18.924,16.72-28.52,33.698-28.52,50.463
					s9.596,33.743,28.52,50.463c20.325,17.959,51.176,34.965,89.214,49.18c81.739,30.547,190.81,47.369,307.117,47.369
					s225.377-16.822,307.116-47.369c38.039-14.215,68.889-31.221,89.214-49.18c18.925-16.72,28.52-33.698,28.52-50.463
					s-9.595-33.743-28.52-50.463c-20.325-17.959-51.175-34.965-89.214-49.18C3757.106,2879.191,3648.037,2862.369,3531.729,2862.369
					z" class="color132187 svgShape"></path><path fill="#ffffff" d="M3975.351,3340.948c0,91.56-198.616,165.783-443.621,165.783s-443.621-74.224-443.621-165.783
					H3975.351z" class="colorfff svgShape"></path><path fill="#132187" d="M3531.729,3525.503c-120.684,0-234.421-17.666-320.26-49.744
					c-42.9-16.032-76.858-34.945-100.93-56.213c-27.341-24.157-41.204-50.602-41.204-78.598c0-10.367,8.404-18.771,18.771-18.771
					s18.771,8.404,18.771,18.771c0,16.765,9.596,33.743,28.52,50.463c20.325,17.959,51.176,34.965,89.214,49.18
					c81.739,30.547,190.81,47.369,307.117,47.369s225.377-16.822,307.116-47.369c38.039-14.215,68.889-31.221,89.214-49.18
					c18.925-16.72,28.52-33.698,28.52-50.463c0-10.367,8.404-18.771,18.771-18.771s18.771,8.404,18.771,18.771
					c0,27.996-13.863,54.44-41.205,78.598c-24.07,21.268-58.028,40.181-100.929,56.213
					C3766.149,3507.837,3652.413,3525.503,3531.729,3525.503z" class="color132187 svgShape"></path><path fill="#ffffff" d="M3975.351,3672.515c0,91.56-198.616,165.783-443.621,165.783s-443.621-74.224-443.621-165.783
					H3975.351z" class="colorfff svgShape"></path><path fill="#132187" d="M3531.729,3857.07c-120.684,0-234.421-17.667-320.26-49.745
					c-42.9-16.032-76.858-34.945-100.93-56.213c-27.341-24.157-41.204-50.602-41.204-78.598c0-10.367,8.404-18.771,18.771-18.771
					s18.771,8.404,18.771,18.771c0,16.765,9.596,33.743,28.52,50.463c20.325,17.959,51.176,34.965,89.214,49.181
					c81.74,30.547,190.81,47.369,307.117,47.369s225.377-16.822,307.116-47.369c38.039-14.216,68.889-31.222,89.214-49.181
					c18.925-16.72,28.52-33.698,28.52-50.463c0-10.367,8.404-18.771,18.771-18.771s18.771,8.404,18.771,18.771
					c0,27.996-13.863,54.44-41.204,78.598c-24.071,21.268-58.029,40.181-100.93,56.213
					C3766.149,3839.403,3652.413,3857.07,3531.729,3857.07z" class="color132187 svgShape"></path><polygon fill="#ffffff" points="2589.027 3657.441 2701.026 3657.441 2701.026 3778.07 2939.554 3422.319 2701.026 3066.563 2701.026 3187.191 2589.027 3187.191" class="colorfff svgShape"></polygon><path fill="#132187" d="M2701.025,3796.843c-1.818,0-3.657-0.265-5.463-0.813c-7.904-2.405-13.308-9.696-13.308-17.959
				v-101.857h-93.229c-10.367,0-18.771-8.404-18.771-18.771s8.404-18.771,18.771-18.771h112c10.367,0,18.771,8.404,18.771,18.771
				v58.925l197.155-294.048l-197.155-294.052v58.925c0,10.367-8.404,18.771-18.771,18.771h-112
				c-10.367,0-18.771-8.404-18.771-18.771s8.404-18.771,18.771-18.771h93.229v-101.857c0-8.263,5.403-15.554,13.309-17.959
				c7.902-2.405,16.452,0.643,21.054,7.506l238.527,355.756c4.24,6.323,4.24,14.583,0,20.907l-238.527,355.752
				C2713.067,3793.819,2707.166,3796.843,2701.025,3796.843z" class="color132187 svgShape"></path><path fill="#ffffff" d="M1996.852,2887.68c0-26.376,0-46.794,0-55.304c0-80.932-175.561-146.54-392.128-146.54
						c-216.566,0-392.127,65.608-392.127,146.54c0,34.074,0,259.024,0,293.08c0,34.028,0,259.069,0,293.08
						c0,34.115,0,258.984,0,293.08c0,62.331,104.136,115.573,250.938,136.754L1996.852,2887.68z" class="colorfff svgShape"></path><path fill="#132187" d="M1463.559,3867.143c-0.893,0-1.795-0.063-2.704-0.194
						c-75.204-10.851-139.762-29.86-186.696-54.974c-66.396-35.528-80.333-74.186-80.333-100.359v-879.24
						c0-25.398,12.502-49.322,37.158-71.107c21.478-18.976,51.722-35.831,89.894-50.096
						c76.113-28.443,176.918-44.108,283.847-44.108s207.734,15.665,283.847,44.108c38.172,14.265,68.416,31.12,89.894,50.096
						c24.656,21.785,37.158,45.709,37.158,71.107v55.305c0,10.367-8.404,18.771-18.771,18.771s-18.771-8.404-18.771-18.771v-55.305
						c0-60.433-153.332-127.769-373.356-127.769s-373.356,67.336-373.356,127.769v879.24c0,22.494,21.487,46.381,60.503,67.258
						c43.127,23.076,103.415,40.684,174.345,50.917c10.261,1.48,17.379,10.999,15.898,21.26
						C1480.765,3860.401,1472.738,3867.143,1463.559,3867.143z" class="color132187 svgShape"></path><path fill="#ffffff" d="M1457.157,4083.628c-63.731,16.739-141.404,26.566-225.218,26.566
						c-216.566,0-392.128-65.609-392.128-146.54c0-34.096,0-258.965,0-293.08c0-34.011,0-259.051,0-293.08
						c0-34.056,0-259.006,0-293.08c0-80.932,175.561-146.54,392.128-146.54c132.917,0,250.387,24.713,321.304,62.515
						L1457.157,4083.628z" class="colorfff svgShape"></path><path fill="#132187" d="M1231.939,4128.965c-106.929,0-207.735-15.665-283.848-44.108
						c-38.171-14.265-68.416-31.12-89.894-50.096c-24.656-21.785-37.158-45.709-37.158-71.107v-879.239
						c0-25.398,12.502-49.323,37.158-71.107c21.477-18.977,51.722-35.831,89.894-50.096
						c76.113-28.443,176.918-44.108,283.848-44.108c65.306,0,130.164,6.031,187.562,17.442
						c56.208,11.175,105.509,27.523,142.572,47.279c9.149,4.877,12.612,16.247,7.735,25.396c-4.877,9.148-16.247,12.61-25.395,7.735
						c-70.846-37.765-187.659-60.31-312.475-60.31c-220.024,0-373.356,67.336-373.356,127.769v879.239
						c0,60.433,153.332,127.769,373.356,127.769c79.582,0,155.812-8.973,220.45-25.949c10.029-2.63,20.291,3.36,22.924,13.387
						c2.634,10.027-3.36,20.291-13.387,22.924C1394.22,4119.565,1314.692,4128.965,1231.939,4128.965z" class="color132187 svgShape"></path><path fill="#ffffff" d="M2440.473,3142.329c0-91.56-198.616-165.783-443.622-165.783
							c-245.005,0-443.621,74.224-443.621,165.783c0,38.549,0,293.039,0,331.567c0,38.497,0,293.09,0,331.567
							c0,38.595,0,292.993,0,331.567c0,91.56,198.616,165.784,443.621,165.784c245.005,0,443.622-74.224,443.622-165.784
							c0-38.574,0-292.972,0-331.567c0-38.477,0-293.07,0-331.567C2440.473,3435.368,2440.473,3180.878,2440.473,3142.329z" class="colorfff svgShape"></path><path fill="#132187" d="M1996.852,4321.585c-120.684,0-234.42-17.666-320.259-49.745
							c-42.9-16.031-76.858-34.944-100.929-56.212c-27.341-24.157-41.205-50.602-41.205-78.598v-994.701
							c0-27.996,13.863-54.44,41.205-78.598c24.071-21.268,58.029-40.181,100.929-56.212
							c85.838-32.079,199.575-49.745,320.259-49.745s234.42,17.666,320.259,49.745c42.901,16.031,76.858,34.944,100.93,56.212
							c27.341,24.157,41.205,50.602,41.205,78.598v994.701c0,27.996-13.863,54.44-41.205,78.598
							c-24.071,21.268-58.029,40.181-100.93,56.212C2231.272,4303.919,2117.535,4321.585,1996.852,4321.585z M1996.852,2995.317
							c-116.308,0-225.377,16.822-307.117,47.369c-38.038,14.215-68.888,31.221-89.213,49.18
							c-18.924,16.72-28.52,33.698-28.52,50.463v994.701c0,16.765,9.595,33.743,28.52,50.463
							c20.326,17.959,51.175,34.965,89.213,49.18c81.74,30.547,190.809,47.369,307.117,47.369s225.377-16.822,307.117-47.369
							c38.039-14.215,68.888-31.221,89.214-49.18c18.924-16.72,28.52-33.698,28.52-50.463v-994.701
							c0-16.765-9.595-33.743-28.52-50.463c-20.326-17.959-51.175-34.965-89.214-49.18
							C2222.229,3012.14,2113.159,2995.317,1996.852,2995.317z" class="color132187 svgShape"></path><ellipse cx="1996.852" cy="3142.329" fill="#64c1fa" rx="443.621" ry="165.783" class="color64c1fa svgShape"></ellipse><path fill="#132187" d="M1996.852,3326.885c-120.684,0-234.42-17.667-320.259-49.745
							c-42.9-16.032-76.858-34.945-100.929-56.213c-27.341-24.157-41.205-50.602-41.205-78.598s13.863-54.44,41.205-78.598
							c24.071-21.268,58.029-40.181,100.929-56.213c85.839-32.078,199.575-49.744,320.259-49.744s234.42,17.666,320.259,49.744
							c42.901,16.032,76.858,34.945,100.93,56.213c27.341,24.157,41.205,50.602,41.205,78.598s-13.863,54.44-41.205,78.598
							c-24.071,21.268-58.029,40.181-100.93,56.213C2231.271,3309.218,2117.535,3326.885,1996.852,3326.885z M1996.852,2995.317
							c-116.308,0-225.377,16.822-307.117,47.369c-38.039,14.215-68.888,31.221-89.213,49.18
							c-18.924,16.72-28.52,33.698-28.52,50.463s9.595,33.743,28.52,50.463c20.326,17.959,51.175,34.965,89.213,49.181
							c81.74,30.547,190.809,47.369,307.117,47.369s225.377-16.822,307.117-47.369c38.039-14.216,68.888-31.222,89.214-49.181
							c18.924-16.72,28.52-33.698,28.52-50.463s-9.595-33.743-28.52-50.463c-20.326-17.959-51.175-34.965-89.214-49.18
							C2222.229,3012.14,2113.159,2995.317,1996.852,2995.317z" class="color132187 svgShape"></path><path fill="#ffffff" d="M2440.473,3473.896c0,91.56-198.616,165.783-443.622,165.783
							c-245.005,0-443.621-74.224-443.621-165.783H2440.473z" class="colorfff svgShape"></path><path fill="#132187" d="M1996.852,3658.451c-120.684,0-234.42-17.666-320.259-49.744
							c-42.9-16.032-76.858-34.945-100.929-56.213c-27.341-24.157-41.205-50.602-41.205-78.598c0-10.367,8.404-18.771,18.771-18.771
							s18.771,8.404,18.771,18.771c0,16.765,9.595,33.743,28.52,50.463c20.326,17.959,51.175,34.965,89.213,49.18
							c81.74,30.547,190.809,47.369,307.117,47.369s225.377-16.822,307.117-47.369c38.039-14.215,68.888-31.221,89.214-49.18
							c18.924-16.72,28.52-33.698,28.52-50.463c0-10.367,8.404-18.771,18.771-18.771s18.771,8.404,18.771,18.771
							c0,27.996-13.863,54.44-41.205,78.598c-24.071,21.268-58.029,40.181-100.93,56.213
							C2231.272,3640.785,2117.535,3658.451,1996.852,3658.451z" class="color132187 svgShape"></path><path fill="#ffffff" d="M2440.473,3805.464c0,91.56-198.616,165.784-443.622,165.784
							c-245.005,0-443.621-74.224-443.621-165.784H2440.473z" class="colorfff svgShape"></path><path fill="#132187" d="M1996.852,3990.019c-120.684,0-234.42-17.666-320.259-49.744
							c-42.9-16.032-76.858-34.945-100.929-56.213c-27.341-24.157-41.205-50.602-41.205-78.598c0-10.367,8.404-18.771,18.771-18.771
							s18.771,8.404,18.771,18.771c0,16.765,9.595,33.743,28.52,50.463c20.326,17.959,51.175,34.965,89.213,49.18
							c81.74,30.547,190.809,47.369,307.117,47.369s225.377-16.822,307.117-47.369c38.039-14.215,68.888-31.221,89.214-49.18
							c18.924-16.72,28.52-33.698,28.52-50.463c0-10.367,8.404-18.771,18.771-18.771s18.771,8.404,18.771,18.771
							c0,27.996-13.863,54.44-41.205,78.598c-24.071,21.268-58.029,40.181-100.93,56.213
							C2231.272,3972.353,2117.535,3990.019,1996.852,3990.019z" class="color132187 svgShape"></path><g><path fill="#ffffff" d="M1441.158,3194.551c-62.014,15.987-137.482,25.365-218.89,25.365
					c-211.225,0-382.457-63.137-382.457-141.021L1441.158,3194.551z" class="colorfff svgShape"></path><path fill="#132187" d="M1222.268,3238.688c-104.318,0-202.668-15.08-276.932-42.463
					c-37.273-13.744-66.815-29.99-87.805-48.288c-24.214-21.108-36.492-44.337-36.492-69.041c0-10.367,8.404-18.771,18.771-18.771
					s18.771,8.404,18.771,18.771c0,28.383,37.287,59.076,99.742,82.104c70.209,25.888,163.946,40.145,263.943,40.145
					c77.274,0,151.345-8.565,214.205-24.771c10.037-2.589,20.275,3.451,22.863,13.491c2.588,10.038-3.452,20.274-13.491,22.862
					C1379.968,3229.711,1302.657,3238.688,1222.268,3238.688z" class="color132187 svgShape"></path></g><g><path fill="#fffb75" d="M3015.649,1345.52l188.737-188.737c8.921-8.921,23.386-8.921,32.307,0l85.745,85.745
					c14.207,14.207,38.515,4.475,38.992-15.611l9.77-411.526c0.31-13.039-10.342-23.69-23.38-23.38l-411.53,9.766
					c-20.086,0.477-29.819,24.784-15.612,38.992l85.741,85.741c8.921,8.921,8.921,23.386,0,32.307l-188.737,188.737
					L3015.649,1345.52z" class="colorfffb75 svgShape"></path><path fill="#132187" d="M3015.649,1364.291c-4.804,0-9.608-1.833-13.273-5.498c-7.331-7.331-7.331-19.216,0-26.547
					l188.736-188.737c16.227-16.223,42.629-16.226,58.854,0l85.745,85.746c1.26,1.26,2.739,1.564,4.395,0.901
					s2.516-1.902,2.559-3.685l9.77-411.526c0.034-1.441-0.63-2.415-1.192-2.977c-0.563-0.563-1.539-1.216-2.977-1.192
					l-411.529,9.767c-1.782,0.042-3.022,0.903-3.686,2.558c-0.662,1.655-0.359,3.133,0.901,4.394l85.74,85.741
					c7.86,7.86,12.189,18.311,12.189,29.427s-4.328,21.567-12.188,29.427l-188.737,188.737c-7.33,7.331-19.215,7.331-26.547,0
					c-7.331-7.331-7.331-19.216,0-26.547l188.737-188.737c0.985-0.985,1.192-2.11,1.192-2.879c0-0.77-0.207-1.895-1.193-2.881
					l-85.74-85.741c-11.973-11.973-15.501-29.176-9.207-44.895s20.72-25.734,37.647-26.136l411.529-9.767
					c11.299-0.281,22.406,4.169,30.414,12.177c8.008,8.008,12.446,19.093,12.177,30.415l-9.77,411.526
					c-0.401,16.927-10.415,31.353-26.134,37.646c-15.721,6.294-32.924,2.767-44.896-9.207l-85.745-85.746
					c-1.588-1.588-4.172-1.587-5.762,0l-188.735,188.737C3025.258,1362.458,3020.453,1364.291,3015.649,1364.291z" class="color132187 svgShape"></path><path fill="#fffb75" d="M1998.696,1966.546l-188.737,188.737c-8.921,8.921-23.386,8.921-32.307,0l-85.745-85.745
					c-14.207-14.207-38.515-4.475-38.992,15.611l-9.77,411.527c-0.31,13.039,10.341,23.69,23.38,23.38l411.53-9.767
					c20.086-0.477,29.819-24.784,15.612-38.992l-85.74-85.74c-8.921-8.921-8.921-23.386,0-32.307l188.737-188.737L1998.696,1966.546
					z" class="colorfffb75 svgShape"></path><path fill="#132187" d="M1665.999,2538.833c-10.981,0-21.663-4.41-29.442-12.188
					c-8.007-8.008-12.446-19.094-12.177-30.415l9.77-411.526c0.402-16.928,10.416-31.353,26.135-37.647s32.923-2.766,44.896,9.208
					l85.745,85.745c0.986,0.986,2.11,1.193,2.88,1.193c0.77,0,1.895-0.207,2.88-1.193l188.737-188.737
					c7.331-7.33,19.216-7.33,26.547,0c7.331,7.331,7.331,19.216,0,26.547l-188.737,188.737c-16.227,16.227-42.627,16.226-58.854,0
					l-85.745-85.745c-1.261-1.261-2.739-1.563-4.395-0.901c-1.655,0.663-2.516,1.902-2.558,3.685l-9.77,411.527
					c-0.034,1.441,0.629,2.414,1.192,2.977c0.562,0.563,1.521,1.195,2.977,1.192l411.53-9.767c1.782-0.042,3.022-0.903,3.685-2.558
					c0.663-1.655,0.359-3.133-0.901-4.394l-85.741-85.741c-16.226-16.226-16.226-42.627-0.001-58.854l188.738-188.737
					c7.331-7.332,19.216-7.33,26.547,0c7.331,7.331,7.331,19.216,0,26.547L2021.2,2366.523c-1.588,1.588-1.588,4.172,0,5.76
					l85.74,85.741c11.973,11.973,15.501,29.175,9.208,44.895c-6.294,15.72-20.719,25.734-37.647,26.136l-411.53,9.767
					C1666.647,2538.829,1666.323,2538.833,1665.999,2538.833z" class="color132187 svgShape"></path><path fill="#fffb75" d="M2158.241,1147.556l-188.737-188.737c-8.921-8.921-8.921-23.386,0-32.307l85.745-85.745
					c14.207-14.207,4.475-38.515-15.611-38.992l-411.526-9.77c-13.039-0.309-23.69,10.342-23.381,23.38l9.767,411.53
					c0.477,20.087,24.784,29.819,38.992,15.612l85.74-85.741c8.921-8.921,23.386-8.921,32.307,0l188.737,188.737L2158.241,1147.556z
					" class="colorfffb75 svgShape"></path><path fill="#132187" d="M1960.273,1364.295c-4.804,0-9.608-1.833-13.273-5.498l-188.737-188.737
					c-1.587-1.587-4.171-1.588-5.76,0l-85.741,85.741c-11.974,11.973-29.176,15.5-44.895,9.208
					c-15.72-6.293-25.735-20.719-26.137-37.647l-9.766-411.53c-0.269-11.321,4.169-22.406,12.177-30.414
					c8.008-8.007,19.097-12.438,30.415-12.178l411.527,9.77c16.928,0.402,31.353,10.416,37.647,26.135
					c6.293,15.719,2.766,32.922-9.208,44.896l-85.745,85.745c-1.588,1.588-1.588,4.172,0,5.76l188.737,188.737
					c7.331,7.331,7.331,19.216,0,26.547c-7.331,7.331-19.216,7.331-26.547,0L1956.23,972.093c-16.226-16.226-16.226-42.628,0-58.854
					l85.745-85.745c1.261-1.261,1.564-2.739,0.901-4.394c-0.663-1.655-1.902-2.515-3.685-2.558l-411.527-9.77
					c-1.435-0.031-2.414,0.63-2.977,1.192s-1.226,1.536-1.192,2.977l9.766,411.53c0.042,1.782,0.903,3.022,2.558,3.685
					c1.653,0.662,3.133,0.36,4.394-0.901l85.741-85.741c16.226-16.226,42.627-16.226,58.854,0l188.737,188.737
					c7.331,7.331,7.331,19.216,0,26.547C1969.881,1362.462,1965.078,1364.295,1960.273,1364.295z" class="color132187 svgShape"></path><path fill="#fffb75" d="M2817.686,2202.927l188.737,188.737c8.921,8.921,8.921,23.385,0,32.307l-85.745,85.745
					c-14.207,14.207-4.475,38.515,15.612,38.992l411.526,9.77c13.039,0.309,23.69-10.342,23.38-23.38l-9.766-411.53
					c-0.477-20.086-24.784-29.819-38.992-15.612l-85.74,85.741c-8.921,8.921-23.386,8.921-32.307,0l-188.737-188.737
					L2817.686,2202.927z" class="colorfffb75 svgShape"></path><path fill="#132187" d="M3348.342,2577.255c-0.324,0-0.647-0.004-0.972-0.011l-411.526-9.77
					c-16.928-0.402-31.353-10.417-37.646-26.136c-6.294-15.72-2.766-32.923,9.207-44.896l85.745-85.745
					c1.588-1.588,1.588-4.172,0-5.761l-188.736-188.736c-7.33-7.331-7.33-19.216,0-26.547s19.215-7.331,26.547,0l188.736,188.737
					c16.225,16.226,16.225,42.627,0.001,58.853l-85.746,85.746c-1.261,1.261-1.563,2.739-0.901,4.394
					c0.663,1.655,1.902,2.516,3.685,2.558l411.526,9.77c1.471,0.039,2.415-0.629,2.978-1.191s1.227-1.535,1.191-2.977l-9.766-411.53
					c-0.043-1.782-0.903-3.022-2.559-3.685c-1.655-0.662-3.135-0.359-4.395,0.901l-85.74,85.74
					c-7.859,7.86-18.311,12.189-29.427,12.189s-21.567-4.329-29.427-12.189l-188.737-188.736c-7.33-7.331-7.331-19.216,0-26.547
					c7.33-7.33,19.217-7.33,26.547,0l188.737,188.737c0.986,0.986,2.11,1.193,2.88,1.193s1.894-0.207,2.88-1.193l85.74-85.741
					c11.974-11.973,29.177-15.501,44.896-9.208c15.72,6.294,25.733,20.719,26.136,37.647l9.767,411.53
					c0.269,11.32-4.17,22.406-12.178,30.414C3370.007,2572.844,3359.323,2577.255,3348.342,2577.255z" class="color132187 svgShape"></path><circle cx="2507.173" cy="1659.05" r="503.434" fill="#64c1fa" class="color64c1fa svgShape"></circle><path fill="#132187" d="M2507.173,2181.255c-70.489,0-138.879-13.81-203.271-41.045
					c-62.186-26.302-118.031-63.953-165.983-111.905c-47.952-47.953-85.603-103.797-111.905-165.983
					c-27.236-64.392-41.045-132.783-41.045-203.271s13.81-138.879,41.045-203.271c26.302-62.186,63.953-118.031,111.905-165.983
					c47.953-47.952,103.797-85.603,165.983-111.905c64.392-27.236,132.783-41.045,203.271-41.045
					c70.489,0,138.88,13.81,203.271,41.045c62.187,26.302,118.031,63.953,165.983,111.905s85.603,103.797,111.905,165.983
					c27.235,64.392,41.045,132.783,41.045,203.271s-13.81,138.879-41.045,203.271c-26.303,62.186-63.953,118.031-111.905,165.983
					c-47.952,47.952-103.797,85.603-165.983,111.905C2646.053,2167.446,2577.662,2181.255,2507.173,2181.255z M2507.173,1174.388
					c-267.244,0-484.662,217.418-484.662,484.662s217.418,484.662,484.662,484.662c267.244,0,484.662-217.418,484.662-484.662
					S2774.417,1174.388,2507.173,1174.388z" class="color132187 svgShape"></path><path fill="#ffffff" d="M2585.2,1899.94v-376.039h-240.147c-11.251,0-20.373,9.121-20.373,20.373v44.101
						c0,11.252,9.121,20.374,20.373,20.374h84.095v291.191h-84.095c-11.251,0-20.373,9.121-20.373,20.373v44.101
						c0,11.252,9.121,20.373,20.373,20.373h324.24c11.252,0,20.373-9.121,20.373-20.373v-44.101
						c0-11.252-9.121-20.373-20.373-20.373H2585.2z" class="colorfff svgShape"></path><path fill="#132187" d="M2669.292,2003.56h-324.239c-21.584,0-39.145-17.561-39.145-39.145v-44.101
						c0-21.584,17.56-39.145,39.145-39.145h65.323v-253.648h-65.323c-21.584,0-39.145-17.561-39.145-39.145v-44.101
						c0-21.584,17.56-39.145,39.145-39.145H2585.2c10.367,0,18.771,8.404,18.771,18.771v357.268h65.32
						c21.585,0,39.146,17.561,39.146,39.145v44.101C2708.438,1986,2690.877,2003.56,2669.292,2003.56z M2345.053,1918.712
						c-0.883,0-1.602,0.719-1.602,1.602v44.101c0,0.883,0.718,1.602,1.602,1.602h324.239c0.884,0,1.603-0.719,1.603-1.602v-44.101
						c0-0.883-0.719-1.602-1.603-1.602H2585.2c-10.367,0-18.771-8.404-18.771-18.771v-357.268h-221.375
						c-0.883,0-1.602,0.719-1.602,1.602v44.101c0,0.883,0.718,1.602,1.602,1.602h84.095c10.367,0,18.771,8.404,18.771,18.771
						v291.191c0,10.367-8.404,18.771-18.771,18.771H2345.053z" class="color132187 svgShape"></path><circle cx="2507.173" cy="1360.808" r="86.804" fill="#ffffff" transform="rotate(-78.399 2507.166 1360.757)" class="colorfff svgShape"></circle><path fill="#132187" d="M2507.173,1466.384c-58.214,0-105.576-47.361-105.576-105.576s47.361-105.576,105.576-105.576
						c58.215,0,105.576,47.361,105.576,105.576S2565.388,1466.384,2507.173,1466.384z M2507.173,1292.775
						c-37.514,0-68.033,30.519-68.033,68.033s30.519,68.033,68.033,68.033s68.033-30.519,68.033-68.033
						S2544.687,1292.775,2507.173,1292.775z" class="color132187 svgShape"></path></g></svg>