<svg xmlns="http://www.w3.org/2000/svg" enable-background="new 0 0 5000 5000" viewBox="0 0 5000 5000" width="256" height="256"><path fill="#2e20b0" d="M2529.1 4212.19c-1.658 0-3.318-.002-4.979-.007-9.985-.029-18.057-8.148-18.026-18.134.029-9.967 8.119-18.026 18.079-18.026.019 0 .036 0 .055 0 1.625.005 3.248.007 4.871.007 63.718-.001 127.943-3.568 190.894-10.604 9.916-1.113 18.867 6.036 19.977 15.961 1.108 9.924-6.037 18.867-15.961 19.977C2659.73 4208.547 2594.153 4212.189 2529.1 4212.19zM2917.248 4168.168c-8.23 0-15.672-5.656-17.602-14.019-2.245-9.729 3.821-19.438 13.552-21.683 63.464-14.646 126.75-33.172 188.1-55.062 9.409-3.354 19.749 1.55 23.105 10.953 3.355 9.405-1.549 19.749-10.953 23.104-62.661 22.357-127.3 41.279-192.121 56.238C2919.962 4168.017 2918.594 4168.168 2917.248 4168.168zM3289.802 4035.269c-6.666.001-13.078-3.701-16.228-10.084-4.419-8.954-.741-19.796 8.214-24.214 58.225-28.729 115.456-61.182 170.105-96.454 3.037-1.96 6.609-2.956 10.207-2.886l.482.011c9.983.223 17.896 8.495 17.674 18.479-.164 7.356-4.7 13.589-11.07 16.271-55.105 35.442-112.761 68.075-171.398 97.008C3295.216 4034.668 3292.488 4035.269 3289.802 4035.269zM3529.872 1086.068c-3.643 0-7.319-1.097-10.508-3.379-53.013-37.943-108.769-73.18-165.719-104.732-8.735-4.839-11.893-15.843-7.054-24.578 4.838-8.734 15.841-11.893 24.577-7.053 58.162 32.223 115.104 68.209 169.242 106.958 8.12 5.812 9.991 17.106 4.179 25.226C3541.061 1083.441 3535.508 1086.068 3529.872 1086.068zM3183.836 894.389c-2.291 0-4.62-.438-6.871-1.364-60.228-24.773-122.573-46.29-185.304-63.954-9.611-2.706-15.21-12.692-12.503-22.304 2.707-9.611 12.69-15.208 22.304-12.503 64.069 18.04 127.745 40.017 189.259 65.318 9.234 3.798 13.642 14.364 9.843 23.599C3197.691 890.166 3190.947 894.389 3183.836 894.389zM819.292 2813.884c-9.373 0-17.299-7.232-18.01-16.731l-11.643-155.584c-1.128-15.076-2.033-28.976-2.769-42.493-.542-9.971 7.101-18.493 17.072-19.035 9.98-.547 18.494 7.102 19.036 17.072.722 13.271 1.612 26.93 2.721 41.758l11.643 155.583c.745 9.958-6.723 18.635-16.681 19.38C820.203 2813.867 819.746 2813.884 819.292 2813.884zM806.367 2418.05c-.251 0-.501-.005-.755-.016-9.977-.41-17.733-8.83-17.323-18.807 1.488-36.238 4.155-72.944 7.924-109.1 3.341-32.05 7.219-61.555 11.855-90.2 1.596-9.857 10.875-16.556 20.737-14.959 9.857 1.596 16.555 10.88 14.959 20.737-4.527 27.965-8.317 56.806-11.586 88.17-3.691 35.406-6.302 71.351-7.76 106.835C824.02 2410.436 816.01 2418.05 806.367 2418.05z" class="color2e20b0 svgShape"></path><circle cx="2528.269" cy="2470.696" r="1265.352" fill="#a0eef2" class="colora0eef2 svgShape"></circle><path fill="#ffffff" d="M1927.633,766.399h-656.902c-51.965,0-94.09,42.126-94.09,94.09v993.14
					c0,51.906,42.078,93.983,93.983,93.983h540.101v129.888h-138.598c-16.1,0-29.152,13.052-29.152,29.152v84.239
					c0,16.1,13.052,29.152,29.152,29.152h671.147c16.1,0,29.152-13.052,29.152-29.152v-84.239c0-16.1-13.052-29.152-29.152-29.152
					h-138.597v-129.888h539.992c51.965,0,94.09-42.126,94.09-94.09v-993.14c0-51.905-42.078-93.983-93.983-93.983h-647.677H1927.633
					z" class="colorfff svgShape"></path><path fill="#2e20b0" d="M2343.274,2238.124h-671.147c-26.044,0-47.232-21.188-47.232-47.232v-84.239
					c0-26.044,21.188-47.232,47.232-47.232h120.517v-93.727h-522.02c-61.792,0-112.064-50.272-112.064-112.064V860.49
					c0-61.851,50.32-112.17,112.171-112.17h1474.044c61.792,0,112.063,50.271,112.063,112.063v993.14
					c0,61.851-50.319,112.171-112.17,112.171h-521.912v93.727h120.517c26.044,0,47.233,21.188,47.233,47.232v84.239
					C2390.507,2216.936,2369.318,2238.124,2343.274,2238.124z M1672.127,2095.582c-6.105,0-11.071,4.966-11.071,11.071v84.239
					c0,6.105,4.966,11.072,11.071,11.072h671.147c6.105,0,11.072-4.967,11.072-11.072v-84.239c0-6.105-4.967-11.071-11.072-11.071
					h-138.598c-9.985,0-18.08-8.095-18.08-18.081v-129.888c0-9.986,8.095-18.081,18.08-18.081h539.993
					c41.912,0,76.01-34.098,76.01-76.01v-993.14c0-41.853-34.05-75.903-75.903-75.903H1270.731c-41.912,0-76.01,34.098-76.01,76.01
					v993.14c0,41.853,34.05,75.903,75.903,75.903h540.101c9.986,0,18.081,8.095,18.081,18.081v129.888
					c0,9.985-8.095,18.081-18.081,18.081H1672.127z" class="color2e20b0 svgShape"></path><path fill="#ffffff" d="M2600.485,1819.527c44.932,0,81.354-35.876,81.354-80.131V975.149
					c0-34.644-28.513-62.729-63.686-62.729H1397.178c-35.136,0-63.617,28.055-63.617,62.661v764.304
					c0,44.261,36.428,80.141,81.363,80.141H2600.485z" class="colorfff svgShape"></path><path fill="#2e20b0" d="M2600.485,1837.607H1414.924c-54.833,0-99.444-44.062-99.444-98.221V975.082
					c0-44.521,36.649-80.742,81.698-80.742h1220.976c45.086,0,81.766,36.25,81.766,80.809v764.247
					C2699.92,1793.55,2655.313,1837.607,2600.485,1837.607z M1397.178,930.5c-25.109,0-45.537,20-45.537,44.582v764.304
					c0,34.22,28.388,62.061,63.283,62.061h1185.561c34.89,0,63.274-27.836,63.274-62.051V975.149
					c0-24.619-20.459-44.648-45.605-44.648H1397.178z" class="color2e20b0 svgShape"></path><path fill="#ffca61" d="M1854.931,2153.995c0,84.497-67.071,152.995-149.807,152.995h-4.156
					c-59.518,0-113.391-35.983-137.247-91.672l-19.435-45.368c-23.856-55.688-77.729-91.672-137.247-91.672h0
					c-59.518,0-113.391,35.983-137.247,91.672l-19.435,45.368c-23.856,55.688-77.729,91.672-137.247,91.672h-4.156
					c-82.736,0-149.807-68.498-149.807-152.995v-325.869c0-106.577,84.598-192.975,188.955-192.975h510.877h0
					c108.222,0,195.953,87.731,195.953,195.953v0V2153.995z" class="colorffca61 svgShape"></path><path fill="#2e20b0" d="M1705.124,2325.07h-4.156c-66.762,0-127.158-40.285-153.867-102.632l-19.435-45.368
					c-21.003-49.03-68.353-80.711-120.627-80.711s-99.624,31.681-120.627,80.711l-19.435,45.368
					c-26.708,62.347-87.104,102.632-153.867,102.632h-4.156c-92.574,0-167.888-76.744-167.888-171.075v-325.869
					c0-116.376,92.876-211.055,207.035-211.055h510.877c57.17,0,110.919,22.263,151.345,62.688
					c40.425,40.425,62.689,94.174,62.689,151.344v322.891C1873.012,2248.327,1797.698,2325.07,1705.124,2325.07z M1407.039,2060.199
					c66.762,0,127.158,40.285,153.867,102.632l19.435,45.368c21.003,49.03,68.353,80.71,120.627,80.71h4.156
					c72.634,0,131.727-60.522,131.727-134.914v-322.891c0-98.08-79.793-177.873-177.872-177.873h-510.877
					c-94.22,0-170.875,78.457-170.875,174.894v325.869c0,74.392,59.093,134.914,131.728,134.914h4.156
					c52.275,0,99.624-31.681,120.627-80.71l19.435-45.368C1279.881,2100.484,1340.277,2060.199,1407.039,2060.199z" class="color2e20b0 svgShape"></path><path fill="#ffffff" d="M1109.419,1836.068h40.904v-40.905c0-26.015,21.09-47.106,47.106-47.106
					c26.016,0,47.106,21.091,47.106,47.106v40.905h40.904c26.016,0,47.106,21.089,47.106,47.106l0,0
					c0,26.017-21.09,47.106-47.106,47.106h-40.904v40.904c0,26.015-21.09,47.106-47.106,47.106
					c-26.016,0-47.106-21.091-47.106-47.106v-40.904h-40.904c-26.016,0-47.106-21.089-47.106-47.106l0,0
					C1062.313,1857.157,1083.403,1836.068,1109.419,1836.068z" class="colorfff svgShape"></path><path fill="#2e20b0" d="M1197.428,2036.369c-35.943,0-65.186-29.243-65.186-65.186v-22.823h-22.823
					c-35.943,0-65.186-29.243-65.186-65.187s29.243-65.186,65.186-65.186h22.823v-22.825c0-35.944,29.243-65.187,65.186-65.187
					c35.944,0,65.187,29.243,65.187,65.187v22.825h22.824c35.944,0,65.186,29.242,65.186,65.186s-29.242,65.187-65.186,65.187
					h-22.824v22.823C1262.614,2007.126,1233.372,2036.369,1197.428,2036.369z M1109.418,1854.147
					c-16.004,0-29.025,13.021-29.025,29.026s13.021,29.025,29.025,29.025h40.904c9.985,0,18.081,8.095,18.081,18.081v40.904
					c0,16.004,13.021,29.025,29.025,29.025c16.005,0,29.025-13.021,29.025-29.025v-40.904c0-9.985,8.095-18.081,18.081-18.081
					h40.904c16.005,0,29.026-13.021,29.026-29.025s-13.021-29.026-29.026-29.026h-40.904c-9.985,0-18.081-8.095-18.081-18.08
					v-40.905c0-16.005-13.021-29.025-29.025-29.025c-16.004,0-29.025,13.021-29.025,29.025v40.905c0,9.985-8.095,18.08-18.081,18.08
					H1109.418z" class="color2e20b0 svgShape"></path><path fill="#ffffff" d="M1514.81,1912.096l28.923-28.923l-28.924-28.924c-18.396-18.395-18.396-48.222,0-66.618
					c18.396-18.396,48.222-18.395,66.618,0l28.924,28.924l28.924-28.924c18.396-18.396,48.221-18.396,66.618,0l0,0
					c18.397,18.396,18.396,48.222,0,66.618l-28.924,28.924l28.923,28.923c18.396,18.395,18.396,48.222,0,66.618
					c-18.396,18.396-48.222,18.395-66.618,0l-28.923-28.923l-28.923,28.923c-18.396,18.396-48.221,18.396-66.618,0l0,0
					C1496.414,1960.317,1496.414,1930.492,1514.81,1912.096z" class="colorfff svgShape"></path><path fill="#2e20b0" d="M1548.119,2010.591c-17.412,0-33.782-6.78-46.094-19.093
					c-12.313-12.312-19.093-28.682-19.093-46.094s6.781-33.781,19.093-46.093l16.139-16.139l-16.14-16.14
					c-12.312-12.312-19.092-28.681-19.092-46.093c0-17.412,6.78-33.782,19.092-46.094c12.311-12.311,28.682-19.092,46.093-19.092
					c0.001,0,0,0,0,0c17.412,0,33.781,6.781,46.093,19.093l16.14,16.139l16.139-16.139c12.312-12.312,28.682-19.093,46.093-19.093
					c17.412,0,33.782,6.781,46.094,19.093c25.416,25.415,25.416,66.77,0,92.187l-16.14,16.139l16.139,16.139
					c25.416,25.417,25.416,66.771,0,92.187c-25.417,25.416-66.771,25.416-92.187,0l-16.139-16.139l-16.139,16.139
					C1581.9,2003.811,1565.531,2010.591,1548.119,2010.591z M1548.118,1791.915c-7.753,0-15.042,3.019-20.524,8.501
					c-5.482,5.482-8.501,12.771-8.501,20.524s3.019,15.042,8.501,20.524l28.924,28.924c7.061,7.061,7.061,18.509,0,25.569
					l-28.923,28.923c-5.482,5.482-8.501,12.771-8.501,20.524c0,7.753,3.019,15.042,8.501,20.524s12.771,8.501,20.524,8.501
					c7.752,0,15.042-3.019,20.524-8.501l28.923-28.923c7.061-7.061,18.509-7.061,25.569,0l28.923,28.923
					c11.317,11.316,29.731,11.317,41.048,0c11.317-11.317,11.317-29.731,0-41.048l-28.923-28.923
					c-3.391-3.391-5.296-7.99-5.295-12.785c0-4.795,1.905-9.394,5.295-12.785l28.924-28.923c11.317-11.317,11.317-29.731,0-41.048
					c-5.482-5.482-12.771-8.502-20.524-8.502c-7.752,0-15.042,3.02-20.524,8.502l-28.924,28.923c-7.061,7.061-18.509,7.061-25.569,0
					l-28.924-28.924C1563.16,1794.934,1555.871,1791.915,1548.118,1791.915z" class="color2e20b0 svgShape"></path><circle cx="2019.529" cy="1314.782" r="298.767" fill="#ffffff" class="colorfff svgShape"></circle><path fill="#2e20b0" d="M2019.529,1631.629c-84.633,0-164.2-32.958-224.045-92.802
					c-59.844-59.845-92.802-139.412-92.802-224.045s32.958-164.2,92.802-224.045c59.845-59.844,139.412-92.802,224.045-92.802
					s164.2,32.958,224.045,92.802c59.844,59.845,92.802,139.412,92.802,224.045s-32.958,164.2-92.802,224.045
					C2183.729,1598.671,2104.162,1631.629,2019.529,1631.629z M2019.529,1034.096c-154.771,0-280.686,125.915-280.686,280.686
					s125.915,280.686,280.686,280.686s280.686-125.915,280.686-280.686S2174.3,1034.096,2019.529,1034.096z" class="color2e20b0 svgShape"></path><path fill="#a19ff7" d="M2299.432,1103.458L2299.432,1103.458c-25.165-25.164-65.941-25.164-91.106,0l-200.885,200.886
					l-74.617-74.605c-25.165-25.165-65.939-25.165-91.104,0c-25.153,25.142-25.153,65.927,0,91.093l114.707,114.697
					c13.974,13.974,32.757,19.905,51.015,18.342c18.257,1.563,37.039-4.368,51.013-18.342l240.978-240.964
					C2324.584,1169.399,2324.584,1128.623,2299.432,1103.458z" class="colora19ff7 svgShape"></path><path fill="#2e20b0" d="M2001.749,1472.194c-21.866,0-42.723-8.498-58.107-23.882l-114.707-114.696
					c-32.166-32.181-32.163-84.516,0.002-116.666c32.165-32.164,84.503-32.163,116.671,0.003l61.832,61.822l188.101-188.103
					c32.167-32.166,84.508-32.166,116.675,0c0.001,0.001,0.003,0.002,0.004,0.004c32.148,32.166,32.148,84.503,0,116.668
					l-240.981,240.968c-16.713,16.714-39.886,25.304-63.796,23.689C2005.539,1472.131,2003.64,1472.194,2001.749,1472.194z
					 M1887.271,1228.973c-11.867,0-23.733,4.517-32.767,13.551c-18.066,18.058-18.063,47.451,0.003,65.526l114.704,114.693
					c9.515,9.515,22.885,14.292,36.688,13.113c1.026-0.088,2.059-0.088,3.084,0c13.804,1.183,27.171-3.599,36.686-13.113
					l240.978-240.964c18.057-18.066,18.057-47.469-0.004-65.54c-18.069-18.064-47.465-18.063-65.534,0.004l-200.884,200.886
					c-7.061,7.061-18.508,7.061-25.568,0.001l-74.617-74.605C1911.006,1233.49,1899.138,1228.973,1887.271,1228.973z" class="color2e20b0 svgShape"></path><g><path fill="#ffca61" d="M2243.942,4081.535c-16.382,11.542-33.543,21.093-51.124,29.152l-6.96,103.255
					c-28.17,8.968-57.621,15.278-88.283,18.051c-30.663,2.772-60.768,1.849-90.092-1.921l-25.381-100.386
					c-37.789-9.569-73.806-26.15-106.223-49.202l-92.997,45.65c-21.851-19.912-42.042-42.263-59.774-67.431
					c-17.733-25.169-31.985-51.703-43.382-78.981l74.285-72.209c-10.798-38.284-14.291-77.78-10.584-116.585l-85.989-57.685
					c6.318-28.881,15.581-57.542,28.51-85.483c12.931-27.941,28.784-53.552,46.709-77.058l99.574,28.196
					c13.505-13.843,28.276-26.788,44.658-38.33c16.381-11.542,33.543-21.094,51.124-29.152l6.959-103.256
					c28.17-8.969,57.622-15.277,88.284-18.05c30.663-2.772,60.768-1.85,90.091,1.92l25.381,100.387
					c37.79,9.569,73.805,26.149,106.222,49.201l92.997-45.65c21.851,19.913,42.042,42.263,59.774,67.432
					c17.732,25.168,31.984,51.703,43.381,78.981l-74.284,72.209c10.798,38.284,14.292,77.781,10.585,116.586l85.987,57.684
					c-6.317,28.881-15.579,57.541-28.509,85.482c-12.931,27.941-28.784,53.55-46.708,77.058l-99.574-28.196
					C2275.093,4057.047,2260.323,4069.994,2243.942,4081.535z" class="colorffca61 svgShape"></path><path fill="#2e20b0" d="M2061.795,4251.67c-18.686,0-37.62-1.223-56.617-3.665c-7.366-0.946-13.403-6.301-15.224-13.501
					l-22.787-90.13c-32.95-9.484-64.085-23.91-92.813-43l-83.503,40.99c-6.666,3.271-14.656,2.136-20.145-2.866
					c-23.706-21.602-44.692-45.282-62.376-70.383c-17.684-25.099-32.92-52.83-45.284-82.424c-2.863-6.852-1.245-14.758,4.08-19.935
					l66.702-64.838c-8.309-33.477-11.414-67.65-9.257-101.87l-77.203-51.791c-6.167-4.137-9.177-11.624-7.59-18.879
					c6.853-31.324,16.867-61.34,29.764-89.212c12.901-27.874,29.299-54.934,48.741-80.429c4.502-5.905,12.157-8.455,19.303-6.433
					l89.395,25.313c12.691-12.265,25.941-23.28,39.497-32.831c13.558-9.553,28.392-18.322,44.209-26.145l6.248-92.699
					c0.5-7.409,5.478-13.759,12.554-16.013c30.55-9.728,61.551-16.063,92.142-18.828c30.585-2.766,62.22-2.095,94.024,1.994
					c7.366,0.946,13.403,6.301,15.224,13.501l22.788,90.131c32.951,9.484,64.085,23.91,92.812,42.999l83.504-40.99
					c6.667-3.273,14.656-2.136,20.146,2.866c23.706,21.603,44.692,45.282,62.376,70.381c17.685,25.101,32.92,52.832,45.284,82.426
					c2.863,6.852,1.245,14.758-4.081,19.935l-66.702,64.838c8.309,33.478,11.415,67.651,9.257,101.871l77.202,51.79
					c6.167,4.137,9.177,11.624,7.59,18.878c-6.852,31.325-16.866,61.34-29.763,89.212c-12.896,27.867-29.295,54.927-48.739,80.429
					c-4.503,5.906-12.16,8.455-19.304,6.434l-89.396-25.313c-12.696,12.269-25.946,23.285-39.497,32.832h0
					c-13.551,9.548-28.384,18.317-44.209,26.144l-6.248,92.699c-0.5,7.409-5.479,13.76-12.555,16.013
					c-30.563,9.729-61.563,16.064-92.14,18.829C2086.886,4251.114,2074.397,4251.67,2061.795,4251.67z M2021.949,4213.522
					c25.08,2.483,49.917,2.641,73.998,0.464c24.076-2.177,48.48-6.788,72.712-13.73l6.119-90.784
					c0.446-6.616,4.478-12.456,10.505-15.22c17.757-8.141,33.538-17.135,48.245-27.497h0c14.707-10.361,28.487-22.194,42.129-36.177
					c4.631-4.745,11.487-6.573,17.867-4.77l87.549,24.79c14.689-20.478,27.245-41.909,37.4-63.851
					c10.155-21.945,18.365-45.387,24.466-69.837l-75.608-50.721c-5.515-3.699-8.558-10.124-7.926-16.734
					c3.53-36.95,0.169-73.946-9.987-109.958c-1.801-6.387,0.041-13.247,4.799-17.873l65.322-63.497
					c-10.391-22.962-22.673-44.552-36.597-64.314c-13.924-19.763-30.121-38.594-48.247-56.106l-81.777,40.143
					c-5.958,2.925-13.037,2.351-18.445-1.496c-30.491-21.683-64.197-37.297-100.182-46.408c-6.437-1.63-11.463-6.657-13.091-13.096
					l-22.317-88.27c-25.079-2.484-49.916-2.641-73.998-0.463c-24.086,2.178-48.491,6.788-72.713,13.729l-6.119,90.786
					c-0.446,6.616-4.478,12.458-10.506,15.221c-17.746,8.133-33.527,17.127-48.244,27.496
					c-14.714,10.366-28.495,22.199-42.129,36.175c-4.629,4.747-11.486,6.577-17.867,4.771l-87.549-24.79
					c-14.687,20.474-27.242,41.903-37.4,63.85c-10.154,21.945-18.364,45.388-24.466,69.838l75.609,50.722
					c5.515,3.699,8.558,10.124,7.926,16.734c-3.53,36.951-0.17,73.946,9.987,109.957c1.801,6.387-0.041,13.247-4.799,17.873
					l-65.322,63.497c10.391,22.962,22.673,44.552,36.597,64.313c13.924,19.765,30.121,38.596,48.247,56.107l81.776-40.143
					c5.957-2.925,13.038-2.351,18.445,1.496c30.493,21.684,64.199,37.298,100.183,46.409c6.437,1.63,11.463,6.657,13.091,13.096
					L2021.949,4213.522z M2185.858,4213.942h0.01H2185.858z" class="color2e20b0 svgShape"></path><circle cx="2060.416" cy="3821.051" r="181.115" fill="#ffffff" transform="rotate(-45.001 2060.381 3821.093)" class="colorfff svgShape"></circle><path fill="#2e20b0" d="M2060.839,4020.297c-11.433,0-22.945-0.984-34.442-2.977
					c-52.425-9.087-98.174-38.045-128.819-81.541c-30.645-43.495-42.518-96.321-33.431-148.746
					c9.086-52.426,38.045-98.175,81.541-128.819c43.496-30.646,96.319-42.518,148.747-33.432
					c52.425,9.087,98.174,38.045,128.819,81.541c30.645,43.495,42.518,96.321,33.431,148.746
					c-9.086,52.426-38.044,98.175-81.54,128.819C2141.187,4007.813,2101.54,4020.297,2060.839,4020.297z M2060.188,3658.072
					c-32.448,0-65.191,9.635-93.673,29.702c-35.6,25.082-59.301,62.525-66.738,105.435c-7.437,42.908,2.28,86.145,27.362,121.744
					c31.71,45.006,82.232,69.074,133.504,69.077c32.448,0.002,65.191-9.635,93.674-29.702c35.6-25.082,59.301-62.525,66.738-105.435
					c7.437-42.908-2.28-86.145-27.362-121.744C2161.983,3682.144,2111.46,3658.072,2060.188,3658.072z" class="color2e20b0 svgShape"></path><path fill="#ffffff" d="M2626.197,3139.367c-8.978,15.06-19.287,28.805-30.463,41.508l31.227,84.984
					c-19.314,17.202-40.598,32.737-64.11,45.877c-23.513,13.139-47.897,23.128-72.671,30.563l-56.046-71.169
					c-33.604,5.818-68.29,5.401-102.406-1.469l-58.043,69.609c-24.554-8.125-48.65-18.791-71.786-32.583
					s-43.978-29.917-62.803-47.652l33.629-84.164c-22.268-26.743-39.131-57.057-49.994-89.385l-89.26-15.456
					c-5.241-25.328-8.052-51.529-7.676-78.461c0.378-26.933,3.92-53.045,9.867-78.214l89.609-12.947
					c5.86-15.873,13.05-31.479,22.027-46.537c8.977-15.059,19.286-28.806,30.463-41.509l-31.228-84.984
					c19.313-17.203,40.599-32.737,64.111-45.876c23.513-13.139,47.896-23.128,72.67-30.563l56.047,71.17
					c33.604-5.818,68.289-5.401,102.405,1.468l58.043-69.609c24.554,8.125,48.65,18.791,71.786,32.583
					c23.136,13.793,43.978,29.917,62.803,47.652l-33.629,84.164c22.268,26.743,39.132,57.058,49.995,89.385l89.259,15.456
					c5.242,25.327,8.052,51.528,7.676,78.461c-0.378,26.933-3.921,53.044-9.867,78.214l-89.609,12.947
					C2642.363,3108.702,2635.174,3124.309,2626.197,3139.367z" class="colorfff svgShape"></path><path fill="#2e20b0" d="M2490.182,3360.38c-5.448,0.001-10.719-2.468-14.206-6.895l-49.518-62.88
					c-29.087,3.944-58.463,3.521-87.598-1.265l-51.288,61.509c-4.756,5.703-12.516,7.916-19.567,5.586
					c-26.796-8.868-52.152-20.381-75.364-34.219c-23.216-13.841-45.403-30.671-65.943-50.022
					c-5.405-5.093-7.147-12.973-4.391-19.869l29.715-74.368c-18.063-23.352-32.408-48.994-42.772-76.457l-78.863-13.654
					c-7.317-1.268-13.116-6.88-14.621-14.151c-5.718-27.633-8.426-55.349-8.049-82.378c0.379-27.031,3.861-54.659,10.35-82.12
					c1.708-7.227,7.661-12.675,15.01-13.736l79.163-11.438c5.702-13.982,12.25-27.201,19.528-39.41
					c7.279-12.21,15.793-24.257,25.381-35.92l-27.587-75.077c-2.562-6.971-0.6-14.798,4.945-19.737
					c21.067-18.766,43.715-34.968,67.316-48.158c23.602-13.188,49.27-23.987,76.293-32.099c7.113-2.136,14.808,0.298,19.402,6.131
					l49.519,62.881c29.09-3.943,58.464-3.521,87.598,1.264l51.288-61.508c4.755-5.703,12.514-7.918,19.566-5.586
					c26.792,8.865,52.148,20.379,75.364,34.219c23.214,13.839,45.4,30.668,65.943,50.021c5.405,5.093,7.146,12.973,4.392,19.869
					l-29.716,74.368c18.066,23.354,32.409,48.994,42.773,76.458l78.861,13.655c7.316,1.268,13.115,6.879,14.62,14.151
					c5.719,27.631,8.428,55.347,8.05,82.376c-0.379,27.026-3.861,54.654-10.35,82.119c-1.707,7.228-7.66,12.676-15.011,13.737
					l-79.163,11.438c-5.701,13.983-12.248,27.202-19.526,39.411l0,0c-7.278,12.209-15.793,24.256-25.383,35.922l27.587,75.076
					c2.562,6.971,0.6,14.799-4.945,19.738c-21.079,18.773-43.728,34.977-67.315,48.158c-23.597,13.187-49.266,23.985-76.293,32.097
					C2493.663,3360.131,2491.913,3360.38,2490.182,3360.38z M2434.136,3253.049c5.484,0,10.741,2.499,14.203,6.895l48.296,61.328
					c20.238-6.822,39.497-15.315,57.396-25.318c17.894-9.999,35.22-21.952,51.639-35.616l-26.906-73.225
					c-2.287-6.225-0.983-13.201,3.396-18.18c11.193-12.722,20.518-25.421,28.508-38.823c7.99-13.404,14.727-27.646,20.594-43.541
					c2.297-6.221,7.813-10.686,14.376-11.634l77.211-11.156c4.211-20.938,6.485-41.863,6.773-62.364
					c0.286-20.503-1.402-41.482-5.026-62.528l-76.915-13.318c-6.543-1.133-11.938-5.762-14.054-12.057
					c-10.254-30.515-25.983-58.634-46.751-83.575c-4.246-5.1-5.357-12.115-2.896-18.278l28.981-72.53
					c-16.029-14.116-33.014-26.549-50.623-37.046c-17.612-10.499-36.625-19.527-56.665-26.914l-50.021,59.988
					c-4.25,5.097-10.947,7.456-17.456,6.146c-31.812-6.405-64.029-6.87-95.751-1.378c-6.541,1.132-13.18-1.412-17.289-6.629
					l-48.296-61.328c-20.234,6.821-39.495,15.315-57.397,25.318c-17.901,10.005-35.227,21.958-51.639,35.616l26.907,73.226
					c2.287,6.225,0.983,13.201-3.397,18.18c-11.19,12.718-20.515,25.416-28.506,38.822c-7.991,13.404-14.728,27.646-20.596,43.541
					c-2.296,6.22-7.813,10.685-14.376,11.633l-77.211,11.156c-4.21,20.936-6.485,41.859-6.772,62.363
					c-0.286,20.504,1.402,41.484,5.025,62.531l76.917,13.317c6.543,1.133,11.939,5.762,14.054,12.057
					c10.254,30.516,25.983,58.635,46.75,83.574c4.247,5.1,5.358,12.115,2.896,18.278l-28.981,72.53
					c16.028,14.116,33.012,26.548,50.624,37.047c17.608,10.497,36.622,19.525,56.665,26.914l50.02-59.988
					c4.25-5.097,10.948-7.454,17.455-6.146c31.817,6.407,64.033,6.87,95.752,1.378
					C2432.079,3253.137,2433.111,3253.049,2434.136,3253.049z M2626.197,3139.367h0.01H2626.197z" class="color2e20b0 svgShape"></path><ellipse cx="2386.747" cy="2996.619" fill="#ffffff" rx="158.452" ry="158.451" transform="rotate(-45.001 2386.724 2996.66)" class="colorfff svgShape"></ellipse><path fill="#2e20b0" d="M2386.438,3173.223c-31.43,0.001-62.388-8.46-90.087-24.973
					c-40.502-24.146-69.177-62.618-80.743-108.331s-4.638-93.194,19.507-133.696c24.146-40.502,62.619-69.177,108.332-80.743
					c45.712-11.566,93.194-4.637,133.696,19.508c40.502,24.146,69.177,62.618,80.743,108.331s4.639,93.194-19.507,133.695
					c-24.146,40.503-62.619,69.178-108.332,80.744C2415.597,3171.414,2400.965,3173.222,2386.438,3173.223z M2386.993,2856.19
					c-11.554,0-23.184,1.438-34.676,4.345c-36.349,9.197-66.941,31.999-86.141,64.205c-19.199,32.205-24.708,69.96-15.511,106.309
					c9.197,36.35,31.998,66.941,64.204,86.141c32.206,19.2,69.962,24.709,106.31,15.513c36.349-9.197,66.941-31.999,86.141-64.204
					c19.199-32.206,24.708-69.961,15.512-106.31c-9.197-36.35-31.999-66.941-64.204-86.141l0,0
					C2436.603,2862.918,2411.982,2856.19,2386.993,2856.19z" class="color2e20b0 svgShape"></path><path fill="#a19ff7" d="M1828.001,3059.323c0.055,24.359-2.416,48.103-6.664,71.223l97.905,78.983
					c-10.733,34.294-25.006,68.008-43.644,100.458c-18.64,32.451-40.568,61.768-64.783,88.32l-117.619-44.795
					c-35.895,30.931-77.531,55.204-123.095,71.38l-19.466,124.41c-35.066,7.851-71.4,12.347-108.823,12.431
					c-37.423,0.084-73.776-4.249-108.878-11.942l-20.024-124.321c-45.637-15.97-87.381-40.056-123.415-70.826l-117.416,45.323
					c-24.334-26.443-46.394-55.662-65.179-88.029c-18.784-32.368-33.209-66.017-44.095-100.261l97.549-79.422
					c-4.352-23.101-6.928-46.835-6.982-71.193c-0.054-24.358,2.415-48.103,6.664-71.224l-97.906-78.983
					c10.732-34.294,25.007-68.008,43.645-100.458c18.64-32.451,40.566-61.768,64.781-88.32l117.62,44.795
					c35.895-30.931,77.529-55.204,123.094-71.379l19.466-124.41c35.066-7.851,71.4-12.347,108.823-12.431
					c37.423-0.084,73.776,4.249,108.878,11.942l20.024,124.321c45.637,15.971,87.383,40.056,123.416,70.826l117.415-45.322
					c24.334,26.442,46.394,55.661,65.179,88.027c18.783,32.368,33.207,66.017,44.094,100.261l-97.549,79.422
					C1825.369,3011.231,1827.946,3034.965,1828.001,3059.323z" class="colora19ff7 svgShape"></path><path fill="#2e20b0" d="M1440.763,3579.814c-36.694,0.001-74.265-4.157-111.7-12.362
					c-7.254-1.59-12.798-7.454-13.979-14.786l-18.337-113.848c-40.246-15.279-77.378-36.585-110.642-63.485l-107.515,41.501
					c-6.928,2.675-14.787,0.84-19.815-4.624c-26.202-28.473-48.916-59.155-67.512-91.195
					c-18.595-32.043-33.966-66.986-45.688-103.86c-2.25-7.077,0.056-14.81,5.815-19.498l89.321-72.723
					c-3.551-21.752-5.372-43.177-5.419-63.83c-0.046-20.659,1.679-42.091,5.133-63.855l-89.647-72.32
					c-5.779-4.663-8.121-12.385-5.903-19.472c11.556-36.926,26.771-71.938,45.223-104.063c18.454-32.127,41.029-62.912,67.1-91.5
					c5.004-5.486,12.855-7.354,19.794-4.713l107.702,41.019c33.144-27.05,70.179-48.522,110.354-63.982l17.826-113.929
					c1.148-7.337,6.666-13.227,13.913-14.849c37.766-8.455,75.695-12.784,112.732-12.867c37.076-0.113,74.985,4.075,112.789,12.361
					c7.254,1.59,12.798,7.454,13.979,14.786l18.337,113.848c40.248,15.279,77.38,36.585,110.644,63.485l107.514-41.5
					c6.928-2.674,14.786-0.84,19.815,4.624c26.2,28.47,48.915,59.152,67.512,91.194c18.591,32.035,33.962,66.979,45.688,103.859
					c2.25,7.077-0.056,14.811-5.815,19.499l-89.32,72.723c3.553,21.757,5.374,43.181,5.42,63.83
					c0.046,20.651-1.678,42.083-5.133,63.855l89.646,72.32c5.78,4.663,8.121,12.386,5.902,19.473
					c-11.56,36.934-26.774,71.945-45.22,104.063c-18.453,32.126-41.03,62.91-67.103,91.499c-5.003,5.487-12.852,7.356-19.794,4.713
					l-107.7-41.018c-33.144,27.05-70.179,48.522-110.355,63.982l-17.826,113.928c-1.148,7.337-6.666,13.226-13.912,14.849
					c-37.765,8.456-75.694,12.785-112.733,12.868C1441.491,3579.814,1441.125,3579.814,1440.763,3579.814z M1348.803,3534.61
					c30.898,6.005,61.774,9.044,91.959,9.044c0.338,0,0.671,0,1.01-0.001c30.508-0.068,61.711-3.248,92.927-9.461l17.539-112.095
					c1.026-6.556,5.561-12.023,11.814-14.243c43.316-15.378,82.795-38.27,117.341-68.038c5.03-4.336,12.032-5.565,18.238-3.2
					l105.971,40.359c20.878-24.018,39.118-49.532,54.318-75.994c15.193-26.453,28.041-55.065,38.269-85.206l-88.205-71.157
					c-5.161-4.164-7.628-10.817-6.43-17.339c4.333-23.589,6.416-45.805,6.367-67.916c-0.05-22.112-2.232-44.317-6.672-67.887
					c-1.227-6.516,1.21-13.182,6.353-17.367l87.884-71.553c-10.363-30.095-23.339-58.649-38.652-85.035
					c-15.318-26.393-33.672-51.824-54.657-75.747l-105.788,40.834c-6.194,2.394-13.202,1.195-18.252-3.118
					c-34.678-29.612-74.26-52.326-117.647-67.51c-6.263-2.191-10.823-7.639-11.878-14.19l-18.042-112.016
					c-31.244-6.072-62.423-9.129-92.969-9.043c-30.507,0.068-61.71,3.248-92.928,9.46l-17.539,112.096
					c-1.026,6.556-5.561,12.023-11.814,14.243c-43.315,15.378-82.793,38.269-117.339,68.038c-5.031,4.336-12.033,5.563-18.238,3.2
					l-105.973-40.36c-20.875,24.016-39.117,49.533-54.315,75.995c-15.199,26.461-28.046,55.071-38.271,85.205l88.206,71.158
					c5.161,4.164,7.629,10.818,6.43,17.341c-4.333,23.577-6.416,45.792-6.366,67.914c0.05,22.117,2.231,44.323,6.67,67.887
					c1.227,6.516-1.21,13.182-6.353,17.368l-87.884,71.553c10.36,30.089,23.336,58.643,38.652,85.034
					c15.316,26.391,33.671,51.823,54.657,75.748l105.789-40.835c6.194-2.393,13.202-1.195,18.252,3.118
					c34.678,29.613,74.26,52.327,117.646,67.51c6.263,2.191,10.823,7.639,11.878,14.19L1348.803,3534.61z" class="color2e20b0 svgShape"></path><circle cx="1436.752" cy="3060.779" r="258.69" fill="#ffffff" class="colorfff svgShape"></circle><path fill="#2e20b0" d="M1436.752,3337.55c-73.928,0-143.431-28.789-195.707-81.063
						c-52.275-52.275-81.064-121.779-81.064-195.707s28.79-143.431,81.064-195.706s121.778-81.064,195.707-81.064
						s143.431,28.789,195.706,81.063c52.275,52.275,81.064,121.779,81.064,195.707s-28.789,143.432-81.064,195.707
						C1580.183,3308.761,1510.68,3337.55,1436.752,3337.55z M1436.752,2820.169c-132.673,0-240.61,107.938-240.61,240.61
						s107.938,240.61,240.61,240.61c132.672,0,240.609-107.938,240.609-240.61S1569.424,2820.169,1436.752,2820.169z" class="color2e20b0 svgShape"></path><path fill="#ffca61" d="M1706.248,2878.317L1706.248,2878.317c-23.844-23.844-62.502-23.844-86.346-0.001
						l-181.735,181.736l-70.725-70.724c-23.843-23.844-62.501-23.844-86.345,0c-23.844,23.843-23.844,62.501,0,86.345
						l108.715,108.716c13.246,13.246,31.045,18.857,48.355,17.385c17.31,1.472,35.108-4.14,48.355-17.385l219.726-219.726
						C1730.091,2940.818,1730.091,2902.16,1706.248,2878.317z" class="colorffca61 svgShape"></path><path fill="#2e20b0" d="M1432.793,3220.082c-20.991,0.001-41.009-8.152-55.766-22.908l-108.715-108.716
						c-14.947-14.947-23.179-34.82-23.179-55.958s8.232-41.011,23.179-55.957c14.946-14.947,34.819-23.179,55.958-23.179
						s41.011,8.232,55.958,23.18l57.94,57.938l168.95-168.951c30.854-30.854,81.061-30.854,111.915,0v0.001
						c30.854,30.854,30.854,81.06,0,111.914l-219.726,219.728c-16.013,16.012-38.222,24.253-61.14,22.73
						C1436.371,3220.023,1434.578,3220.082,1432.793,3220.082z M1324.27,2989.525c-11.479,0-22.271,4.47-30.388,12.587
						c-8.118,8.117-12.587,18.909-12.587,30.388c0,11.479,4.47,22.271,12.587,30.388l108.715,108.716
						c8.814,8.815,21.224,13.249,34.038,12.154c1.021-0.086,2.046-0.086,3.065,0c12.813,1.095,25.222-3.34,34.038-12.154
						l219.725-219.727c16.756-16.756,16.756-44.02,0-60.776c-8.117-8.116-18.909-12.587-30.388-12.587s-22.271,4.471-30.388,12.588
						l-181.735,181.735c-7.061,7.061-18.509,7.061-25.569,0l-70.725-70.724C1346.541,2993.995,1335.749,2989.525,1324.27,2989.525z" class="color2e20b0 svgShape"></path></g><g><path fill="#a19ff7" d="M3079.452,2558.65c-78.049,78.155-121.867,184.122-121.791,294.598l0.16,231.803
					c0.045,65.014,78.66,97.506,124.602,51.521l165.237-165.562L3079.452,2558.65z" class="colora19ff7 svgShape"></path><path fill="#2e20b0" d="M3031.37,3176.284c-11.796,0-23.772-2.345-35.376-7.143
					c-34.672-14.338-56.228-46.555-56.253-84.077l-0.16-231.804c-0.04-57.363,11.053-113.328,32.97-166.34
					c21.915-53.007,53.578-100.462,94.107-141.048c7.057-7.064,18.504-7.073,25.57-0.017c7.065,7.056,7.073,18.503,0.017,25.569
					c-75.202,75.305-116.577,175.387-116.504,281.81l0.16,231.804c0.019,27.039,17.53,43.912,33.912,50.687
					c16.387,6.775,40.706,7.2,59.819-11.932l165.23-165.557c7.052-7.068,18.5-7.078,25.569-0.025
					c7.067,7.055,7.079,18.502,0.024,25.57l-165.236,165.563C3077.568,3167.014,3054.828,3176.284,3031.37,3176.284z" class="color2e20b0 svgShape"></path><path fill="#a19ff7" d="M4072.927,2557.963c78.152,78.046,122.117,183.954,122.194,294.429l0.16,231.803
					c0.045,65.014-78.524,97.615-124.531,51.693l-164.463-164.257L4072.927,2557.963z" class="colora19ff7 svgShape"></path><path fill="#2e20b0" d="M4121.734,3175.53c-23.414,0-46.115-9.235-63.758-26.845l-164.466-164.261
					c-7.065-7.057-7.072-18.505-0.017-25.569c7.057-7.065,18.505-7.072,25.569-0.017l164.463,164.257
					c19.139,19.103,43.455,18.646,59.832,11.847c16.373-6.798,33.86-23.694,33.843-50.734l-0.161-231.803
					c-0.073-106.423-41.586-206.448-116.89-281.649c-7.065-7.056-7.073-18.503-0.018-25.569c7.057-7.064,18.504-7.073,25.57-0.017
					c40.584,40.528,72.311,87.939,94.298,140.916c21.99,52.981,33.16,108.932,33.199,166.294l0.161,231.803
					c0.025,37.523-21.485,69.771-56.139,84.156C4145.587,3173.17,4133.568,3175.53,4121.734,3175.53z" class="color2e20b0 svgShape"></path><path fill="#a19ff7" d="M3879.119,1536.695l-606.292,0.365c52.432-78.112,113.062-150.304,180.682-215.398
					c68.464-65.812,176.102-65.93,244.567-0.118C3765.816,1386.508,3826.565,1458.594,3879.119,1536.695z" class="colora19ff7 svgShape"></path><path fill="#2e20b0" d="M3272.826,1555.14c-6.676,0-12.81-3.679-15.952-9.569c-3.145-5.894-2.783-13.041,0.94-18.587
					c52.913-78.828,114.535-152.291,183.155-218.347c75.641-72.708,194.074-72.76,269.635-0.126
					c68.772,65.954,130.521,139.335,183.515,218.092c3.729,5.542,4.099,12.689,0.961,18.586c-3.138,5.897-9.271,9.584-15.951,9.588
					l-606.292,0.364C3272.833,1555.14,3272.829,1555.14,3272.826,1555.14z M3575.897,1290.27
					c-39.522,0-79.047,14.809-109.859,44.427c-58.513,56.327-111.803,118.198-158.738,184.262l537.323-0.323
					c-47.009-65.995-100.403-127.787-159.063-184.042C3654.82,1305.044,3615.36,1290.27,3575.897,1290.27z" class="color2e20b0 svgShape"></path><path fill="#ffffff" d="M4104.4,2273.644c0.121,258.197-73.889,498.903-201.656,702.483
					c-16.031,25.437-44.116,40.869-74.129,40.869l-503.235,0.353c-30.134,0-58.218-15.302-74.25-40.74
					c-128.129-203.344-202.379-444.05-202.62-702.236c-0.121-273.017,82.446-526.624,224.196-737.314h0.121l606.292-0.365
					C4021.11,1747.149,4104.159,2000.638,4104.4,2273.644z" class="colorfff svgShape"></path><path fill="#2e20b0" d="M3325.392,3035.429c-36.676,0-70.15-18.385-89.558-49.18
					c-65.767-104.373-116.678-217.116-151.32-335.099c-35.768-121.816-53.965-248.577-54.084-376.76
					c-0.118-267.799,78.473-526.25,227.274-747.423c3.359-4.993,8.982-7.988,15.001-7.988h0.121l606.281-0.365
					c0.003,0,0.008,0,0.011,0c6.01,0,11.627,2.986,14.988,7.968c149.167,221.09,228.137,479.414,228.373,747.045
					c0,0.002,0,0.005,0,0.008c0.061,128.142-17.972,254.917-53.596,376.803c-34.474,117.952-85.219,230.764-150.825,335.3
					c-19.478,30.905-52.908,49.338-89.444,49.338L3325.392,3035.429z M3282.378,1555.134
					c-141.319,213.407-215.901,461.876-215.788,719.231c0.23,245.988,69.332,485.491,199.837,692.605
					c12.745,20.224,34.783,32.298,58.952,32.298l503.223-0.353c23.696,0,46.24-12.427,58.847-32.43
					c130.211-207.475,198.986-447.063,198.871-692.834v0.008c-0.228-257.198-75.179-505.55-216.852-718.879L3282.378,1555.134z" class="color2e20b0 svgShape"></path><path fill="#ffca61" d="M4032.467,3741.345c30.498-0.021,58.062-12.293,78.057-32.296
					c19.973-20.021,32.211-47.601,32.19-78.104c-0.042-60.852-49.397-110.289-110.4-110.247l-151.892-0.153
					c18.25-0.013,34.732-7.323,46.695-19.301c11.945-11.961,19.232-28.324,19.22-46.553c-0.025-36.478-29.51-65.959-66.006-65.934
					l-149.659,0.104l-0.421,85.592l0.943-270.306l-309.604,0.214l-0.943,270.305l-0.059-85.586l-149.659,0.103
					c-18.232,0.013-34.713,7.494-46.677,19.322c-11.963,11.961-19.251,28.437-19.238,46.685
					c0.025,36.346,29.529,65.808,66.006,65.783l-151.892-0.153c-30.485,0.021-58.066,12.443-78.039,32.446
					c-19.996,19.852-32.229,47.583-32.208,77.954c0.042,60.986,49.416,110.289,110.4,110.247L4032.467,3741.345z" class="colorffca61 svgShape"></path><path fill="#2e20b0" d="M3119.192,3759.548c-34.281,0.001-66.505-13.323-90.739-37.524
					c-24.257-24.223-37.628-56.467-37.651-90.791c-0.024-34.485,13.311-66.731,37.549-90.797
					c24.229-24.265,56.483-37.672,90.766-37.695l82.736,0.083c-9.393-13.533-14.906-29.945-14.918-47.62
					c-0.016-22.523,8.697-43.648,24.535-59.483c0.023-0.023,0.047-0.047,0.071-0.071c15.993-15.813,37.08-24.529,59.376-24.545
					l132.012-0.092l0.581-166.713c0.034-9.955,8.111-18.01,18.067-18.017l309.604-0.215c0.004,0,0.009,0,0.014,0
					c4.804,0,9.409,1.911,12.802,5.313c3.396,3.404,5.294,8.021,5.277,12.83l-0.58,166.558l131.625-0.091c0.018,0,0.043,0,0.06,0
					c46.316,0,84.007,37.667,84.039,84.001c0.013,17.363-5.201,33.915-14.897,47.855l82.813,0.084c0.03,0,0.062,0,0.092,0
					c70.729,0,128.32,57.542,128.37,128.314c0.023,34.364-13.284,66.642-37.471,90.886c-24.223,24.232-56.48,37.584-90.845,37.606
					c-0.003,0-0.006,0-0.009,0l-913.187,0.123C3119.254,3759.548,3119.222,3759.548,3119.192,3759.548z M4032.467,3741.345h0.01
					H4032.467z M3119.11,3538.9c-24.592,0.018-47.768,9.656-65.227,27.141c-17.397,17.274-26.939,40.397-26.922,65.166
					c0.018,24.666,9.621,47.831,27.042,65.229c17.405,17.382,40.559,26.952,65.199,26.952c0.022,0,0.043,0,0.065,0l913.195-0.123
					h-0.009c24.711-0.017,47.895-9.604,65.281-26.998c17.356-17.398,26.914-40.598,26.897-65.31
					c-0.036-50.838-41.413-92.179-92.241-92.179c-0.025,0-0.042,0-0.066,0l-151.923-0.153c-9.979-0.01-18.063-8.104-18.062-18.083
					c0.001-9.979,8.088-18.07,18.067-18.077c12.863-0.009,24.908-4.98,33.916-13.998c8.992-9.005,13.94-20.996,13.932-33.763
					c-0.019-26.398-21.496-47.866-47.879-47.866c-0.014,0-0.021,0-0.034,0l-131.681,0.091l-0.332,67.613
					c-0.049,9.954-8.134,17.991-18.078,17.991c-0.026,0-0.052,0-0.078,0c-9.98-0.042-18.039-8.163-18.004-18.144l0.879-252.149
					l-273.442,0.189l-0.88,252.3c-0.034,9.962-8.122,18.017-18.08,18.018c-0.009,0-0.017,0-0.025,0
					c-9.971-0.014-18.048-8.097-18.055-18.067l-0.047-67.507l-131.578,0.091c-12.71,0.009-24.762,5.004-33.944,14.066
					c-8.975,8.994-13.912,21.013-13.903,33.848c0.019,26.268,21.416,47.635,47.733,47.715l0.211,0.001
					c9.979,0.01,18.063,8.104,18.062,18.083c-0.001,9.979-8.088,18.07-18.067,18.077c-0.091-0.001-0.182,0-0.271,0L3119.11,3538.9z" class="color2e20b0 svgShape"></path><path fill="#a19ff7" d="M3325.357,3017.373l0.079,114.073c0.028,40.314,32.71,72.969,73.01,72.941l351.866-0.243
					c40.282-0.028,72.937-32.728,72.909-73.042l-0.079-114.072L3325.357,3017.373z" class="colora19ff7 svgShape"></path><path fill="#2e20b0" d="M3398.393 3222.467c-24.298 0-47.142-9.455-64.333-26.632-17.203-17.188-26.688-40.051-26.704-64.377l-.079-114.072c-.004-4.796 1.898-9.396 5.286-12.788 3.389-3.394 7.986-5.302 12.781-5.305l497.785-.344c.004 0 .009 0 .013 0 9.98 0 18.073 8.086 18.08 18.067l.079 114.072c.018 24.324-9.438 47.2-26.623 64.415-17.185 17.214-40.04 26.703-64.354 26.72l-351.866.243C3398.438 3222.467 3398.413 3222.467 3398.393 3222.467zM3343.449 3035.44l.066 95.992c.011 14.671 5.729 28.458 16.102 38.821 10.362 10.353 24.132 16.053 38.776 16.053.013 0 .025 0 .039 0l351.866-.243c14.653-.01 28.429-5.73 38.788-16.107 10.362-10.38 16.063-24.175 16.054-38.842l-.066-95.992L3343.449 3035.44zM3272.826 1555.138h-.121c-9.985 0-18.08-8.095-18.08-18.08s8.095-18.08 18.08-18.08h.121c9.985 0 18.08 8.095 18.08 18.08S3282.812 1555.138 3272.826 1555.138zM3764.387 2708.369h-359.23c-9.985 0-18.08-8.095-18.08-18.08s8.095-18.08 18.08-18.08h359.23c9.985 0 18.08 8.095 18.08 18.08S3774.372 2708.369 3764.387 2708.369z" class="color2e20b0 svgShape"></path><path fill="#2e20b0" d="M3405.156 2708.369c-9.985 0-18.08-8.095-18.08-18.08v-188.251c0-9.985 8.095-18.081 18.08-18.081s18.08 8.095 18.08 18.081v188.251C3423.236 2700.274 3415.142 2708.369 3405.156 2708.369zM3570.011 2708.369c-9.985 0-18.08-8.095-18.08-18.08v-188.251c0-9.985 8.095-18.081 18.08-18.081s18.08 8.095 18.08 18.081v188.251C3588.091 2700.274 3579.996 2708.369 3570.011 2708.369zM3764.387 2404.974h-359.23c-9.985 0-18.08-8.095-18.08-18.081s8.095-18.081 18.08-18.081h359.23c9.985 0 18.08 8.095 18.08 18.081S3774.372 2404.974 3764.387 2404.974z" class="color2e20b0 svgShape"></path><path fill="#2e20b0" d="M3592.491 2404.974h-187.335c-9.985 0-18.08-8.095-18.08-18.081v-116.332c0-61.618 50.13-111.748 111.747-111.748 61.618 0 111.748 50.13 111.748 111.748v116.332C3610.571 2396.878 3602.477 2404.974 3592.491 2404.974zM3423.236 2368.813h151.175v-98.251c0-41.679-33.909-75.586-75.588-75.586s-75.587 33.908-75.587 75.586V2368.813zM3690.257 2090.469c-9.985 0-18.08-8.095-18.08-18.081s8.095-18.081 18.08-18.081c30.906 0 56.05-25.144 56.05-56.049v-68.426c0-41.847-34.045-75.893-75.893-75.893s-75.894 34.045-75.894 75.893v48.583c0 61.786-50.267 112.053-112.053 112.053-61.787 0-112.054-50.267-112.054-112.053v-68.426c0-50.845 41.365-92.211 92.211-92.211 9.985 0 18.08 8.095 18.08 18.081s-8.095 18.081-18.08 18.081c-30.906 0-56.051 25.144-56.051 56.05v68.426c0 41.847 34.046 75.892 75.894 75.892s75.893-34.045 75.893-75.892v-48.583c0-61.787 50.267-112.054 112.054-112.054 61.786 0 112.053 50.267 112.053 112.054v68.426C3782.467 2049.104 3741.102 2090.469 3690.257 2090.469z" class="color2e20b0 svgShape"></path></g></svg>