<svg xmlns="http://www.w3.org/2000/svg" enable-background="new 0 0 5000 5000" viewBox="0 0 5000 5000" width="256" height="256"><path fill="#23187a" d="M782.198 2597.065c-9.29 0-17.143-7.172-17.841-16.586-3.122-42.145-4.705-85.249-4.705-128.116 0-23.302.471-46.894 1.4-70.121.395-9.883 8.729-17.588 18.609-17.179 9.883.396 17.574 8.727 17.179 18.61-.91 22.753-1.371 45.863-1.371 68.69 0 41.988 1.55 84.202 4.607 125.47.731 9.863-6.673 18.452-16.536 19.183C783.091 2597.049 782.642 2597.065 782.198 2597.065zM797.977 2205.595c-.916 0-1.843-.07-2.776-.215-9.773-1.521-16.462-10.677-14.941-20.45 10.151-65.223 24.214-130.488 41.796-193.981 2.641-9.532 12.507-15.121 22.039-12.48 9.532 2.64 15.119 12.507 12.48 22.039-17.215 62.167-30.984 126.068-40.924 189.931C814.274 2199.278 806.651 2205.595 797.977 2205.595zM902.579 1827.797c-2.246 0-4.529-.425-6.738-1.323-9.163-3.725-13.571-14.172-9.847-23.334 24.805-61.02 53.467-121.288 85.192-179.129 4.755-8.671 15.642-11.846 24.314-7.089 8.671 4.756 11.846 15.642 7.09 24.314-31.064 56.636-59.129 115.647-83.416 175.392C916.348 1823.582 909.649 1827.797 902.579 1827.797zM1090.992 1484.167c-3.582 0-7.198-1.071-10.342-3.3-8.069-5.72-9.973-16.898-4.253-24.966 38.089-53.731 79.722-105.859 123.743-154.937 6.604-7.363 17.926-7.977 25.29-1.374 7.363 6.604 7.978 17.927 1.374 25.29-43.112 48.063-83.884 99.114-121.186 151.734C1102.126 1481.539 1096.602 1484.167 1090.992 1484.167zM1352.622 1192.489c-4.946 0-9.868-2.036-13.407-6.028-6.562-7.4-5.881-18.719 1.519-25.281 49.318-43.726 101.671-85.046 155.604-122.813 8.102-5.672 19.27-3.705 24.942 4.397 5.673 8.102 3.705 19.269-4.397 24.942-52.818 36.986-104.088 77.452-152.388 120.275C1361.087 1191.003 1356.846 1192.489 1352.622 1192.489zM1673.487 967.843c-6.364 0-12.525-3.399-15.766-9.389-4.707-8.699-1.471-19.566 7.228-24.273 57.964-31.365 118.334-59.661 179.434-84.102 9.184-3.673 19.605.793 23.279 9.976s-.793 19.605-9.976 23.279c-59.824 23.932-118.935 51.637-175.691 82.348C1679.286 967.147 1676.365 967.843 1673.487 967.843zM2565.174 4175.33c-9.509 0-17.43-7.481-17.876-17.078-.459-9.88 7.179-18.262 17.059-18.721 64.612-3.001 129.601-9.75 193.16-20.061 9.766-1.584 18.96 5.048 20.545 14.811 1.583 9.763-5.047 18.961-14.811 20.545-64.902 10.528-131.261 17.42-197.232 20.484C2565.735 4175.323 2565.454 4175.33 2565.174 4175.33zM2368.966 4173.344c-.402 0-.806-.014-1.213-.04-65.881-4.405-132.074-12.657-196.74-24.528-9.728-1.786-16.167-11.119-14.381-20.848 1.786-9.729 11.125-16.159 20.848-14.381 63.322 11.624 128.144 19.705 192.663 24.02 9.868.659 17.333 9.194 16.674 19.063C2386.184 4166.091 2378.311 4173.344 2368.966 4173.344zM1983.634 4102.549c-1.738 0-3.504-.255-5.252-.79-62.995-19.302-125.544-42.51-185.912-68.98-9.058-3.973-13.181-14.535-9.209-23.593s14.534-13.179 23.593-9.21c59.104 25.917 120.345 48.64 182.021 67.537 9.457 2.897 14.774 12.913 11.876 22.369C1998.39 4097.591 1991.297 4102.549 1983.634 4102.549zM4187.087 2343.042c-9.296 0-17.151-7.18-17.842-16.599-5.003-68.167-14.256-136.644-27.504-203.53-1.922-9.702 4.386-19.125 14.088-21.047 9.697-1.92 19.124 4.386 21.047 14.088 13.53 68.313 22.981 138.25 28.09 207.868.724 9.864-6.686 18.447-16.55 19.171C4187.971 2343.026 4187.526 2343.042 4187.087 2343.042zM4106.614 1936.711c-7.523 0-14.526-4.777-17.007-12.313-21.325-64.765-46.898-128.932-76.01-190.719-4.216-8.947-.38-19.618 8.567-23.833 8.944-4.213 19.617-.381 23.833 8.567 29.731 63.102 55.85 128.637 77.629 194.784 3.094 9.395-2.015 19.518-11.409 22.611C4110.359 1936.42 4108.47 1936.711 4106.614 1936.711zM3930.104 1561.944c-5.949 0-11.768-2.962-15.172-8.37-36.355-57.744-76.648-113.888-119.759-166.874-6.242-7.672-5.083-18.952 2.589-25.194 7.671-6.241 18.951-5.083 25.194 2.589 44.02 54.103 85.162 111.432 122.286 170.396 5.27 8.37 2.756 19.427-5.613 24.696C3936.667 1561.053 3933.365 1561.944 3930.104 1561.944zM3668.558 1240.494c-4.472 0-8.949-1.665-12.424-5.013-49.208-47.414-101.794-92.273-156.297-133.331-7.9-5.951-9.479-17.18-3.528-25.08s17.179-9.479 25.079-3.529c55.655 41.926 109.352 87.732 159.598 136.147 7.123 6.863 7.333 18.2.471 25.322C3677.941 1238.659 3673.252 1240.494 3668.558 1240.494zM3337.464 991.147c-3.04 0-6.119-.774-8.94-2.404-59.178-34.181-121.039-65.031-183.866-91.692-9.104-3.864-13.354-14.377-9.489-23.482s14.376-13.351 23.481-9.49c64.168 27.23 127.349 58.738 187.788 93.648 8.564 4.946 11.497 15.9 6.551 24.464C3349.671 987.937 3343.651 991.147 3337.464 991.147z" class="color23187a svgShape"></path><circle cx="2484.637" cy="2452.306" r="1253.333" fill="#b6e7ff" class="colorb6e7ff svgShape"></circle><path fill="#ffffff" d="M3348.251,1824.244c37.222,100.099,57.563,208.409,57.563,321.47H1560.962
					c0-509.442,412.984-922.426,922.426-922.426c302.394,0,570.802,145.509,739.027,370.33L3348.251,1824.244z" class="colorfff svgShape"></path><path fill="#23187a" d="M3405.813,2163.623H1560.962c-9.891,0-17.909-8.018-17.909-17.909
					c0-126.937,24.865-250.085,73.904-366.026c47.362-111.977,115.161-212.538,201.514-298.891
					c86.353-86.353,186.915-154.152,298.891-201.514c115.94-49.039,239.089-73.903,366.026-73.903
					c75.61,0,150.852,9.003,223.634,26.759c70.719,17.252,139.474,42.845,204.355,76.066
					c63.725,32.629,123.841,72.675,178.68,119.025c54.563,46.118,103.919,98.489,146.697,155.659
					c5.926,7.919,4.31,19.143-3.609,25.068c-7.92,5.925-19.142,4.31-25.068-3.61c-172.689-230.787-436.828-363.15-724.688-363.15
					c-492.755,0-894.747,396.107-904.343,886.608h1808.688c-1.977-102.219-20.881-202.156-56.268-297.32
					c-3.446-9.271,1.274-19.58,10.545-23.027c9.264-3.447,19.579,1.272,23.026,10.544c38.941,104.723,58.686,214.981,58.686,327.712
					C3423.722,2155.604,3415.704,2163.623,3405.813,2163.623z" class="color23187a svgShape"></path><path fill="#ffffff" d="M1747.929,1213.829c-274.837,217.569-451.163,554.135-451.163,931.885h427.732
					c0-242.578,113.628-458.617,290.562-597.795L1747.929,1213.829z" class="colorfff svgShape"></path><path fill="#23187a" d="M1724.498,2163.623h-427.731c-9.891,0-17.909-8.018-17.909-17.909
					c0-94.08,10.876-187.779,32.326-278.496c20.853-88.192,51.822-174.14,92.048-255.456
					c39.502-79.854,88.068-155.534,144.346-224.94c55.938-68.987,119.606-131.914,189.235-187.035
					c7.729-6.118,18.947-4.84,25.103,2.858l267.131,334.09c2.981,3.729,4.351,8.494,3.803,13.237
					c-0.547,4.743-2.966,9.071-6.718,12.022c-180.312,141.834-283.726,354.592-283.726,583.719
					C1742.406,2155.605,1734.388,2163.623,1724.498,2163.623z M1314.809,2127.806h391.984
					c1.248-54.884,8.229-109.425,20.799-162.397c13.548-57.094,33.667-112.72,59.797-165.333
					c25.659-51.665,57.199-100.604,93.742-145.459c32.525-39.923,69.066-76.676,108.799-109.449l-244.776-306.132
					C1475.973,1458.712,1319.997,1780.817,1314.809,2127.806z" class="color23187a svgShape"></path><path fill="#6ecbff" d="M3232.434,1222.715c-204.181-165.628-464.399-264.87-747.796-264.87
					c-278.292,0-534.234,95.699-736.709,255.984l267.131,334.09c129.274-101.688,292.343-162.346,469.578-162.346
					c182.028,0,349.113,63.983,479.99,170.685l2.76-3.425l265.702-329.546L3232.434,1222.715z" class="color6ecbff svgShape"></path><path fill="#23187a" d="M2964.628,1574.167c-4.104,0-8.106-1.411-11.316-4.028
					c-131.818-107.47-298.263-166.657-468.673-166.657c-168.125,0-326.674,54.813-458.506,158.513
					c-7.73,6.08-18.917,4.789-25.059-2.892l-267.131-334.09c-2.975-3.721-4.345-8.475-3.807-13.209
					c0.539-4.734,2.942-9.059,6.678-12.016c104.217-82.501,220.312-146.742,345.058-190.938
					c129.069-45.728,264.579-68.914,402.767-68.914c140.708,0,278.546,24.019,409.688,71.39
					c126.73,45.777,244.282,112.22,349.39,197.481c0.169,0.137,0.335,0.277,0.499,0.42l0.656,0.574
					c7.242,6.326,8.196,17.242,2.16,24.728l-268.462,332.97c-2.991,3.71-7.339,6.076-12.08,6.571
					C2965.868,1574.135,2965.246,1574.167,2964.628,1574.167z M2484.638,1367.665c91.127,0,180.381,15.612,265.282,46.402
					c76.419,27.714,147.633,67.067,211.939,117.093l246.023-305.14c-205.209-161.501-461.361-250.267-723.245-250.267
					c-260.321,0-505.889,83.277-711.4,241.052l244.839,306.211c63.402-47.594,133.236-84.998,207.832-111.292
					C2308.848,1382.489,2395.896,1367.665,2484.638,1367.665z" class="color23187a svgShape"></path><path fill="#ffd56c" d="M3197.189,1880.394c30.77,82.602,47.587,171.997,47.587,265.32h427.731
					c0-372.645-170.936-704.639-439.417-922.426l-269.077,333.676c47.99,39.224,91.096,84.199,128.266,133.873L3197.189,1880.394z" class="colorffd56c svgShape"></path><path fill="#23187a" d="M3672.508,2163.623h-427.731c-9.891,0-17.908-8.018-17.908-17.909
					c0-89.143-15.632-176.306-46.462-259.069c-3.452-9.269,1.263-19.581,10.531-23.034c9.264-3.448,19.58,1.262,23.033,10.531
					c30.257,81.226,46.552,166.47,48.513,253.664h391.981c-5.124-341.532-156.876-660.104-418.794-879.189l-246.676,305.898
					c43.674,37.389,83.186,79.571,117.623,125.593c5.926,7.919,4.31,19.143-3.609,25.068c-7.921,5.924-19.144,4.31-25.068-3.61
					c-36.25-48.445-78.393-92.431-125.26-130.736c-7.623-6.23-8.787-17.445-2.607-25.108l269.076-333.676
					c2.987-3.704,7.325-6.067,12.058-6.567c4.739-0.501,9.47,0.903,13.165,3.901c68.029,55.184,130.156,117.885,184.655,186.361
					c54.846,68.912,102.136,143.891,140.556,222.854c39.113,80.387,69.214,165.29,89.464,252.351
					c20.815,89.488,31.369,181.934,31.369,274.77C3690.416,2155.605,3682.398,2163.623,3672.508,2163.623z" class="color23187a svgShape"></path><path fill="#ffd56c" d="M2195.461,2145.714c0-159.708,129.468-289.176,289.176-289.176
						c159.708,0,289.176,129.469,289.176,289.176H2195.461z" class="colorffd56c svgShape"></path><path fill="#23187a" d="M2773.813,2163.623h-578.352c-9.891,0-17.909-8.018-17.909-17.909
						c0-82.025,31.942-159.141,89.943-217.142c58-58,135.116-89.943,217.142-89.943s159.142,31.942,217.142,89.943
						c58.001,58.001,89.942,135.117,89.942,217.142C2791.721,2155.605,2783.703,2163.623,2773.813,2163.623z M2213.954,2127.806
						h541.365c-9.25-141.262-127.122-253.359-270.683-253.359C2341.076,1874.447,2223.204,1986.543,2213.954,2127.806z" class="color23187a svgShape"></path><path fill="#23187a" d="M2738.398,2024.87c-6.335,0-12.475-3.369-15.729-9.32c-4.745-8.678-1.558-19.56,7.121-24.305
						l596.419-326.14c8.674-4.744,19.559-1.558,24.305,7.121c4.745,8.678,1.558,19.56-7.121,24.305l-596.419,326.14
						C2744.248,2024.162,2741.303,2024.87,2738.398,2024.87z" class="color23187a svgShape"></path><path fill="#ffd56c" d="M2911.598,2064.624v71.575c0,24.121-9.397,43.856-20.987,43.856h-793.779
				c-11.59,0-20.989-19.735-20.989-43.856v-71.575c0-24.277,9.399-43.856,20.989-43.856h43.856v-172.131
				c0-76.278,32.893-148.951,90.844-200.325l184.662-163.986l-178.555-149.578c-61.553-51.687-96.95-126.711-96.95-205.651v-118.406
				h-50.276c-11.59,0-20.989-19.578-20.989-43.699v-71.736c0-24.121,9.399-43.699,20.989-43.699h793.777
				c11.59,0,20.989,19.578,20.989,43.699v71.736c0,24.121-9.399,43.699-20.989,43.699h-37.275v109.324
				c0,76.118-33.05,148.794-91,200.324l-184.662,163.987l178.553,149.578c61.555,51.683,97.109,126.708,97.109,205.491v181.374
				h43.698C2902.2,2020.769,2911.598,2040.347,2911.598,2064.624z" class="colorffd56c svgShape"></path><path fill="#23187a" d="M2890.61,2197.964h-793.779c-22.539,0-38.898-25.976-38.898-61.765v-71.575
				c0-35.789,16.359-61.765,38.898-61.765h25.947v-154.223c0-81.249,35.309-159.149,96.872-213.726l169.126-150.19l-162.639-136.246
				c-65.692-55.162-103.359-135.118-103.359-219.379V1028.6h-32.368c-22.539,0-38.898-25.91-38.898-61.608v-71.736
				c0-35.698,16.359-61.607,38.898-61.607h793.777c22.538,0,38.896,25.91,38.896,61.607v71.736
				c0,35.698-16.358,61.608-38.896,61.608h-19.367v91.416c0,80.994-35.357,158.887-97.008,213.708l-169.146,150.208l162.637,136.246
				c65.793,55.242,103.518,135.139,103.518,219.219v163.465h25.789c22.538,0,38.896,25.976,38.896,61.765v71.575
				C2929.506,2171.988,2913.148,2197.964,2890.61,2197.964z M2099.655,2162.147h788.13c2.183-3.134,5.904-11.953,5.904-25.947
				v-71.575c0-14.022-3.706-22.83-5.876-25.947h-40.9c-9.891,0-17.908-8.018-17.908-17.909v-181.374
				c0-73.47-33.065-143.369-90.717-191.776l-178.537-149.565c-3.993-3.345-6.332-8.262-6.406-13.47
				c-0.075-5.208,2.12-10.19,6.015-13.649l184.662-163.986c54.005-48.022,84.983-116.16,84.983-186.934v-109.324
				c0-9.891,8.018-17.909,17.908-17.909h34.485c2.168-3.103,5.87-11.863,5.87-25.791v-71.736c0-13.927-3.702-22.687-5.87-25.79
				H2093.2c-2.168,3.103-5.87,11.863-5.87,25.79v71.736c0,13.928,3.702,22.688,5.87,25.791h47.487
				c9.891,0,17.909,8.018,17.909,17.909v118.406c0,73.652,33.007,143.61,90.558,191.937l178.539,149.564
				c3.993,3.345,6.332,8.262,6.407,13.47s-2.121,10.19-6.015,13.649l-184.662,163.986c-53.913,47.794-84.826,115.925-84.826,186.934
				v172.131c0,9.891-8.018,17.909-17.909,17.909h-41.06c-2.17,3.117-5.876,11.924-5.876,25.947v71.575
				C2093.751,2150.194,2097.473,2159.013,2099.655,2162.147z" class="color23187a svgShape"></path><path fill="#ffffff" d="M3318.229,2521.681c15.601-5.444,32.366-8.404,49.823-8.404h703.231
					c83.481,0,151.155,67.674,151.155,151.155v375.889c0,83.458-67.64,151.124-151.098,151.155l-514.514,0.286
					c-7.248,0.003-41.975,36.58-77.849,76.655l-46.852-65.316L3318.229,2521.681z" class="colorfff svgShape"></path><path fill="#23187a" d="M3478.979,3286.325c-0.322,0-0.645-0.008-0.968-0.025c-5.423-0.293-10.42-3.031-13.586-7.444
					l-46.853-65.315c-5.765-8.037-3.924-19.226,4.113-24.99c8.035-5.765,19.225-3.924,24.99,4.113l33.899,47.258
					c13.917-15.271,25.77-27.838,35.36-37.484c24.312-24.453,32.261-28.58,40.885-28.582l514.51-0.286
					c73.448-0.028,133.2-59.802,133.2-133.247v-375.89c0-73.472-59.775-133.246-133.248-133.246h-703.23
					c-15.068,0-29.846,2.491-43.923,7.403c-9.334,3.258-19.55-1.669-22.809-11.008c-3.26-9.338,1.669-19.55,11.008-22.809
					c17.879-6.24,36.627-9.404,55.724-9.404h703.23c93.223,0,169.064,75.841,169.064,169.063v375.89
					c0,93.188-75.813,169.029-169,169.063l-510.539,0.284c-5.104,3.82-21.411,18.104-68.488,70.692
					C3488.914,3284.167,3484.057,3286.325,3478.979,3286.325z" class="color23187a svgShape"></path><path fill="#23187a" d="M3829.435 2830.289c-9.891 0-17.908-8.018-17.908-17.908v-86.768l-16.506 16.506c-6.992 6.994-18.332 6.994-25.326 0-6.994-6.993-6.994-18.332 0-25.326l47.077-47.078c5.122-5.122 12.827-6.652 19.517-3.882 6.691 2.771 11.055 9.302 11.055 16.545v130.003C3847.343 2822.271 3839.325 2830.289 3829.435 2830.289zM3614.48 2832.738h-7.979c-29.217 0-52.985-23.769-52.985-52.985v-65.464c0-29.217 23.769-52.985 52.985-52.985h7.979c29.217 0 52.985 23.769 52.985 52.985v65.464C3667.466 2808.97 3643.697 2832.738 3614.48 2832.738zM3606.501 2697.12c-9.467 0-17.169 7.702-17.169 17.169v65.464c0 9.467 7.702 17.169 17.169 17.169h7.979c9.467 0 17.169-7.702 17.169-17.169v-65.464c0-9.467-7.702-17.169-17.169-17.169H3606.501zM4005.29 2832.738h-7.979c-29.217 0-52.985-23.769-52.985-52.985v-65.464c0-29.217 23.769-52.985 52.985-52.985h7.979c29.217 0 52.985 23.769 52.985 52.985v65.464C4058.275 2808.97 4034.507 2832.738 4005.29 2832.738zM3997.311 2697.12c-9.467 0-17.169 7.702-17.169 17.169v65.464c0 9.467 7.702 17.169 17.169 17.169h7.979c9.467 0 17.169-7.702 17.169-17.169v-65.464c0-9.467-7.702-17.169-17.169-17.169H3997.311zM4024.839 3042.883c-9.891 0-17.908-8.018-17.908-17.908v-86.768l-16.506 16.505c-6.994 6.994-18.332 6.994-25.326 0-6.994-6.993-6.994-18.333 0-25.326l47.077-47.077c5.122-5.122 12.827-6.652 19.517-3.882 6.691 2.771 11.055 9.302 11.055 16.545v130.003C4042.747 3034.865 4034.729 3042.883 4024.839 3042.883zM3614.48 3045.331h-7.979c-29.217 0-52.985-23.769-52.985-52.985v-65.464c0-29.216 23.769-52.984 52.985-52.984h7.979c29.217 0 52.985 23.769 52.985 52.984v65.464C3667.466 3021.563 3643.697 3045.331 3614.48 3045.331zM3606.501 2909.714c-9.467 0-17.169 7.702-17.169 17.168v65.464c0 9.467 7.702 17.169 17.169 17.169h7.979c9.467 0 17.169-7.702 17.169-17.169v-65.464c0-9.466-7.702-17.168-17.169-17.168H3606.501zM3809.886 3045.331h-7.979c-29.217 0-52.985-23.769-52.985-52.985v-65.464c0-29.216 23.769-52.984 52.985-52.984h7.979c29.217 0 52.985 23.769 52.985 52.984v65.464C3862.871 3021.563 3839.103 3045.331 3809.886 3045.331zM3801.906 2909.714c-9.467 0-17.169 7.702-17.169 17.168v65.464c0 9.467 7.702 17.169 17.169 17.169h7.979c9.467 0 17.169-7.702 17.169-17.169v-65.464c0-9.466-7.702-17.168-17.169-17.168H3801.906z" class="color23187a svgShape"></path><path fill="#6ecbff" d="M2650.708,3936.57c-10.942,0-21.555-3.744-30.075-10.611l-27.697-22.32
					c-46.552-37.498-63.858-100.634-42.866-156.64l108.006-289.163c15.143-40.382,44.388-73.873,82.366-94.304l194.057-101.996
					h343.887l194.058,101.996c37.978,20.431,67.223,53.923,82.366,94.304l108.006,289.163
					c20.912,56.006,3.686,119.143-42.866,156.64l-27.697,22.32c-8.52,6.866-19.133,10.611-30.075,10.611l-81.724-0.003
					L2650.708,3936.57z" class="color6ecbff svgShape"></path><path fill="#23187a" d="M3562.179,3954.478l-81.726-0.003c-9.891,0-17.908-8.019-17.907-17.909
					c0-9.89,8.019-17.907,17.908-17.907c0.001,0,0,0,0.001,0l81.725,0.003c6.828,0,13.518-2.36,18.836-6.646l27.697-22.321
					c40.589-32.694,55.588-87.521,37.325-136.431l-108.005-289.162c-13.604-36.279-39.886-66.386-74.003-84.762l-190.063-99.897
					h-335.048l-190.063,99.897c-34.116,18.375-60.398,48.481-74.012,84.783l-107.997,289.143
					c-18.318,48.873-3.316,103.69,37.323,136.427l27.7,22.322c5.317,4.286,12.008,6.646,18.837,6.646
					c9.891,0,17.908,8.018,17.908,17.908s-8.018,17.908-17.908,17.908c-14.979,0-29.649-5.176-41.313-14.575l-27.696-22.319
					c-52.69-42.442-72.141-113.522-48.397-176.869l107.998-289.146c16.676-44.469,48.869-81.327,90.658-103.809
					c0.051-0.027,0.102-0.054,0.152-0.081l194.058-101.997c2.569-1.351,5.429-2.056,8.332-2.056h343.888
					c2.903,0,5.763,0.705,8.332,2.056l194.058,101.997c0.051,0.027,0.102,0.054,0.152,0.081
					c41.789,22.481,73.982,59.341,90.649,103.787l108.014,289.186c23.67,63.393,4.217,134.464-48.407,176.853l-27.694,22.318
					C3591.828,3949.302,3577.157,3954.478,3562.179,3954.478z" class="color23187a svgShape"></path><path fill="#ffffff" d="M2873.735,2965.506c-50.323,7.497-51.516,72.889-37.161,109.894
						c10.687,27.913,30.704,45.777,61.249,45.777c0.319,0,0.957,14.913,0.957,14.913c0,59.893,25.122,113.884,65.396,152.165
						c2.791,2.712,5.662,5.264,8.693,7.816c36.605,31.183,84.057,49.924,135.816,49.924c51.838,0,99.29-18.741,135.896-49.924
						c2.951-2.552,5.902-5.104,8.693-7.816c40.194-38.28,65.316-92.272,65.316-152.165c0,0,0.718-14.913,1.037-14.913
						c30.465,0,50.482-17.864,61.249-45.777c14.276-37.005,19.698-88.364-30.704-95.861l-30.988-185.02
						c0,0-215.476-156.958-324.731-15.74C2885.195,2919.997,2873.735,2965.506,2873.735,2965.506z" class="colorfff svgShape"></path><path fill="#23187a" d="M3108.685,3363.902c-54.021,0-106.362-19.235-147.385-54.162
						c-3.552-2.992-6.672-5.798-9.535-8.574c-22.144-21.066-39.567-45.858-51.787-73.689
						c-12.492-28.451-18.916-58.721-19.102-89.991c-27.844-5.46-49.185-24.754-61.026-55.683
						c-10.761-27.738-14.382-71.422,3.162-101.61c8.626-14.844,21.383-25.054,37.273-29.958
						c8.871-21.129,36.506-74.493,120.001-182.413c49.691-64.231,126.789-81.931,222.954-51.188
						c69.48,22.212,124.19,61.737,126.485,63.409c3.789,2.76,6.345,6.895,7.118,11.518l29.021,173.276
						c18.338,5.91,28.349,17.113,33.7,26.3c17.279,29.661,6.174,69.563-1.983,90.708c-11.926,30.919-33.289,50.203-61.089,55.649
						c-0.187,31.256-6.607,61.522-19.09,89.977c-12.208,27.83-29.61,52.625-51.727,73.701c-3.155,3.061-6.321,5.798-9.384,8.445
						c-0.033,0.028-0.066,0.058-0.1,0.086C3215.164,3344.654,3162.777,3363.902,3108.685,3363.902z M2891.068,2970.029
						c-1.625,7.196-7.379,12.1-14.694,13.189c-10.229,1.524-17.345,6.28-22.395,14.97c-10.964,18.866-8.549,50.525-0.709,70.734
						c8.858,23.135,23.423,34.346,44.553,34.346c7.942,0,16.647,5.652,17.919,16.455c0.069,0.591,0.148,1.434,0.224,2.446
						c0.113,1.502,0.231,3.505,0.339,5.507c0.204,3.824,0.368,7.648,0.368,7.648c0.011,0.255,0.016,0.51,0.016,0.765
						c0,53.085,21.247,102.516,59.825,139.185c0.046,0.044,0.092,0.088,0.138,0.132c2.277,2.212,4.813,4.49,7.753,6.966
						c0.026,0.021,0.052,0.043,0.078,0.065c34.556,29.437,78.665,45.648,124.202,45.648c45.566,0,89.681-16.193,124.229-45.603
						c2.807-2.428,5.458-4.722,7.881-7.075c0.042-0.04,0.084-0.081,0.127-0.121c38.536-36.702,59.759-86.137,59.759-139.197
						c0-0.287,0.007-0.574,0.021-0.861c0,0,0.184-3.823,0.409-7.647c0.117-2.002,0.247-4.005,0.367-5.507
						c0.082-1.012,0.165-1.854,0.237-2.444c1.322-10.741,10.012-16.361,17.911-16.361c21.064,0,35.634-11.225,44.539-34.314
						c9.653-25.021,11.358-47.932,4.451-59.789c-1.385-2.377-5.598-9.609-21.081-11.912c-7.678-1.142-13.745-7.1-15.027-14.756
						l-29.736-177.543c-15.423-10.332-59.488-38.043-111.168-54.437c-81.327-25.798-142.896-12.602-182.989,39.22
						C2907.999,2919.788,2891.989,2967.117,2891.068,2970.029z M2873.735,2965.506h0.01H2873.735z" class="color23187a svgShape"></path><path fill="#ffffff" d="M3132.876,3017.059l17.424,62.68c3.253,11.702,13.909,19.8,26.054,19.8h78.635
						c11.57,0,21.858-7.361,25.594-18.311l20.22-64.168h-384.195l17.424,62.68c3.253,11.702,13.909,19.8,26.054,19.8h78.635
						c11.57,0,21.858-7.361,25.594-18.311l20.22-64.168H3132.876z" class="colorfff svgShape"></path><path fill="#23187a" d="M3254.99,3117.447h-78.636c-20.111,0-37.92-13.533-43.309-32.91l-13.779-49.569h-21.596
						l-16.272,51.642c-0.043,0.135-0.087,0.269-0.132,0.401c-6.212,18.205-23.309,30.437-42.543,30.437h-78.636
						c-20.112,0-37.922-13.533-43.309-32.911l-17.424-62.68c-1.499-5.393-0.392-11.176,2.995-15.633
						c3.387-4.456,8.662-7.072,14.259-7.072h167.509c0.273-0.008,0.551-0.009,0.828,0h47.536c0.271-0.006,0.54-0.006,0.807,0
						h167.516c5.705,0,11.068,2.718,14.441,7.317c3.374,4.601,4.354,10.532,2.64,15.974l-20.221,64.168
						c-0.043,0.133-0.086,0.267-0.132,0.399C3291.323,3105.216,3274.227,3117.447,3254.99,3117.447z M3156.441,3034.968
						l11.112,39.975c1.096,3.938,4.714,6.688,8.801,6.688h78.636c3.857,0,7.291-2.421,8.594-6.04l12.801-40.623H3156.441z
						 M2940.175,3034.968l11.112,39.975c1.095,3.938,4.714,6.688,8.801,6.688h78.636c3.856,0,7.29-2.421,8.594-6.041l12.8-40.622
						H2940.175z" class="color23187a svgShape"></path><path fill="#ffd56c" d="M3232.181,2815.431c0,0-194.939,172.492-419.938,148.058c0,0,22.463-73.711,80.826-132.999
						l-80.826,18.855c0,0,5.913-77.302,59.726-128.467c42.6-40.504,117.227-46.496,117.227-46.496l-80.506-42.787
						c0,0,119.873-55.744,235.257,5.739l-12.879-59.258c0,0,149.521-6.502,213.553,129.065s23.164,231.389,5.589,272.391
						L3232.181,2815.431z" class="colorffd56c svgShape"></path><path fill="#23187a" d="M3350.205,2997.44c-5.722,0-11.149-2.743-14.536-7.452l-106.874-148.595
						c-20.46,16.099-60.428,45.218-113.929,73.109c-45.847,23.9-92.162,41.905-137.659,53.513
						c-57.286,14.615-113.438,19.082-166.897,13.277c-5.304-0.576-10.074-3.486-13.013-7.938s-3.739-9.982-2.185-15.086
						c0.755-2.477,15.146-48.744,50.144-98.236l-28.944,6.753c-5.553,1.295-11.396-0.133-15.728-3.848
						c-4.331-3.714-6.633-9.27-6.197-14.958c0.263-3.438,7.105-84.806,65.242-140.08c22.303-21.205,51.81-33.815,76.896-41.23
						l-36.239-19.261c-6-3.188-9.679-9.498-9.498-16.29s4.189-12.897,10.351-15.762c1.322-0.615,32.919-15.135,79.414-21.683
						c48.698-6.854,95.878-2.348,138.408,13.021l-5.394-24.815c-1.122-5.161,0.092-10.554,3.315-14.736
						c3.225-4.183,8.13-6.729,13.406-6.959c1.668-0.073,41.272-1.584,89.271,14.618c64.101,21.639,112.946,64.756,141.255,124.689
						c28.892,61.17,40.678,122.071,35.03,181.014c-4.691,48.961-20.019,84.717-29.176,106.081
						c-2.544,5.936-8.087,10.042-14.507,10.746C3351.507,2997.404,3350.854,2997.44,3350.205,2997.44z M2837.469,2947.488
						c102.541,4.809,197.012-31.58,260.003-64.311c74.259-38.586,122.373-80.745,122.851-81.166
						c3.793-3.348,8.836-4.94,13.857-4.374c5.028,0.566,9.586,3.229,12.541,7.336l98.901,137.511
						c16.382-47.153,31.127-125.389-17.195-227.695c-24.397-51.654-64.88-87.334-120.323-106.05
						c-21.352-7.208-40.726-10.387-54.604-11.771l7.947,36.562c1.482,6.818-1.131,13.877-6.696,18.086s-13.068,4.802-19.226,1.522
						c-68.634-36.572-139.614-28.335-181.582-17.773l43.657,23.204c7.025,3.733,10.745,11.654,9.132,19.445
						c-1.613,7.79-8.173,13.582-16.103,14.22c-0.663,0.055-68.941,6.084-106.32,41.623c-30.262,28.772-43.865,67.126-49.816,91.908
						l54.508-12.716c7.76-1.809,15.787,1.728,19.688,8.679c3.899,6.952,2.735,15.645-2.856,21.325
						C2869.883,2879.571,2848.139,2922.434,2837.469,2947.488z" class="color23187a svgShape"></path><path fill="#ffd56c" d="M3438.541,3552.419c3.275-20.632-12.667-39.306-33.558-39.306h-342.205
					c-17.188,0-31.669,12.836-33.732,29.899l-58.255,481.79c-2.447,20.236,13.35,38.057,33.732,38.057h339.809
					c17.769,0,32.538-13.691,33.881-31.41L3438.541,3552.419z" class="colorffd56c svgShape"></path><path fill="#23187a" d="M3344.332,4080.768h-339.809c-14.836,0-28.989-6.367-38.829-17.469
					c-9.841-11.103-14.464-25.917-12.684-40.646l58.256-481.79c3.147-26.03,25.293-45.658,51.512-45.658h342.204
					c15.205,0,29.589,6.632,39.462,18.195c9.803,11.482,14.106,26.595,11.833,41.509l-60.246,478.384
					C3393.756,4059.955,3371.142,4080.768,3344.332,4080.768z M3062.778,3531.021c-8.12,0-14.979,6.08-15.953,14.142
					l-58.256,481.789c-0.56,4.629,0.835,9.1,3.928,12.588c3.093,3.489,7.364,5.411,12.026,5.411h339.809
					c8.354,0,15.392-6.525,16.023-14.855c0.022-0.295,0.052-0.59,0.089-0.883l60.328-479.03c0.024-0.19,0.052-0.381,0.081-0.57
					c1.012-6.368-1.853-10.851-3.649-12.955s-5.774-5.636-12.222-5.636H3062.778z" class="color23187a svgShape"></path><path fill="#6ecbff" d="M3477.836,3707.557l-253.782,71.721c-34.451,9.736-58.238,41.177-58.238,76.977l0,0
					c0,44.178,35.813,79.992,79.992,79.992h233.18L3477.836,3707.557z" class="color6ecbff svgShape"></path><path fill="#23187a" d="M3478.988,3954.155h-233.181c-53.982,0-97.899-43.918-97.899-97.9
					c0-43.609,29.31-82.35,71.275-94.21l253.782-71.721c9.518-2.689,19.414,2.845,22.104,12.363
					c2.69,9.518-2.845,19.414-12.363,22.104l-253.782,71.721c-26.612,7.521-45.199,32.089-45.199,59.743
					c0,34.233,27.851,62.084,62.083,62.084h233.181c9.891,0,17.908,8.018,17.908,17.908S3488.879,3954.155,3478.988,3954.155z" class="color23187a svgShape"></path><g><polygon fill="#ffffff" points="2189.036 3557.849 2189.036 2817.578 1547.942 2447.442 906.848 2817.578 906.848 3557.849 1547.942 3927.985" class="colorfff svgShape"></polygon><path fill="#23187a" d="M1547.942,3945.894c-3.092,0-6.184-0.8-8.954-2.399l-641.095-370.136
				c-5.541-3.198-8.954-9.11-8.954-15.509v-740.272c0-6.398,3.414-12.311,8.955-15.509l641.094-370.136
				c5.54-3.199,12.368-3.199,17.908,0l641.094,370.136c5.541,3.198,8.955,9.11,8.955,15.509v740.272
				c0,6.398-3.414,12.311-8.954,15.509l-641.095,370.136C1554.126,3945.094,1551.034,3945.894,1547.942,3945.894z M924.756,3547.51
				l623.186,359.797l623.186-359.797v-719.593l-623.186-359.796l-623.186,359.796V3547.51z M2189.036,3557.85h0.01H2189.036z" class="color23187a svgShape"></path><path fill="#23187a" d="M2189.02,3579.348c-3.06,0-6.159-0.784-8.994-2.435L897.837,2830.446
				c-8.548-4.976-11.443-15.939-6.466-24.487c4.976-8.547,15.94-11.443,24.487-6.466l1282.188,746.467
				c8.548,4.976,11.443,15.939,6.466,24.487C2201.187,3576.16,2195.186,3579.348,2189.02,3579.348z" class="color23187a svgShape"></path><path fill="#23187a" d="M906.864,3579.348c-6.167,0-12.167-3.188-15.493-8.9c-4.977-8.548-2.082-19.512,6.466-24.487
				l1282.188-746.467c8.549-4.978,19.511-2.08,24.487,6.466c4.977,8.548,2.082,19.512-6.466,24.487L915.858,3576.913
				C913.024,3578.563,909.923,3579.348,906.864,3579.348z" class="color23187a svgShape"></path><path fill="#23187a" d="M1547.942,3945.894c-9.891,0-17.909-8.018-17.909-17.908V2447.442
				c0-9.891,8.018-17.909,17.909-17.909s17.909,8.018,17.909,17.909v1480.543
				C1565.851,3937.876,1557.833,3945.894,1547.942,3945.894z" class="color23187a svgShape"></path><circle cx="1547.942" cy="2447.442" r="111.607" fill="#ffffff" class="colorfff svgShape"></circle><path fill="#23187a" d="M1547.942,2576.957c-71.415,0-129.516-58.1-129.516-129.515
				c0-71.415,58.101-129.516,129.516-129.516s129.516,58.101,129.516,129.516
				C1677.458,2518.857,1619.357,2576.957,1547.942,2576.957z M1547.942,2353.744c-51.666,0-93.698,42.033-93.698,93.698
				s42.033,93.699,93.698,93.699s93.698-42.033,93.698-93.699S1599.607,2353.744,1547.942,2353.744z" class="color23187a svgShape"></path><circle cx="2189.036" cy="2814.969" r="111.607" fill="#ffd56c" transform="rotate(-45.001 2189.014 2815.008)" class="colorffd56c svgShape"></circle><path fill="#23187a" d="M2189.036,2944.484c-71.416,0-129.516-58.1-129.516-129.515s58.101-129.516,129.516-129.516
				c71.415,0,129.516,58.101,129.516,129.516S2260.451,2944.484,2189.036,2944.484z M2189.036,2721.271
				c-51.666,0-93.699,42.033-93.699,93.699c0,51.665,42.033,93.698,93.699,93.698s93.698-42.033,93.698-93.698
				C2282.734,2763.304,2240.702,2721.271,2189.036,2721.271z" class="color23187a svgShape"></path><circle cx="2189.036" cy="3561.437" r="111.607" fill="#6ecbff" transform="rotate(-45.001 2189.005 3561.479)" class="color6ecbff svgShape"></circle><path fill="#23187a" d="M2189.036,3690.951c-71.416,0-129.516-58.1-129.516-129.515s58.101-129.516,129.516-129.516
				c71.415,0,129.516,58.101,129.516,129.516S2260.451,3690.951,2189.036,3690.951z M2189.036,3467.737
				c-51.666,0-93.699,42.033-93.699,93.699c0,51.665,42.033,93.698,93.699,93.698s93.698-42.033,93.698-93.698
				C2282.734,3509.771,2240.702,3467.737,2189.036,3467.737z" class="color23187a svgShape"></path><circle cx="1547.902" cy="3927.985" r="111.607" fill="#ffffff" class="colorfff svgShape"></circle><path fill="#23187a" d="M1547.902,4057.5c-71.415,0-129.516-58.1-129.516-129.515s58.101-129.516,129.516-129.516
				s129.516,58.101,129.516,129.516S1619.317,4057.5,1547.902,4057.5z M1547.902,3834.286c-51.666,0-93.698,42.033-93.698,93.699
				c0,51.665,42.033,93.698,93.698,93.698s93.698-42.033,93.698-93.698C1641.601,3876.319,1599.568,3834.286,1547.902,3834.286z" class="color23187a svgShape"></path><circle cx="906.848" cy="3561.437" r="111.607" fill="#ffd56c" transform="rotate(-45.001 906.81 3561.464)" class="colorffd56c svgShape"></circle><path fill="#23187a" d="M906.848,3690.951c-71.415,0-129.516-58.1-129.516-129.515s58.101-129.516,129.516-129.516
				s129.516,58.101,129.516,129.516S978.263,3690.951,906.848,3690.951z M906.848,3467.737c-51.666,0-93.698,42.033-93.698,93.699
				c0,51.665,42.033,93.698,93.698,93.698s93.698-42.033,93.698-93.698C1000.546,3509.771,958.513,3467.737,906.848,3467.737z" class="color23187a svgShape"></path><circle cx="906.848" cy="2814.969" r="111.607" fill="#6ecbff" transform="rotate(-45.001 906.82 2814.993)" class="color6ecbff svgShape"></circle><path fill="#23187a" d="M906.848,2944.484c-71.415,0-129.516-58.1-129.516-129.515s58.101-129.516,129.516-129.516
				s129.516,58.101,129.516,129.516S978.263,2944.484,906.848,2944.484z M906.848,2721.271c-51.666,0-93.698,42.033-93.698,93.699
				c0,51.665,42.033,93.698,93.698,93.698s93.698-42.033,93.698-93.698C1000.546,2763.304,958.513,2721.271,906.848,2721.271z" class="color23187a svgShape"></path><circle cx="1547.942" cy="3188.203" r="470.2" fill="#ffd56c" class="colorffd56c svgShape"></circle><path fill="#23187a" d="M1547.942,3676.311c-65.886,0-129.812-12.907-190-38.365
				c-58.125-24.585-110.324-59.776-155.145-104.598c-44.821-44.821-80.013-97.02-104.599-155.146
				c-25.457-60.188-38.365-124.113-38.365-189.999c0-65.887,12.908-129.812,38.365-189.999
				c24.585-58.126,59.777-110.325,104.599-155.146c44.821-44.821,97.02-80.013,155.145-104.598
				c60.188-25.458,124.113-38.365,190-38.365s129.812,12.907,190,38.365c58.125,24.585,110.324,59.776,155.145,104.598
				c44.821,44.821,80.013,97.021,104.599,155.146c25.457,60.188,38.365,124.112,38.365,189.999
				c0,65.886-12.908,129.811-38.365,189.999c-24.585,58.126-59.777,110.324-104.599,155.146
				c-44.821,44.821-97.02,80.013-155.145,104.598C1677.753,3663.403,1613.828,3676.311,1547.942,3676.311z M1547.942,2735.911
				c-249.394,0-452.291,202.897-452.291,452.292c0,249.394,202.897,452.291,452.291,452.291s452.291-202.897,452.291-452.291
				C2000.233,2938.809,1797.336,2735.911,1547.942,2735.911z" class="color23187a svgShape"></path><g><path fill="#ffffff" d="M1367.169,3459.362l44.108-42.72c3.983-3.858,9.954-4.539,14.837-1.912
				c12.906,6.947,26.282,12.715,39.975,17.3c5.262,1.761,8.835,6.58,8.746,12.128l-0.981,61.404
				c-0.096,5.997,4.688,10.935,10.684,11.031l116.285,1.858c5.996,0.096,10.935-4.688,11.031-10.685l0.981-61.404
				c0.089-5.548,3.814-10.25,9.129-11.843c13.834-4.146,27.387-9.484,40.508-16.014c4.964-2.471,10.91-1.599,14.768,2.384
				l42.72,44.108c4.173,4.308,11.048,4.417,15.356,0.245l83.539-80.912c4.308-4.173,4.418-11.048,0.245-15.355l-42.721-44.108
				c-3.858-3.983-4.539-9.954-1.911-14.837c6.947-12.906,12.716-26.281,17.3-39.975c1.762-5.262,6.581-8.835,12.129-8.746
				l61.404,0.981c5.996,0.096,10.935-4.688,11.031-10.684l1.858-116.285c0.096-5.997-4.688-10.936-10.684-11.031l-61.404-0.981
				c-5.548-0.089-10.25-3.814-11.843-9.129c-4.145-13.833-9.483-27.386-16.014-40.508c-2.471-4.964-1.599-10.91,2.384-14.768
				l44.107-42.72c4.308-4.172,4.418-11.047,0.245-15.355l-80.912-83.54c-4.172-4.308-11.047-4.418-15.355-0.245l-44.107,42.72
				c-3.983,3.857-9.953,4.539-14.837,1.911c-12.906-6.947-26.281-12.715-39.975-17.3c-5.261-1.762-8.835-6.58-8.746-12.128
				l0.981-61.404c0.096-5.997-4.688-10.936-10.685-11.031l-116.285-1.858c-5.997-0.096-10.936,4.688-11.031,10.685l-0.981,61.404
				c-0.089,5.548-3.814,10.25-9.129,11.843c-13.833,4.145-27.386,9.483-40.507,16.014c-4.964,2.471-10.91,1.599-14.768-2.384
				l-42.721-44.108c-4.172-4.308-11.047-4.418-15.355-0.245l-83.539,80.912c-4.308,4.173-4.418,11.047-0.245,15.356l42.72,44.108
				c3.858,3.983,4.539,9.954,1.911,14.837c-6.947,12.906-12.715,26.281-17.3,39.975c-1.762,5.262-6.581,8.834-12.129,8.746
				l-61.404-0.981c-5.997-0.096-10.936,4.688-11.031,10.684l-1.858,116.285c-0.096,5.997,4.688,10.935,10.684,11.031l61.404,0.981
				c5.548,0.089,10.25,3.814,11.843,9.129c4.145,13.833,9.483,27.386,16.014,40.508c2.471,4.964,1.599,10.91-2.384,14.768
				l-44.107,42.72c-4.308,4.173-4.418,11.047-0.245,15.355l80.912,83.539C1355.986,3463.424,1362.861,3463.534,1367.169,3459.362z
				 M1459.865,3273.51c-47.113-48.643-45.873-126.27,2.77-173.383c48.643-47.113,126.27-45.873,173.383,2.77
				c47.113,48.643,45.873,126.27-2.77,173.383C1584.605,3323.393,1506.979,3322.152,1459.865,3273.51z" class="colorfff svgShape"></path><path fill="#23187a" d="M1601.011,3536.361c-0.159,0-0.317-0.001-0.477-0.004l-116.282-1.857
				c-7.683-0.122-14.859-3.23-20.205-8.75s-8.223-12.791-8.1-20.475l0.918-57.476c-12.317-4.314-24.381-9.535-35.952-15.561
				l-41.285,39.986c0,0-0.001,0-0.001,0.001c-11.394,11.033-29.642,10.741-40.677-0.65l-80.912-83.541
				c-5.345-5.518-8.223-12.789-8.1-20.474c0.123-7.683,3.23-14.858,8.75-20.204l41.284-39.985
				c-5.653-11.761-10.486-23.984-14.404-36.432l-57.476-0.919c-7.683-0.123-14.859-3.23-20.205-8.75
				c-5.346-5.521-8.223-12.791-8.099-20.475l1.858-116.284c0.123-7.683,3.23-14.858,8.75-20.205c5.52-5.345,12.788-8.23,20.474-8.1
				l57.477,0.919c4.313-12.316,9.534-24.379,15.561-35.953l-39.986-41.285c-5.346-5.518-8.223-12.789-8.1-20.474
				c0.123-7.683,3.23-14.857,8.749-20.204l83.541-80.912c5.52-5.346,12.787-8.252,20.474-8.1c7.685,0.122,14.861,3.23,20.207,8.752
				l39.985,41.282c11.76-5.653,23.983-10.486,36.431-14.404l0.919-57.477c0.253-15.859,13.371-28.579,29.223-28.305l116.285,1.858
				c15.86,0.253,28.558,13.362,28.305,29.224l-0.918,57.476c12.315,4.313,24.378,9.534,35.953,15.561l41.284-39.985
				c5.52-5.346,12.799-8.229,20.474-8.1c7.684,0.122,14.86,3.229,20.207,8.751l80.91,83.538c5.346,5.518,8.223,12.789,8.1,20.473
				c-0.123,7.684-3.23,14.859-8.75,20.205l-41.284,39.986c5.653,11.76,10.486,23.983,14.404,36.432l57.476,0.919
				c7.683,0.123,14.859,3.229,20.205,8.749c5.347,5.521,8.224,12.792,8.1,20.476l-1.858,116.283
				c-0.123,7.684-3.23,14.858-8.75,20.205s-12.79,8.272-20.474,8.1l-57.476-0.919c-4.313,12.315-9.534,24.379-15.561,35.954
				l39.985,41.284c5.346,5.52,8.223,12.791,8.1,20.474c-0.123,7.685-3.23,14.86-8.75,20.206l-83.538,80.911
				c-11.396,11.034-29.643,10.743-40.678-0.648l-39.987-41.286c-11.759,5.653-23.982,10.486-36.431,14.404l-0.918,57.476
				c-0.123,7.684-3.231,14.859-8.75,20.205C1615.605,3533.494,1608.518,3536.361,1601.011,3536.361z M1491.873,3498.8l102.188,1.633
				l0.868-54.355c0.213-13.313,9.012-24.851,21.894-28.712c12.923-3.872,25.596-8.883,37.668-14.892
				c12.046-5.993,26.356-3.6,35.612,5.957l37.817,39.045l73.412-71.104l-37.816-39.044c-9.258-9.559-11.193-23.938-4.816-35.784
				c6.393-11.878,11.806-24.385,16.087-37.173c4.269-12.752,16.071-21.195,29.394-20.967l54.358,0.869l1.632-102.188l-54.355-0.869
				c-13.314-0.213-24.853-9.013-28.712-21.896c-3.872-12.92-8.882-25.594-14.892-37.667c-5.994-12.043-3.6-26.354,5.958-35.611
				l39.043-37.816l-71.103-73.411l-39.044,37.815c-9.558,9.255-23.936,11.191-35.783,4.817
				c-11.878-6.394-24.385-11.807-37.174-16.088c-12.752-4.271-21.179-16.083-20.966-29.396l0.868-54.356l-102.188-1.634
				l-0.869,54.356c-0.213,13.313-9.012,24.852-21.895,28.712c-12.921,3.872-25.594,8.882-37.668,14.892
				c-12.043,5.996-26.354,3.601-35.611-5.957l-37.817-39.044l-73.412,71.103l37.816,39.045c9.258,9.559,11.193,23.939,4.815,35.785
				c-6.392,11.874-11.804,24.381-16.086,37.171c-4.217,12.596-15.794,20.971-28.906,20.971c-0.163,0-0.325-0.001-0.488-0.004
				l-54.358-0.869l-1.632,102.188l54.355,0.869c13.314,0.213,24.853,9.013,28.712,21.896c3.872,12.919,8.882,25.593,14.892,37.667
				c5.994,12.043,3.6,26.354-5.958,35.611l-39.043,37.815l71.103,73.412l39.044-37.815c9.557-9.257,23.937-11.192,35.783-4.817
				c11.874,6.392,24.381,11.804,37.174,16.087c12.752,4.271,21.179,16.084,20.966,29.396L1491.873,3498.8z M1367.169,3459.361h0.01
				H1367.169z M1354.721,3446.486c-0.003,0.004-0.007,0.007-0.01,0.01L1354.721,3446.486z M1547.963,3328.662
				c-36.742,0-73.442-14.279-100.962-42.692c0-0.001,0-0.001,0-0.001c-53.908-55.659-52.484-144.799,3.174-198.707
				c26.962-26.114,62.468-40.173,100.011-39.565c37.531,0.6,72.582,15.778,98.695,42.741c26.114,26.961,40.166,62.479,39.566,100.01
				c-0.6,37.531-15.779,72.582-42.741,98.696C1618.463,3315.531,1583.194,3328.662,1547.963,3328.662z M1472.729,3261.051
				c40.169,41.473,106.588,42.533,148.06,2.364c20.09-19.458,31.4-45.575,31.847-73.54s-10.023-54.43-29.481-74.52
				c-40.168-41.472-106.588-42.533-148.06-2.365C1433.622,3153.158,1432.561,3219.577,1472.729,3261.051L1472.729,3261.051z" class="color23187a svgShape"></path></g></g></svg>