<svg xmlns="http://www.w3.org/2000/svg" viewBox="0 0 24 24" width="256" height="256"><rect width="5.999" height="2" x="9" y="12" fill="#5cfaa9" transform="rotate(-45 12 13)" class="color5cfaa9 svgShape"></rect><path fill="#212529" d="M20.1543,3.8906A10.4164,10.4164,0,0,1,17.41,3.0879,10.3834,10.3834,0,0,1,14.3115.9473a3.373,3.373,0,0,0-4.624,0A10.3663,10.3663,0,0,1,6.59,3.0879a10.4153,10.4153,0,0,1-2.7441.8027A3.2955,3.2955,0,0,0,1,7.1582V13a11,11,0,0,0,22,0V7.1582A3.2955,3.2955,0,0,0,20.1543,3.8906ZM21,13A9,9,0,0,1,3,13V7.1582A1.3078,1.3078,0,0,1,4.1387,5.8691,12.4358,12.4358,0,0,0,7.41,4.9121a12.3721,12.3721,0,0,0,3.6923-2.5508,1.2941,1.2941,0,0,1,1.794,0A12.3893,12.3893,0,0,0,16.59,4.9121a12.4358,12.4358,0,0,0,3.2715.957A1.3078,1.3078,0,0,1,21,7.1582Z" class="color212529 svgShape"></path><path fill="#212529" d="M18,11a1,1,0,0,0-1,1H15.858a3.9573,3.9573,0,0,0-.4247-1.0192l.8093-.8092a1,1,0,1,0,1.4143-1.4143L16.2426,7.3431a1,1,0,1,0-1.4142,1.4142l-.8092.8093A3.957,3.957,0,0,0,13,9.142V8a1,1,0,0,0,0-2H11a1,1,0,0,0,0,2V9.142a3.957,3.957,0,0,0-1.0192.4246l-.8092-.8093A1,1,0,0,0,7.7574,7.3431L6.3431,8.7573a1,1,0,0,0,1.4143,1.4143l.8093.8092A3.9573,3.9573,0,0,0,8.142,12H7a1,1,0,0,0-2,0v2a1,1,0,0,0,2,0H8.142a3.957,3.957,0,0,0,.4246,1.0192l-.8092.8092a1,1,0,1,0-1.4143,1.4142l1.4143,1.4143a1,1,0,1,0,1.4142-1.4143l.8092-.8092A3.957,3.957,0,0,0,11,16.858V18a1,1,0,0,0,0,2h2a1,1,0,0,0,0-2V16.858a3.957,3.957,0,0,0,1.0192-.4246l.8092.8092a1,1,0,1,0,1.4142,1.4143l1.4143-1.4143a1,1,0,1,0-1.4143-1.4142l-.8092-.8092A3.957,3.957,0,0,0,15.858,14H17a1,1,0,0,0,2,0V12A1,1,0,0,0,18,11Zm-6,4a2,2,0,1,1,2-2A2.0027,2.0027,0,0,1,12,15Z" class="color212529 svgShape"></path></svg>