<svg xmlns="http://www.w3.org/2000/svg" enable-background="new 0 0 5000 5000" viewBox="0 0 5000 5000" width="256" height="256"><path fill="#23187a" d="M2818.51 4200.194c-8.527 0-16.22-5.888-18.167-14.556-2.257-10.043 4.056-20.015 14.099-22.271 65.543-14.726 130.899-33.444 194.255-55.637 9.715-3.401 20.349 1.714 23.751 11.429 3.403 9.714-1.714 20.349-11.429 23.751-64.709 22.667-131.463 41.786-198.405 56.826C2821.238 4200.046 2819.862 4200.194 2818.51 4200.194zM3203.385 4065.398c-6.909 0-13.548-3.858-16.773-10.489-4.503-9.257-.649-20.41 8.606-24.913 60.335-29.351 119.659-62.57 176.323-98.735 8.678-5.538 20.202-2.992 25.738 5.684 5.538 8.677 2.993 20.2-5.684 25.738-57.868 36.933-118.453 70.858-180.071 100.833C3208.898 4064.793 3206.12 4065.398 3203.385 4065.398zM3547.147 3846.034c-5.416 0-10.786-2.35-14.471-6.879-6.494-7.985-5.286-19.725 2.7-26.22 52.088-42.363 102.302-88.213 149.246-136.275 7.192-7.364 18.992-7.501 26.356-.31 7.363 7.192 7.502 18.992.31 26.356-47.934 49.075-99.205 95.891-152.393 139.148C3555.44 3844.666 3551.28 3846.034 3547.147 3846.034zM774.896 3121.091c-7.417 0-14.43-4.459-17.331-11.772-25.288-63.769-47.101-129.692-64.833-195.942-2.661-9.944 3.242-20.162 13.186-22.823 9.945-2.664 20.162 3.242 22.823 13.185 17.36 64.863 38.716 129.407 63.475 191.84 3.794 9.568-.886 20.401-10.455 24.195C779.506 3120.667 777.182 3121.091 774.896 3121.091zM669.417 2727.191c-9.096 0-17.056-6.666-18.417-15.933-9.937-67.663-16.069-136.816-18.227-205.539-.323-10.289 7.755-18.891 18.044-19.214 10.312-.287 18.891 7.756 19.214 18.044 2.114 67.307 8.119 135.031 17.85 201.293 1.496 10.185-5.548 19.652-15.732 21.148C671.231 2727.126 670.318 2727.191 669.417 2727.191zM656.566 2319.599c-.512 0-1.027-.021-1.547-.063-10.259-.843-17.892-9.843-17.048-20.103 5.628-68.479 15.278-137.247 28.683-204.391 2.015-10.094 11.832-16.643 21.926-14.628 10.094 2.015 16.644 11.832 14.628 21.926-13.125 65.747-22.575 133.086-28.086 200.146C674.32 2312.226 666.167 2319.599 656.566 2319.599zM736.434 1919.688c-1.901 0-3.833-.293-5.739-.909-9.794-3.168-15.166-13.675-11.998-23.469 20.011-61.874 43.691-123.344 70.383-182.703 4.221-9.388 15.257-13.575 24.642-9.355 9.388 4.222 13.577 15.254 9.355 24.642-26.134 58.12-49.32 118.306-68.913 178.887C751.612 1914.668 744.299 1919.688 736.434 1919.688zM4203.604 2476.231c-.037 0-.074 0-.111 0-10.294-.061-18.589-8.454-18.528-18.748.021-3.44.03-6.877.03-10.313 0-61.663-3.248-123.855-9.654-184.848-1.075-10.237 6.353-19.408 16.589-20.483 10.246-1.069 19.408 6.352 20.483 16.589 6.541 62.282 9.857 125.784 9.857 188.742 0 3.508-.01 7.019-.03 10.532C4222.179 2467.958 4213.846 2476.231 4203.604 2476.231zM4162.318 2084.122c-8.562 0-16.271-5.935-18.186-14.641-13.938-63.4-31.625-126.702-52.57-188.146-3.32-9.743 1.885-20.334 11.628-23.655 9.745-3.321 20.333 1.885 23.655 11.627 21.393 62.759 39.458 127.414 53.693 192.17 2.21 10.054-4.147 19.995-14.201 22.205C4164.99 2083.979 4163.644 2084.122 4162.318 2084.122zM4035.158 1710.929c-6.992 0-13.694-3.953-16.872-10.697-6.725-14.268-13.731-28.631-20.827-42.688-22.185-43.892-46.473-87.344-72.184-129.143-5.394-8.768-2.658-20.247 6.11-25.64 8.768-5.393 20.246-2.658 25.64 6.11 26.253 42.678 51.051 87.044 73.706 131.867 7.251 14.366 14.407 29.033 21.273 43.604 4.389 9.312.397 20.417-8.914 24.805C4040.523 1710.356 4037.819 1710.929 4035.158 1710.929zM3828.545 1375.085c-5.546 0-11.035-2.464-14.71-7.177-39.917-51.185-83.147-100.708-128.489-147.195-7.187-7.369-7.04-19.168.329-26.356 7.367-7.187 19.167-7.041 26.356.329 46.297 47.467 90.438 98.034 131.198 150.298 6.33 8.117 4.882 19.829-3.235 26.159C3836.59 1373.798 3832.552 1375.085 3828.545 1375.085zM3553.206 1092.823c-4.16 0-8.347-1.386-11.813-4.231-50.224-41.219-103.272-80.045-157.674-115.398-8.631-5.609-11.08-17.153-5.472-25.784 5.609-8.631 17.153-11.08 25.784-5.472 55.553 36.102 109.724 75.749 161.01 117.84 7.957 6.53 9.113 18.274 2.583 26.231C3563.939 1090.498 3558.594 1092.823 3553.206 1092.823zM3222.556 877.992c-2.808 0-5.658-.637-8.34-1.981-58.069-29.118-118.39-55.251-179.285-77.676-9.659-3.557-14.606-14.271-11.05-23.93s14.27-14.608 23.931-11.049c62.196 22.903 123.805 49.595 183.113 79.334 9.201 4.614 12.92 15.813 8.307 25.015C3235.962 874.224 3229.385 877.992 3222.556 877.992zM2852.529 741.731c-1.472 0-2.966-.175-4.459-.542-62.969-15.461-127.602-27.553-192.104-35.939-10.207-1.327-17.406-10.678-16.079-20.885 1.326-10.208 10.673-17.41 20.886-16.08 65.871 8.564 131.878 20.913 196.187 36.704 9.996 2.454 16.11 12.548 13.656 22.544C2868.527 736.037 2860.911 741.731 2852.529 741.731zM2264.261 697.689c-.146 0-.292-.002-.439-.005l-.125-.003c-10.291-.242-18.437-8.781-18.194-19.071.231-9.833 8.039-17.708 17.711-18.177 54.175-4.829 109.095-7.278 163.24-7.278 11.742 0 23.648.116 35.388.343 10.292.2 18.473 8.705 18.272 18.996-.2 10.292-8.693 18.448-18.996 18.273-11.499-.223-23.162-.336-34.664-.336-53.246 0-107.257 2.417-160.533 7.184C2265.369 697.664 2264.815 697.689 2264.261 697.689zM1338.047 3870.672c-3.995 0-8.02-1.278-11.419-3.919-54.171-42.072-106.482-87.726-155.48-135.693-7.355-7.201-7.481-19.001-.28-26.356 7.2-7.357 19.001-7.483 26.356-.28 47.986 46.977 99.217 91.688 152.269 132.891 8.13 6.313 9.602 18.022 3.288 26.152C1349.107 3868.195 1343.606 3870.672 1338.047 3870.672zM1046.678 3585.383c-5.426 0-10.804-2.356-14.488-6.899-15.012-18.513-29.852-37.581-44.112-56.681-.4-.496-.999-1.247-1.637-2.253-5.79-7.622-11.536-15.457-17.092-23.307-19.747-27.278-38.898-55.546-56.943-84.047-2.321-3.122-3.695-6.987-3.695-11.168 0-10.294 8.345-18.638 18.638-18.638 5.152 0 9.815 2.09 13.189 5.469 1.011.993 1.916 2.109 2.69 3.335 17.847 28.237 36.813 56.254 56.374 83.272.04.054.078.108.117.163 5.565 7.863 11.33 15.712 17.132 23.327.305.401.594.813.865 1.236.028.036.055.072.083.109 14.031 18.798 28.604 37.524 43.344 55.702 6.483 7.995 5.258 19.732-2.737 26.216C1054.953 3584.021 1050.801 3585.383 1046.678 3585.383zM1019.706 3503.354c.002.007.004.013.006.02C1019.71 3503.366 1019.708 3503.36 1019.706 3503.354zM1019.701 3503.339c0 .002.001.004.002.006C1019.702 3503.343 1019.701 3503.341 1019.701 3503.339zM945.987 3401.028h.01H945.987zM927.588 3382.515c.821.005 1.636.064 2.438.175C929.228 3382.579 928.414 3382.52 927.588 3382.515zM927.554 3382.515c.009 0 .018 0 .027 0C927.572 3382.515 927.563 3382.515 927.554 3382.515zM927.519 3382.515c.008 0 .016 0 .024 0C927.535 3382.515 927.527 3382.515 927.519 3382.515zM927.474 3382.515c.011 0 .023 0 .034 0C927.497 3382.515 927.485 3382.515 927.474 3382.515z" class="color23187a svgShape"></path><circle cx="2427.037" cy="2448.317" r="1304.385" fill="#b6e7ff" class="colorb6e7ff svgShape"></circle><path fill="#ffffff" d="M2798.518,3326.364h964.845c39.275,0,71.113-31.839,71.113-71.113V1634.507
					c0-39.277-31.838-71.115-71.113-71.115h-964.845c-39.275,0-71.114,31.838-71.114,71.115v1620.744
					C2727.405,3294.525,2759.243,3326.364,2798.518,3326.364z" class="colorfff svgShape"></path><path fill="#23187a" d="M3763.363,3345.002h-964.846c-49.489,0-89.751-40.262-89.751-89.751V1634.507
					c0-49.49,40.262-89.753,89.751-89.753h964.846c49.489,0,89.751,40.263,89.751,89.753v1620.744
					C3853.114,3304.74,3812.853,3345.002,3763.363,3345.002z M2798.518,1582.029c-28.935,0-52.476,23.542-52.476,52.478v1620.744
					c0,28.935,23.541,52.476,52.476,52.476h964.846c28.935,0,52.476-23.541,52.476-52.476V1634.507
					c0-28.936-23.541-52.478-52.476-52.478H2798.518z" class="color23187a svgShape"></path><circle cx="2977.292" cy="3090.307" r="81.097" fill="#6ecbff" class="color6ecbff svgShape"></circle><path fill="#23187a" d="M2977.293,3190.041c-54.994,0-99.735-44.74-99.735-99.734s44.741-99.734,99.735-99.734
					c54.993,0,99.733,44.74,99.733,99.734S3032.286,3190.041,2977.293,3190.041z M2977.293,3027.848
					c-34.44,0-62.46,28.02-62.46,62.459s28.02,62.459,62.46,62.459c34.439,0,62.458-28.02,62.458-62.459
					S3011.732,3027.848,2977.293,3027.848z" class="color23187a svgShape"></path><path fill="#ffffff" d="M3660.329,2804.362h-781.478H3660.329z" class="colorfff svgShape"></path><path fill="#23187a" d="M3660.329,2822.999h-781.479c-10.293,0-18.638-8.345-18.638-18.638s8.345-18.638,18.638-18.638
					h781.479c10.293,0,18.638,8.345,18.638,18.638S3670.622,2822.999,3660.329,2822.999z" class="color23187a svgShape"></path><rect width="805.894" height="184.766" x="2878.851" y="1728.672" fill="#ffd56c" class="colorffd56c svgShape"></rect><path fill="#23187a" d="M3684.745,1932.077h-805.895c-10.293,0-18.638-8.345-18.638-18.638v-184.767
					c0-10.293,8.345-18.638,18.638-18.638h805.895c10.293,0,18.638,8.345,18.638,18.638v184.767
					C3703.383,1923.732,3695.038,1932.077,3684.745,1932.077z M2897.488,1894.801h768.619v-147.49h-768.619V1894.801z" class="color23187a svgShape"></path><rect width="805.894" height="184.766" x="2878.851" y="2058.893" fill="#ffd56c" class="colorffd56c svgShape"></rect><path fill="#23187a" d="M3684.745,2262.297h-805.895c-10.293,0-18.638-8.345-18.638-18.638v-184.767
					c0-10.293,8.345-18.638,18.638-18.638h805.895c10.293,0,18.638,8.345,18.638,18.638v184.767
					C3703.383,2253.953,3695.038,2262.297,3684.745,2262.297z M2897.488,2225.021h768.619v-147.49h-768.619V2225.021z" class="color23187a svgShape"></path><rect width="805.894" height="184.766" x="2878.851" y="2389.113" fill="#ffd56c" class="colorffd56c svgShape"></rect><path fill="#23187a" d="M3684.745,2592.517h-805.895c-10.293,0-18.638-8.344-18.638-18.638v-184.766
					c0-10.293,8.345-18.638,18.638-18.638h805.895c10.293,0,18.638,8.345,18.638,18.638v184.766
					C3703.383,2584.173,3695.038,2592.517,3684.745,2592.517z M2897.488,2555.241h768.619v-147.49h-768.619V2555.241z" class="color23187a svgShape"></path><circle cx="3831.009" cy="3009.21" r="525.719" fill="#ffffff" class="colorfff svgShape"></circle><path fill="#23187a" d="M3831.009,3553.566c-73.479,0-144.771-14.395-211.894-42.785
					c-64.824-27.419-123.038-66.666-173.024-116.652c-49.987-49.987-89.234-108.201-116.653-173.025
					c-28.391-67.123-42.785-138.414-42.785-211.894s14.395-144.771,42.785-211.894c27.419-64.824,66.666-123.038,116.653-173.025
					c49.986-49.986,108.2-89.233,173.024-116.652c67.123-28.39,138.414-42.786,211.894-42.786s144.771,14.396,211.895,42.786
					c64.823,27.419,123.037,66.666,173.024,116.652c49.987,49.987,89.234,108.201,116.652,173.025
					c28.392,67.122,42.786,138.414,42.786,211.894s-14.395,144.771-42.786,211.894c-27.418,64.824-66.665,123.038-116.652,173.025
					c-49.987,49.986-108.201,89.233-173.024,116.652C3975.779,3539.172,3904.488,3553.566,3831.009,3553.566z M3831.009,2502.129
					c-279.605,0-507.081,227.476-507.081,507.081s227.476,507.081,507.081,507.081s507.082-227.476,507.082-507.081
					S4110.614,2502.129,3831.009,2502.129z" class="color23187a svgShape"></path><path fill="#6ecbff" d="M3766.134,3242.318c-18.435,0-36.034-7.818-48.401-21.536l-173.897-192.984
					c-24.081-26.73-21.942-67.925,4.788-92.015c26.722-24.089,67.917-21.95,92.014,4.788l123.722,137.306l248.558-296.466
					c23.127-27.588,64.219-31.175,91.784-8.072c27.572,23.119,31.183,64.211,8.072,91.784l-296.713,353.901
					c-12.12,14.458-29.911,22.944-48.767,23.286C3766.906,3242.318,3766.516,3242.318,3766.134,3242.318z" class="color6ecbff svgShape"></path><path fill="#23187a" d="M3766.134,3260.955c-23.691,0-46.379-10.094-62.244-27.695l-173.898-192.985
					c-30.925-34.324-28.162-87.409,6.155-118.336c16.622-14.983,38.095-22.605,60.437-21.434c22.351,1.162,42.913,10.96,57.9,27.589
					l109.37,121.378l234.783-280.035c29.677-35.402,82.63-40.059,118.039-10.382c35.402,29.685,40.059,82.636,10.383,118.04
					l-296.714,353.903c-15.584,18.591-38.441,29.507-62.712,29.946C3767.153,3260.954,3766.639,3260.955,3766.134,3260.955z
					 M3592.176,2937.666c-11.509,0-22.461,4.198-31.072,11.961c-19.054,17.171-20.587,46.641-3.42,65.695l173.896,192.982
					c8.807,9.77,21.402,15.375,34.555,15.375c0.258,0,0.523,0.001,0.787-0.005c13.515-0.244,26.207-6.304,34.858-16.624
					l296.713-353.903c16.473-19.652,13.888-49.049-5.765-65.526c-19.654-16.475-49.052-13.89-65.525,5.764l-262.335,312.897
					l-138.075-153.234c-8.319-9.231-19.736-14.672-32.145-15.317C3593.821,2937.688,3592.997,2937.666,3592.176,2937.666z" class="color23187a svgShape"></path><g><path fill="#ffffff" d="M968.481,3042.776l-0.004-0.005c-79.766-96.19-10.89-235.376,120.323-243.153l3.334-0.198
					l3.687-42.528c9.689-111.752,143.316-175.467,248.112-118.304l41.496,22.635l33.097-46.523
					c65.009-91.379,210.534-91.378,275.542,0.002l33.094,46.52l41.503-22.639c104.795-57.163,238.42,6.55,248.112,118.3l3.689,42.54
					l3.331,0.197c131.214,7.778,200.088,146.966,120.319,243.155l0,0l0.004,0.005c79.766,96.19,10.89,235.376-120.323,243.153
					l-3.334,0.198l-3.687,42.528c-9.689,111.752-143.316,175.467-248.112,118.304l-41.496-22.635l-33.097,46.523
					c-65.009,91.379-210.534,91.378-275.542-0.002l-33.094-46.52l-41.503,22.639c-104.794,57.163-238.42-6.55-248.112-118.3
					l-3.69-42.54l-3.331-0.198C957.586,3278.154,888.712,3138.965,968.481,3042.776L968.481,3042.776z" class="colorfff svgShape"></path><path fill="#23187a" d="M1556.302,3558.023c-0.002,0,0,0-0.002,0c-29.422,0-58.641-6.56-84.498-18.969
					c-27.441-13.17-51.114-33.02-68.459-57.401l-23.505-33.039l-26.98,14.717c-29.086,15.865-61.951,24.04-95.028,23.618
					c-31.314-0.392-62.348-8.369-89.745-23.068c-24.853-13.335-46.204-32.031-61.745-54.067
					c-16.788-23.804-26.575-50.563-29.087-79.534l-2.333-26.904c-65.497-8.055-120.58-47.508-145.617-105.174
					c-22.547-51.93-16.504-109.01,15.781-155.425c-32.29-46.417-38.331-103.498-15.782-155.432
					c25.038-57.664,80.124-97.116,145.62-105.17l2.332-26.893c2.512-28.971,12.297-55.73,29.085-79.535
					c15.541-22.036,36.892-40.732,61.744-54.068c27.397-14.7,58.431-22.678,89.746-23.07c33.085-0.396,65.944,7.752,95.03,23.618
					l26.973,14.713l23.508-33.044c17.345-24.381,41.019-44.229,68.46-57.399c25.855-12.408,55.077-18.968,84.497-18.968
					c0.001,0-0.001,0,0.001,0c29.422,0,58.641,6.56,84.498,18.97c27.441,13.17,51.114,33.019,68.459,57.4l23.505,33.039
					l26.98-14.717c29.086-15.865,61.937-24.011,95.029-23.618c31.314,0.393,62.348,8.37,89.745,23.07
					c24.853,13.334,46.204,32.03,61.745,54.066c16.789,23.804,26.575,50.563,29.087,79.534l2.333,26.904
					c65.492,8.054,120.579,47.507,145.616,105.172c22.547,51.931,16.505,109.011-15.781,155.427
					c32.29,46.416,38.332,103.497,15.783,155.43c-25.038,57.665-80.125,97.117-145.62,105.171l-2.332,26.893
					c-2.512,28.971-12.298,55.73-29.086,79.535c-15.541,22.037-36.892,40.733-61.744,54.068
					c-27.397,14.701-58.431,22.679-89.746,23.071c-33.081,0.396-65.943-7.753-95.029-23.618l-26.974-14.714l-23.508,33.044
					c-17.346,24.381-41.019,44.229-68.46,57.399C1614.942,3551.464,1585.723,3558.023,1556.302,3558.023z M1385.424,3405.69
					c5.861,0,11.591,2.765,15.199,7.836l33.094,46.52c27.04,38.009,72.865,60.701,122.583,60.702
					c49.718,0,95.544-22.691,122.584-60.701l33.098-46.522c5.471-7.691,15.827-10.078,24.112-5.558l41.496,22.635
					c46.604,25.423,102.418,25.582,149.3,0.426c41.526-22.282,67.521-60.181,71.318-103.979l3.688-42.527
					c0.799-9.212,8.231-16.446,17.462-16.995l3.334-0.198c56.953-3.375,105.39-35.55,126.413-83.968
					c18.795-43.287,11.585-91.367-19.288-128.631c-5.743-6.869-5.803-16.908-0.046-23.851
					c30.909-37.271,38.136-85.377,19.333-128.684c-21.022-48.418-69.459-80.594-126.408-83.969l-3.335-0.198
					c-9.23-0.55-16.662-7.783-17.461-16.995l-3.689-42.539c-3.798-43.797-29.793-81.694-71.319-103.976
					c-46.881-25.153-102.694-24.995-149.299,0.427l-41.503,22.639c-8.285,4.518-18.641,2.132-24.112-5.559l-33.094-46.519
					c-27.04-38.01-72.865-60.702-122.583-60.702s-95.544,22.691-122.584,60.7l-33.098,46.523
					c-5.472,7.69-15.829,10.077-24.112,5.558l-41.496-22.635c-46.606-25.422-102.419-25.582-149.301-0.426
					c-41.526,22.281-67.52,60.18-71.317,103.978l-3.688,42.528c-0.799,9.214-8.234,16.449-17.467,16.995l-3.334,0.197
					c-56.947,3.375-105.384,35.55-126.408,83.968c-18.792,43.279-11.585,91.354,19.274,128.615c5.757,6.87,5.822,16.92,0.061,23.867
					c-30.908,37.271-38.136,85.376-19.333,128.683c21.022,48.418,69.459,80.594,126.409,83.97l3.33,0.197
					c9.232,0.547,16.667,7.781,17.466,16.995l3.689,42.54c3.798,43.797,29.793,81.694,71.319,103.976
					c46.882,25.153,102.694,24.995,149.299-0.428l41.503-22.639C1379.333,3406.429,1382.396,3405.69,1385.424,3405.69z" class="color23187a svgShape"></path><circle cx="1591.716" cy="3709.856" r="47.179" fill="#ffffff" transform="rotate(-22.5 1591.63 3709.697)" class="colorfff svgShape"></circle><path fill="#23187a" d="M1591.716,3775.673c-36.292,0-65.817-29.525-65.817-65.816s29.526-65.816,65.817-65.816
					s65.817,29.525,65.817,65.816S1628.007,3775.673,1591.716,3775.673z M1591.716,3681.315c-15.738,0-28.541,12.804-28.541,28.541
					s12.803,28.541,28.541,28.541c15.737,0,28.541-12.804,28.541-28.541S1607.453,3681.315,1591.716,3681.315z" class="color23187a svgShape"></path><circle cx="2107.615" cy="3595.206" r="277.388" fill="#ffffff" transform="rotate(-45.001 2107.583 3595.248)" class="colorfff svgShape"></circle><path fill="#23187a" d="M2107.615,3891.231c-79.071,0-153.41-30.792-209.322-86.703
					c-55.912-55.912-86.704-130.251-86.704-209.322s30.792-153.41,86.704-209.322c55.912-55.911,130.25-86.703,209.322-86.703
					c79.072,0,153.41,30.792,209.322,86.703c55.912,55.912,86.704,130.251,86.704,209.322s-30.792,153.41-86.704,209.322
					C2261.025,3860.439,2186.687,3891.231,2107.615,3891.231z M2107.615,3336.456c-142.675,0-258.75,116.075-258.75,258.75
					s116.075,258.75,258.75,258.75c142.675,0,258.75-116.075,258.75-258.75S2250.29,3336.456,2107.615,3336.456z" class="color23187a svgShape"></path><path fill="#6ecbff" d="M2618.076,4231.007v-36.332c0-72.761-34.33-138.215-89.274-184.353
					c-0.2-0.1-0.303-0.301-0.501-0.401l-240.601-67.356l-2.602-0.701h-364.105l-10.206,1.802l-235.997,42.335l-0.601,0.1
					c-74.261,45.637-122.903,122.002-122.903,208.573v36.332H2618.076z" class="color6ecbff svgShape"></path><path fill="#23187a" d="M2618.076,4249.645c-10.294,0-18.638-8.345-18.638-18.638v-36.331
					c0-63.887-28.398-123.382-80.053-167.896l-236.758-66.278h-360.001l-8.597,1.519l-233.039,41.805
					c-69.62,44.034-111.066,115.133-111.066,190.851v36.331c0,10.293-8.345,18.638-18.638,18.638s-18.638-8.345-18.638-18.638
					v-36.331c0-89.834,49.265-173.741,131.783-224.452c2.045-1.258,4.314-2.107,6.682-2.504l0.498-0.083l235.886-42.315
					l10.255-1.811c1.071-0.189,2.155-0.284,3.242-0.284h364.105c1.64,0,3.272,0.216,4.855,0.644l2.603,0.702
					c0.056,0.015,0.112,0.03,0.168,0.046l240.601,67.355c1.177,0.33,2.318,0.774,3.409,1.327c1.403,0.712,2.684,1.571,3.882,2.606
					c0.058,0.047,0.114,0.095,0.171,0.143c29.878,25.09,53.416,54.765,69.96,88.2c17.23,34.822,25.966,71.975,25.966,110.426v36.331
					C2636.714,4241.3,2628.37,4249.645,2618.076,4249.645z M2515.402,4023.332c0.007,0.006,0.014,0.013,0.021,0.021
					C2515.416,4023.346,2515.409,4023.339,2515.402,4023.332z M2541.68,3996.893c0.006,0.006,0.012,0.012,0.018,0.018
					C2541.691,3996.904,2541.686,3996.898,2541.68,3996.893z M2537.205,3993.686c0.001,0,0.001,0.001,0.002,0.001
					C2537.206,3993.687,2537.206,3993.686,2537.205,3993.686z M2537.175,3993.671c0.004,0.002,0.008,0.004,0.012,0.006
					C2537.183,3993.675,2537.179,3993.673,2537.175,3993.671z M2537.142,3993.653c0.007,0.004,0.013,0.007,0.02,0.011
					C2537.154,3993.66,2537.147,3993.657,2537.142,3993.653z M2537.105,3993.636c0.01,0.005,0.02,0.01,0.029,0.015
					C2537.125,3993.646,2537.115,3993.641,2537.105,3993.636z" class="color23187a svgShape"></path><path fill="#ffffff" d="M2572.938,4231.007l-44.136-220.685l-74.965-374.613
					c-10.306-51.042-54.445-86.673-104.587-87.672h-2.201c-6.505,0-13.112,0.6-19.716,1.801c-1.4,0.301-2.803,0.501-4.203,0.9
					c-56.649,12.711-93.779,67.957-83.37,125.704l47.94,266.123l0.301,1.5l51.742,286.941H2572.938z" class="colorfff svgShape"></path><path fill="#23187a" d="M2572.919,4249.648c-8.703,0-16.484-6.126-18.257-14.986l-44.136-220.685l-74.964-374.61
					c-8.457-41.882-44.02-71.763-86.507-72.691h-2.006c-5.317,0-10.746,0.49-16.139,1.457c-0.5,0.104-1,0.199-1.5,0.295
					c-0.42,0.08-0.996,0.189-1.189,0.24c-0.342,0.098-0.664,0.18-1.01,0.257c-47.37,10.629-77.727,56.404-69.109,104.212
					l47.908,265.941l0.266,1.324c0.023,0.118,0.046,0.237,0.068,0.356l51.742,286.94c1.827,10.13-4.905,19.823-15.035,21.649
					c-10.132,1.832-19.823-4.904-21.65-15.034l-51.709-286.759l-0.266-1.325c-0.024-0.119-0.047-0.239-0.068-0.359l-47.94-266.123
					c-5.881-32.627,0.997-65.789,19.368-93.376c18.222-27.362,45.844-46.426,77.821-53.718c1.494-0.399,2.824-0.652,3.827-0.844
					c0.329-0.063,0.658-0.123,0.986-0.194c0.192-0.041,0.386-0.079,0.579-0.114c7.667-1.395,15.423-2.102,23.051-2.102h2.202
					c0.124,0,0.248,0.001,0.371,0.003c28.641,0.571,56.611,10.997,78.756,29.356c22.412,18.58,37.941,44.599,43.729,73.261
					l74.971,374.645l44.137,220.687c2.019,10.094-4.527,19.913-14.621,21.932C2575.36,4249.529,2574.13,4249.648,2572.919,4249.648z
					" class="color23187a svgShape"></path><path fill="#ffffff" d="M1858.943,4231.007l51.845-287.341l48.138-267.223c10.609-59.148-28.522-115.696-87.573-126.604
					c-0.401-0.1-0.799-0.1-1.2-0.2l-19.917-1.6c-50.442,0.699-95.179,36.429-105.388,87.672l-70.058,350.292l-49.042,245.005
					H1858.943z" class="colorfff svgShape"></path><path fill="#23187a" d="M1625.768 4249.648c-1.213 0-2.443-.119-3.678-.366-10.093-2.021-16.638-11.84-14.617-21.934l49.042-245.005 70.058-350.289c5.733-28.778 21.377-54.897 44.047-73.532 22.359-18.379 50.542-28.722 79.358-29.121.583-.008 1.168.012 1.751.059l19.917 1.601c.604.049 1.205.127 1.801.233.404.056.958.141 1.604.275 33.309 6.236 62.256 25.006 81.538 52.878 19.343 27.961 26.688 61.801 20.682 95.287l-48.141 267.237-51.846 287.345c-1.828 10.129-11.518 16.863-21.651 15.032-10.13-1.828-16.86-11.521-15.032-21.651l51.845-287.34 48.137-267.219c8.76-48.836-23.779-95.91-72.545-104.959-.068-.009-.139-.02-.215-.03l-18.164-1.46c-41.998.976-78.314 31.411-86.532 72.662l-70.061 350.306-49.043 245.008C1642.25 4243.523 1634.468 4249.647 1625.768 4249.648zM1874.627 3531.546c.007.001.014.003.021.005C1874.641 3531.549 1874.634 3531.547 1874.627 3531.546zM2159.617 3804.736c-6.377 0-12.588-3.274-16.065-9.162-10.281-17.407-29.207-28.221-49.393-28.221-20.194 0-38.521 10.32-49.025 27.607-5.345 8.798-16.81 11.595-25.606 6.249-8.797-5.345-11.595-16.81-6.25-25.606 17.322-28.507 47.558-45.525 80.881-45.525 33.309 0 64.534 17.833 81.488 46.539 5.235 8.863 2.293 20.292-6.57 25.526C2166.103 3803.9 2162.838 3804.736 2159.617 3804.736z" class="color23187a svgShape"></path><path fill="#ffffff" d="M1801.313,3314.89h-481.472c-19.599,0-35.486-15.888-35.486-35.486v-808.775
					c0-19.6,15.888-35.488,35.486-35.488h481.472c19.599,0,35.487,15.888,35.487,35.488v808.775
					C1836.799,3299.002,1820.911,3314.89,1801.313,3314.89z" class="colorfff svgShape"></path><path fill="#23187a" d="M1801.313,3333.527h-481.472c-29.844,0-54.125-24.279-54.125-54.124v-808.775
					c0-29.845,24.281-54.126,54.125-54.126h481.472c29.844,0,54.125,24.281,54.125,54.126v808.775
					C1855.438,3309.248,1831.157,3333.527,1801.313,3333.527z M1319.841,2453.779c-9.291,0-16.849,7.559-16.849,16.85v808.775
					c0,9.29,7.558,16.849,16.849,16.849h481.472c9.291,0,16.849-7.559,16.849-16.849v-808.775c0-9.291-7.558-16.85-16.849-16.85
					H1319.841z" class="color23187a svgShape"></path><circle cx="1712.101" cy="3197.094" r="40.468" fill="#6ecbff" class="color6ecbff svgShape"></circle><path fill="#23187a" d="M1712.102,3256.2c-32.592,0-59.107-26.515-59.107-59.106c0-32.591,26.515-59.105,59.107-59.105
					c32.591,0,59.106,26.515,59.106,59.105C1771.208,3229.686,1744.693,3256.2,1712.102,3256.2z M1712.102,3175.264
					c-12.038,0-21.831,9.793-21.831,21.83s9.793,21.831,21.831,21.831c12.037,0,21.83-9.794,21.83-21.831
					S1724.139,3175.264,1712.102,3175.264z" class="color23187a svgShape"></path><path fill="#ffffff" d="M1371.256,3042.776h389.969H1371.256z" class="colorfff svgShape"></path><path fill="#23187a" d="M1761.226,3061.414h-389.969c-10.293,0-18.638-8.344-18.638-18.638s8.345-18.638,18.638-18.638
					h389.969c10.293,0,18.638,8.344,18.638,18.638S1771.519,3061.414,1761.226,3061.414z" class="color23187a svgShape"></path><path fill="#ffffff" d="M1371.256,2833.53h389.969H1371.256z" class="colorfff svgShape"></path><path fill="#23187a" d="M1761.226,2852.168h-389.969c-10.293,0-18.638-8.344-18.638-18.638s8.345-18.638,18.638-18.638
					h389.969c10.293,0,18.638,8.344,18.638,18.638S1771.519,2852.168,1761.226,2852.168z" class="color23187a svgShape"></path><path fill="#ffffff" d="M1371.256,2624.284h389.969H1371.256z" class="colorfff svgShape"></path><path fill="#23187a" d="M1761.226,2642.922h-389.969c-10.293,0-18.638-8.344-18.638-18.638s8.345-18.638,18.638-18.638
					h389.969c10.293,0,18.638,8.344,18.638,18.638S1771.519,2642.922,1761.226,2642.922z" class="color23187a svgShape"></path></g><g><polygon fill="#ffd56c" points="2045.766 697.922 1232.024 697.922 825.152 1423.881 1232.024 2149.84 2045.766 2149.84 2452.637 1423.881" class="colorffd56c svgShape"></polygon><path fill="#23187a" d="M2045.766,2168.479h-813.743c-6.744,0-12.961-3.643-16.259-9.526l-406.871-725.959
				c-3.172-5.661-3.172-12.564,0-18.225l406.871-725.959c3.297-5.883,9.515-9.526,16.259-9.526h813.743
				c6.744,0,12.961,3.643,16.259,9.526l406.871,725.959c3.172,5.661,3.172,12.564,0,18.225l-406.871,725.959
				C2058.728,2164.835,2052.51,2168.479,2045.766,2168.479z M1242.943,2131.202h791.903l396.425-707.321L2034.846,716.56h-791.903
				l-396.425,707.321L1242.943,2131.202z" class="color23187a svgShape"></path><path fill="#ffffff" d="M1989.029,1097.285c0-43.039-31.923-80.737-73.348-81.846
					c-42.516-1.138-77.325,34.319-77.325,78.22l0-115.099c0-43.039-31.924-80.737-73.348-81.846
					c-42.516-1.138-77.325,34.319-77.325,78.22v-29.557c0-43.039-31.924-80.737-73.348-81.846
					c-42.516-1.138-77.325,34.319-77.325,78.22v101.036c0-43.901-34.81-79.358-77.326-78.22
					c-41.424,1.108-73.348,38.807-73.348,81.846v519.744l0.011-0.004l-93.201-207.591c-17.513-39.006-61.785-59.16-99.779-41.982
					c-38.995,17.631-56.116,65.045-38.253,104.833c0,0,74.542,261.467,193.365,421.242c0,0,53.245,59.288,85.999,81.438
					c56.77,38.392,124.646,60.556,197.53,60.158c198.76-1.085,357.022-174.352,357.022-380.793L1989.029,1097.285z" class="colorfff svgShape"></path><path fill="#23187a" d="M1630.086,2002.895c-73.521,0-144.719-21.886-206.049-63.362
					c-34.256-23.166-87.188-81.933-89.424-84.423c-0.383-0.427-0.747-0.871-1.089-1.331
					c-50.264-67.587-98.59-160.061-143.636-274.851c-31.308-79.781-49.516-141.419-52.337-151.151
					c-10.119-23.391-10.891-49.421-2.148-73.459c8.978-24.685,26.836-44.118,50.285-54.72c21.595-9.763,45.97-10.411,68.636-1.827
					c24.472,9.27,44.819,28.645,55.825,53.158l57.549,128.182v-432.697c0-54.054,41.042-99.128,91.488-100.478
					c21.592-0.582,42.251,6.315,59.186,19.569v-23.752c0-26.544,10.738-52.224,29.461-70.453c18.174-17.693,41.979-27.06,67-26.399
					c37.022,0.991,68.978,25.528,83.364,59.884c0.102-0.101,0.207-0.202,0.31-0.303c18.173-17.693,41.967-27.064,67-26.399
					c50.446,1.35,91.488,46.423,91.488,100.477v37.816c16.934-13.253,37.582-20.155,59.186-19.569
					c50.446,1.35,91.487,46.424,91.487,100.478v506.173c0,52.909-9.806,104.488-29.145,153.303
					c-18.76,47.355-45.616,90.015-79.822,126.795c-34.44,37.032-74.574,66.206-119.288,86.711
					c-46.593,21.367-96.153,32.343-147.304,32.622C1631.438,2002.893,1630.756,2002.895,1630.086,2002.895z M1362.909,1830.825
					c5.712,6.303,53.263,58.39,82.01,77.83c55.64,37.626,120.294,57.321,186.987,56.959
					c186.642-1.019,338.485-163.481,338.485-362.156v-506.173c0-34.042-24.766-62.4-55.208-63.215
					c-14.885-0.393-29.097,5.229-40.001,15.845c-11.729,11.419-18.188,26.955-18.188,43.744c0,10.293-8.345,18.638-18.638,18.638
					s-18.638-8.345-18.638-18.638V978.56c0-34.042-24.767-62.4-55.208-63.214c-14.896-0.394-29.096,5.229-40,15.845
					c-11.729,11.419-18.188,26.955-18.188,43.744c0,10.293-8.345,18.638-18.638,18.638s-18.638-8.345-18.638-18.638v-29.557
					c0-34.042-24.766-62.4-55.208-63.214c-14.905-0.4-29.096,5.229-40,15.845c-11.729,11.419-18.188,26.955-18.188,43.744v101.036
					c0,10.293-8.345,18.638-18.638,18.638s-18.638-8.345-18.638-18.638c0-16.79-6.459-32.325-18.188-43.744
					c-10.904-10.616-25.111-16.244-40-15.845c-30.442,0.814-55.208,29.173-55.208,63.215v519.108c0.09,2.677-0.396,5.371-1.461,7.89
					c-2.017,4.771-5.929,8.487-10.797,10.258c-5.713,2.078-12.087,1.24-17.067-2.249c-2.958-2.072-5.208-4.923-6.547-8.171
					l-92.959-207.053c-6.979-15.544-19.744-27.779-35.023-33.566c-13.338-5.053-27.57-4.721-40.075,0.933
					c-29.767,13.458-42.744,49.444-28.928,80.217c0.367,0.817,0.675,1.661,0.92,2.522c0.185,0.648,18.874,65.79,51.698,149.385
					C1254.76,1642.149,1303.072,1750.113,1362.909,1830.825z" class="color23187a svgShape"></path><path fill="#ffffff" d="M1537.009,1030.63v317.225V1030.63z" class="colorfff svgShape"></path><path fill="#23187a" d="M1537.009,1366.494c-10.293,0-18.638-8.345-18.638-18.638V1030.63
					c0-10.293,8.345-18.638,18.638-18.638s18.638,8.345,18.638,18.638v317.225
					C1555.647,1358.149,1547.303,1366.494,1537.009,1366.494z" class="color23187a svgShape"></path><path fill="#ffffff" d="M1687.683,964.612v383.244V964.612z" class="colorfff svgShape"></path><path fill="#23187a" d="M1687.683,1366.494c-10.293,0-18.638-8.345-18.638-18.638V964.612
					c0-10.293,8.345-18.638,18.638-18.638s18.638,8.345,18.638,18.638v383.244
					C1706.321,1358.149,1697.976,1366.494,1687.683,1366.494z" class="color23187a svgShape"></path><path fill="#ffffff" d="M1838.356,972.27v375.585V972.27z" class="colorfff svgShape"></path><path fill="#23187a" d="M1838.356,1366.494c-10.293,0-18.638-8.345-18.638-18.638V972.271
					c0-10.293,8.345-18.638,18.638-18.638s18.638,8.345,18.638,18.638v375.585
					C1856.994,1358.149,1848.649,1366.494,1838.356,1366.494z" class="color23187a svgShape"></path></g></svg>