<svg xmlns="http://www.w3.org/2000/svg" enable-background="new 0 0 5000 5000" viewBox="0 0 5000 5000" width="256" height="256"><path fill="#141e87" d="M933.745 3102.839c-7.215 0-14.004-4.418-16.681-11.574-21.772-58.206-40.537-118.218-55.772-178.368-2.415-9.533 3.356-19.22 12.89-21.634 9.531-2.418 19.219 3.355 21.634 12.89 14.917 58.891 33.288 117.646 54.605 174.635 3.445 9.212-1.229 19.473-10.44 22.918C937.925 3102.474 935.817 3102.839 933.745 3102.839zM841.669 2734.709c-8.792 0-16.44-6.511-17.63-15.464-7.916-59.569-12.743-120.395-14.349-180.785-.002-.097-.004-.194-.005-.292-.156-5.146-.288-10.358-.392-15.495-.2-9.832 7.61-17.965 17.442-18.165 9.878-.176 17.965 7.609 18.165 17.442.104 5.098.235 10.271.39 15.375.004.137.007.273.008.409 1.578 59.071 6.303 118.558 14.045 176.819 1.296 9.749-5.557 18.702-15.306 19.998C843.242 2734.657 842.451 2734.709 841.669 2734.709zM834.59 2345.139c-.567 0-1.139-.027-1.715-.082-9.79-.936-16.968-9.63-16.033-19.42 6.242-65.334 16.338-130.896 30.006-194.865 2.055-9.617 11.517-15.748 21.135-13.693 9.618 2.055 15.749 11.518 13.693 21.135-13.383 62.636-23.268 126.834-29.381 190.811C851.415 2338.238 843.661 2345.139 834.59 2345.139zM916.001 1964.221c-1.894 0-3.818-.304-5.712-.945-9.315-3.153-14.311-13.262-11.157-22.577 20.995-62.022 45.864-123.512 73.917-182.761 4.209-8.888 14.826-12.682 23.715-8.474 8.889 4.209 12.683 14.826 8.474 23.715-27.466 58.011-51.816 118.215-72.372 178.94C930.354 1959.541 923.425 1964.221 916.001 1964.221zM1082.643 1612.147c-3.218 0-6.473-.871-9.405-2.699-8.346-5.203-10.893-16.187-5.689-24.532 34.639-55.559 72.904-109.739 113.731-161.036 6.124-7.695 17.327-8.968 25.022-2.844 7.695 6.125 8.968 17.328 2.844 25.022-39.982 50.235-77.454 103.293-111.375 157.7C1094.395 1609.173 1088.585 1612.147 1082.643 1612.147zM1325.25 1307.311c-4.565 0-9.128-1.744-12.607-5.231-6.946-6.963-6.932-18.238.031-25.184 46.4-46.285 95.965-90.371 147.318-131.033 7.71-6.104 18.91-4.804 25.015 2.907 6.105 7.71 4.804 18.91-2.906 25.015-50.292 39.821-98.833 82.997-144.274 128.326C1334.351 1305.578 1329.8 1307.311 1325.25 1307.311zM2524.168 4206.172c-63.102 0-126.699-3.466-189.026-10.301-9.776-1.072-16.832-9.866-15.76-19.643 1.072-9.775 9.867-16.832 19.642-15.76 63.586 6.974 128.524 10.347 192.866 10.071.026-.001.055-.001.082-.001 9.797 0 17.761 7.92 17.805 17.728.045 9.834-7.892 17.843-17.727 17.888C2529.424 4206.166 2526.796 4206.172 2524.168 4206.172zM2726.709 4194.208c-8.895 0-16.584-6.653-17.66-15.705-1.162-9.766 5.813-18.625 15.579-19.786 63.802-7.589 127.76-18.964 190.096-33.809 9.563-2.278 19.17 3.631 21.448 13.198s-3.631 19.17-13.198 21.448c-63.664 15.16-128.981 26.777-194.139 34.527C2728.121 4194.167 2727.411 4194.208 2726.709 4194.208zM2144.697 4163.584c-1.313 0-2.647-.146-3.982-.451-63.894-14.597-127.603-33.093-189.359-54.974-9.27-3.285-14.122-13.462-10.837-22.732 3.284-9.271 13.461-14.121 22.732-10.838 60.463 21.424 122.839 39.532 185.396 53.823 9.588 2.19 15.584 11.738 13.394 21.326C2160.156 4157.991 2152.818 4163.584 2144.697 4163.584zM3105.739 4103.92c-7.271 0-14.096-4.485-16.731-11.712-3.369-9.239 1.389-19.461 10.629-22.83 52.034-18.977 103.731-40.816 153.655-64.914 8.856-4.276 19.502-.56 23.777 8.296 4.274 8.857.561 19.503-8.296 23.778-50.989 24.611-103.789 46.917-156.936 66.299C3109.825 4103.571 3107.765 4103.92 3105.739 4103.92zM4196.544 2218.424c-8.506 0-16.03-6.114-17.526-14.781-10.943-63.398-25.643-126.691-43.69-188.121-2.772-9.436 2.63-19.333 12.065-22.104 9.439-2.77 19.333 2.63 22.104 12.065 18.431 62.733 33.441 127.365 44.616 192.102 1.673 9.691-4.827 18.904-14.519 20.577C4198.57 2218.338 4197.55 2218.424 4196.544 2218.424zM4086.671 1844.571c-6.93 0-13.519-4.07-16.398-10.851-25.073-59.04-53.89-117.26-85.648-173.042-4.866-8.546-1.883-19.419 6.664-24.286 8.547-4.867 19.421-1.881 24.285 6.665 32.438 56.974 61.87 116.438 87.48 176.741 3.844 9.052-.378 19.507-9.43 23.352C4091.353 1844.114 4088.992 1844.571 4086.671 1844.571zM3893.928 1505.96c-5.478 0-10.882-2.519-14.371-7.273-37.931-51.687-79.313-101.765-122.995-148.845-6.689-7.209-6.268-18.477.941-25.166 7.212-6.689 18.478-6.267 25.166.942 44.607 48.076 86.865 99.216 125.601 151.998 5.818 7.929 4.107 19.073-3.821 24.892C3901.274 1504.837 3897.584 1505.96 3893.928 1505.96z" class="color141e87 svgShape"></path><circle cx="2524.164" cy="2490.977" r="1246.243" fill="#a1fffc" class="colora1fffc svgShape"></circle><path fill="#141e87" d="M3173.672,1165.527h-264.873c-9.835,0-17.808-7.973-17.808-17.807s7.973-17.807,17.808-17.807
					h264.873c9.835,0,17.808,7.973,17.808,17.807S3183.507,1165.527,3173.672,1165.527z" class="color141e87 svgShape"></path><circle cx="3173.672" cy="1147.72" r="105.571" fill="#fcf47e" transform="rotate(-87.295 3173.706 1147.666)" class="colorfcf47e svgShape"></circle><path fill="#141e87" d="M3173.672 1271.099c-68.031 0-123.38-55.348-123.38-123.379s55.349-123.378 123.38-123.378 123.379 55.348 123.379 123.379S3241.703 1271.099 3173.672 1271.099zM3173.672 1059.956c-48.394 0-87.765 39.371-87.765 87.764 0 48.394 39.371 87.765 87.765 87.765s87.764-39.371 87.764-87.764C3261.436 1099.327 3222.065 1059.956 3173.672 1059.956zM3213.044 1629.269h-171.809c-9.835 0-17.808-7.973-17.808-17.807s7.973-17.807 17.808-17.807h154.001l-.001-135.494c0-4.723 1.876-9.252 5.216-12.592 3.34-3.339 7.869-5.215 12.592-5.215h240.927c9.835 0 17.808 7.972 17.808 17.807 0 9.834-7.973 17.807-17.808 17.807h-223.119l.001 135.494c0 4.723-1.876 9.252-5.216 12.592C3222.296 1627.393 3217.767 1629.269 3213.044 1629.269z" class="color141e87 svgShape"></path><ellipse cx="3549.172" cy="1464.876" fill="#7adeff" rx="116.129" ry="116.128" transform="rotate(-79.042 3549.003 1464.84)" class="color7adeff svgShape"></ellipse><path fill="#141e87" d="M3549.173 1598.813c-73.853 0-133.937-60.083-133.937-133.936s60.084-133.936 133.937-133.936 133.936 60.083 133.936 133.936S3623.025 1598.813 3549.173 1598.813zM3549.173 1366.555c-54.215 0-98.321 44.107-98.321 98.321 0 54.215 44.106 98.322 98.321 98.322 54.214 0 98.32-44.107 98.32-98.322C3647.493 1410.662 3603.387 1366.555 3549.173 1366.555zM3350.397 1940.231l-425.657 0c-9.835 0-17.808-7.973-17.808-17.807s7.973-17.807 17.808-17.807l425.657 0c9.835 0 17.808 7.973 17.808 17.807S3360.232 1940.231 3350.397 1940.231z" class="color141e87 svgShape"></path><circle cx="3350.397" cy="1922.424" r="105.572" fill="#ffffff" class="colorfff svgShape"></circle><path fill="#141e87" d="M3350.397,2045.802c-68.031,0-123.38-55.347-123.38-123.378s55.349-123.379,123.38-123.379
						s123.379,55.348,123.379,123.379S3418.429,2045.802,3350.397,2045.802z M3350.397,1834.659
						c-48.394,0-87.765,39.371-87.765,87.765c0,48.393,39.371,87.764,87.765,87.764s87.764-39.371,87.764-87.764
						C3438.161,1874.03,3398.791,1834.659,3350.397,1834.659z" class="color141e87 svgShape"></path><path fill="#7adeff" d="M1554.796,1700.788l107.725-1.057c12.245-0.12,22.889,7.883,26.711,19.517
				c10.124,30.821,22.797,60.465,37.786,88.696c5.746,10.823,4.135,24.048-4.444,32.797l-75.438,76.933
				c-20.178,20.578-19.854,53.617,0.724,73.795l143.557,140.767c20.578,20.178,53.618,19.854,73.796-0.724l75.436-76.932
				c8.579-8.749,21.771-10.619,32.704-5.087c28.52,14.431,58.408,26.52,89.422,36.037c11.706,3.592,19.918,14.078,20.038,26.323
				l1.057,107.726c0.283,28.819,23.875,51.952,52.693,51.669l201.047-1.973c28.819-0.283,51.952-23.874,51.669-52.693
				l-1.057-107.726c-0.12-12.245,7.884-22.89,19.518-26.711c30.821-10.123,60.466-22.797,88.697-37.785
				c10.823-5.746,24.049-4.135,32.797,4.444l76.931,75.438c20.578,20.178,53.618,19.854,73.796-0.724l140.767-143.557
				c20.178-20.578,19.854-53.617-0.724-73.795l-76.933-75.438c-8.749-8.579-10.619-21.771-5.087-32.704
				c14.431-28.52,26.521-58.407,36.038-89.421c3.592-11.706,14.078-19.917,26.323-20.037l107.725-1.057
				c28.819-0.283,51.952-23.874,51.669-52.693l-1.973-201.047c-0.283-28.819-23.874-51.952-52.693-51.669l-107.725,1.057
				c-12.244,0.12-22.889-7.883-26.71-19.517c-10.124-30.821-22.798-60.466-37.786-88.696c-5.746-10.823-4.135-24.049,4.444-32.797
				l75.438-76.933c20.178-20.578,19.854-53.617-0.724-73.795l-143.558-140.767c-20.578-20.178-53.617-19.854-73.795,0.724
				l-75.438,76.933c-8.579,8.749-21.771,10.619-32.704,5.087c-28.519-14.431-58.407-26.52-89.42-36.036
				c-11.707-3.592-19.918-14.078-20.038-26.323L2376,863.307c-0.283-28.819-23.875-51.952-52.694-51.669l-201.047,1.973
				c-28.819,0.283-51.952,23.874-51.669,52.693l1.057,107.726c0.12,12.245-7.884,22.89-19.518,26.711
				c-30.82,10.123-60.465,22.796-88.696,37.784c-10.822,5.745-24.049,4.135-32.798-4.444l-76.933-75.438
				c-20.578-20.178-53.617-19.854-73.795,0.724l-140.767,143.557c-20.178,20.578-19.854,53.617,0.724,73.795l76.933,75.438
				c8.749,8.579,10.619,21.771,5.087,32.704c-14.431,28.52-26.521,58.407-36.038,89.421c-3.592,11.706-14.078,19.917-26.323,20.037
				l-107.725,1.057c-28.819,0.283-51.952,23.875-51.669,52.693l1.973,201.047
				C1502.386,1677.938,1525.977,1701.071,1554.796,1700.788z" class="color7adeff svgShape"></path><path fill="#141e87" d="M2136.032,2289.058c-18.433,0-35.804-7.092-48.984-20.017
				c-13.349-13.089-20.801-30.593-20.985-49.288l-1.057-107.726c-0.042-4.312-3.039-8.118-7.455-9.474
				c-31.658-9.714-62.691-22.221-92.239-37.172c-4.124-2.087-8.925-1.418-11.949,1.666l-75.436,76.932
				c-13.089,13.349-30.593,20.802-49.288,20.985c-18.689,0.134-36.341-6.924-49.69-20.013l-143.558-140.768
				c-27.556-27.02-27.991-71.42-0.971-98.977l75.438-76.933c3.023-3.083,3.598-7.897,1.431-11.98
				c-15.53-29.25-28.643-60.032-38.976-91.489c-1.431-4.358-5.251-7.268-9.524-7.268c-0.031,0-0.062,0-0.093,0l-107.726,1.057l0,0
				c-0.231,0.002-0.467,0.003-0.698,0.003c-38.277,0.003-69.6-30.943-69.977-69.304l-1.974-201.047
				c-0.378-38.592,30.71-70.296,69.301-70.675l107.725-1.057c4.311-0.042,8.118-3.039,9.474-7.456
				c9.714-31.654,22.22-62.688,37.172-92.236c2.087-4.124,1.418-8.926-1.665-11.949l-76.933-75.438
				c-13.349-13.089-20.801-30.594-20.985-49.288s6.924-36.341,20.013-49.689l140.768-143.558
				c27.02-27.555,71.42-27.992,98.978-0.971l76.933,75.438c3.083,3.024,7.897,3.598,11.98,1.431
				c29.25-15.529,60.032-28.642,91.489-38.974c4.389-1.442,7.31-5.307,7.268-9.618l-1.057-107.726
				c-0.184-18.694,6.924-36.341,20.013-49.69s30.593-20.801,49.288-20.985l201.047-1.973c38.571-0.345,70.295,30.708,70.675,69.301
				l1.056,107.726c0.042,4.311,3.039,8.119,7.455,9.474c31.653,9.712,62.686,22.219,92.237,37.171
				c4.125,2.088,8.927,1.417,11.951-1.665l75.437-76.933c13.089-13.349,30.593-20.801,49.287-20.985
				c18.729-0.183,36.343,6.925,49.69,20.013l143.558,140.768c13.349,13.089,20.801,30.593,20.984,49.287s-6.924,36.341-20.013,49.69
				l-75.438,76.933c-3.023,3.083-3.599,7.897-1.432,11.979c15.527,29.247,28.641,60.028,38.976,91.49
				c1.432,4.358,5.251,7.268,9.524,7.268c0.031,0,0.063,0,0.093,0l107.727-1.057c0.23-0.002,0.467-0.003,0.697-0.003
				c38.277,0,69.601,30.944,69.978,69.304l1.973,201.047c0.378,38.592-30.711,70.296-69.302,70.675l-107.725,1.057
				c-4.312,0.042-8.118,3.039-9.473,7.455c-9.717,31.66-22.224,62.693-37.174,92.237c-2.087,4.124-1.417,8.926,1.666,11.949
				l76.934,75.438c27.555,27.021,27.99,71.422,0.971,98.978l-140.767,143.557c-27.021,27.557-71.424,27.991-98.979,0.972
				l-76.932-75.438c-3.083-3.022-7.896-3.597-11.979-1.431c-29.25,15.529-60.032,28.642-91.491,38.975
				c-4.39,1.442-7.31,5.307-7.268,9.618l1.057,107.726c0.183,18.694-6.924,36.341-20.014,49.69
				c-13.089,13.349-30.593,20.801-49.288,20.984l-201.047,1.973C2136.503,2289.056,2136.267,2289.058,2136.032,2289.058z
				 M1960.316,2028.537c7.125,0,14.339,1.658,21.075,5.066c27.744,14.039,56.883,25.781,86.606,34.902
				c19.316,5.927,32.426,23.276,32.621,43.172l1.058,107.726c0.09,9.182,3.75,17.779,10.307,24.208
				c6.556,6.429,15.205,9.961,24.405,9.83l201.047-1.972c9.182-0.09,17.779-3.75,24.208-10.307c6.429-6.556,9.92-15.224,9.83-24.405
				l-1.057-107.726c-0.195-19.896,12.572-37.5,31.768-43.804c29.537-9.701,58.439-22.014,85.903-36.594
				c17.854-9.479,39.399-6.48,53.615,7.458l76.932,75.438c13.534,13.271,35.343,13.057,48.613-0.478l140.767-143.558
				c13.271-13.534,13.058-35.342-0.477-48.613l-76.934-75.437c-14.215-13.94-17.635-35.423-8.508-53.459
				c14.037-27.741,25.78-56.879,34.903-86.605c5.926-19.315,23.275-32.424,43.171-32.619l107.725-1.058
				c18.954-0.186,34.224-15.758,34.038-34.712l-1.973-201.047c-0.185-18.839-15.57-34.039-34.369-34.039
				c-0.114,0-0.229,0.001-0.343,0.002l-107.726,1.057c-19.917,0.156-37.498-12.57-43.804-31.766
				c-9.704-29.541-22.016-58.443-36.596-85.904c-9.479-17.853-6.481-39.399,7.458-53.615l75.438-76.933
				c6.429-6.556,9.92-15.224,9.83-24.405c-0.091-9.182-3.751-17.779-10.308-24.208l-143.558-140.768
				c-6.557-6.429-15.197-9.893-24.405-9.83c-9.182,0.09-17.778,3.75-24.207,10.307l-75.438,76.933
				c-13.941,14.216-35.423,17.635-53.459,8.508c-27.746-14.039-56.884-25.782-86.604-34.901
				c-19.315-5.926-32.425-23.276-32.621-43.171l-1.057-107.727c-0.185-18.839-15.572-34.039-34.369-34.039
				c-0.115,0-0.228,0-0.343,0.002l-201.047,1.973c-9.182,0.09-17.779,3.75-24.208,10.307c-6.429,6.556-9.919,15.224-9.829,24.405
				l1.057,107.726c0.195,19.896-12.571,37.499-31.767,43.804c-29.537,9.701-58.438,22.014-85.903,36.594
				c-17.854,9.48-39.4,6.482-53.616-7.458l-76.932-75.437c-13.534-13.271-35.341-13.057-48.614,0.477l-140.767,143.558
				c-13.271,13.534-13.058,35.342,0.477,48.613l76.932,75.438c14.216,13.938,17.635,35.421,8.509,53.458
				c-14.04,27.745-25.782,56.883-34.903,86.605c-5.927,19.315-23.276,32.424-43.171,32.62l-107.726,1.058
				c-18.954,0.186-34.223,15.758-34.038,34.712l1.973,201.046c0.186,18.84,15.572,34.04,34.37,34.04c0.114,0,0.228,0,0.342-0.001
				l0.175,17.806l-0.175-17.806l107.726-1.058c19.91-0.184,37.498,12.57,43.803,31.766c9.702,29.536,22.014,58.438,36.596,85.903
				c9.479,17.854,6.481,39.4-7.458,53.615l-75.437,76.933c-13.271,13.535-13.058,35.343,0.477,48.613l143.558,140.767
				c6.556,6.429,15.213,9.909,24.405,9.83c9.182-0.09,17.779-3.751,24.208-10.307l75.437-76.932
				C1936.667,2033.207,1948.364,2028.537,1960.316,2028.537z" class="color141e87 svgShape"></path><circle cx="2229.935" cy="1541.443" r="340.472" fill="#ffffff" class="colorfff svgShape"></circle><path fill="#141e87" d="M2229.823,1899.723c-47.083,0-92.851-9.013-136.106-26.811
				c-42.84-17.627-81.406-43.081-114.625-75.654c-33.219-32.574-59.425-70.632-77.889-113.119
				c-19.12-43.996-29.056-90.823-29.53-139.18c-0.474-48.357,8.54-95.37,26.793-139.733c17.626-42.84,43.081-81.406,75.654-114.625
				c32.574-33.219,70.633-59.425,113.119-77.889c43.997-19.12,90.824-29.056,139.181-29.53c48.359-0.471,95.37,8.54,139.733,26.793
				c42.84,17.626,81.406,43.08,114.625,75.654s59.424,70.632,77.888,113.119c19.12,43.996,29.056,90.823,29.53,139.18
				s-8.54,95.37-26.793,139.733c-17.627,42.84-43.08,81.406-75.654,114.625s-70.632,59.425-113.119,77.889
				c-43.996,19.12-90.823,29.056-139.18,29.53C2232.243,1899.717,2231.029,1899.723,2229.823,1899.723z M2230.023,1218.778
				c-1.087,0-2.166,0.005-3.254,0.016c-86.183,0.846-166.877,35.202-227.22,96.741c-60.342,61.539-93.109,142.892-92.263,229.074
				c0.846,86.182,35.202,166.877,96.741,227.22c60.761,59.58,140.85,92.276,225.82,92.279c1.087,0,2.165-0.005,3.254-0.016
				c86.182-0.846,166.877-35.202,227.22-96.741s93.109-142.892,92.263-229.074c-0.846-86.182-35.202-166.877-96.74-227.22
				C2395.082,1251.477,2314.994,1218.778,2230.023,1218.778z" class="color141e87 svgShape"></path><g><path fill="#ffffff" d="M3408.235,3576.193h385.15v-13.94c0-53.962,28.772-103.126,74.441-131.864
					c128.146-80.631,221.333-211.713,251.497-365.433l0.342-1.724c6.653-34.468,10.128-70.076,10.128-106.505
					c0-322.257-272.419-580.893-599.521-558.179c-278.645,19.344-503.049,247.056-518.711,525.917
					c-11.96,212.924,95.304,401.63,261.06,505.924c45.669,28.738,74.441,77.902,74.441,131.864v13.94h385.15H3408.235z" class="colorfff svgShape"></path><path fill="#141e87" d="M3793.385,3594.001h-446.323c-9.835,0-17.808-7.973-17.808-17.808v-13.94
					c0-47.08-24.717-90.74-66.117-116.791c-85.729-53.941-156.07-129.654-203.422-218.956
					c-49.072-92.545-71.871-197.334-65.934-303.039c7.819-139.223,66.715-271.257,165.837-371.781
					c99.149-100.552,230.346-161.247,369.42-170.902c82.047-5.695,162.263,5.455,238.439,33.145
					c73.188,26.603,139.31,67.159,196.529,120.542c57.325,53.482,102.459,116.781,134.148,188.137
					c32.81,73.876,49.445,152.646,49.445,234.12c0,36.982-3.517,73.952-10.452,109.88l-0.359,1.813
					c-15.337,78.166-46.24,151.126-91.844,216.816c-44.777,64.502-101.178,118.409-167.636,160.226
					c-41.4,26.051-66.117,69.711-66.117,116.791v13.94C3811.192,3586.028,3803.22,3594.001,3793.385,3594.001z M3408.234,3558.386
					h367.387c1.311-57.907,32.022-111.166,82.722-143.067c126.217-79.418,214.971-208.369,243.506-353.791l0.349-1.759
					c6.489-33.62,9.788-68.318,9.788-103.041c0-149.656-62.791-294.071-172.274-396.216c-111-103.56-255.978-154.77-408.206-144.199
					c-271.035,18.816-486.919,237.704-502.165,509.152c-11.071,197.086,85.782,384.787,252.764,489.853
					c50.699,31.902,81.411,85.161,82.722,143.068H3408.234z" class="color141e87 svgShape"></path><path fill="#7adeff" d="M3840.635,3818.574h-540.835c-22.461,0-40.67-18.208-40.67-40.669v-161.032
					c0-22.467,18.213-40.679,40.679-40.679h540.825c22.467,0,40.68,18.213,40.68,40.68v161.022
					C3881.315,3800.362,3863.102,3818.574,3840.635,3818.574z" class="color7adeff svgShape"></path><path fill="#141e87" d="M3840.636,3836.382h-540.835c-32.244,0-58.478-26.233-58.478-58.478v-161.031
					c0-32.25,26.237-58.487,58.487-58.487h540.825c32.25,0,58.487,26.237,58.487,58.487v161.021
					C3899.123,3810.145,3872.886,3836.382,3840.636,3836.382z M3299.811,3594.001c-12.612,0-22.872,10.26-22.872,22.872v161.031
					c0,12.606,10.256,22.862,22.862,22.862h540.835c12.612,0,22.872-10.26,22.872-22.872v-161.021
					c0-12.612-10.26-22.872-22.872-22.872H3299.811z" class="color141e87 svgShape"></path><path fill="#7adeff" d="M3772.737,3818.574h-406.346v44.65c0,5.908,0,17.556,0,17.556
					c8.45,55.308,56.217,97.675,113.895,97.675h1.322h175.913h1.322c57.677,0,105.442-42.366,113.894-97.675c0,0,0-11.648,0-17.556
					V3818.574z" class="color7adeff svgShape"></path><path fill="#141e87" d="M3658.843,3996.263h-178.557c-31.994,0-62.915-11.522-87.067-32.445
					c-23.898-20.701-39.678-49.236-44.431-80.348c-0.137-0.89-0.205-1.789-0.205-2.689v-62.206c0-9.835,7.973-17.808,17.808-17.808
					h406.346c9.835,0,17.808,7.973,17.808,17.808v62.206c0,0.9-0.068,1.8-0.205,2.69c-4.754,31.11-20.533,59.646-44.43,80.347
					C3721.757,3984.74,3690.836,3996.263,3658.843,3996.263z M3384.198,3879.369c7.74,46.427,48.817,81.278,96.088,81.278h178.557
					c47.269,0,88.345-34.852,96.086-81.278v-42.987h-370.73V3879.369z" class="color141e87 svgShape"></path><circle cx="3572.895" cy="2952.394" r="352.214" fill="#fcf47e" transform="rotate(-45.001 3572.878 2952.45)" class="colorfcf47e svgShape"></circle><path fill="#141e87" d="M3572.896,3322.416c-49.944,0-98.405-9.786-144.034-29.086
					c-44.064-18.638-83.635-45.315-117.61-79.292c-33.977-33.976-60.654-73.546-79.292-117.61
					c-19.3-45.629-29.086-94.09-29.086-144.034s9.786-98.405,29.086-144.034c18.638-44.064,45.315-83.634,79.292-117.61
					c33.976-33.977,73.546-60.654,117.61-79.291c45.629-19.3,94.09-29.086,144.034-29.086s98.405,9.786,144.034,29.086
					c44.064,18.638,83.634,45.314,117.61,79.291s60.653,73.546,79.291,117.61c19.3,45.629,29.086,94.09,29.086,144.034
					s-9.786,98.405-29.086,144.034c-18.637,44.064-45.314,83.635-79.291,117.61c-33.977,33.977-73.546,60.654-117.61,79.292
					C3671.301,3312.63,3622.84,3322.416,3572.896,3322.416z M3572.896,2617.987c-184.393,0-334.407,150.014-334.407,334.406
					s150.015,334.407,334.407,334.407s334.406-150.015,334.406-334.407S3757.288,2617.987,3572.896,2617.987z" class="color141e87 svgShape"></path><path fill="#ffffff" d="M3912.524,2716.149L3912.524,2716.149c-28.145-28.143-73.748-28.143-101.893,0l-271.879,271.88
					l-83.452-83.438c-28.145-28.145-73.746-28.145-101.891,0c-28.132,28.118-28.132,73.733,0,101.878l128.288,128.276
					c15.629,15.629,36.636,22.262,57.055,20.514c20.419,1.748,41.424-4.885,57.053-20.514l316.719-316.703
					C3940.654,2789.896,3940.654,2744.293,3912.524,2716.149z" class="colorfff svgShape"></path><path fill="#141e87" d="M3532.387,3173.339c-23.816,0-46.531-9.252-63.281-26.002l-128.287-128.275
					c-16.971-16.979-26.315-39.545-26.315-63.542c0-24.001,9.347-46.561,26.317-63.523c16.973-16.973,39.537-26.321,63.534-26.321
					s46.563,9.349,63.538,26.324l70.858,70.848l259.288-259.29c35.036-35.033,92.042-35.033,127.076,0
					c0.001,0.001,0.002,0.002,0.003,0.004c35.016,35.033,35.016,92.036,0,127.069l-316.721,316.707
					c-18.236,18.237-43.552,27.591-69.646,25.781C3536.624,3173.266,3534.5,3173.339,3532.387,3173.339z M3404.354,2901.289
					c-14.484,0-28.104,5.645-38.354,15.894c-10.244,10.238-15.884,23.853-15.884,38.337c0,14.488,5.643,28.111,15.887,38.36
					l128.284,128.273c11.146,11.146,26.8,16.737,42.945,15.363c1.01-0.086,2.027-0.086,3.037,0
					c16.14,1.378,31.797-4.218,42.943-15.363l316.718-316.704c21.137-21.146,21.137-55.562-0.003-76.713
					c-21.148-21.14-55.56-21.144-76.706,0.004l-271.879,271.881c-6.951,6.952-18.226,6.955-25.183,0.001l-83.451-83.438
					C3432.46,2906.934,3418.839,2901.289,3404.354,2901.289z" class="color141e87 svgShape"></path><path fill="#7adeff" d="M3570.223,2278.308v-152.01V2278.308z" class="color7adeff svgShape"></path><path fill="#141e87" d="M3570.223,2296.115c-9.835,0-17.808-7.973-17.808-17.807v-152.01
				c0-9.834,7.973-17.807,17.808-17.807s17.808,7.973,17.808,17.807v152.01C3588.03,2288.142,3580.058,2296.115,3570.223,2296.115z" class="color141e87 svgShape"></path><path fill="#7adeff" d="M3233.538,2369.954l-76.005-131.644L3233.538,2369.954z" class="color7adeff svgShape"></path><path fill="#141e87" d="M3233.555,2387.764c-6.154,0-12.14-3.193-15.438-8.906l-76.005-131.644
				c-4.917-8.517-1.999-19.408,6.519-24.325c8.517-4.918,19.407-1.999,24.325,6.518l76.005,131.644
				c4.917,8.517,1.999,19.408-6.519,24.325C3239.638,2386.995,3236.575,2387.764,3233.555,2387.764z" class="color141e87 svgShape"></path><path fill="#7adeff" d="M2987.783,2617.665l-131.644-76.005L2987.783,2617.665z" class="color7adeff svgShape"></path><path fill="#141e87" d="M2987.767,2635.476c-3.021,0-6.082-0.77-8.887-2.389l-131.645-76.005
				c-8.518-4.918-11.436-15.809-6.519-24.325c4.918-8.518,15.808-11.437,24.325-6.519l131.645,76.005
				c8.518,4.918,11.436,15.809,6.519,24.325C2999.906,2632.281,2993.921,2635.476,2987.767,2635.476z" class="color141e87 svgShape"></path><path fill="#7adeff" d="M2898.809,2955.066h-152.01H2898.809z" class="color7adeff svgShape"></path><path fill="#141e87" d="M2898.81,2972.874H2746.8c-9.835,0-17.808-7.973-17.808-17.808s7.973-17.808,17.808-17.808h152.01
				c9.835,0,17.808,7.973,17.808,17.808S2908.645,2972.874,2898.81,2972.874z" class="color141e87 svgShape"></path><path fill="#7adeff" d="M2990.456,3291.751l-131.644,76.005L2990.456,3291.751z" class="color7adeff svgShape"></path><path fill="#141e87" d="M2858.828,3385.566c-6.154,0-12.14-3.193-15.438-8.907c-4.917-8.517-1.999-19.407,6.519-24.325
				l131.645-76.005c8.517-4.915,19.407-1.999,24.325,6.519c4.917,8.517,1.999,19.407-6.519,24.325l-131.645,76.005
				C2864.911,3384.796,2861.849,3385.566,2858.828,3385.566z" class="color141e87 svgShape"></path><path fill="#7adeff" d="M4158.007,3287.123l131.644,76.005L4158.007,3287.123z" class="color7adeff svgShape"></path><path fill="#141e87" d="M4289.635,3380.938c-3.021,0-6.082-0.77-8.887-2.389l-131.645-76.005
				c-8.518-4.918-11.436-15.809-6.519-24.325c4.919-8.518,15.808-11.435,24.325-6.519l131.645,76.005
				c8.518,4.918,11.436,15.809,6.519,24.325C4301.774,3377.744,4295.789,3380.938,4289.635,3380.938z" class="color141e87 svgShape"></path><path fill="#7adeff" d="M4246.981,2949.722h152.009H4246.981z" class="color7adeff svgShape"></path><path fill="#141e87" d="M4398.991,2967.529h-152.01c-9.835,0-17.808-7.973-17.808-17.808s7.973-17.808,17.808-17.808
				h152.01c9.835,0,17.808,7.973,17.808,17.808S4408.826,2967.529,4398.991,2967.529z" class="color141e87 svgShape"></path><g><path fill="#7adeff" d="M4155.335,2613.037l131.644-76.005L4155.335,2613.037z" class="color7adeff svgShape"></path><path fill="#141e87" d="M4155.352,2630.848c-6.154,0-12.14-3.193-15.438-8.907c-4.917-8.517-1.999-19.407,6.519-24.325
				l131.645-76.005c8.517-4.916,19.407-2,24.325,6.519c4.917,8.517,1.999,19.407-6.519,24.325l-131.645,76.005
				C4161.435,2630.077,4158.372,2630.848,4155.352,2630.848z" class="color141e87 svgShape"></path></g><g><path fill="#7adeff" d="M3907.624,2367.282l76.005-131.645L3907.624,2367.282z" class="color7adeff svgShape"></path><path fill="#141e87" d="M3907.607,2385.092c-3.021,0-6.082-0.77-8.887-2.389c-8.518-4.917-11.436-15.808-6.519-24.325
				l76.005-131.645c4.918-8.518,15.809-11.435,24.325-6.518c8.518,4.917,11.436,15.808,6.519,24.325l-76.005,131.645
				C3919.747,2381.898,3913.762,2385.092,3907.607,2385.092z" class="color141e87 svgShape"></path></g></g><g><path fill="#7adeff" d="M1088.227,2995.972c-23.419,353.143,241.981,658.97,591.724,682.144
					c351.882,23.315,657.176-239.955,682.145-591.724c24.969-351.769-239.955-657.176-591.724-682.145
					C1418.603,2379.278,1111.562,2644.091,1088.227,2995.972z" class="color7adeff svgShape"></path><path fill="#141e87" d="M1723.568,3697.372c-14.882,0-29.816-0.495-44.794-1.487
					c-87.899-5.824-172.075-28.902-250.188-68.594c-75.416-38.321-141.993-90.417-197.884-154.84
					c-55.884-64.415-98.25-137.89-125.921-218.382c-28.656-83.358-40.204-170.591-34.322-259.276l17.768,1.179l-17.768-1.179
					c5.836-88.008,28.839-172.238,68.37-250.35c38.13-75.344,89.961-141.869,154.055-197.729
					c64.563-56.268,138.251-98.841,219.017-126.535c83.583-28.66,170.97-39.996,259.731-33.696
					c88.376,6.273,172.889,29.671,251.191,69.545c75.623,38.509,142.286,90.683,198.139,155.071s98.087,137.753,125.529,218.057
					c28.414,83.149,39.641,170.119,33.368,258.495c-6.272,88.358-29.667,172.796-69.535,250.968
					c-38.482,75.454-90.649,141.988-155.051,197.752c-64.33,55.701-137.684,97.904-218.024,125.436
					C1868.24,3685.456,1796.551,3697.372,1723.568,3697.372z M1724.079,2420.41c-150.143,0-293.486,53.532-407.795,153.155
					c-124.699,108.678-199.381,259.11-210.288,423.586c-11.013,166.066,42.829,326.577,151.608,451.963
					c108.727,125.324,259.137,200.343,423.524,211.234c13.968,0.926,27.879,1.382,41.684,1.382
					c323.78,0.009,598.387-250.688,621.521-576.599c11.739-165.387-41.629-325.446-150.274-450.693
					c-108.645-125.247-259.562-200.688-424.948-212.428C1754.056,2420.941,1739.021,2420.41,1724.079,2420.41z" class="color141e87 svgShape"></path><path fill="#ffffff" d="M1289.224,3010.24c-16.028,241.701,165.619,451.019,404.993,466.879
					c240.839,15.957,449.79-164.232,466.88-404.993c17.089-240.761-164.232-449.79-404.993-466.88
					S1305.195,2769.402,1289.224,3010.24z" class="colorfff svgShape"></path><path fill="#141e87" d="M1724.074,3495.918c-10.312,0-20.656-0.343-31.034-1.03
					c-60.923-4.037-119.267-20.033-173.41-47.545c-52.267-26.558-98.406-62.66-137.137-107.304
					c-38.723-44.634-68.08-95.547-87.253-151.322c-19.857-57.763-27.859-118.207-23.784-179.655l17.768,1.179l-17.768-1.179
					c4.045-60.994,19.988-119.372,47.388-173.513c26.425-52.217,62.345-98.32,106.762-137.03
					c44.739-38.991,95.802-68.492,151.771-87.684c57.923-19.861,118.479-27.72,179.988-23.352
					c61.241,4.347,119.809,20.563,174.075,48.196c52.406,26.688,98.603,62.842,137.307,107.461
					c38.705,44.618,67.972,95.459,86.989,151.109c19.692,57.625,27.472,117.896,23.125,179.137
					c-4.346,61.23-20.56,119.747-48.191,173.925c-26.669,52.292-62.82,98.399-107.449,137.042
					c-44.576,38.598-95.406,67.842-151.079,86.92C1824.321,3487.661,1774.644,3495.918,1724.074,3495.918z M1724.428,2621.928
					c-101.406,0-198.22,36.155-275.423,103.439c-84.212,73.394-134.646,174.981-142.012,286.052
					c-7.439,112.173,28.928,220.591,102.402,305.281c73.426,84.635,174.996,135.296,286,142.65
					c9.435,0.625,18.832,0.934,28.156,0.934c218.687,0.007,404.16-169.307,419.784-389.419
					c7.928-111.698-28.115-219.799-101.492-304.388s-175.302-135.541-287-143.469
					C1744.675,2622.287,1734.52,2621.928,1724.428,2621.928z" class="color141e87 svgShape"></path><circle cx="1725.257" cy="3041.084" r="216.068" fill="#fcf47e" transform="rotate(-45.001 1725.23 3041.119)" class="colorfcf47e svgShape"></circle><path fill="#141e87" d="M1725.257,3274.96c-62.47,0-121.202-24.328-165.375-68.501
					c-44.173-44.173-68.5-102.904-68.5-165.375s24.327-121.201,68.5-165.374c44.173-44.174,102.904-68.501,165.375-68.501
					c62.471,0,121.202,24.327,165.375,68.501c44.173,44.173,68.5,102.903,68.5,165.374s-24.327,121.202-68.5,165.375
					S1787.728,3274.96,1725.257,3274.96z M1725.257,2842.824c-109.321,0-198.261,88.938-198.261,198.26
					s88.939,198.261,198.261,198.261s198.261-88.939,198.261-198.261S1834.579,2842.824,1725.257,2842.824z" class="color141e87 svgShape"></path><polygon fill="#fcf47e" points="1200.574 2484.994 969.666 2477.858 1235.483 2760.628 1466.391 2767.763" class="colorfcf47e svgShape"></polygon><path fill="#141e87" d="M1466.394,2785.571c-0.184,0-0.369-0.003-0.554-0.009l-230.907-7.136
						c-4.72-0.146-9.189-2.161-12.424-5.603l-265.818-282.769c-4.933-5.248-6.219-12.95-3.259-19.516
						c2.96-6.566,9.607-10.695,16.783-10.479l230.908,7.135c4.721,0.146,9.19,2.161,12.425,5.602l265.817,282.771
						c4.933,5.247,6.219,12.95,3.259,19.516C1479.74,2781.48,1473.377,2785.571,1466.394,2785.571z M1243.406,2743.057l180.565,5.58
						l-231.319-246.072l-180.566-5.58L1243.406,2743.057z" class="color141e87 svgShape"></path><polygon fill="#fcf47e" points="1200.574 2484.994 1207.709 2254.086 1473.526 2536.856 1466.391 2767.763" class="colorfcf47e svgShape"></polygon><path fill="#141e87" d="M1466.394,2785.571c-4.825,0-9.548-1.962-12.978-5.611l-265.817-282.77
						c-3.235-3.441-4.97-8.026-4.824-12.747l7.135-230.908c0.223-7.199,4.76-13.555,11.496-16.104
						c6.735-2.55,14.345-0.791,19.278,4.458l265.817,282.77c3.235,3.44,4.97,8.025,4.824,12.746l-7.136,230.908
						c-0.223,7.199-4.76,13.556-11.496,16.104C1470.642,2785.194,1468.508,2785.571,1466.394,2785.571z M1218.601,2478.171
						l231.319,246.072l5.58-180.565l-231.319-246.072L1218.601,2478.171z" class="color141e87 svgShape"></path><path fill="#141e87" d="M1704.505,3048.008c-4.755,0-9.499-1.893-13.004-5.639l-690.399-737.571
						c-6.721-7.18-6.349-18.449,0.832-25.169c7.179-6.721,18.449-6.349,25.169,0.832l690.399,737.571
						c6.721,7.18,6.349,18.448-0.832,25.17C1713.236,3046.415,1708.865,3048.008,1704.505,3048.008z" class="color141e87 svgShape"></path><path fill="#ffffff" d="M681.009,3938.505h90.162c222.532,5.461,312.683,13.239,351.908,21.461
					c127.823,26.793,309.606,77.136,423.577,95.292c68.19,10.863,138.081,1.68,201.129-26.414c0,0,506.015-253.293,784.881-541.892
					c56.424-49.734,55.142-123.167,18.659-165.116c-37.196-42.771-106.387-56.256-166.07-18.4l0.475-0.377l-435.198,301.812
					c0,0-320.755-27.341-443.659-55.153c-122.904-27.812-380.6-130.536-493.734-95.422c-113.134,35.113-205.417,88.41-205.417,88.41
					H684.061L681.009,3938.505z" class="colorfff svgShape"></path><path fill="#141e87" d="M1602.923,4077.529c-19.678,0-39.416-1.555-59.069-4.685
					c-69.163-11.019-163.019-33.763-253.786-55.759c-61.646-14.938-119.873-29.049-170.644-39.691
					c-46.178-9.679-156.908-16.379-348.476-21.082h-89.94c-9.835,0-17.807-7.973-17.807-17.808s7.972-17.808,17.807-17.808h90.162
					c0.146,0,0.292,0.002,0.437,0.006c254.767,6.252,324.691,15.455,355.124,21.834c51.313,10.757,109.802,24.931,171.725,39.937
					c90.087,21.831,183.242,44.405,251.001,55.199c64.812,10.323,130.747,1.704,190.708-24.928
					c7.517-3.786,131.677-66.613,286.444-161.967c146.258-90.11,350.556-228.524,493.251-376.2c0.33-0.342,0.674-0.67,1.031-0.984
					c49.187-43.354,47.268-105.266,16.997-140.072c-29.472-33.89-88.088-49.939-143.095-15.049c-0.125,0.08-0.251,0.158-0.378,0.233
					l-433.736,300.798c-3.406,2.362-7.527,3.462-11.661,3.11c-13.146-1.121-323.388-27.765-446.077-55.527
					c-33.415-7.562-76.992-20.674-123.128-34.557c-63.552-19.123-135.583-40.797-201.356-54.325
					c-73.768-15.175-126.118-17.432-160.041-6.902c-109.771,34.069-200.886,86.302-201.793,86.825
					c-2.706,1.562-5.778,2.386-8.902,2.386H684.061c-9.834,0-17.808-7.973-17.808-17.808s7.973-17.808,17.808-17.808h118.974
					c19.611-10.95,103.363-56.118,204.827-87.609c39.814-12.357,97.964-10.383,177.773,6.031
					c67.333,13.85,140.175,35.768,204.443,55.106c45.524,13.698,88.523,26.637,120.726,33.924
					c110.828,25.079,389.16,50.203,434.866,54.223l429.913-298.146c0.673-0.467,1.368-0.881,2.079-1.243
					c31.502-19.409,66.532-27.163,101.454-22.429c33.75,4.574,64.167,20.696,85.646,45.396
					c21.451,24.665,32.325,58.424,29.835,92.618c-2.661,36.526-20.271,70.967-49.608,97.058
					c-64.208,66.378-145.622,136.304-241.992,207.848c-77.077,57.221-163.882,115.632-258.006,173.611
					c-160.177,98.668-287.962,162.847-289.234,163.483c-0.238,0.119-0.479,0.233-0.723,0.342
					C1706.83,4066.589,1655.113,4077.528,1602.923,4077.529z" class="color141e87 svgShape"></path><path fill="#ffffff" d="M681.009,3542.706h126.713c61.876-38.473,168.552-99.074,241.156-114.342
					c103.096-21.681,198.533-25.219,297.199,8.767c62.057,21.375,99.896,47.714,214.762,64.779
					c137.802,20.473,195.035,23.268,254.661,27.455c25.798,1.812,46.451,3.969,68.557,11.347
					c11.169,3.728,21.906,8.407,28.987,14.06c34.48,27.522,49.207,60.324,37.8,104.866c-9.63,37.604-42.736,71.551-88.518,85.272
					c-16.966,5.085-34.855,6.344-52.538,5.251c0,0-379.037-15.058-529.491-45.338L681.009,3542.706z" class="colorfff svgShape"></path><path fill="#141e87" d="M1821.23,3768.329c-4.052,0-8.167-0.127-12.346-0.382
					c-18.156-0.724-382.561-15.569-532.102-45.666c-9.641-1.94-15.884-11.329-13.944-20.971
					c1.941-9.641,11.329-15.884,20.971-13.943c147.34,29.653,522.908,44.852,526.684,45.002c0.13,0.005,0.261,0.012,0.391,0.02
					c17.161,1.06,32.746-0.466,46.329-4.535c38.016-11.394,67.997-39.903,76.379-72.633c9.009-35.177-0.755-61.864-31.658-86.53
					c-2.603-2.078-9.119-6.281-23.517-11.088c-20.943-6.989-41.45-8.879-64.166-10.474c-5.45-0.383-10.879-0.754-16.353-1.128
					c-53.34-3.645-113.798-7.775-239.677-26.477c-86.299-12.821-130.063-30.695-172.387-47.981
					c-15.144-6.185-29.447-12.026-45.558-17.575c-85.63-29.495-174.37-32.018-287.735-8.178
					c-75.315,15.838-189.725,83.628-235.417,112.038c-2.822,1.755-6.08,2.686-9.403,2.686H681.009
					c-9.835,0-17.807-7.973-17.807-17.808s7.972-17.808,17.807-17.808h121.642c59.703-36.883,166.485-97.963,242.562-113.96
					c120.024-25.24,214.602-22.355,306.663,9.355c17.054,5.875,32.494,12.181,47.425,18.278
					c40.367,16.486,82.108,33.534,164.154,45.724c124.482,18.494,181.617,22.398,236.871,26.174
					c5.496,0.375,10.948,0.748,16.42,1.132c25.178,1.769,48.045,3.908,72.948,12.219c15.172,5.065,26.443,10.638,34.458,17.035
					c42.178,33.665,56.551,73.965,43.942,123.201c-11.591,45.261-50.161,82.778-100.656,97.912
					C1853.32,3766.199,1837.823,3768.329,1821.23,3768.329z" class="color141e87 svgShape"></path></g></svg>