<svg xmlns="http://www.w3.org/2000/svg" enable-background="new 0 0 5000 5000" viewBox="0 0 5000 5000" width="256" height="256"><path fill="#ffffff" d="M2699.943,3698.746h-1058.81c-26.664,0-48.279-21.615-48.279-48.279v-700.819v18.421V1369.685
			c0-37.637,30.793-68.431,68.43-68.431h1018.507c37.638,0,68.431,30.794,68.431,68.431v2280.782
			C2748.223,3677.131,2726.607,3698.746,2699.943,3698.746L2699.943,3698.746z" class="colorfff svgShape"></path><path fill="#5caeff" d="M2706.238,3698.746H1785.49c-23.188,0-41.984-20.285-41.984-45.308V2995.75v17.288V1513.026
			c0-35.32,26.778-64.219,59.508-64.219h885.701c32.729,0,59.508,28.899,59.508,64.219v2140.413
			C2748.223,3678.461,2729.426,3698.746,2706.238,3698.746L2706.238,3698.746z" class="color5caeff svgShape"></path><circle cx="3831.152" cy="2500" r="612.434" fill="#ffffff" class="colorfff svgShape"></circle><path fill="#ffffff" d="M3765.063 1894.123c0 0-144.465 137.273-227.241 346.181-73.688-17.481-147.729-41.301-222.271-71.807C3413.572 2017.686 3576.724 1912.975 3765.063 1894.123zM3881.463 3125.434c0 0 144.465-137.272 227.241-346.181 73.688 17.48 147.729 41.302 222.271 71.807C4232.953 3001.871 4069.802 3106.582 3881.463 3125.434zM3759.207 3118.878c0 0-144.465-137.273-227.241-346.182-73.688 17.481-147.729 41.302-222.271 71.807C3407.718 2995.314 3570.868 3100.025 3759.207 3118.878zM3875.607 1887.566c0 0 144.465 137.273 227.242 346.182 73.688-17.481 147.729-41.302 222.271-71.807C4227.098 2011.129 4063.946 1906.418 3875.607 1887.566z" class="colorfff svgShape"></path><ellipse cx="3875.607" cy="2556.642" fill="#5caeff" rx="560.687" ry="559.073" class="color5caeff svgShape"></ellipse><path fill="#ffcc5e" d="M3638.184 2049.593c0 0-42.264 47.412-102.108 175.549-69.876-10.841-29.3-3.627-99.984-22.546C3481.097 2132.49 3567.509 2073.13 3638.184 2049.593zM3870.434 3129.107c0 0 147.54-140.194 232.078-353.549 75.256 17.854 150.872 42.181 227 73.336C4229.403 3002.915 4062.78 3109.854 3870.434 3129.107zM3745.577 3122.411c0 0-147.54-140.194-232.077-353.548-75.258 17.853-62.241 8.9-138.37 40.056C3428.014 2928.464 3587.956 3073.26 3745.577 3122.411zM3982.418 2007.706c0 0 29.575-2.614 114.113 210.739 75.257-17.853 105.893-19.353 182.021-50.508C4161.959 2049.593 4029.365 2011.627 3982.418 2007.706z" class="colorffcc5e svgShape"></path><circle cx="701.545" cy="1742.436" r="145.13" fill="#ffffff" class="colorfff svgShape"></circle><circle cx="701.545" cy="2506.256" r="145.13" fill="#ffffff" class="colorfff svgShape"></circle><circle cx="1760.281" cy="1504.136" r="57.822" fill="#ffffff" class="colorfff svgShape"></circle><circle cx="1959.563" cy="1504.136" r="57.821" fill="#ffffff" class="colorfff svgShape"></circle><circle cx="1760.281" cy="2038.986" r="57.822" fill="#ffffff" class="colorfff svgShape"></circle><circle cx="1959.563" cy="2038.986" r="57.821" fill="#ffffff" class="colorfff svgShape"></circle><circle cx="1760.281" cy="2568.653" r="57.822" fill="#ffffff" class="colorfff svgShape"></circle><circle cx="1959.563" cy="2568.653" r="57.821" fill="#ffffff" class="colorfff svgShape"></circle><circle cx="2561.146" cy="3059.117" r="57.821" fill="#ffffff" class="colorfff svgShape"></circle><polygon fill="#ffffff" points="3353.301 3402.695 3014.995 3131.744 3014.995 3304.459 2080.783 3304.459 2080.783 3500.927 3014.995 3500.927 3014.995 3673.647" class="colorfff svgShape"></polygon><path fill="#ffffff" d="M830.574,3414.386H595.898c-21.716,0-39.483-17.768-39.483-39.483v-234.676
			c0-21.715,17.767-39.482,39.483-39.482h234.676c21.715,0,39.483,17.768,39.483,39.482v234.676
			C870.057,3396.618,852.289,3414.386,830.574,3414.386z" class="colorfff svgShape"></path><path fill="#1f2c66" d="M1437.577,2106.72h-118.182c-34.208,0-65.051-18.962-80.494-49.485l-135.517-267.865
			c-6.453-12.756-19.342-20.68-33.638-20.68h-82.213c-14.5,0-26.253-11.754-26.253-26.253s11.753-26.254,26.253-26.254h82.213
			c34.208,0,65.049,18.962,80.491,49.485l135.518,267.865c6.452,12.756,19.342,20.68,33.64,20.68h118.182
			c14.498,0,26.253,11.754,26.253,26.253C1463.831,2094.966,1452.075,2106.72,1437.577,2106.72z" class="color1f2c66 svgShape"></path><ellipse cx="752.709" cy="1804.299" fill="#ffcc5e" rx="93.966" ry="83.267" class="colorffcc5e svgShape"></ellipse><path fill="#1f2c66" d="M1069.747 3283.818h-82.213c-14.5 0-26.253-11.754-26.253-26.254 0-14.499 11.753-26.254 26.253-26.254h82.213c14.295 0 27.185-7.924 33.638-20.679l135.517-267.866c15.441-30.522 46.286-49.484 80.494-49.484h118.182c14.498 0 26.253 11.754 26.253 26.254s-11.755 26.254-26.253 26.254h-118.182c-14.298 0-27.188 7.923-33.64 20.68l-135.518 267.865C1134.796 3264.857 1103.953 3283.818 1069.747 3283.818zM1438.292 2532.509H976.595c-14.498 0-26.253-11.754-26.253-26.254 0-14.499 11.755-26.253 26.253-26.253h461.698c14.499 0 26.253 11.754 26.253 26.253C1464.546 2520.755 1452.791 2532.509 1438.292 2532.509z" class="color1f2c66 svgShape"></path><ellipse cx="759.634" cy="2563.338" fill="#ffcc5e" rx="87.042" ry="88.048" class="colorffcc5e svgShape"></ellipse><circle cx="1760.281" cy="1504.136" r="57.822" fill="#ffcc5e" class="colorffcc5e svgShape"></circle><circle cx="1959.563" cy="1504.136" r="57.821" fill="#ffcc5e" class="colorffcc5e svgShape"></circle><path fill="#1f2c66" d="M2596.056 1602.036c-14.498 0-26.253-11.754-26.253-26.254v-143.293c0-14.5 11.755-26.253 26.253-26.253 14.499 0 26.254 11.754 26.254 26.253v143.293C2622.31 1590.282 2610.555 1602.036 2596.056 1602.036zM2479.874 1602.036c-14.499 0-26.254-11.754-26.254-26.254v-143.293c0-14.5 11.755-26.253 26.254-26.253 14.498 0 26.253 11.754 26.253 26.253v143.293C2506.127 1590.282 2494.372 1602.036 2479.874 1602.036z" class="color1f2c66 svgShape"></path><circle cx="1760.281" cy="2038.986" r="57.822" fill="#ffcc5e" class="colorffcc5e svgShape"></circle><circle cx="1959.563" cy="2038.986" r="57.821" fill="#ffcc5e" class="colorffcc5e svgShape"></circle><path fill="#1f2c66" d="M2596.056 2136.887c-14.498 0-26.253-11.754-26.253-26.253v-143.294c0-14.5 11.755-26.253 26.253-26.253 14.499 0 26.254 11.754 26.254 26.253v143.294C2622.31 2125.133 2610.555 2136.887 2596.056 2136.887zM2479.874 2136.887c-14.499 0-26.254-11.754-26.254-26.253v-143.294c0-14.5 11.755-26.253 26.254-26.253 14.498 0 26.253 11.754 26.253 26.253v143.294C2506.127 2125.133 2494.372 2136.887 2479.874 2136.887z" class="color1f2c66 svgShape"></path><circle cx="1760.281" cy="2568.653" r="57.822" fill="#ffcc5e" class="colorffcc5e svgShape"></circle><circle cx="1959.563" cy="2568.653" r="57.821" fill="#ffcc5e" class="colorffcc5e svgShape"></circle><path fill="#1f2c66" d="M2596.056 2666.553c-14.498 0-26.253-11.754-26.253-26.254v-143.293c0-14.499 11.755-26.253 26.253-26.253 14.499 0 26.254 11.754 26.254 26.253v143.293C2622.31 2654.799 2610.555 2666.553 2596.056 2666.553zM2479.874 2666.553c-14.499 0-26.254-11.754-26.254-26.254v-143.293c0-14.499 11.755-26.253 26.254-26.253 14.498 0 26.253 11.754 26.253 26.253v143.293C2506.127 2654.799 2494.372 2666.553 2479.874 2666.553z" class="color1f2c66 svgShape"></path><circle cx="2561.146" cy="3059.117" r="57.821" fill="#ffcc5e" class="colorffcc5e svgShape"></circle><path fill="#1f2c66" d="M2641.004 1797.711h-948.696c-14.498 0-26.253-11.754-26.253-26.253 0-14.5 11.755-26.254 26.253-26.254h948.696c14.498 0 26.254 11.754 26.254 26.254C2667.258 1785.957 2655.502 1797.711 2641.004 1797.711zM2644.887 2312.992h-948.697c-14.498 0-26.253-11.754-26.253-26.254 0-14.499 11.755-26.253 26.253-26.253h948.697c14.498 0 26.253 11.754 26.253 26.253C2671.14 2301.238 2659.385 2312.992 2644.887 2312.992zM2633.701 2862.485h-948.696c-14.498 0-26.253-11.754-26.253-26.253 0-14.5 11.755-26.254 26.253-26.254h948.696c14.498 0 26.254 11.754 26.254 26.254C2659.955 2850.731 2648.199 2862.485 2633.701 2862.485z" class="color1f2c66 svgShape"></path><path fill="#1f2c66" d="M2699.944 3725H1641.134c-41.098 0-74.532-33.436-74.532-74.532V1369.684c0-52.209 42.474-94.684 94.684-94.684h1018.507c52.21 0 94.685 42.475 94.685 94.684v1689.433c0 14.5-11.755 26.254-26.254 26.254-14.5 0-26.253-11.754-26.253-26.254V1369.684c0-23.257-18.921-42.177-42.178-42.177H1661.285c-23.256 0-42.177 18.92-42.177 42.177v2280.784c0 12.145 9.881 22.025 22.025 22.025h1058.811c14.498 0 26.253 11.754 26.253 26.253C2726.197 3713.246 2714.442 3725 2699.944 3725zM3831.152 3138.688c-352.176 0-638.689-286.514-638.689-638.687s286.514-638.688 638.689-638.688c352.174 0 638.688 286.515 638.688 638.688S4183.326 3138.688 3831.152 3138.688zM3831.152 1913.819c-323.221 0-586.182 262.96-586.182 586.181 0 323.22 262.961 586.18 586.182 586.18s586.18-262.96 586.18-586.18C4417.332 2176.779 4154.373 1913.819 3831.152 1913.819z" class="color1f2c66 svgShape"></path><path fill="#1f2c66" d="M3886.484 3133.885c-6.869 0-13.728-2.678-18.879-8.008-10.078-10.425-9.796-27.045.631-37.122 193.099-186.65 288.932-386.317 284.836-593.456-6.638-335.806-276.848-580.897-279.576-583.334-10.811-9.652-11.762-26.245-2.115-37.061 9.643-10.815 26.22-11.782 37.047-2.141 11.828 10.533 289.789 262.093 297.133 621.018 4.551 222.496-96.662 435.376-300.833 632.727C3899.632 3131.434 3893.054 3133.885 3886.484 3133.885zM3831.152 3138.688c-14.498 0-26.254-11.754-26.254-26.254V1887.566c0-14.5 11.756-26.253 26.254-26.253s26.254 11.754 26.254 26.253v1224.868C3857.406 3126.934 3845.65 3138.688 3831.152 3138.688z" class="color1f2c66 svgShape"></path><path fill="#1f2c66" d="M4443.586 2526.254H3218.717c-14.498 0-26.254-11.754-26.254-26.253s11.756-26.253 26.254-26.253h1224.869c14.5 0 26.254 11.754 26.254 26.253S4458.086 2526.254 4443.586 2526.254zM3329.844 2879.249c-10.309 0-20.09-6.11-24.273-16.23-5.54-13.399.834-28.752 14.232-34.292 344.137-142.267 678.692-142.273 1022.797-.02 13.397 5.54 19.771 20.894 14.23 34.293-5.539 13.397-20.887 19.769-34.293 14.232-335.194-138.576-647.449-138.567-982.674.019C3336.582 2878.607 3333.186 2879.249 3329.844 2879.249zM3831.235 2301.938c-171.994 0-343.952-35.545-518.377-106.651-13.426-5.474-19.874-20.796-14.4-34.223 5.474-13.426 20.797-19.875 34.224-14.4 340.125 138.66 656.945 138.667 997.041.019 13.428-5.469 28.748.973 34.223 14.401 5.473 13.426-.975 28.748-14.4 34.222C4175.177 2266.389 4003.189 2301.938 3831.235 2301.938z" class="color1f2c66 svgShape"></path><path fill="#1f2c66" d="M3769.441 3132.684c-6.472 0-12.956-2.377-18.03-7.174-195.056-184.371-294.151-387.697-294.53-604.331-.641-365.778 278.111-635.328 289.978-646.624 10.494-9.99 27.1-9.583 37.099.909 9.998 10.491 9.599 27.106-.885 37.111-2.746 2.619-274.502 265.929-273.684 608.927.48 201.504 94.043 391.883 278.091 565.85 10.538 9.959 11.006 26.576 1.045 37.113C3783.36 3129.928 3776.408 3132.684 3769.441 3132.684zM3300.481 2526.254h-426.839c-14.498 0-26.253-11.754-26.253-26.253s11.755-26.253 26.253-26.253h426.839c14.498 0 26.254 11.754 26.254 26.253S3314.979 2526.254 3300.481 2526.254z" class="color1f2c66 svgShape"></path><polygon fill="#ffcc5e" points="3268.521 3477.215 3014.995 3280.783 3014.995 3405.996 2080.783 3405.996 2080.783 3508.699 3014.995 3508.699 3014.995 3673.647" class="colorffcc5e svgShape"></polygon><path fill="#1f2c66" d="M1760.281 1588.21c-46.358 0-84.074-37.716-84.074-84.074 0-46.359 37.716-84.075 84.074-84.075 46.36 0 84.076 37.716 84.076 84.075C1844.357 1550.495 1806.642 1588.21 1760.281 1588.21zM1760.281 1472.568c-17.406 0-31.567 14.162-31.567 31.568 0 17.407 14.161 31.567 31.567 31.567 17.408 0 31.569-14.161 31.569-31.567C1791.851 1486.73 1777.689 1472.568 1760.281 1472.568zM1959.563 1588.21c-46.358 0-84.074-37.716-84.074-84.074 0-46.359 37.716-84.075 84.074-84.075 46.36 0 84.076 37.716 84.076 84.075C2043.639 1550.495 2005.923 1588.21 1959.563 1588.21zM1959.563 1472.568c-17.406 0-31.567 14.162-31.567 31.568 0 17.407 14.161 31.567 31.567 31.567 17.408 0 31.569-14.161 31.569-31.567C1991.132 1486.73 1976.971 1472.568 1959.563 1472.568zM1760.281 2123.062c-46.358 0-84.074-37.716-84.074-84.075s37.716-84.075 84.074-84.075c46.36 0 84.076 37.716 84.076 84.075S1806.642 2123.062 1760.281 2123.062zM1760.281 2007.418c-17.406 0-31.567 14.161-31.567 31.568s14.161 31.568 31.567 31.568c17.408 0 31.569-14.161 31.569-31.568S1777.689 2007.418 1760.281 2007.418zM1959.563 2123.062c-46.358 0-84.074-37.716-84.074-84.075s37.716-84.075 84.074-84.075c46.36 0 84.076 37.716 84.076 84.075S2005.923 2123.062 1959.563 2123.062zM1959.563 2007.418c-17.406 0-31.567 14.161-31.567 31.568s14.161 31.568 31.567 31.568c17.408 0 31.569-14.161 31.569-31.568S1976.971 2007.418 1959.563 2007.418zM1760.281 2652.728c-46.358 0-84.074-37.716-84.074-84.074 0-46.359 37.716-84.075 84.074-84.075 46.36 0 84.076 37.716 84.076 84.075C1844.357 2615.012 1806.642 2652.728 1760.281 2652.728zM1760.281 2537.085c-17.406 0-31.567 14.162-31.567 31.568s14.161 31.567 31.567 31.567c17.408 0 31.569-14.161 31.569-31.567S1777.689 2537.085 1760.281 2537.085zM1959.563 2652.728c-46.358 0-84.074-37.716-84.074-84.074 0-46.359 37.716-84.075 84.074-84.075 46.36 0 84.076 37.716 84.076 84.075C2043.639 2615.012 2005.923 2652.728 1959.563 2652.728zM1959.563 2537.085c-17.406 0-31.567 14.162-31.567 31.568s14.161 31.567 31.567 31.567c17.408 0 31.569-14.161 31.569-31.567S1976.971 2537.085 1959.563 2537.085zM2561.145 3143.192c-46.357 0-84.074-37.716-84.074-84.075 0-46.358 37.716-84.074 84.074-84.074 46.358 0 84.074 37.716 84.074 84.074C2645.219 3105.477 2607.503 3143.192 2561.145 3143.192zM2561.145 3027.55c-17.406 0-31.566 14.161-31.566 31.567s14.16 31.568 31.566 31.568 31.567-14.162 31.567-31.568S2578.551 3027.55 2561.145 3027.55zM3014.991 3699.9c-3.863 0-7.745-.852-11.362-2.589-9.1-4.37-14.887-13.569-14.887-23.665v-146.466h-907.959c-14.499 0-26.253-11.754-26.253-26.254v-196.468c0-14.499 11.755-26.254 26.253-26.254h907.959v-146.461c0-10.096 5.787-19.295 14.887-23.666 9.098-4.371 19.897-3.136 27.779 3.174l338.305 270.952c6.22 4.982 9.841 12.521 9.841 20.491s-3.621 15.509-9.841 20.491l-338.305 270.952C3026.658 3697.941 3020.85 3699.9 3014.991 3699.9zM2107.036 3474.674h907.959c14.499 0 26.254 11.754 26.254 26.253v118.057l270.054-216.288-270.054-216.289v118.053c0 14.5-11.755 26.254-26.254 26.254h-907.959V3474.674zM766.47 3235.278H660.001c-14.499 0-26.253-11.754-26.253-26.253 0-14.5 11.755-26.254 26.253-26.254H766.47c14.499 0 26.253 11.754 26.253 26.254C792.724 3223.524 780.969 3235.278 766.47 3235.278z" class="color1f2c66 svgShape"></path><path fill="#ff6975" d="M846.651,3414.386H707.537c-12.873,0-23.405-9.66-23.405-21.468v-127.596
			c0-11.807,10.533-21.467,23.405-21.467h139.115c12.873,0,23.405,9.66,23.405,21.467v127.596
			C870.057,3404.726,859.524,3414.386,846.651,3414.386z" class="colorff6975 svgShape"></path><path fill="#1f2c66" d="M701.546 1913.819c-94.503 0-171.385-76.883-171.385-171.384 0-94.5 76.882-171.383 171.385-171.383 94.5 0 171.383 76.883 171.383 171.383C872.929 1836.937 796.046 1913.819 701.546 1913.819zM701.546 1623.56c-65.551 0-118.878 53.327-118.878 118.876 0 65.549 53.328 118.877 118.878 118.877 65.548 0 118.876-53.328 118.876-118.877C820.422 1676.887 767.094 1623.56 701.546 1623.56zM701.546 2677.64c-94.503 0-171.385-76.883-171.385-171.385 0-94.501 76.882-171.384 171.385-171.384 94.5 0 171.383 76.883 171.383 171.384C872.929 2600.757 796.046 2677.64 701.546 2677.64zM701.546 2387.378c-65.551 0-118.878 53.328-118.878 118.877 0 65.55 53.328 118.877 118.878 118.877 65.548 0 118.876-53.327 118.876-118.877C820.422 2440.706 767.094 2387.378 701.546 2387.378zM830.574 3440.64H595.897c-36.249 0-65.736-29.489-65.736-65.737v-234.676c0-36.247 29.488-65.736 65.736-65.736h234.677c36.249 0 65.737 29.489 65.737 65.736v234.676C896.311 3411.15 866.823 3440.64 830.574 3440.64zM595.897 3126.998c-7.17 0-13.229 6.058-13.229 13.229v234.676c0 7.171 6.059 13.23 13.229 13.23h234.677c7.17 0 13.229-6.06 13.229-13.23v-234.676c0-7.171-6.059-13.229-13.229-13.229H595.897z" class="color1f2c66 svgShape"></path></svg>