<svg xmlns="http://www.w3.org/2000/svg" viewBox="0 0 24 24" width="256" height="256"><path fill="#5cfaa9" d="M11 6h2a1 1 0 000-2H11a1 1 0 000 2zM11 9h2a1 1 0 000-2H11a1 1 0 000 2zM13 10H12a1 1 0 000 2h1a1 1 0 000-2z" class="color5cfaa9 svgShape"></path><path fill="#212529" d="M23,20H21.8157A2.9951,2.9951,0,0,0,20,18.1843V15h1a2.0027,2.0027,0,0,0,2-2V7a3.0033,3.0033,0,0,0-3-3H17V3a3.0033,3.0033,0,0,0-3-3H10A3.0033,3.0033,0,0,0,7,3V4H4A3.0033,3.0033,0,0,0,1,7v6a2.0027,2.0027,0,0,0,2,2H4v3.1843A2.9951,2.9951,0,0,0,2.1843,20H1a1,1,0,0,0,0,2H2.1843a2.982,2.982,0,0,0,5.6314,0H9.1843a2.982,2.982,0,0,0,5.6314,0h1.3686a2.982,2.982,0,0,0,5.6314,0H23a1,1,0,0,0,0-2Zm-5-1.8157A2.9951,2.9951,0,0,0,16.1843,20H14.8157A2.9951,2.9951,0,0,0,13,18.1843V17h2a2.0027,2.0027,0,0,0,2-2h1ZM20,6a1.0006,1.0006,0,0,1,1,1v6H17V6ZM9,3a1.0006,1.0006,0,0,1,1-1h4a1.0006,1.0006,0,0,1,1,1l.002,12H9ZM3,7A1.0006,1.0006,0,0,1,4,6H7v7H3Zm4,8a2.0027,2.0027,0,0,0,2,2h2v1.1843A2.9951,2.9951,0,0,0,9.1843,20H7.8157A2.9951,2.9951,0,0,0,6,18.1843V15ZM5,22a1,1,0,1,1,1-1A1.0006,1.0006,0,0,1,5,22Zm7,0a1,1,0,1,1,1-1A1.0006,1.0006,0,0,1,12,22Zm7,0a1,1,0,1,1,1-1A1.0006,1.0006,0,0,1,19,22Z" class="color212529 svgShape"></path></svg>