<svg xmlns="http://www.w3.org/2000/svg" enable-background="new 0 0 1080 1080" viewBox="0 0 1080 1080" width="550" height="550"><path fill="#ffeede" d="M319.671,302.996c47.204-36.62,105.278-57.634,164.39-66.293c128.505-18.825,267.125,23.256,355.14,118.761   s117.796,244.203,63.007,361.957c-22.758,48.913-60.714,92.879-111.126,112.089c-37.185,14.169-78.059,14.034-117.851,13.713   c-113.415-0.914-226.83-1.827-340.245-2.741c-47.398-0.382-97.179-1.376-138.334-24.891   c-75.891-43.364-90.533-145.497-35.952-211.389c17.949-21.668,48.486-36.258,59.856-62.704c7.957-18.506,4.728-39.203,5.392-58.705   c0.786-23.085,4.753-45.809,12.547-67.573C252.413,370.763,282.505,331.829,319.671,302.996z" class="colorffeede svgShape"></path><rect width="750.673" height="24.773" x="136.019" y="822.916" fill="#a5b7f5" class="colora5b7f5 svgShape"></rect><rect width="275.958" height="199.705" x="619.247" y="269.383" fill="#2d3969" class="color2d3969 svgShape"></rect><rect width="275.958" height="27.987" x="619.247" y="269.383" fill="#5a71cc" class="color5a71cc svgShape"></rect><rect width="16.543" height="47.317" x="827.846" y="313.883" fill="#7a91e6" class="color7a91e6 svgShape"></rect><rect width="47.317" height="16.543" x="765.142" y="313.883" fill="#7a91e6" class="color7a91e6 svgShape"></rect><rect width="16.543" height="44.234" x="701.726" y="316.967" fill="#7a91e6" class="color7a91e6 svgShape"></rect><rect width="16.543" height="77.617" x="669.173" y="347.859" fill="#7a91e6" class="color7a91e6 svgShape"></rect><rect width="16.543" height="78.981" x="732.589" y="345.903" fill="#7a91e6" class="color7a91e6 svgShape"></rect><rect width="37.534" height="16.543" x="740.86" y="408.34" fill="#7a91e6" class="color7a91e6 svgShape"></rect><rect width="37.534" height="16.543" x="807.745" y="377.121" fill="#7a91e6" class="color7a91e6 svgShape"></rect><rect width="37.534" height="16.543" x="740.86" y="345.903" fill="#7a91e6" class="color7a91e6 svgShape"></rect><rect width="79.069" height="16.543" x="701.726" y="441.426" fill="#7a91e6" class="color7a91e6 svgShape"></rect><rect width="48.207" height="16.543" x="797.072" y="441.426" fill="#7a91e6" class="color7a91e6 svgShape"></rect><rect width="16.543" height="48.207" x="828.735" y="408.785" fill="#7a91e6" class="color7a91e6 svgShape"></rect><rect width="16.543" height="78.981" x="764.786" y="345.903" fill="#7a91e6" class="color7a91e6 svgShape"></rect><rect width="16.543" height="78.981" x="796.316" y="345.903" fill="#7a91e6" class="color7a91e6 svgShape"></rect><rect width="16.543" height="18.322" x="669.173" y="439.648" fill="#7a91e6" class="color7a91e6 svgShape"></rect><rect width="16.543" height="48.74" x="701.726" y="409.229" fill="#7a91e6" class="color7a91e6 svgShape"></rect><rect width="79.959" height="16.543" x="669.173" y="313.883" fill="#7a91e6" class="color7a91e6 svgShape"></rect><rect width="49.096" height="16.543" x="669.173" y="377.121" fill="#7a91e6" class="color7a91e6 svgShape"></rect><path fill="#ffffff" d="M637.864 282.872c0 3.045-2.469 5.514-5.514 5.514-3.046 0-5.515-2.469-5.515-5.514 0-3.046 2.469-5.514 5.515-5.514C635.395 277.358 637.864 279.827 637.864 282.872zM653.873 282.872c0 3.045-2.469 5.514-5.514 5.514-3.046 0-5.514-2.469-5.514-5.514 0-3.046 2.469-5.514 5.514-5.514C651.404 277.358 653.873 279.827 653.873 282.872zM669.883 282.872c0 3.045-2.469 5.514-5.514 5.514-3.046 0-5.514-2.469-5.514-5.514 0-3.046 2.469-5.514 5.514-5.514C667.414 277.358 669.883 279.827 669.883 282.872z" class="colorfff svgShape"></path><rect width="14.088" height="6.198" x="869.94" y="280.277" fill="#ffffff" transform="rotate(-45.001 876.985 283.388)" class="colorfff svgShape"></rect><rect width="6.198" height="14.088" x="873.885" y="276.332" fill="#ffffff" transform="rotate(-45.001 876.985 283.388)" class="colorfff svgShape"></rect><polygon fill="#c9793c" points="821.193 737.327 807.485 737.327 793.777 737.327 793.777 702.296 793.777 667.265 807.485 667.265 821.193 667.265 821.193 702.296" class="colorc9793c svgShape"></polygon><path fill="#97aaef" d="M779.98,739.774v-3.584v-1.236c0-1.297,1.051-2.348,2.348-2.348h25.158h25.157     c1.297,0,2.348,1.051,2.348,2.348v1.236v3.584h-27.505H779.98z" class="color97aaef svgShape"></path><path fill="#2d3969" d="M723.556 823.992v-6.272l0 0c0-3.464 2.808-6.271 6.271-6.271h77.657 77.657c3.464 0 6.271 2.808 6.271 6.271l0 0v6.272h-83.928H723.556zM756.954 752.317v-6.272-.666c0-3.096 2.51-5.606 5.606-5.606h44.925 44.925c3.096 0 5.605 2.51 5.605 5.606v.666 6.272h-50.531H756.954z" class="color2d3969 svgShape"></path><path fill="#97aaef" d="M744.265,811.449v-29.566v-18.47c0-6.128,4.968-11.096,11.096-11.096h52.124h52.124     c6.128,0,11.096,4.968,11.096,11.096v18.47v29.566h-63.22H744.265z" class="color97aaef svgShape"></path><path fill="#c4d2ff" d="M857.174,795.852c0,2.311-1.874,4.185-4.185,4.185h-45.505h-45.505c-2.311,0-4.185-1.874-4.185-4.185     v-13.969v-13.969c0-2.311,1.874-4.185,4.185-4.185h45.505h45.505c2.311,0,4.185,1.874,4.185,4.185v13.969V795.852z" class="colorc4d2ff svgShape"></path><path fill="#d98853" d="M954.084 525.297c0 0-.192 24.542-11.35 53.189-11.158 28.647-33.282 61.4-77.144 77.821-3.695 1.384-7.544 2.652-11.554 3.791-4.009 1.139-8.18 2.151-12.517 3.023l1.395-11.355 1.395-11.355c0 0 4.326-.052 11.111-1.488 6.785-1.436 16.03-4.255 25.866-9.79 10.861-6.097 22.443-15.495 32.248-29.977 9.805-14.482 17.831-34.048 21.578-60.482 0 0 .466-2.799-.818-5.716-1.284-2.916-4.319-5.949-11.32-6.416l-15.709.004-15.709.004-.314-8.707-.313-8.707 25.353-.007 25.353-.007c0 0 3.111.777 6.222 3.188C950.971 514.721 954.082 518.765 954.084 525.297zM773.525 663.14c-5.564-1.113-10.853-2.459-15.882-4.011-5.029-1.552-9.797-3.31-14.316-5.246-40.83-17.482-61.44-49.609-71.843-77.365-10.403-27.756-10.598-51.141-10.598-51.141-.002-6.532 3.108-10.577 6.217-12.99 3.11-2.412 6.22-3.191 6.22-3.191l25.353-.007 25.353-.007-.309 8.707-.309 8.708-15.708.004-15.708.004c-7.001.47-10.034 3.505-11.317 6.422-1.282 2.917-.815 5.716-.815 5.716 3.415 24.013 10.362 42.357 18.963 56.369 8.602 14.012 18.858 23.691 28.89 30.375 11.018 7.349 21.769 11.085 29.766 12.983 7.997 1.899 13.239 1.96 13.239 1.96l1.402 11.355L773.525 663.14z" class="colord98853 svgShape"></path><path fill="#f8a66c" d="M900.22,516.638l-0.663,8.78l-0.663,8.78l-0.884,11.714l-0.884,11.714l-1.933,25.59l-1.933,25.59      l-1.418,18.776l-1.418,18.776c-1.266,16.756-8.741,31.558-19.82,42.172c-11.079,10.614-25.763,17.039-41.446,17.039h-21.671      h-21.671c-0.415,0-0.829-0.005-1.242-0.014c-0.413-0.009-0.825-0.024-1.236-0.042c-8.791-0.379-17.219-2.768-24.816-6.766      c-7.597-3.998-14.361-9.604-19.825-16.416c-3.959-4.934-7.237-10.5-9.653-16.547c-2.417-6.046-3.973-12.572-4.491-19.426      l-4.9-64.86l-4.9-64.86c-0.307-4.067,0.835-7.769,2.93-10.454c2.095-2.685,5.144-4.353,8.651-4.353h81.155h81.155      c3.506,0,6.555,1.668,8.65,4.353C899.385,508.868,900.527,512.57,900.22,516.638z" class="colorf8a66c svgShape"></path><path fill="#ffffff" d="M900.22,516.638l-0.663,8.78l-0.663,8.78l-57.779,85.657l-57.778,85.657      c-8.791-0.379-17.219-2.768-24.816-6.766c-7.597-3.998-14.361-9.604-19.825-16.416l60.878-90.25l60.878-90.25h14.094h14.094      c3.506,0,6.555,1.668,8.65,4.353C899.385,508.868,900.527,512.57,900.22,516.638z" opacity=".47" class="colorfff svgShape"></path><polygon fill="#ffffff" points="897.125 557.625 895.191 583.215 893.258 608.805 860.622 657.187 827.986 705.569 812.658 705.569 797.33 705.569 847.227 631.597" opacity=".47" class="colorfff svgShape"></polygon><path fill="#c9793c" d="M903.045,512.514h-95.56h-95.56c-1.61,0-3.068-0.653-4.123-1.708c-1.055-1.055-1.708-2.513-1.708-4.123     v-4.853v-4.853c0-1.61,0.653-3.068,1.708-4.123c1.055-1.055,2.513-1.708,4.123-1.708h95.56h95.56c1.61,0,3.068,0.653,4.123,1.708     c1.055,1.055,1.708,2.513,1.708,4.123v4.853v4.853c0,1.61-0.653,3.068-1.708,4.123     C906.112,511.861,904.655,512.514,903.045,512.514z" class="colorc9793c svgShape"></path><path fill="#97aaef" d="M764.839 768.737c0 1.099-.891 1.989-1.989 1.989-1.099 0-1.989-.891-1.989-1.989s.891-1.989 1.989-1.989C763.949 766.748 764.839 767.639 764.839 768.737zM854.106 768.737c0 1.099-.891 1.989-1.989 1.989-1.099 0-1.989-.891-1.989-1.989s.891-1.989 1.989-1.989C853.215 766.748 854.106 767.639 854.106 768.737z" class="color97aaef svgShape"></path><g><circle cx="762.85" cy="795.232" r="1.989" fill="#97aaef" class="color97aaef svgShape"></circle><circle cx="852.117" cy="795.232" r="1.989" fill="#97aaef" class="color97aaef svgShape"></circle></g><g><rect width="341.769" height="427.07" x="136.235" y="406.428" fill="#c4d2ff" class="colorc4d2ff svgShape"></rect><path fill="#6676be" d="M478.889,834.383H135.35V405.542h343.539V834.383z M137.121,832.612h339.997V407.313H137.121V832.612z" class="color6676be svgShape"></path><rect width="136.971" height="80.059" x="238.613" y="459.386" fill="#2d3969" class="color2d3969 svgShape"></rect><rect width="341.725" height="38.257" x="136.257" y="406.428" fill="#5a71cc" class="color5a71cc svgShape"></rect><rect width="74.063" height="74.063" x="175.145" y="708.618" fill="#b8c8fb" class="colorb8c8fb svgShape"></rect><path fill="#b8c8fb" d="M249.208,708.618v74.063h-74.063v-74.063H249.208 M250.711,707.116h-1.503h-74.063h-1.503v1.503v74.063        v1.503h1.503h74.063h1.503v-1.503v-74.063V707.116L250.711,707.116z" class="colorb8c8fb svgShape"></path><rect width="37.668" height="6.819" x="176.894" y="789.647" fill="#b8c8fb" class="colorb8c8fb svgShape"></rect><rect width="61.616" height="3.742" x="176.894" y="803.45" fill="#b8c8fb" class="colorb8c8fb svgShape"></rect><rect width="61.616" height="3.742" x="176.894" y="812.718" fill="#b8c8fb" class="colorb8c8fb svgShape"></rect><rect width="74.063" height="74.063" x="270.885" y="708.618" fill="#b8c8fb" class="colorb8c8fb svgShape"></rect><path fill="#b8c8fb" d="M344.948,708.618v74.063h-74.062v-74.063H344.948 M346.45,707.116h-1.503h-74.062h-1.503v1.503v74.063        v1.503h1.503h74.062h1.503v-1.503v-74.063V707.116L346.45,707.116z" class="colorb8c8fb svgShape"></path><rect width="37.668" height="6.819" x="272.685" y="789.647" fill="#b8c8fb" class="colorb8c8fb svgShape"></rect><rect width="61.616" height="3.742" x="272.685" y="803.45" fill="#b8c8fb" class="colorb8c8fb svgShape"></rect><rect width="61.616" height="3.742" x="272.685" y="812.718" fill="#b8c8fb" class="colorb8c8fb svgShape"></rect><rect width="74.063" height="74.063" x="366.625" y="708.618" fill="#b8c8fb" class="colorb8c8fb svgShape"></rect><path fill="#b8c8fb" d="M440.687,708.618v74.063h-74.063v-74.063H440.687 M442.19,707.116h-1.503h-74.063h-1.503v1.503v74.063        v1.503h1.503h74.063h1.503v-1.503v-74.063V707.116L442.19,707.116z" class="colorb8c8fb svgShape"></path><rect width="37.668" height="6.819" x="368.477" y="789.647" fill="#b8c8fb" class="colorb8c8fb svgShape"></rect><rect width="61.616" height="3.742" x="368.477" y="803.45" fill="#b8c8fb" class="colorb8c8fb svgShape"></rect><rect width="61.616" height="3.742" x="368.477" y="812.718" fill="#b8c8fb" class="colorb8c8fb svgShape"></rect><path fill="#b8c8fb" d="M181.025 582.492h-31v-26.524h31V582.492zM152.682 579.836h25.687v-21.211h-25.687V579.836zM358.401 582.492H181.672v-26.524h176.729V582.492zM184.329 579.836h171.416v-21.211H184.329V579.836zM398.252 582.492h-37.855v-26.524h37.855V582.492zM363.054 579.836h32.542v-21.211h-32.542V579.836zM426.56 582.492h-26.524v-26.524h26.524V582.492zM402.692 579.836h21.211v-21.211h-21.211V579.836zM465.806 582.492h-37.463v-26.524h37.463V582.492zM431 579.836h32.15v-21.211H431V579.836zM181.025 609.982h-31v-26.524h31V609.982zM152.682 607.326h25.687v-21.211h-25.687V607.326zM358.401 609.982H181.672v-26.524h176.729V609.982zM184.329 607.326h171.416v-21.211H184.329V607.326zM398.252 609.982h-37.855v-26.524h37.855V609.982zM363.054 607.326h32.542v-21.211h-32.542V607.326zM426.56 609.982h-26.524v-26.524h26.524V609.982zM402.692 607.326h21.211v-21.211h-21.211V607.326zM465.806 609.982h-37.463v-26.524h37.463V609.982zM431 607.326h32.15v-21.211H431V607.326zM181.025 637.473h-31v-26.524h31V637.473zM152.682 634.816h25.687v-21.211h-25.687V634.816zM358.401 637.473H181.672v-26.524h176.729V637.473zM184.329 634.816h171.416v-21.211H184.329V634.816zM398.252 637.473h-37.855v-26.524h37.855V637.473zM363.054 634.816h32.542v-21.211h-32.542V634.816zM426.56 637.473h-26.524v-26.524h26.524V637.473zM402.692 634.816h21.211v-21.211h-21.211V634.816zM465.806 637.473h-37.463v-26.524h37.463V637.473zM431 634.816h32.15v-21.211H431V634.816z" class="colorb8c8fb svgShape"></path><rect width="28.343" height="23.868" x="151.354" y="639.768" fill="#b8c8fb" class="colorb8c8fb svgShape"></rect><rect width="174.072" height="23.868" x="183.001" y="639.768" fill="#b8c8fb" class="colorb8c8fb svgShape"></rect><path fill="#b8c8fb" d="M398.252 664.964h-37.855V638.44h37.855V664.964zM363.054 662.307h32.542v-21.211h-32.542V662.307zM426.56 664.964h-26.524V638.44h26.524V664.964zM402.692 662.307h21.211v-21.211h-21.211V662.307zM465.806 664.964h-37.463V638.44h37.463V664.964zM431 662.307h32.15v-21.211H431V662.307z" class="colorb8c8fb svgShape"></path><rect width="28.343" height="23.868" x="151.354" y="667.259" fill="#b8c8fb" class="colorb8c8fb svgShape"></rect><rect width="174.072" height="23.868" x="183.001" y="667.259" fill="#b8c8fb" class="colorb8c8fb svgShape"></rect><path fill="#b8c8fb" d="M398.252 692.454h-37.855V665.93h37.855V692.454zM363.054 689.798h32.542v-21.211h-32.542V689.798zM426.56 692.454h-26.524V665.93h26.524V692.454zM402.692 689.798h21.211v-21.211h-21.211V689.798zM465.806 692.454h-37.463V665.93h37.463V692.454zM431 689.798h32.15v-21.211H431V689.798z" class="colorb8c8fb svgShape"></path><rect width="6.578" height="6.578" x="162.237" y="565.941" fill="#b8c8fb" class="colorb8c8fb svgShape"></rect><rect width="41.707" height="6.578" x="196.053" y="565.941" fill="#b8c8fb" class="colorb8c8fb svgShape"></rect><path fill="#ffffff" d="M232.067 656.319h-30.321v-9.235h30.321V656.319zM204.403 653.663h25.008v-3.922h-25.008V653.663zM251.186 683.809h-58.511v-9.234h58.511V683.809zM195.331 681.153h53.198v-3.921h-53.198V681.153zM272.68 683.809H259.9v-9.234h12.78V683.809zM262.556 681.153h7.467v-3.921h-7.467V681.153zM340.425 683.809h-12.781v-9.234h12.781V683.809zM330.301 681.153h7.468v-3.921h-7.468V681.153zM304.811 683.809h-20.533v-9.234h20.533V683.809zM286.935 681.153h15.219v-3.921h-15.219V681.153zM275.107 656.319h-30.321v-9.235h30.321V656.319zM247.443 653.663h25.008v-3.922h-25.008V653.663zM318.148 656.319h-30.321v-9.235h30.321V656.319zM290.484 653.663h25.008v-3.922h-25.008V653.663z" class="colorfff svgShape"></path><rect width="23.564" height="6.578" x="196.053" y="593.432" fill="#b8c8fb" class="colorb8c8fb svgShape"></rect><rect width="58.784" height="6.578" x="213.242" y="621.743" fill="#b8c8fb" class="colorb8c8fb svgShape"></rect><rect width="58.784" height="6.578" x="287.484" y="621.743" fill="#b8c8fb" class="colorb8c8fb svgShape"></rect><rect width="66.739" height="6.578" x="239.553" y="593.432" fill="#b8c8fb" class="colorb8c8fb svgShape"></rect><rect width="20.179" height="6.578" x="249.858" y="565.941" fill="#b8c8fb" class="colorb8c8fb svgShape"></rect><rect width="35.987" height="6.578" x="295.021" y="565.941" fill="#b8c8fb" class="colorb8c8fb svgShape"></rect><rect width="6.578" height="6.578" x="162.237" y="593.432" fill="#b8c8fb" class="colorb8c8fb svgShape"></rect><rect width="6.578" height="6.578" x="162.237" y="620.922" fill="#b8c8fb" class="colorb8c8fb svgShape"></rect><path fill="#ffffff" d="M170.143 656.319h-9.234v-9.235h9.234V656.319zM163.565 653.663h3.921v-3.922h-3.921V653.663zM170.143 683.809h-9.234v-9.234h9.234V683.809zM163.565 681.153h3.921v-3.921h-3.921V681.153z" class="colorfff svgShape"></path><rect width="136.971" height="3.321" x="238.613" y="539.445" fill="#b8c8fb" class="colorb8c8fb svgShape"></rect><path fill="#dee1e4" d="M422.189 478.566h-33.242v-7.916h33.242V478.566zM391.603 475.91h27.929v-2.603h-27.929V475.91zM452.773 536.447h-23.969v-7.915h23.969V536.447zM431.46 533.791h18.656v-2.602H431.46V533.791zM452.773 492.475h-63.826v-7.916h63.826V492.475zM391.603 489.818h58.513v-2.603h-58.513V489.818zM447.606 506.798h-42.468v-7.915h42.468V506.798zM407.795 504.142h37.155v-2.602h-37.155V504.142zM426.479 522.021h-35.456v-7.915h35.456V522.021zM393.679 519.365h30.143v-2.602h-30.143V519.365z" class="colordee1e4 svgShape"></path></g><g><path fill="#465ab3" d="M570.1,314.496c-3.125-6.421-7.73-12.492-13.168-17.129l5.718-9.99l-16.458-9.448l-5.719,9.957    c-6.733-2.375-14.301-3.298-21.421-2.768l-2.951-10.955l-18.058,4.864l2.951,10.955c-7.176,3.321-12.613,7.763-17.249,13.2    l-10.193-5.664l-9.418,16.449l9.986,5.703c-2.388,6.744-3.291,14.299-2.768,21.421l-11.444,3.083l5.269,19.563l11.708-3.153    c3.118,6.423,7.731,12.492,13.166,17.121l-5.719,9.99l16.46,9.455l5.717-9.965c6.734,2.382,14.293,3.3,21.416,2.778l2.951,10.955    l18.058-4.864l-2.951-10.955c7.174-3.328,12.62-7.765,17.255-13.21l10.195,5.671l9.416-16.457l-9.985-5.703    c2.39-6.737,3.292-14.291,2.77-21.414l11.437-3.081l-5.269-19.563L570.1,314.496z" class="color465ab3 svgShape"></path><path fill="#7186e2" d="M529.877,361.251c-13.096,3.527-26.57-4.228-30.097-17.324c-3.527-13.096,4.227-26.575,17.323-30.102    c13.101-3.529,26.576,4.232,30.104,17.328C550.733,344.249,542.978,357.723,529.877,361.251z" class="color7186e2 svgShape"></path></g><g><path fill="#465ab3" d="M442.447,306.536c-2.118-4.352-5.239-8.466-8.924-11.609l3.875-6.77l-11.154-6.403l-3.876,6.748    c-4.563-1.609-9.692-2.235-14.518-1.876l-2-7.425l-12.238,3.296l2,7.425c-4.863,2.251-8.548,5.261-11.69,8.946l-6.908-3.838    l-6.383,11.148l6.768,3.865c-1.618,4.571-2.23,9.691-1.876,14.518l-7.756,2.089l3.571,13.258l7.935-2.137    c2.113,4.353,5.239,8.466,8.923,11.603l-3.876,6.77l11.155,6.408l3.875-6.754c4.564,1.615,9.687,2.237,14.514,1.883l2,7.425    l12.238-3.296l-2-7.425c4.862-2.256,8.553-5.263,11.694-8.953l6.909,3.843l6.381-11.153l-6.767-3.865    c1.62-4.566,2.231-9.685,1.877-14.512l7.751-2.088l-3.571-13.258L442.447,306.536z" class="color465ab3 svgShape"></path><path fill="#7186e2" d="M415.187,338.223c-8.875,2.391-18.007-2.866-20.398-11.741c-2.391-8.875,2.865-18.01,11.74-20.401    c8.879-2.392,18.011,2.868,20.402,11.743C429.322,326.7,424.066,335.832,415.187,338.223z" class="color7186e2 svgShape"></path></g><g><path fill="#1d263f" d="M207.644 694.374l-.197 108.083c-.017 9.188 4.025 18.018 11.269 23.67 5.992 4.675 14.959 7.99 28.204 6.054 14.721-2.152 27.924-10.123 37.194-21.76 6.523-8.189 48.013-83.236 48.013-83.236L207.644 694.374zM523.292 694.374l.197 108.083c.017 9.188-4.025 18.018-11.269 23.67-5.992 4.675-14.958 7.99-28.204 6.054-14.721-2.152-27.924-10.123-37.194-21.76-6.523-8.189-48.012-83.236-48.012-83.236L523.292 694.374z" class="color1d263f svgShape"></path><rect width="150.962" height="94.355" x="288.691" y="647.197" fill="#1d263f" class="color1d263f svgShape"></rect><circle cx="281.487" cy="688.782" r="74.052" fill="#5971d4" transform="rotate(-45.001 281.48 688.788)" class="color5971d4 svgShape"></circle><circle cx="281.487" cy="688.782" r="56.93" fill="#7186e2" transform="rotate(-80.781 281.499 688.778)" class="color7186e2 svgShape"></circle><circle cx="449.449" cy="688.782" r="74.052" fill="#5971d4" transform="rotate(-45.001 449.443 688.79)" class="color5971d4 svgShape"></circle><circle cx="449.449" cy="688.782" r="56.93" fill="#7186e2" transform="rotate(-45.001 449.443 688.79)" class="color7186e2 svgShape"></circle><path fill="#465ab3" d="M289.654 675.189h-16.335c-2.13 0-3.873-1.743-3.873-3.873v-16.335c0-2.13 1.743-3.873 3.873-3.873h16.335c2.13 0 3.873 1.743 3.873 3.873v16.335C293.527 673.446 291.784 675.189 289.654 675.189zM289.654 726.455h-16.335c-2.13 0-3.873-1.743-3.873-3.873v-16.335c0-2.13 1.743-3.873 3.873-3.873h16.335c2.13 0 3.873 1.743 3.873 3.873v16.335C293.527 724.712 291.784 726.455 289.654 726.455zM295.079 696.949v-16.335c0-2.13 1.743-3.873 3.873-3.873h16.335c2.13 0 3.873 1.743 3.873 3.873v16.335c0 2.13-1.743 3.873-3.873 3.873h-16.335C296.822 700.822 295.079 699.079 295.079 696.949zM438.292 720.667v-63.771c0-1.974 1.615-3.589 3.589-3.589h15.136c1.974 0 3.589 1.615 3.589 3.589v63.771c0 1.974-1.615 3.589-3.589 3.589h-15.136C439.907 724.256 438.292 722.641 438.292 720.667z" class="color465ab3 svgShape"></path><path fill="#465ab3" d="M417.564 677.625h63.771c1.974 0 3.589 1.615 3.589 3.589v15.136c0 1.974-1.615 3.589-3.589 3.589h-63.771c-1.974 0-3.589-1.615-3.589-3.589v-15.136C413.975 679.24 415.59 677.625 417.564 677.625zM243.813 696.949v-16.335c0-2.13 1.743-3.873 3.873-3.873h16.335c2.13 0 3.873 1.743 3.873 3.873v16.335c0 2.13-1.743 3.873-3.873 3.873h-16.335C245.556 700.822 243.813 699.079 243.813 696.949z" class="color465ab3 svgShape"></path></g><g><path fill="#ffa188" d="M593.602,775.864c-5.737,2.06-11.761,3.319-17.843,3.73c3.236,5.631,4.314,12.468,2.967,18.822     c2.334-0.8,4.668-1.599,7.001-2.398c1.884-0.645,3.769-1.291,5.678-1.857c0.966-0.286,1.937-0.552,2.917-0.787     c0.761-0.182,1.869-0.2,2.534-0.645c0.701-0.468,0.358-1.018,0.084-1.675c-0.379-0.906-0.726-1.825-1.043-2.755     c-0.641-1.883-1.152-3.81-1.531-5.763C593.941,780.336,593.684,778.103,593.602,775.864z" class="colorffa188 svgShape"></path><path fill="#ffa188" d="M578.207,799.002l0.141-0.667c1.324-6.249,0.259-13.01-2.924-18.549l-0.308-0.537l0.618-0.042     c6.057-0.409,12.025-1.657,17.738-3.708l0.498-0.179l0.019,0.529c0.08,2.205,0.335,4.43,0.758,6.612     c0.374,1.931,0.884,3.853,1.517,5.712c0.313,0.92,0.661,1.838,1.034,2.73l0.083,0.193c0.249,0.571,0.59,1.353-0.309,1.953     c-0.533,0.356-1.269,0.469-1.918,0.568c-0.269,0.041-0.524,0.08-0.741,0.132c-0.907,0.217-1.855,0.473-2.897,0.782     c-1.901,0.563-3.811,1.217-5.659,1.851L578.207,799.002z M576.394,779.936c2.935,5.4,3.96,11.851,2.843,17.895l6.366-2.18     c1.859-0.637,3.777-1.294,5.694-1.862c1.056-0.313,2.016-0.572,2.936-0.792c0.248-0.059,0.518-0.101,0.804-0.144     c0.597-0.091,1.215-0.185,1.605-0.446c0.331-0.221,0.306-0.365,0.029-1.001l-0.088-0.203c-0.379-0.908-0.733-1.843-1.052-2.779     c-0.644-1.893-1.164-3.849-1.545-5.814c-0.397-2.048-0.649-4.133-0.749-6.206C587.8,778.308,582.139,779.495,576.394,779.936z" class="colorffa188 svgShape"></path><path fill="#2d3969" d="M598.219,790.577c1.467,2.616,2.794,7.854,2.81,11.018c-4.289,6.961-11.471,13.502-18.738,17.249     c-7.267,3.748-15.564,5.471-23.723,4.929c-1.454-0.097-3.12-0.397-3.847-1.66c-0.616-1.07-0.281-2.479,0.462-3.464     c0.744-0.985,1.824-1.65,2.855-2.329c9.232-6.08,16.431-15.194,20.208-25.583C585.807,792.348,598.219,790.577,598.219,790.577z" class="color2d3969 svgShape"></path><path fill="#1d263f" d="M600.903,799.966c-0.181,2.226-1.204,3.687-2.683,5.361c-4.72,5.343-10.148,10.229-16.527,13.411     c-6.744,3.364-14.37,5.088-21.884,4.383c-0.945-0.089-1.877-0.313-2.739-0.709c-1.376-0.631-2.04-1.424-2.088-2.597     c0.058-0.426,0.333-1.193,0.292-1.281c-0.596,0.104-1.033,1.082-1.138,1.473c-0.273,1.017-0.167,2.701,0.046,4.303     c0.334,2.513,2.338,4.482,4.855,4.785c1.606,0.193,3.397,0.361,4.796,0.365c3.329,0.008,6.336-0.057,9.606-0.683     c3.193-0.611,6.695-1.791,9.713-2.998c3.018-1.207,5.921-3.239,8.557-5.867l10.722-10.479     C602.627,806.702,602.22,802.614,600.903,799.966z" class="color1d263f svgShape"></path><path fill="#2d3969" d="M575.907,785.201c6.914-1.126,14.257-2.402,21.167-3.532c-0.722-23.788,0.412-49.896,3.147-74.006    c0.781-6.875,1.691-13.589,2.723-20.037c0.094-0.62,15.953-66.336,16.04-66.956c2.77-20.182-9.82-24.956-8.713-38.745    c0.2-2.547,0.365-5.2-0.491-7.538c-0.243-0.675-1.542-1.417-3.32-2.092c-2.005-0.765-4.623-1.444-7.02-1.848    c-2.9-0.487-5.478-0.569-6.275,0.098c-6.718,4.921-26.979,52.136-28.489,101.13C561.282,720.789,572.571,769.739,575.907,785.201z    " class="color2d3969 svgShape"></path><path fill="#ffa188" d="M682.58,778.421c-5.715,2.121-11.725,3.443-17.802,3.918c3.295,5.597,4.445,12.422,3.166,18.789     c2.325-0.824,4.651-1.648,6.976-2.472c1.877-0.665,3.755-1.331,5.658-1.917c0.962-0.296,1.931-0.573,2.908-0.818     c0.759-0.19,1.867-0.22,2.527-0.672c0.696-0.476,0.347-1.022,0.066-1.676c-0.388-0.902-0.746-1.817-1.072-2.743     c-0.661-1.876-1.193-3.798-1.592-5.746C682.966,782.89,682.685,780.66,682.58,778.421z" class="colorffa188 svgShape"></path><path fill="#ffa188" d="M667.43,801.721l0.134-0.669c1.258-6.263,0.121-13.012-3.12-18.517l-0.314-0.534l0.617-0.048     c6.051-0.473,12.006-1.783,17.698-3.896l0.496-0.184l0.025,0.529c0.103,2.204,0.382,4.426,0.828,6.604     c0.395,1.928,0.926,3.844,1.578,5.696c0.323,0.917,0.68,1.831,1.062,2.719l0.085,0.192c0.255,0.568,0.604,1.347-0.288,1.956     c-0.53,0.362-1.264,0.482-1.913,0.588c-0.269,0.044-0.523,0.086-0.738,0.14c-0.906,0.226-1.851,0.493-2.889,0.812     c-1.889,0.582-3.787,1.254-5.623,1.904L667.43,801.721z M665.415,782.675c2.992,5.369,4.084,11.809,3.032,17.864l6.343-2.248     c1.863-0.66,3.769-1.335,5.674-1.921c1.051-0.324,2.008-0.594,2.928-0.823c0.247-0.062,0.516-0.106,0.802-0.153     c0.596-0.097,1.213-0.198,1.601-0.463c0.329-0.225,0.302-0.368,0.019-1.001l-0.09-0.203c-0.389-0.903-0.752-1.834-1.081-2.767     c-0.664-1.885-1.204-3.835-1.606-5.797c-0.419-2.044-0.692-4.127-0.815-6.198C676.803,780.927,671.155,782.174,665.415,782.675z" class="colorffa188 svgShape"></path><path fill="#2d3969" d="M642.506,571.328c4.95,12.629,8.315,25.759,10.003,38.979c1.477,13.254,0.725,31.301,11.651,65.385    c10.115,34.455,16.228,83.751,21.911,106.836c-16.6,3.64-23.386,4.954-23.386,4.954s-27.23-75.222-31.791-85.362    c-16.986-35.268-32.455-92.471-35.608-102.411c-2.697-6.366,1.057-25.08,7.678-32.341    C614.412,570.206,630.891,573.835,642.506,571.328z" class="color2d3969 svgShape"></path><path fill="#1d263f" d="M584.637 599.013c2.342 7.363 11.207 39.678 22.536 70.909 1.311-5.447 2.793-11.625 4.258-17.71-8.177-24.464-14.292-46.657-16.145-52.501-2.358-5.556.205-20.511 5.293-29.055-.384-.075-.764-.146-1.139-.209-2.901-.484-5.481-.568-6.278.1-1.974 1.448-5.121 6.553-8.615 14.284C583.469 590.644 583.389 596.087 584.637 599.013zM641.637 611.713c-.053-.415-1.747-11.672-1.803-12.087 2.129-.305 3.506-.239 5.567-1.134 1.542-.617 3.59-.848 4.984-1.662.183 1.209 2.126 12.112 2.281 13.322 1.478 13.253.725 31.302 11.652 65.387 2.101 7.156 11.125 50.379 11.175 52.468-9.563-4.657-19.259-40.872-22.204-50.907C642.362 643.016 643.114 624.967 641.637 611.713z" class="color1d263f svgShape"></path><path fill="#2d3969" d="M687.351,793.084c1.495,2.6,2.877,7.824,2.927,10.988c-4.215,7.006-11.327,13.622-18.554,17.447    c-7.227,3.824-15.506,5.636-23.669,5.18c-1.455-0.081-3.124-0.364-3.864-1.62c-0.627-1.063-0.307-2.476,0.426-3.469    c0.733-0.993,1.806-1.669,2.83-2.359c9.167-6.178,16.269-15.367,19.936-25.795C674.959,794.987,687.351,793.084,687.351,793.084z" class="color2d3969 svgShape"></path><path fill="#1d263f" d="M690.135,802.445c-0.157,2.228-1.165,3.7-2.626,5.389c-4.663,5.392-10.039,10.336-16.385,13.586    c-6.708,3.435-14.315,5.24-21.836,4.614c-0.946-0.079-1.88-0.294-2.746-0.68c-1.382-0.617-2.055-1.402-2.116-2.575    c0.053-0.427,0.321-1.196,0.279-1.284c-0.595,0.11-1.022,1.093-1.123,1.485c-0.262,1.02-0.138,2.703,0.091,4.302    c0.361,2.51,2.385,4.457,4.906,4.733c1.608,0.176,3.401,0.325,4.8,0.314c3.329-0.027,6.335-0.124,9.598-0.785    c3.186-0.645,6.676-1.862,9.681-3.101s5.886-3.302,8.495-5.958l10.611-10.592C691.93,809.162,691.48,805.078,690.135,802.445z" class="color1d263f svgShape"></path><path fill="#ffa188" d="M627.965,481.333c-2.05,4.268-5.611,6.281-10.214,7.387c-4.604,1.106-9.529,0.407-13.892-1.431     c-4.363-1.838-8.288-5.179-11.652-8.512c1.312-1.387,2.46-2.908,3.454-4.528c1.77-2.88,3.053-6.071,3.92-9.355     c0.718-2.721,1.247-5.433,1.514-8.168c0.235-2.421,0.266-4.861,0.037-7.343c8.256,4.452,14.951,4.373,23.787,1.224     c0.985,5.41,1.492,10.761,1.892,16.029c0.32,4.216,0.571,8.38,0.94,12.481C627.819,479.858,627.889,480.596,627.965,481.333z" class="colorffa188 svgShape"></path><path fill="#ffa188" d="M613.192,489.631c-3.112,0-6.362-0.671-9.483-1.986c-4.836-2.037-9.036-5.88-11.774-8.594l-0.268-0.266     l0.26-0.275c1.257-1.328,2.403-2.83,3.406-4.464c1.667-2.712,2.971-5.825,3.876-9.251c0.761-2.884,1.252-5.536,1.503-8.107     c0.244-2.51,0.256-4.888,0.037-7.27l-0.066-0.718l0.635,0.342c7.686,4.145,14.267,4.481,23.474,1.2l0.429-0.153l0.082,0.448     c1.021,5.608,1.515,11.037,1.897,16.069c0.111,1.467,0.214,2.928,0.317,4.382c0.188,2.666,0.382,5.423,0.622,8.093     c0.067,0.74,0.137,1.477,0.213,2.212l0.011,0.109l-0.047,0.099c-1.907,3.971-5.137,6.314-10.472,7.596     C616.352,489.453,614.79,489.631,613.192,489.631z M592.747,478.765c2.694,2.648,6.704,6.246,11.263,8.167     c4.573,1.926,9.421,2.428,13.651,1.412c5.044-1.212,8.105-3.398,9.908-7.081c-0.072-0.702-0.139-1.406-0.203-2.113     c-0.241-2.678-0.435-5.439-0.623-8.108c-0.102-1.453-0.205-2.912-0.316-4.378c-0.37-4.877-0.846-10.128-1.807-15.543     c-8.967,3.115-15.526,2.817-23.043-1.068c0.16,2.196,0.129,4.398-0.096,6.709c-0.255,2.613-0.754,5.305-1.525,8.229     c-0.924,3.5-2.258,6.682-3.964,9.459C595.03,476.018,593.94,477.467,592.747,478.765z" class="colorffa188 svgShape"></path><path fill="#ed836e" d="M626.543,459.118c-1.438,2.372-3.099,4.62-5.477,5.98c-1.761,1.007-3.788,1.445-5.79,1.765    c-5.279,0.842-10.671,0.966-15.982,0.368c0.257-0.772,0.488-1.552,0.696-2.338c0.37-1.405,0.692-2.807,0.95-4.212    c6.238,1.017,12.637,1.027,18.878,0.03c2.003-0.32,4.029-0.758,5.79-1.765c0.297-0.169,0.857-0.549,0.857-0.549    s0.008,0.084,0.048,0.439c0.006,0.053,0.018,0.153,0.026,0.237C626.54,459.093,626.551,459.103,626.543,459.118z" class="colored836e svgShape"></path><path fill="#ffa188" d="M467.31,497.692c0,0,1.564,0.117,3.119,0.406c44.751,8.305,71.258,4.601,85.451-2.326    c0.168,0.224,12.522,27.735,11.468,28.283c-1.815,1.867-39.087,5.642-41.495,5.175c-10.191-1.977-37.703-10.373-50.924-14.408    c-3.676-1.122-6.331-1.932-6.576-1.979l-0.355-0.068l0.036-0.36c0.48-3.959-0.349-7.384-0.925-12.079L467.31,497.692z" class="colorffa188 svgShape"></path><path fill="#ead6c5" d="M660.738,503.932c-0.043,4.321-0.607,8.624-1.338,12.905c-0.387,2.267-1.294,5.187-1.757,7.437    c-1.378,6.595-2.543,12.469-3.92,19.061c-0.853,4.09-1.052,18.004-1.07,28.317c-0.014,6.682,0.043,32.446,0.043,32.446    s-16.952,2.209-42.556,2.52c-16.283,0.199-30.19-4.762-32.793-4.759c0,0-0.253-45.575-0.517-50.58    c-0.069-1.273-0.148-2.567-0.231-3.876c-0.329-5.402-0.654-11.036-0.018-16.221c0.235-1.927,0.499-3.844,0.767-5.753    c-2.423,2.199-5.207,4.18-8.201,5.959c-2.831,1.681-5.854,3.186-8.946,4.527c-4.133-13.307-7.898-29.027-7.866-40.555    c10.515-12.482,45.032-24.899,45.032-24.899c0.846,3.073,1.893,6.178,4.341,8.463c1.891,1.765,4.354,2.849,6.899,3.312    c3.363,0.615,9.168-0.255,12.206-2.091c4.553-2.752,6.575-9.098,6.575-9.098s11.785,5.263,16.898,8.025    c3.128,1.689,5.76,3.359,8.61,5.424c3.026,2.191,5.601,3.876,7.015,7.684C661.353,496.064,660.782,499.925,660.738,503.932z" class="coloread6c5 svgShape"></path><path fill="#c6aa95" d="M653.472 533.064c.474.625.861 1.26 1.055 1.899.79 2.604-.738 6.88-1.088 9.538-.419 3.178-.793 6.445-.311 9.639-8.319-2.424-17.019-3.308-25.664-2.935-7.628.329-15.373 2.459-22.998 2.459-1.849.221-3.95.368-5.337-.874-1.58-1.416-1.432-3.932-.819-5.963 1.43-4.741 4.596-8.723 7.356-12.834 5.763-8.582 9.979-18.2 12.385-28.253 1.538-6.425 2.75-13.703 8.089-17.594.96-.699 2.133-1.275 3.298-1.043 1.163.231 2.019 1.201 2.735 2.147 7.204 9.515 9.365 21.583 14.055 32.327 1.146 2.625 2.437 5.194 3.996 7.6C651.02 530.41 652.451 531.717 653.472 533.064zM590.643 511.758c-6.223 13.994-9.38 21.065-14.044 35.645-.329-5.402-.654-11.036-.018-16.221.235-1.927.499-3.844.767-5.753-2.423 2.199-5.207 4.18-8.201 5.959.069-.582.47-1.034 1.385-1.768C576.19 525.089 588.293 515.139 590.643 511.758z" class="colorc6aa95 svgShape"></path><path fill="#4b2c1b" d="M594.805,407.594c-2.785,3.883-4.226,9.099-3.039,13.728c0.143,0.557,1.566,4.986,1.566,4.986    s0.817-3.754,1.255-3.996c3.015-1.66,5.489-4.191,7.432-7.031s3.386-5.992,4.667-9.187c0.354-0.882,0.698-1.778,0.831-2.719    c0.12-0.852,0.237-2.585-0.946-2.558c-1.091,0.026-2.263,0.356-3.297,0.684c-2.162,0.684-4.183,1.812-5.901,3.293    C596.412,405.622,595.545,406.562,594.805,407.594z" class="color4b2c1b svgShape"></path><path fill="#ffa188" d="M638.849,436.076c-5.101,17.657-18.289,31.002-31.288,27.247c-12.999-3.756-17.721-22.022-13.673-39.949     c4.466-19.78,20.293-29.512,33.292-25.757C640.179,401.373,643.95,418.42,638.849,436.076z" class="colorffa188 svgShape"></path><path fill="#ffa188" d="M611.996,464.338c-1.531,0-3.051-0.213-4.542-0.644c-6.229-1.8-11.02-7.097-13.491-14.915     c-2.335-7.389-2.496-16.442-0.452-25.491c2.359-10.446,7.959-18.74,15.769-23.356c5.783-3.417,12.178-4.371,18.008-2.687     c6.341,1.832,10.798,6.771,12.888,14.284c1.951,7.015,1.612,15.77-0.954,24.653c-2.569,8.894-7.113,16.647-12.793,21.831     C621.868,462.175,616.875,464.338,611.996,464.338z M621.509,397.208c-3.976,0-8.039,1.148-11.836,3.391     c-7.625,4.506-13.097,12.625-15.408,22.86c-4.304,19.063,1.458,36.041,13.403,39.492c5.978,1.727,12.454-0.229,18.238-5.508     c5.576-5.089,10.041-12.716,12.571-21.474c2.527-8.748,2.865-17.353,0.952-24.231c-2.014-7.241-6.287-11.995-12.357-13.748     C625.263,397.466,623.396,397.208,621.509,397.208z" class="colorffa188 svgShape"></path><path fill="#643a24" d="M593.332,426.308c0,0-6.929-22.388,13.417-24.204c3.222,4.801,6.675,9.432,11.325,12.869    c2.654,1.962,5.67,3.581,7.628,6.237c1.921,2.606,2.597,5.92,2.884,9.145c0.495,5.558-0.023,11.204-1.52,16.579    c0.836-1.151,2.109-1.742,3.531-1.709c1.422,0.033,2.789,0.531,4.112,1.055c-1.024,1.523-2.471,2.678-3.61,4.118    c-1.476,1.867-2.143,4.229-2.776,6.523c2.573-0.219,5.307-1.271,7.485-2.659c2.178-1.388,4.117-3.114,6.045-4.833    c4.073-3.63,5.623-9.127,9.889-12.439c4.103-3.185,9.285-6.587,10.088-11.733c0.746-4.783-0.648-10.626-3.546-14.537    c-1.023-1.381-2.231-2.609-3.492-3.771c-1.116-1.029-2.594-1.836-3.561-2.968c-2.974-3.482-2.552-8.871-5.214-12.598    c-2.458-3.44-6.963-4.69-11.162-5.188c-4.198-0.498-8.593-0.521-12.376-2.408c-2.763-1.378-4.983-3.655-7.683-5.15    c-3.572-1.978-7.938-2.468-11.86-1.333c-3.009,0.871-5.859,2.72-7.794,5.199c-1.598,2.047-2.193,5.648-2.424,8.176    c-0.311,3.397,0.506,6.892-0.332,10.198c-0.695,2.741-2.461,5.075-3.549,7.685C586.177,414.935,588.054,421.859,593.332,426.308z" class="color643a24 svgShape"></path><path fill="#ed836e" d="M628.456,430.029c0.286,3.186,0.239,6.4-0.135,9.575c-0.138-2.201-0.145-4.559-0.594-6.718    c-0.661-3.171-1.493-6.542-3.708-8.91c-2.26-2.414-5.488-3.99-8.359-5.635c-5.03-2.882-13.438-12.57-13.438-12.57    s1.118-1.669,3.788-3.59l0.74-0.077c3.234,4.805,6.496,9.09,11.159,12.532c2.661,1.964,5.685,3.586,7.651,6.244    C627.486,423.488,628.167,426.803,628.456,430.029z" class="colored836e svgShape"></path><path fill="#643a24" d="M593.148 394.955c-1.883-4.667-1.81-9.758.196-13.617 2.155-4.148 7.093-7.338 11.739-7.587 3.238-.174 6.726 1.125 9.59 3.561 2.298 1.953 4.244 4.562 6.125 8.21l-.824.425c-1.824-3.537-3.699-6.057-5.901-7.929-2.687-2.284-5.956-3.499-8.94-3.341-4.34.232-8.952 3.213-10.966 7.088-1.883 3.622-1.942 8.423-.159 12.843L593.148 394.955zM648.568 435.646l-.876-.301c1.024-2.976 4.506-3.988 6.491-4.327.598-.102 1.213-.183 1.806-.261 1.987-.262 3.863-.509 5.453-1.494 1.773-1.098 3.067-3.132 3.553-5.579.385-1.94.313-4.087-.233-6.959-.458-2.41-1.354-5.838-3.848-7.787-1.443-1.127-3.296-1.665-5.089-2.185-.491-.142-.981-.284-1.463-.438-3.164-1.006-5.103-2.466-5.929-4.462-.68-1.643-.479-3.402-.285-5.104.139-1.223.284-2.487.084-3.661-.524-3.085-3.268-5.129-5.661-6.014-2.815-1.041-5.889-1.056-8.863-1.07l-10.671-.052.005-.927 10.671.052c2.912.014 6.213.03 9.18 1.128 2.636.975 5.663 3.254 6.254 6.728.221 1.304.07 2.634-.077 3.922-.189 1.657-.368 3.223.22 4.644.715 1.728 2.467 3.014 5.354 3.932.475.151.957.291 1.44.431 1.877.545 3.818 1.108 5.401 2.345 2.74 2.141 3.703 5.788 4.188 8.344.383 2.016.755 4.669.231 7.312-.535 2.699-1.983 4.954-3.974 6.187-1.759 1.09-3.824 1.362-5.82 1.626-.586.077-1.191.157-1.772.256C652.556 432.236 649.437 433.123 648.568 435.646z" class="color643a24 svgShape"></path><path fill="#ffa188" d="M472.155,513.572c-1.135-0.432-3.401-0.913-4.526-1.37c-9.276-2.109-19.082-1.598-27.77,2.283     c-2.161,0.965-4.426,1.672-6.727,2.224c-1.393,0.334-2.294,0.621-3.676,0.278c-1.002-0.249-1.162-1.61-0.258-2.108     c2.51-1.381,5.311-2.053,7.913-3.16c0.698-0.297,0.422-1.347-0.332-1.257c-1.472,0.176-2.946,0.758-4.407,1.225     c-2.285,0.731-4.689,1.183-7.069,1.489c-1.259,0.162-2.594,0.1-3.809-0.26c-1.196-0.354-1.143-2.072,0.073-2.35     c4.767-1.088,9.485-2.387,14.137-3.893c0.684-0.221,0.553-1.214-0.163-1.277c-1.355-0.119-2.766,0.114-4.079,0.507     c-2.068,0.619-4.421,0.966-6.492,1.574c-2.076,0.609-4.123,1.043-6.16,1.037c-1.458-0.004-1.88-2.022-0.557-2.634     c2.895-1.338,6.396-1.685,9.76-2.333c2.868-0.552,4.685-0.991,8.344-2.003c0.233-0.065,0.515-0.162,0.818-0.277     c0.688-0.262,0.501-1.288-0.236-1.284c-2.72,0.016-6.463,0.622-8.482,0.699c-2.538,0.097-4.519,0.272-6.306-0.224     c-1.349-0.374-1.549-2.204-0.305-2.845c1.33-0.685,3.02-0.912,4.55-1.039c7.009-0.58,14.017-1.16,21.026-1.741     c1.611-0.133,3.616-0.586,3.863-2.246c0.079-0.53-0.068-1.072-0.342-1.534c-0.618-1.044-1.667-1.625-2.531-2.41     c-1.241-1.129-2.825-3.043-3.521-4.891c-0.336-0.893,0.628-1.731,1.468-1.277c3.364,1.821,6.738,5.21,9.021,7.903     c2.049,2.417,4.356,4.871,7.318,6.151c1.116,0.482,2.696,0.64,4.078,1.045c0-0.001,0-0.001,0-0.001     c2.124,0.506,2.77,0.331,5.022,0.728" class="colorffa188 svgShape"></path><rect width="37.441" height="311.724" x="517.189" y="376.215" fill="#5971d4" transform="rotate(-78.802 535.856 532.054)" class="color5971d4 svgShape"></rect><rect width="13.156" height="311.739" x="529.357" y="376.039" fill="#7186e2" transform="rotate(-78.797 535.925 531.88)" class="color7186e2 svgShape"></rect><rect width="12.313" height="311.739" x="527.305" y="388.53" fill="#5971d4" transform="rotate(-78.802 533.412 544.377)" class="color5971d4 svgShape"></rect><rect width="37.461" height="8.906" x="674.438" y="558.774" fill="#c4d2ff" transform="rotate(-78.802 693.104 563.206)" class="colorc4d2ff svgShape"></rect><path fill="#465ab3" d="M730.924,577.127l2.447-12.356c1.331-6.723-3.04-13.253-9.763-14.584l-22.438-4.443l-7.268,36.703     l22.438,4.443C723.064,588.221,729.593,583.85,730.924,577.127z" class="color465ab3 svgShape"></path><path fill="#465ab3" d="M732.148,570.949l1.223-6.178c1.331-6.723-3.04-13.253-9.763-14.584l-22.438-4.443l-3.634,18.352     L732.148,570.949z" class="color465ab3 svgShape"></path><polygon fill="#ffffff" points="386.653 483.437 334.301 491.867 379.361 520.181" class="colorfff svgShape"></polygon><polygon fill="#5971d4" points="352.37 489.32 349.903 501.776 334.683 491.97 352.444 488.946" class="color5971d4 svgShape"></polygon><g><path fill="#ffa188" d="M614.084,569.174c1.957,0.175,25.885-26.383,30.181-41.078c-9.824-2.174-14.287-5.544-24.308-6.449     c-3.141,6.193-8.542,17.084-11.718,25.417c-9.592-4.642-29.057-12.212-42.157-16.51l0-0.001     c-3.069-1.257-6.196-2.466-9.486-3.364c-1.536,1.488-3.256,2.77-5.167,3.843c-1.347,1.104-2.774,2.051-4.278,2.844l13.658,9.527     c0,0,32.952,19.201,46.307,25.208C609.34,569.612,612.053,570.524,614.084,569.174z" class="colorffa188 svgShape"></path><path fill="#ffa188" d="M546.409,533.83l0.561-0.296c1.481-0.782,2.899-1.724,4.213-2.801l0.056-0.038     c1.863-1.045,3.574-2.318,5.087-3.783l0.158-0.153l0.213,0.058c3.376,0.922,6.576,2.169,9.53,3.38     c13.342,4.377,32.334,11.804,41.799,16.338c2.374-6.154,6.269-14.582,11.584-25.061l0.119-0.234l0.261,0.023     c5.955,0.538,9.988,1.948,14.257,3.44c2.993,1.047,6.089,2.129,10.099,3.016l0.404,0.089l-0.116,0.397     c-2.486,8.504-11.114,20.096-16.036,26.248c-5.691,7.113-12.623,14.633-14.367,15.086c-2.195,1.402-5.037,0.431-7.274-0.575     c-13.222-5.947-46.014-25.035-46.344-25.227L546.409,533.83z M551.648,531.353c-1.182,0.966-2.445,1.827-3.762,2.564     l13.144,9.169c0.303,0.175,33.06,19.243,46.245,25.173c2.079,0.935,4.707,1.848,6.595,0.594l0.113-0.075l0.118,0.011     c0.975-0.179,7.069-6.255,14.1-15.075c4.744-5.951,13.002-17.071,15.573-25.33c-3.858-0.88-6.867-1.932-9.781-2.95     c-4.16-1.454-8.093-2.829-13.81-3.376c-5.356,10.571-9.252,19.03-11.583,25.145l-0.15,0.394l-0.38-0.184     c-9.305-4.503-28.588-12.055-42.109-16.491c-2.894-1.185-5.995-2.395-9.256-3.301     C555.192,529.06,553.492,530.315,551.648,531.353z M614.092,568.789C614.092,568.789,614.092,568.789,614.092,568.789     L614.092,568.789z" class="colorffa188 svgShape"></path></g><path fill="#ead6c5" d="M637.878,491.043c-8.906,8.127-21.624,24.734-26.935,35.558c9.225,11.622,12.473,16.396,26.159,22.127    c8.827-9.95,15.372-20.154,22.089-31.714" class="coloread6c5 svgShape"></path><g><path fill="#ffa188" d="M565.239,530.211c-1.693-1.086-4.007-6.676-4.804-8.477c-0.797-1.801-1.859-3.554-3.458-4.703      c0.054,0.81,0.108,1.633-0.074,2.424c-0.182,0.791-0.637,1.559-1.362,1.924c-1.298,0.652-2.82-0.174-4.033-0.974      c-4.681-3.089-9.362-6.178-14.042-9.267c-0.595-0.393-1.211-0.794-1.912-0.924c-0.701-0.13-1.516,0.08-1.892,0.686      c-0.57,0.92,0.172,2.151,1.122,2.67l11.021,9.089c-0.724,0.289-1.516,0.008-2.209-0.351c-2.207-1.143-4.035-3.067-6.407-3.81      l-6.739-3.65c-0.514-0.343-1.765,0.154-1.78,0.772c-0.014,0.618,0.417,1.151,0.856,1.585c0.736,0.727,1.563,1.354,2.388,1.979      c2.813,2.133,5.625,4.267,8.438,6.4c-3.341-1.299-6.682-2.598-10.023-3.898c-0.324-0.126-0.69-0.252-1.01-0.115      c-0.408,0.176-0.538,0.725-0.391,1.144c0.147,0.419,0.494,0.731,0.835,1.015c2.365,1.965,5.13,3.447,8.076,4.328      c-0.066,0.157-0.132,0.315-0.198,0.472c-0.524,0.156-1.029-0.249-1.463-0.582c-0.433-0.334-1.075-0.614-1.488-0.256      c-0.283,0.245-0.299,0.699-0.136,1.037c0.163,0.338,0.462,0.586,0.756,0.82c4.587,3.654,9.797,6.526,15.336,8.452      c2.064,0.718,3.987,1.07,5.768,2.336" class="colorffa188 svgShape"></path><path fill="#ffa188" d="M528.49,522.492c-0.042-0.505,0.17-1.056,0.677-1.275c0.485-0.209,0.997-0.01,1.303,0.109l7.446,2.896      l-6.235-4.729c-0.821-0.623-1.67-1.267-2.425-2.012c-0.462-0.456-0.989-1.082-0.971-1.869c0.009-0.395,0.291-0.766,0.774-1.017      c0.478-0.249,1.161-0.366,1.607-0.068l6.676,3.614c1.463,0.467,2.725,1.361,3.945,2.226c0.799,0.566,1.626,1.152,2.488,1.599      c0.401,0.208,0.751,0.338,1.059,0.394l-10.268-8.468c-0.692-0.391-1.234-1.065-1.42-1.769c-0.136-0.516-0.071-1.009,0.188-1.426      c0.495-0.798,1.507-1.008,2.291-0.863c0.788,0.146,1.461,0.59,2.055,0.982l14.043,9.267c1.184,0.781,2.543,1.505,3.646,0.951      c0.557-0.28,0.979-0.887,1.158-1.665c0.171-0.742,0.117-1.54,0.065-2.312l-0.055-0.82l0.667,0.479      c1.437,1.033,2.577,2.578,3.586,4.861l0.252,0.575c0.888,2.038,2.966,6.809,4.407,7.733l-0.418,0.652      c-1.441-0.924-3.109-4.427-4.699-8.076l-0.25-0.571c-0.788-1.781-1.648-3.078-2.67-4.01c0.017,0.549-0.003,1.106-0.131,1.661      c-0.231,1.003-0.801,1.799-1.565,2.183c-1.464,0.736-3.131-0.146-4.419-0.997l-14.043-9.267      c-0.558-0.368-1.135-0.749-1.77-0.867c-0.508-0.094-1.192,0.025-1.492,0.51c-0.146,0.236-0.18,0.512-0.097,0.821      c0.132,0.501,0.564,1.026,1.076,1.306l0.06,0.041l11.525,9.505l-0.607,0.242c-0.923,0.368-1.886-0.033-2.53-0.367      c-0.909-0.471-1.759-1.073-2.58-1.654c-1.236-0.876-2.404-1.703-3.765-2.13l-0.069-0.029l-6.739-3.65      c-0.159-0.104-0.519-0.08-0.851,0.093c-0.23,0.119-0.356,0.269-0.358,0.349c-0.012,0.492,0.39,0.953,0.741,1.3      c0.72,0.71,1.548,1.339,2.35,1.946l10.641,8.071l-12.6-4.9c-0.265-0.103-0.538-0.197-0.716-0.12      c-0.201,0.087-0.263,0.427-0.18,0.661c0.114,0.326,0.417,0.596,0.717,0.846c2.314,1.922,5.059,3.393,7.94,4.255l0.412,0.123      l-0.434,1.038l-0.175,0.052c-0.7,0.209-1.32-0.27-1.774-0.619l-0.036-0.027c-0.334-0.257-0.79-0.451-0.999-0.27      c-0.124,0.108-0.142,0.367-0.041,0.577c0.122,0.252,0.366,0.459,0.648,0.684c4.575,3.645,9.697,6.468,15.222,8.389      c0.513,0.179,1.025,0.337,1.52,0.49c1.523,0.47,2.962,0.914,4.345,1.897l-0.448,0.631c-1.281-0.911-2.663-1.337-4.125-1.789      c-0.501-0.154-1.02-0.314-1.546-0.498c-5.607-1.95-10.806-4.815-15.45-8.515c-0.276-0.22-0.655-0.522-0.863-0.954      c-0.218-0.455-0.209-1.115,0.232-1.498c0.065-0.056,0.134-0.103,0.208-0.141c-1.842-0.852-3.579-1.944-5.13-3.232      c-0.367-0.305-0.773-0.672-0.953-1.184C528.525,522.734,528.5,522.614,528.49,522.492z" class="colorffa188 svgShape"></path></g></g></svg>