<svg xmlns="http://www.w3.org/2000/svg" enable-background="new 0 0 250 250" viewBox="0 0 250 250" width="550" height="550"><path fill="#212121" d="M111.39,49.44v124.91c0,5.56-4.51,10.06-10.06,10.06H35.38c-5.56,0-10.06-4.51-10.06-10.06V49.44
										c0-5.56,4.51-10.06,10.06-10.06h65.94C106.88,39.37,111.39,43.88,111.39,49.44z" class="color212121 svgShape"></path><path fill="#212121" d="M101.32,184.89H35.38c-5.82,0-10.55-4.73-10.55-10.55V49.44c0-5.82,4.73-10.55,10.55-10.55h65.94
										c5.82,0,10.55,4.73,10.55,10.55v124.91C111.87,180.16,107.14,184.89,101.32,184.89z M35.38,39.86
										c-5.28,0-9.58,4.3-9.58,9.58v124.91c0,5.28,4.3,9.58,9.58,9.58h65.94c5.28,0,9.58-4.3,9.58-9.58V49.44
										c0-5.28-4.3-9.58-9.58-9.58H35.38z" class="color212121 svgShape"></path><line x1="118.67" x2="21.59" y1="184.41" y2="184.41" fill="#212121"></line><path fill="#212121" d="M118.67,184.89H21.59c-0.27,0-0.48-0.22-0.48-0.48s0.22-0.48,0.48-0.48h97.07
										c0.27,0,0.48,0.22,0.48,0.48S118.93,184.89,118.67,184.89z" class="color212121 svgShape"></path><path fill="#ffffff" d="M101.33,175c4.17,0,7.55-3.38,7.55-7.55V49.43c0-4.17-3.38-7.55-7.55-7.55H35.37
										c-4.17,0-7.55,3.38-7.55,7.55v118.03c0,4.17,3.38,7.55,7.55,7.55H101.33z" class="colorfff svgShape"></path><path fill="#212121" d="M101.33,175.49H35.37c-4.43,0-8.03-3.6-8.03-8.03V49.43c0-4.43,3.6-8.03,8.03-8.03h65.96
										c4.43,0,8.03,3.6,8.03,8.03v118.03C109.36,171.88,105.76,175.49,101.33,175.49z M35.37,42.36c-3.9,0-7.07,3.17-7.07,7.07
										v118.03c0,3.9,3.17,7.07,7.07,7.07h65.96c3.9,0,7.07-3.17,7.07-7.07V49.43c0-3.9-3.17-7.07-7.07-7.07H35.37z" class="color212121 svgShape"></path><path fill="#212121" d="M87.32 90.66c-.27 0-.48-.22-.48-.48v-.55c0-.27.22-.48.48-.48s.48.22.48.48v.55C87.8 90.44 87.58 90.66 87.32 90.66zM87.32 99.04c-.27 0-.48-.22-.48-.48v-1.05c0-.27.22-.48.48-.48s.48.22.48.48v1.05C87.8 98.83 87.58 99.04 87.32 99.04zM87.32 94.85c-.27 0-.48-.22-.48-.48v-1.05c0-.27.22-.48.48-.48s.48.22.48.48v1.05C87.8 94.64 87.58 94.85 87.32 94.85zM87.32 102.74h-.55c-.27 0-.48-.22-.48-.48 0-.27.22-.48.48-.48h.07v-.07c0-.27.22-.48.48-.48s.48.22.48.48v.55C87.8 102.52 87.58 102.74 87.32 102.74zM83.61 102.74h-1.05c-.27 0-.48-.22-.48-.48 0-.27.22-.48.48-.48h1.05c.27 0 .48.22.48.48C84.1 102.52 83.88 102.74 83.61 102.74zM79.41 102.74h-1.05c-.27 0-.48-.22-.48-.48 0-.27.22-.48.48-.48h1.05c.27 0 .48.22.48.48C79.89 102.52 79.68 102.74 79.41 102.74zM75.21 102.74h-1.05c-.27 0-.48-.22-.48-.48 0-.27.22-.48.48-.48h1.05c.27 0 .48.22.48.48C75.69 102.52 75.48 102.74 75.21 102.74zM71.01 102.74h-1.05c-.27 0-.48-.22-.48-.48 0-.27.22-.48.48-.48h1.05c.27 0 .48.22.48.48C71.49 102.52 71.28 102.74 71.01 102.74zM66.81 102.74h-1.05c-.27 0-.48-.22-.48-.48 0-.27.22-.48.48-.48h1.05c.27 0 .48.22.48.48C67.29 102.52 67.07 102.74 66.81 102.74zM62.61 102.74h-1.05c-.27 0-.48-.22-.48-.48 0-.27.22-.48.48-.48h1.05c.27 0 .48.22.48.48C63.09 102.52 62.87 102.74 62.61 102.74zM57.85 103.29c-.27 0-.48-.22-.48-.48v-.55c0-.27.22-.48.48-.48h.55c.27 0 .48.22.48.48 0 .27-.22.48-.48.48h-.07v.07C58.34 103.08 58.12 103.29 57.85 103.29zM57.85 107.63c-.27 0-.48-.22-.48-.48v-1.09c0-.27.22-.48.48-.48.27 0 .48.22.48.48v1.09C58.34 107.42 58.12 107.63 57.85 107.63zM57.85 111.44c-.27 0-.48-.22-.48-.48v-.55c0-.27.22-.48.48-.48.27 0 .48.22.48.48v.55C58.34 111.22 58.12 111.44 57.85 111.44zM78.85 90.66c-.27 0-.48-.22-.48-.48v-.55c0-.27.22-.48.48-.48.27 0 .48.22.48.48v.55C79.33 90.44 79.12 90.66 78.85 90.66zM78.85 94.1c-.27 0-.48-.22-.48-.48v-.86c0-.27.22-.48.48-.48.27 0 .48.22.48.48v.86C79.33 93.88 79.12 94.1 78.85 94.1zM78.85 97.22H78.3c-.27 0-.48-.22-.48-.48s.22-.48.48-.48h.07v-.07c0-.27.22-.48.48-.48.27 0 .48.22.48.48v.55C79.33 97.01 79.12 97.22 78.85 97.22zM75.15 97.22H74.1c-.27 0-.48-.22-.48-.48s.22-.48.48-.48h1.05c.27 0 .48.22.48.48S75.41 97.22 75.15 97.22zM70.94 97.22h-1.05c-.27 0-.48-.22-.48-.48s.22-.48.48-.48h1.05c.27 0 .48.22.48.48S71.21 97.22 70.94 97.22zM66.74 97.22h-1.05c-.27 0-.48-.22-.48-.48s.22-.48.48-.48h1.05c.27 0 .48.22.48.48S67.01 97.22 66.74 97.22zM62.54 97.22h-1.05c-.27 0-.48-.22-.48-.48s.22-.48.48-.48h1.05c.27 0 .48.22.48.48S62.81 97.22 62.54 97.22zM58.34 97.22h-1.05c-.27 0-.48-.22-.48-.48s.22-.48.48-.48h1.05c.27 0 .48.22.48.48S58.61 97.22 58.34 97.22zM54.14 97.22h-1.05c-.27 0-.48-.22-.48-.48s.22-.48.48-.48h1.05c.27 0 .48.22.48.48S54.41 97.22 54.14 97.22zM49.39 97.78c-.27 0-.48-.22-.48-.48v-.55c0-.27.22-.48.48-.48h.55c.27 0 .48.22.48.48s-.22.48-.48.48h-.07v.07C49.87 97.56 49.65 97.78 49.39 97.78zM49.39 107.31c-.27 0-.48-.22-.48-.48v-1.19c0-.27.22-.48.48-.48.27 0 .48.22.48.48v1.19C49.87 107.1 49.65 107.31 49.39 107.31zM49.39 102.54c-.27 0-.48-.22-.48-.48v-1.19c0-.27.22-.48.48-.48.27 0 .48.22.48.48v1.19C49.87 102.33 49.65 102.54 49.39 102.54zM49.39 111.44c-.27 0-.48-.22-.48-.48v-.55c0-.27.22-.48.48-.48.27 0 .48.22.48.48v.55C49.87 111.22 49.65 111.44 49.39 111.44z" class="color212121 svgShape"></path><g><line x1="101.22" x2="35.48" y1="157.19" y2="157.19" fill="#212121"></line><path fill="#212121" d="M101.22,157.67H35.48c-0.27,0-0.48-0.22-0.48-0.48s0.22-0.48,0.48-0.48h65.74
																	c0.27,0,0.48,0.22,0.48,0.48S101.49,157.67,101.22,157.67z" class="color212121 svgShape"></path><rect width="50.93" height="29.16" x="42.88" y="128.03" fill="#212121" class="color212121 svgShape"></rect><path fill="#212121" d="M93.82,157.67H42.88c-0.27,0-0.48-0.22-0.48-0.48v-29.16c0-0.27,0.22-0.48,0.48-0.48h50.93
														c0.27,0,0.48,0.22,0.48,0.48v29.16C94.3,157.46,94.08,157.67,93.82,157.67z M43.37,156.71h49.97v-28.19H43.37V156.71z" class="color212121 svgShape"></path><path fill="#70bbff" d="M36.38,150.45v-13.53c0-2.07,1.68-3.75,3.75-3.75h56.44c2.07,0,3.75,1.68,3.75,3.75v13.53
														c0,2.07-1.68,3.75-3.75,3.75H40.13C38.06,154.19,36.38,152.52,36.38,150.45z" class="color70bbff svgShape"></path><line x1="40.53" x2="65.38" y1="137.46" y2="137.46" fill="#fff"></line><path fill="#ffffff" d="M65.38,137.94H40.53c-0.27,0-0.48-0.22-0.48-0.48s0.22-0.48,0.48-0.48h24.84
															c0.27,0,0.48,0.22,0.48,0.48S65.64,137.94,65.38,137.94z" class="colorfff svgShape"></path><line x1="40.53" x2="65.38" y1="141.61" y2="141.61" fill="#fff"></line><path fill="#ffffff" d="M65.38,142.09H40.53c-0.27,0-0.48-0.22-0.48-0.48c0-0.27,0.22-0.48,0.48-0.48h24.84
															c0.27,0,0.48,0.22,0.48,0.48C65.86,141.87,65.64,142.09,65.38,142.09z" class="colorfff svgShape"></path><line x1="40.53" x2="65.38" y1="145.76" y2="145.76" fill="#fff"></line><path fill="#ffffff" d="M65.38,146.24H40.53c-0.27,0-0.48-0.22-0.48-0.48s0.22-0.48,0.48-0.48h24.84
															c0.27,0,0.48,0.22,0.48,0.48S65.64,146.24,65.38,146.24z" class="colorfff svgShape"></path><line x1="65.38" x2="40.53" y1="149.91" y2="149.91" fill="#fff"></line><path fill="#ffffff" d="M65.38,150.39H40.53c-0.27,0-0.48-0.22-0.48-0.48c0-0.27,0.22-0.48,0.48-0.48h24.84
															c0.27,0,0.48,0.22,0.48,0.48C65.86,150.17,65.64,150.39,65.38,150.39z" class="colorfff svgShape"></path><path fill="#212121" d="M77.96,136.92h17.36c0.69,0,1.25,0.56,1.25,1.25v6.35c0,0.69-0.56,1.25-1.25,1.25H77.96
															c-0.69,0-1.25-0.56-1.25-1.25v-6.35C76.71,137.48,77.27,136.92,77.96,136.92z" class="color212121 svgShape"></path><path fill="#212121" d="M95.32,146.24H77.96c-0.95,0-1.73-0.78-1.73-1.73v-6.35c0-0.95,0.78-1.73,1.73-1.73h17.36
															c0.95,0,1.73,0.78,1.73,1.73v6.35C97.05,145.47,96.28,146.24,95.32,146.24z M77.96,137.4c-0.42,0-0.77,0.34-0.77,0.77
															v6.35c0,0.42,0.34,0.77,0.77,0.77h17.36c0.42,0,0.77-0.34,0.77-0.77v-6.35c0-0.42-0.34-0.77-0.77-0.77H77.96z" class="color212121 svgShape"></path><g><path fill="#ffffff" d="M88.1,139.83c0,0.47,0.38,0.85,0.86,0.85c0.47,0,0.85-0.38,0.85-0.85
																c0-0.47-0.38-0.86-0.85-0.86C88.49,138.97,88.1,139.35,88.1,139.83z" class="colorfff svgShape"></path><path fill="#ffffff" d="M88.96 141.16c-.74 0-1.34-.6-1.34-1.33 0-.74.6-1.34 1.34-1.34.73 0 1.33.6 1.33 1.34C90.29 140.56 89.69 141.16 88.96 141.16zM88.96 139.45c-.21 0-.37.17-.37.37 0 .2.17.37.37.37.2 0 .37-.17.37-.37C89.33 139.62 89.16 139.45 88.96 139.45zM83.48 139.83c0 .47.38.85.86.85.47 0 .85-.38.85-.85 0-.47-.38-.86-.85-.86C83.86 138.97 83.48 139.35 83.48 139.83z" class="colorfff svgShape"></path><path fill="#ffffff" d="M84.33 141.16c-.74 0-1.34-.6-1.34-1.33 0-.74.6-1.34 1.34-1.34.73 0 1.33.6 1.33 1.34C85.67 140.56 85.07 141.16 84.33 141.16zM84.33 139.45c-.21 0-.37.17-.37.37 0 .2.17.37.37.37.2 0 .37-.17.37-.37C84.7 139.62 84.54 139.45 84.33 139.45zM78.85 139.83c0 .47.38.85.86.85.47 0 .85-.38.85-.85 0-.47-.38-.86-.85-.86C79.24 138.97 78.85 139.35 78.85 139.83z" class="colorfff svgShape"></path><path fill="#ffffff" d="M79.71,141.16c-0.74,0-1.34-0.6-1.34-1.33c0-0.74,0.6-1.34,1.34-1.34c0.73,0,1.33,0.6,1.33,1.34
																C81.04,140.56,80.44,141.16,79.71,141.16z M79.71,139.45c-0.21,0-0.37,0.17-0.37,0.37c0,0.2,0.17,0.37,0.37,0.37
																c0.2,0,0.37-0.17,0.37-0.37C80.07,139.62,79.91,139.45,79.71,139.45z" class="colorfff svgShape"></path><path fill="#212121" d="M69.46 140.56c0 .87.71 1.58 1.59 1.58.87 0 1.58-.71 1.58-1.58 0-.88-.71-1.59-1.58-1.59C70.17 138.97 69.46 139.68 69.46 140.56zM69.46 146.27c0 .87.71 1.58 1.59 1.58.87 0 1.58-.71 1.58-1.58 0-.88-.71-1.59-1.58-1.59C70.17 144.68 69.46 145.39 69.46 146.27z" class="color212121 svgShape"></path><path fill="#ffffff" d="M92.73,139.83c0,0.47,0.38,0.85,0.86,0.85c0.47,0,0.85-0.38,0.85-0.85
																c0-0.47-0.38-0.86-0.85-0.86C93.11,138.97,92.73,139.35,92.73,139.83z" class="colorfff svgShape"></path><path fill="#ffffff" d="M93.58,141.16c-0.74,0-1.34-0.6-1.34-1.33c0-0.74,0.6-1.34,1.34-1.34c0.73,0,1.33,0.6,1.33,1.34
																C94.92,140.56,94.32,141.16,93.58,141.16z M93.58,139.45c-0.21,0-0.37,0.17-0.37,0.37c0,0.2,0.17,0.37,0.37,0.37
																c0.2,0,0.37-0.17,0.37-0.37C93.95,139.62,93.79,139.45,93.58,139.45z" class="colorfff svgShape"></path><g><line x1="94.43" x2="78.85" y1="143.71" y2="143.71" fill="#fff"></line><path fill="#ffffff" d="M94.43,144.19H78.85c-0.27,0-0.48-0.22-0.48-0.48s0.22-0.48,0.48-0.48h15.58
																c0.27,0,0.48,0.22,0.48,0.48S94.7,144.19,94.43,144.19z" class="colorfff svgShape"></path></g></g><g><path fill="#70bbff" d="M36.38,125.92v-13.53c0-2.07,1.68-3.75,3.75-3.75h56.44c2.07,0,3.75,1.68,3.75,3.75v13.53
														c0,2.07-1.68,3.75-3.75,3.75H40.13C38.06,129.67,36.38,127.99,36.38,125.92z" class="color70bbff svgShape"></path><line x1="40.53" x2="65.38" y1="112.93" y2="112.93" fill="#fff"></line><path fill="#ffffff" d="M65.38,113.42H40.53c-0.27,0-0.48-0.22-0.48-0.48s0.22-0.48,0.48-0.48h24.84
															c0.27,0,0.48,0.22,0.48,0.48S65.64,113.42,65.38,113.42z" class="colorfff svgShape"></path><line x1="40.53" x2="65.38" y1="117.08" y2="117.08" fill="#fff"></line><path fill="#ffffff" d="M65.38,117.56H40.53c-0.27,0-0.48-0.22-0.48-0.48c0-0.27,0.22-0.48,0.48-0.48h24.84
															c0.27,0,0.48,0.22,0.48,0.48C65.86,117.35,65.64,117.56,65.38,117.56z" class="colorfff svgShape"></path><line x1="40.53" x2="65.38" y1="121.23" y2="121.23" fill="#fff"></line><path fill="#ffffff" d="M65.38,121.71H40.53c-0.27,0-0.48-0.22-0.48-0.48c0-0.27,0.22-0.48,0.48-0.48h24.84
															c0.27,0,0.48,0.22,0.48,0.48C65.86,121.5,65.64,121.71,65.38,121.71z" class="colorfff svgShape"></path><line x1="65.38" x2="40.53" y1="125.38" y2="125.38" fill="#fff"></line><path fill="#ffffff" d="M65.38,125.86H40.53c-0.27,0-0.48-0.22-0.48-0.48c0-0.27,0.22-0.48,0.48-0.48h24.84
															c0.27,0,0.48,0.22,0.48,0.48C65.86,125.65,65.64,125.86,65.38,125.86z" class="colorfff svgShape"></path><path fill="#212121" d="M77.96,112.39h17.36c0.69,0,1.25,0.56,1.25,1.25v6.35c0,0.69-0.56,1.25-1.25,1.25H77.96
															c-0.69,0-1.25-0.56-1.25-1.25v-6.35C76.71,112.95,77.27,112.39,77.96,112.39z" class="color212121 svgShape"></path><path fill="#212121" d="M95.32,121.72H77.96c-0.95,0-1.73-0.78-1.73-1.73v-6.35c0-0.95,0.78-1.73,1.73-1.73h17.36
															c0.95,0,1.73,0.78,1.73,1.73v6.35C97.05,120.94,96.28,121.72,95.32,121.72z M77.96,112.87
															c-0.42,0-0.77,0.34-0.77,0.77v6.35c0,0.42,0.34,0.77,0.77,0.77h17.36c0.42,0,0.77-0.34,0.77-0.77v-6.35
															c0-0.42-0.34-0.77-0.77-0.77H77.96z" class="color212121 svgShape"></path><g><path fill="#ffffff" d="M88.1,115.3c0,0.47,0.38,0.85,0.86,0.85c0.47,0,0.85-0.38,0.85-0.85c0-0.47-0.38-0.86-0.85-0.86
																C88.49,114.45,88.1,114.83,88.1,115.3z" class="colorfff svgShape"></path><path fill="#ffffff" d="M88.96 116.63c-.74 0-1.34-.6-1.34-1.33 0-.74.6-1.34 1.34-1.34.73 0 1.33.6 1.33 1.34C90.29 116.04 89.69 116.63 88.96 116.63zM88.96 114.93c-.21 0-.37.17-.37.37 0 .2.17.37.37.37.2 0 .37-.17.37-.37C89.33 115.1 89.16 114.93 88.96 114.93zM83.48 115.3c0 .47.38.85.86.85.47 0 .85-.38.85-.85 0-.47-.38-.86-.85-.86C83.86 114.45 83.48 114.83 83.48 115.3z" class="colorfff svgShape"></path><path fill="#ffffff" d="M84.33 116.63c-.74 0-1.34-.6-1.34-1.33 0-.74.6-1.34 1.34-1.34.73 0 1.33.6 1.33 1.34C85.67 116.04 85.07 116.63 84.33 116.63zM84.33 114.93c-.21 0-.37.17-.37.37 0 .2.17.37.37.37.2 0 .37-.17.37-.37C84.7 115.1 84.54 114.93 84.33 114.93zM78.85 115.3c0 .47.38.85.86.85.47 0 .85-.38.85-.85 0-.47-.38-.86-.85-.86C79.24 114.45 78.85 114.83 78.85 115.3z" class="colorfff svgShape"></path><path fill="#ffffff" d="M79.71,116.63c-0.74,0-1.34-0.6-1.34-1.33c0-0.74,0.6-1.34,1.34-1.34c0.73,0,1.33,0.6,1.33,1.34
																C81.04,116.04,80.44,116.63,79.71,116.63z M79.71,114.93c-0.21,0-0.37,0.17-0.37,0.37c0,0.2,0.17,0.37,0.37,0.37
																c0.2,0,0.37-0.17,0.37-0.37C80.07,115.1,79.91,114.93,79.71,114.93z" class="colorfff svgShape"></path><path fill="#212121" d="M69.46 116.04c0 .87.71 1.58 1.59 1.58.87 0 1.58-.71 1.58-1.58 0-.88-.71-1.59-1.58-1.59C70.17 114.45 69.46 115.16 69.46 116.04zM69.46 121.75c0 .87.71 1.58 1.59 1.58.87 0 1.58-.71 1.58-1.58 0-.88-.71-1.59-1.58-1.59C70.17 120.15 69.46 120.87 69.46 121.75z" class="color212121 svgShape"></path><path fill="#ffffff" d="M92.73,115.3c0,0.47,0.38,0.85,0.86,0.85c0.47,0,0.85-0.38,0.85-0.85
																c0-0.47-0.38-0.86-0.85-0.86C93.11,114.45,92.73,114.83,92.73,115.3z" class="colorfff svgShape"></path><path fill="#ffffff" d="M93.58,116.63c-0.74,0-1.34-0.6-1.34-1.33c0-0.74,0.6-1.34,1.34-1.34c0.73,0,1.33,0.6,1.33,1.34
																C94.92,116.04,94.32,116.63,93.58,116.63z M93.58,114.93c-0.21,0-0.37,0.17-0.37,0.37c0,0.2,0.17,0.37,0.37,0.37
																c0.2,0,0.37-0.17,0.37-0.37C93.95,115.1,93.79,114.93,93.58,114.93z" class="colorfff svgShape"></path><g><line x1="94.43" x2="78.85" y1="119.18" y2="119.18" fill="#fff"></line><path fill="#ffffff" d="M94.43,119.66H78.85c-0.27,0-0.48-0.22-0.48-0.48s0.22-0.48,0.48-0.48h15.58
																c0.27,0,0.48,0.22,0.48,0.48S94.7,119.66,94.43,119.66z" class="colorfff svgShape"></path></g></g></g></g><g><path fill="#ffffff" d="M60.75,181.27c-0.86,0-1.56-0.7-1.56-1.56c0-0.86,0.7-1.56,1.56-1.56h15.27
											c0.86,0,1.56,0.7,1.56,1.56c0,0.86-0.7,1.56-1.56,1.56H60.75z" class="colorfff svgShape"></path></g><g><path fill="#212121" d="M83.75,41.88h-30.8v5.05c0,0.22,0.18,0.41,0.41,0.41h29.99c0.22,0,0.41-0.18,0.41-0.41V41.88z" class="color212121 svgShape"></path><path fill="#212121" d="M81.51,47.82H55.2c-1.5,0-2.73-1.22-2.73-2.73v-3.21c0-0.27,0.22-0.48,0.48-0.48h30.8
									c0.27,0,0.48,0.22,0.48,0.48v3.21C84.23,46.59,83.01,47.82,81.51,47.82z M53.43,42.36v2.73c0,0.97,0.79,1.76,1.76,1.76
									h26.31c0.97,0,1.76-0.79,1.76-1.76v-2.73H53.43z" class="color212121 svgShape"></path></g><g><path fill="#212121" d="M163.73,64.12c3.69-4.23,9.77-6.5,15.33-5.3c4.57,0.99,8.52,4.45,9.98,8.72
								c0.47,1.36,1.82,2.23,3.25,2.08c1.55-0.17,3.16,0.13,4.52,0.9c2.16,1.23,3.58,3.61,3.6,6.05c0.01,1.58-0.52,3.11-0.75,4.67
								c-0.23,1.56-0.11,3.31,0.99,4.48c2.02,2.14,5.57,1,8.54,0.67c4.92-0.54,10.06,1.98,12.54,6.15s2.16,9.77-0.78,13.65
								c-2.55,3.37-6.71,5.3-10.93,6.14s-8.56,0.75-12.86,0.84c-8.13,0.17-16.25,1.04-24.23,2.59c-3.95,0.77-7.86,1.7-11.73,2.79
								c-0.91,0.26-2.13,0.89-3.07,0.91c-0.99,0.02-0.59-0.01-1.21-0.83c-0.89-1.17-2.58-1.8-4.01-1.69
								c-1.4,0.1-2.67,0.81-4.02,1.17c-3.54,0.95-7.62-0.77-9.42-3.97s-1.14-7.57,1.51-10.11c1.45-1.38,3.34-2.19,5.17-2.99
								c1.84-0.8,3.71-1.66,5.1-3.11c1.49-1.56,1.77-3.28,1.6-5.33c-0.14-1.81-0.94-4.09,0.07-5.77c0.94-1.56,3.02-1.96,4.75-2.65
								c4.66-1.86,1.58-5.31,1.72-8.76C159.55,71.35,160.99,67.26,163.73,64.12z" class="color212121 svgShape"></path><path fill="#ffffff" d="M101.82,107.56c-0.56-1.18-0.96-2.44-1.21-3.73c-0.17-0.92-0.15-2.09,0.68-2.53
												c0.45-0.24,1.02-0.16,1.47,0.07s0.81,0.62,1.15,1c2.65,2.98,3.9,8.08,8.53,12.66c0.88,0.87,1.77,1.75,2.59,2.68
												c7.17,8.06,13.16,15.24,19.4,24.04l0,0c0.41-1.46,0.56-2.33,1.14-3.55c8.02-0.49,15.69,2.45,22,8.97
												c-1.95,6.75-5.24,13.12-9.62,18.62c-1.36,1.7-2.84,3.34-4.65,4.55c-1.81,1.21-3.98,1.98-6.15,1.8
												c-3.75-0.32-7.13-3.17-9.44-6.14c-4.38-5.64-18.6-30.19-23.25-40.99c-0.47-1.09-1.22-2.03-2.2-2.69
												c-3.2-2.16-6.63-2.63-10.28-4.63c-0.72-0.39-1.77-0.96-2.18-1.67c-0.3-0.51-0.28-1.2,0.05-1.69s0.95-0.78,1.54-0.71
												L101.82,107.56z" class="colorfff svgShape"></path><path fill="#212121" d="M137.8,172.64c-0.23,0-0.45-0.01-0.67-0.03c-4.53-0.39-8.08-4.13-9.78-6.33
												c-4.56-5.87-18.79-30.59-23.31-41.09c-0.44-1.02-1.14-1.88-2.03-2.48c-1.72-1.16-3.51-1.82-5.4-2.52
												c-1.56-0.57-3.17-1.17-4.84-2.08c-0.83-0.45-1.9-1.04-2.37-1.85c-0.39-0.67-0.36-1.55,0.07-2.2
												c0.43-0.64,1.23-1.02,2-0.92c0.26,0.03,0.45,0.27,0.42,0.54c-0.03,0.26-0.27,0.45-0.54,0.42
												c-0.41-0.05-0.85,0.16-1.08,0.5c-0.23,0.34-0.24,0.83-0.04,1.18c0.33,0.58,1.31,1.11,1.95,1.46
												c1.65,0.9,3.23,1.48,4.76,2.05c1.95,0.72,3.8,1.4,5.61,2.63c1.04,0.7,1.86,1.71,2.37,2.9
												c4.5,10.45,18.66,35.05,23.19,40.88c2.74,3.53,6.06,5.7,9.1,5.96c1.87,0.16,3.95-0.45,5.84-1.72
												c1.88-1.26,3.42-3.04,4.54-4.45c4.25-5.33,7.52-11.61,9.46-18.18c-5.96-6.05-13.24-9.03-21.11-8.64
												c-0.56,1.62-0.89,2.67-1.03,3.2c-0.05,0.18-0.19,0.32-0.38,0.36c-0.18,0.03-0.37-0.04-0.48-0.2
												c-6.8-9.6-13.33-17.21-19.37-24c-0.83-0.94-1.76-1.85-2.57-2.66c-2.78-2.75-4.35-5.66-5.73-8.22
												c-0.95-1.76-1.77-3.28-2.81-4.46c-0.32-0.36-0.63-0.69-1.01-0.89c-0.28-0.15-0.7-0.25-1.02-0.08
												c-0.69,0.36-0.51,1.64-0.43,2.02c0.41,2.18,1.32,4.28,2.62,6.07c0.14,0.19,0.12,0.45-0.04,0.62
												c-0.82,0.87-1.19,2.14-0.97,3.32c0.22,1.18,1.04,2.22,2.12,2.73c0.24,0.11,0.34,0.4,0.23,0.64
												c-0.11,0.24-0.4,0.35-0.64,0.23c-1.36-0.64-2.38-1.95-2.66-3.42c-0.26-1.34,0.11-2.79,0.95-3.86
												c-1.27-1.83-2.16-3.95-2.57-6.15c-0.28-1.48,0.06-2.59,0.93-3.05c0.56-0.29,1.28-0.27,1.92,0.07
												c0.52,0.28,0.92,0.7,1.29,1.11c1.12,1.26,2.01,2.9,2.94,4.64c1.35,2.5,2.88,5.34,5.56,7.99c0.83,0.82,1.76,1.74,2.62,2.7
												c5.89,6.62,12.23,14.01,18.85,23.27c0.2-0.64,0.49-1.5,0.87-2.61c0.06-0.18,0.23-0.31,0.43-0.32
												c8.36-0.51,16.1,2.64,22.38,9.11c0.12,0.12,0.17,0.3,0.12,0.47c-1.97,6.79-5.32,13.28-9.71,18.78
												c-1.17,1.46-2.76,3.31-4.76,4.65C141.73,171.98,139.7,172.64,137.8,172.64z" class="color212121 svgShape"></path><path fill="#212121" d="M139.35,149.57c-0.16,0-0.31-0.07-0.4-0.21c-0.47-0.7-1.02-1.54-1.61-2.43
											c-1.11-1.68-2.36-3.58-3.29-4.9c-0.15-0.22-0.1-0.52,0.11-0.67c0.22-0.15,0.52-0.1,0.67,0.11
											c0.94,1.33,2.2,3.24,3.31,4.92c0.58,0.89,1.14,1.73,1.6,2.42c0.15,0.22,0.09,0.52-0.13,0.67
											C139.53,149.54,139.44,149.57,139.35,149.57z" class="color212121 svgShape"></path><path fill="#ffffff" d="M96.43,115.81c-2.23-0.1-4.43-0.88-6.23-2.2c-0.42-0.31-0.82-0.65-1.1-1.09s-0.43-0.98-0.3-1.48
											c0.13-0.49,0.52-0.9,1.01-1.05c0.49-0.15,1.04-0.02,1.42,0.32c1.51-0.43,3.2-0.16,4.53,0.68" class="colorfff svgShape"></path><path fill="#212121" d="M96.43,116.3c-0.01,0-0.01,0-0.02,0c-2.32-0.1-4.63-0.92-6.5-2.3c-0.39-0.29-0.88-0.68-1.22-1.22
											c-0.38-0.59-0.51-1.27-0.36-1.86c0.17-0.65,0.69-1.2,1.34-1.39c0.56-0.17,1.18-0.07,1.66,0.25
											c1.55-0.37,3.28-0.08,4.68,0.8c0.23,0.14,0.29,0.44,0.15,0.67c-0.14,0.23-0.44,0.29-0.67,0.15
											c-1.24-0.78-2.79-1.01-4.14-0.62c-0.16,0.05-0.33,0.01-0.46-0.11c-0.25-0.23-0.63-0.31-0.96-0.22
											c-0.32,0.1-0.6,0.38-0.68,0.71c-0.09,0.33,0,0.73,0.23,1.1c0.25,0.4,0.64,0.71,0.98,0.96c1.71,1.26,3.83,2.01,5.97,2.11
											c0.27,0.01,0.47,0.24,0.46,0.5C96.9,116.09,96.69,116.3,96.43,116.3z" class="color212121 svgShape"></path><path fill="#ffffff" d="M97.69,113.04c-2.4-0.54-4.73-1.4-6.9-2.56c-0.37-0.2-0.73-0.4-1.03-0.69
											c-0.3-0.29-0.53-0.66-0.57-1.08c-0.07-0.78,0.6-1.47,1.35-1.71c0.75-0.23,1.42,0.03,2.37,0.34c0.61,0.2,1.28,0,1.92-0.1
											c0.64-0.09,1.3-0.17,1.93-0.02c0.63,0.14,1.24,0.54,1.47,1.15" class="colorfff svgShape"></path><path fill="#212121" d="M97.69,113.52c-0.04,0-0.07,0-0.11-0.01c-2.45-0.55-4.81-1.43-7.02-2.6
											c-0.39-0.21-0.79-0.44-1.14-0.76c-0.42-0.4-0.67-0.89-0.71-1.39c-0.09-1.07,0.8-1.93,1.69-2.21
											c0.85-0.26,1.6-0.01,2.48,0.28l0.18,0.06c0.37,0.12,0.81,0.04,1.27-0.04c0.14-0.03,0.28-0.05,0.42-0.07
											c0.67-0.1,1.38-0.18,2.1-0.02c0.86,0.2,1.54,0.74,1.81,1.45c0.09,0.25-0.03,0.53-0.28,0.62
											c-0.25,0.09-0.53-0.03-0.62-0.28c-0.18-0.48-0.7-0.75-1.12-0.85c-0.56-0.13-1.17-0.05-1.75,0.03
											c-0.13,0.02-0.26,0.04-0.39,0.07c-0.54,0.1-1.15,0.21-1.75,0.01l-0.19-0.06c-0.8-0.27-1.34-0.44-1.89-0.27
											c-0.53,0.17-1.06,0.66-1.01,1.21c0.02,0.26,0.17,0.53,0.42,0.77c0.26,0.25,0.58,0.43,0.93,0.61
											c2.14,1.14,4.42,1.98,6.78,2.51c0.26,0.06,0.42,0.32,0.37,0.58C98.11,113.37,97.91,113.52,97.69,113.52z" class="color212121 svgShape"></path><path fill="#ffffff" d="M99.28,110.11c-2.15-0.48-4.24-1.26-6.19-2.3c-0.33-0.18-0.66-0.36-0.93-0.62
											c-0.27-0.26-0.48-0.6-0.51-0.97c-0.06-0.7,0.54-1.32,1.21-1.53c0.67-0.21,1.46-0.05,2.31,0.23
											c2.52,0.83,4.83,1.71,6.86,3.06" class="colorfff svgShape"></path><path fill="#212121" d="M99.28,110.6c-0.04,0-0.07,0-0.11-0.01c-2.2-0.49-4.32-1.28-6.31-2.34
											c-0.35-0.19-0.72-0.39-1.03-0.69c-0.39-0.37-0.62-0.82-0.66-1.28c-0.08-0.99,0.72-1.77,1.55-2.03
											c0.86-0.27,1.8-0.03,2.6,0.23c2.35,0.77,4.82,1.68,6.98,3.12c0.22,0.15,0.28,0.45,0.13,0.67
											c-0.15,0.22-0.45,0.28-0.67,0.13c-2.06-1.37-4.46-2.26-6.74-3.01c-0.62-0.2-1.41-0.41-2.02-0.23
											c-0.46,0.14-0.91,0.57-0.87,1.03c0.02,0.22,0.15,0.45,0.36,0.66c0.23,0.22,0.53,0.39,0.82,0.54
											c1.91,1.02,3.95,1.78,6.07,2.25c0.26,0.06,0.42,0.32,0.37,0.58C99.7,110.45,99.5,110.6,99.28,110.6z" class="color212121 svgShape"></path><path fill="#ff527c" d="M135.22,138.5l19.7,21.78c0,0,2.98-1.64,6.77-7.17c3.79-5.52,17.73-35.04,17.73-35.04
																					l-7.08-13.86C172.35,104.21,146.77,109.16,135.22,138.5z" class="colorff527c svgShape"></path><path fill="#212121" d="M154.93,160.76c-0.17,0-0.33-0.09-0.42-0.25c-0.13-0.23-0.04-0.53,0.19-0.65l0,0
																					c0.03-0.02,2.94-1.68,6.61-7.02c0.15-0.22,0.45-0.28,0.67-0.12c0.22,0.15,0.28,0.45,0.12,0.67
																					c-3.81,5.55-6.81,7.25-6.94,7.32C155.09,160.74,155.01,160.76,154.93,160.76z" class="color212121 svgShape"></path><path fill="#212121" d="M135.56,140.29c1.08,2.16,3.95,5.95,7.65,9.96c3.55,3.86,7.27,7.43,9.57,9.1
																					c1.1,0.81,1.88,1.18,2.15,0.93c0.29-0.26-0.03-1.19-0.78-2.51c-1.43-2.53-4.46-6.55-7.92-10.31
																					c-3.94-4.29-7.71-7.6-9.69-8.67c-0.67-0.37-1.13-0.47-1.34-0.28C134.95,138.75,135.09,139.37,135.56,140.29z" class="color212121 svgShape"></path><path fill="#212121" d="M154.7,160.85c-0.49,0-1.19-0.35-2.21-1.11c-2.24-1.63-5.94-5.14-9.64-9.16
																					c-3.64-3.96-6.59-7.82-7.72-10.07c-0.39-0.75-0.83-1.8-0.26-2.34c0.51-0.47,1.33-0.11,1.9,0.21
																					c2.13,1.15,5.98,4.59,9.81,8.77c3.32,3.61,6.46,7.69,7.99,10.39c0.98,1.73,1.18,2.66,0.68,3.11
																					C155.1,160.78,154.92,160.85,154.7,160.85z M135.56,138.91c0.01,0.15,0.08,0.49,0.43,1.15c0,0,0,0,0,0.01
																					c1.09,2.18,3.99,5.96,7.57,9.85c3.66,3.98,7.3,7.44,9.5,9.04c0.83,0.61,1.27,0.81,1.48,0.88
																					c-0.04-0.23-0.2-0.76-0.81-1.84c-1.49-2.64-4.58-6.65-7.86-10.22c-3.71-4.04-7.55-7.48-9.56-8.57
																					C135.91,139,135.68,138.93,135.56,138.91z" class="color212121 svgShape"></path><path fill="#ff527c" d="M213.06,163.99c-0.03,0.07-0.06,0.14-0.09,0.2c-2.54,5.84-2.82,12.42-0.83,18.47
																					c0.62,1.87,1.32,4.05,2.07,6.47c0.73,2.32,1.51,4.88,2.31,7.61h-57.81c1.18-2.73,2.26-5.29,3.21-7.61
																					c0.97-2.34,1.81-4.44,2.54-6.26c2.04-5.14,2.36-10.8,0.92-16.14c-5.6-20.73-13.13-31.57-3.57-48.67l10.54-13.86
																					c11.29-2.75,21.88-5.31,30.57-3.75c10.49,12.56,12,28.28,10.13,45.22
																					C215.26,150.81,215.97,157.36,213.06,163.99z" class="colorff527c svgShape"></path><path fill="#ff527c" d="M152.24,211.27h68.27c-2.13-8.37-4.4-16.04-6.3-22.13c-0.76-2.43-1.46-4.6-2.07-6.48
																					c-0.83-2.54-1.27-5.16-1.31-7.8h-44.61c-0.15,2.73-0.75,5.44-1.76,8.01c-0.72,1.82-1.57,3.93-2.54,6.26
																					c-2.21,5.36-5.04,11.95-8.37,19.15C153.1,209.29,152.66,210.28,152.24,211.27z" class="colorff527c svgShape"></path><path fill="#212121" d="M192.17 150.96c-8.94 0-13.09-5.98-13.14-6.05-.15-.22-.09-.52.13-.67.22-.15.52-.09.67.13.2.3 5.11 7.33 16.23 5.25.26-.05.51.12.56.39.05.26-.12.51-.39.56C194.78 150.85 193.43 150.96 192.17 150.96zM152.24 211.75c-.06 0-.13-.01-.19-.04-.25-.1-.36-.39-.25-.63.42-.99.87-1.99 1.33-2.99 2.82-6.1 5.64-12.54 8.36-19.13.91-2.21 1.77-4.32 2.53-6.26 1.99-5 2.31-10.6.92-15.76-1.19-4.4-2.44-8.28-3.64-12.03-4.08-12.65-7.02-21.78-1.57-33.79.11-.24.39-.35.64-.24.24.11.35.4.24.64-5.3 11.67-2.4 20.66 1.61 33.09 1.21 3.76 2.47 7.65 3.66 12.07 1.45 5.36 1.11 11.18-.95 16.37-.77 1.94-1.62 4.05-2.54 6.27-2.73 6.61-5.55 13.05-8.38 19.17-.46.99-.9 1.99-1.32 2.97C152.6 211.64 152.42 211.75 152.24 211.75zM220.52 211.75c-.22 0-.42-.15-.47-.36-1.84-7.19-3.95-14.62-6.29-22.11-.68-2.19-1.38-4.37-2.07-6.47-2.04-6.2-1.74-12.89.85-18.81.04-.08.06-.14.09-.19 2.52-5.73 2.52-12.1 0-17.94-.11-.24.01-.53.25-.63.24-.1.53.01.63.25 2.62 6.09 2.62 12.74 0 18.7-.03.07-.06.15-.1.22-2.48 5.69-2.77 12.12-.8 18.1.69 2.11 1.39 4.29 2.08 6.48 2.34 7.48 4.46 14.92 6.3 22.11.02.05.03.11.03.17C220.99 211.54 220.78 211.75 220.52 211.75zM172.35 104.69c-.22 0-.41-.15-.47-.37-.06-.26.1-.52.35-.58 11.28-2.74 21.94-5.34 30.77-3.75.26.05.44.3.39.56-.05.26-.3.43-.56.39-8.64-1.55-19.19 1.02-30.37 3.74C172.42 104.69 172.39 104.69 172.35 104.69z" class="color212121 svgShape"></path><path fill="#212121" d="M135.22 138.98c-.06 0-.12-.01-.18-.03-.25-.1-.37-.38-.27-.63 11.51-29.25 37.23-34.54 37.48-34.59.26-.05.51.12.56.38.05.26-.12.51-.38.57-.25.05-25.46 5.25-36.77 33.99C135.6 138.86 135.41 138.98 135.22 138.98zM228.41 211.75H124.96c-.27 0-.48-.22-.48-.48 0-.27.22-.48.48-.48h103.45c.27 0 .48.22.48.48C228.89 211.54 228.67 211.75 228.41 211.75z" class="color212121 svgShape"></path><path fill="#ff527c" d="M225.19,153.52l-31.06,2.78c0,0-2.96-7.02-2.45-15.08c0.34-5.54-1.73-9.82-1.73-9.82
										c3.74-8,13.06-30.44,12.97-30.93C202.92,100.46,229.6,103.78,225.19,153.52z" class="colorff527c svgShape"></path><path fill="#212121" d="M194.13,156.78c-0.19,0-0.37-0.12-0.44-0.3c-0.12-0.29-2.99-7.21-2.48-15.3
										c0.34-5.33-1.66-9.54-1.68-9.59c-0.12-0.24-0.02-0.53,0.22-0.64c0.24-0.12,0.53-0.02,0.64,0.22
										c0.09,0.18,2.13,4.47,1.78,10.07c-0.44,6.9,1.72,13.08,2.28,14.54l30.31-2.71c2.15-25.2-3.89-38.03-9.36-44.36
										c-5.93-6.86-12.47-7.76-12.53-7.77c-0.26-0.03-0.45-0.27-0.42-0.54c0.03-0.26,0.27-0.46,0.54-0.42
										c0.28,0.03,6.92,0.93,13.09,8.04c5.64,6.5,11.89,19.68,9.6,45.54c-0.02,0.23-0.21,0.42-0.44,0.44l-31.07,2.78
										C194.16,156.78,194.14,156.78,194.13,156.78z" class="color212121 svgShape"></path><path fill="#212121" d="M194.13,156.3c0.04,0.48,1.3,0.8,3.35,0.97c2.89,0.22,7.37,0.13,12.38-0.32
										c5.48-0.49,10.26-1.29,12.97-2.11c0.11-0.03,0.21-0.07,0.31-0.1c1.33-0.41,2.08-0.84,2.06-1.23
										c-0.04-0.4-0.97-0.7-2.55-0.89c-0.17-0.02-0.34-0.04-0.52-0.05c-2.87-0.26-7.48-0.17-12.65,0.29
										c-5.14,0.45-9.67,1.19-12.44,1.95c-1.14,0.31-1.99,0.63-2.47,0.93c0,0.01-0.01,0.01-0.01,0.01
										c-0.25,0.16-0.4,0.32-0.42,0.47C194.13,156.25,194.13,156.28,194.13,156.3z" class="color212121 svgShape"></path><path fill="#212121" d="M201.02,157.87c-1.33,0-2.54-0.04-3.57-0.12c-2.64-0.22-3.74-0.63-3.8-1.41c0-0.01,0-0.02,0-0.04
										c0-0.04,0-0.11,0.02-0.19c0.05-0.26,0.25-0.5,0.6-0.74c0.01-0.01,0.03-0.02,0.04-0.03c0.52-0.33,1.4-0.66,2.59-0.98
										c2.9-0.79,7.58-1.53,12.53-1.97c4.99-0.45,9.76-0.56,12.74-0.29l0.53,0.05c2.02,0.24,2.91,0.63,2.98,1.32
										c0.04,0.68-0.7,1.21-2.4,1.74l-0.14,0.04c-0.06,0.02-0.12,0.04-0.19,0.06c-2.82,0.85-7.7,1.65-13.06,2.13
										C206.69,157.72,203.62,157.87,201.02,157.87z M194.69,156.25c0.23,0.12,0.91,0.37,2.83,0.54c3,0.23,7.48,0.11,12.29-0.32
										c5.29-0.47,10.11-1.26,12.87-2.09c0.06-0.02,0.11-0.03,0.16-0.05l0.15-0.05c1.04-0.32,1.46-0.58,1.63-0.71
										c-0.2-0.11-0.73-0.3-2.04-0.46l-0.51-0.05c-2.92-0.26-7.62-0.15-12.56,0.29c-4.9,0.43-9.52,1.16-12.36,1.94
										c-1.35,0.37-2,0.67-2.31,0.86c-0.01,0.01-0.02,0.01-0.02,0.02v0C194.77,156.2,194.72,156.23,194.69,156.25z" class="color212121 svgShape"></path><path fill="#ffffff" d="M169.67,164.95c6.21,3.59,12.6,7.09,18.82,10.68c8.88,5.12,20.74,7.67,27.88,4.79
																			c7.4-2.99,7.87-17.35,6.47-25.58c-0.13-0.79-0.45-1.53-0.7-2.26c-2.87-0.26-7.48-0.17-12.65,0.29
																			c-5.14,0.45-9.67,1.19-12.44,1.95c-1.14,0.31-1.99,0.63-2.47,0.93c0,0.01-0.01,0.01-0.01,0.01
																			c-0.14,0.16-0.28,0.31-0.42,0.47c-0.03,0.04-0.07,0.07-0.1,0.11c-0.68-0.23-1.36-0.44-2.05-0.66
																			c-7.02-2.2-13.32-2.33-21.5-5.14L169.67,164.95z" class="colorfff svgShape"></path><path fill="#212121" d="M157.21,128.72l-1.54,37.25c-0.04,1.03-0.94,1.81-1.97,1.71l-14.07-1.35
																				c-0.95-0.09-1.66-0.91-1.62-1.86l1.54-37.25c0.04-1.03,0.94-1.81,1.97-1.71l14.07,1.35
																				C156.54,126.95,157.25,127.76,157.21,128.72z" class="color212121 svgShape"></path><path fill="#212121" d="M153.88,168.17c-0.07,0-0.15,0-0.22-0.01l-14.07-1.35c-1.2-0.12-2.11-1.15-2.06-2.36
																				l1.54-37.25c0.03-0.63,0.3-1.21,0.78-1.62c0.48-0.42,1.09-0.61,1.71-0.55l14.07,1.35
																				c1.2,0.12,2.11,1.15,2.06,2.36l-1.54,37.25c-0.03,0.63-0.3,1.21-0.78,1.62
																				C154.95,167.97,154.43,168.17,153.88,168.17z M141.34,125.98c-0.32,0-0.62,0.11-0.86,0.32
																				c-0.27,0.24-0.43,0.57-0.45,0.94l-1.54,37.25c-0.03,0.7,0.49,1.3,1.19,1.36l14.07,1.35
																				c0.36,0.04,0.71-0.08,0.99-0.32s0.43-0.57,0.45-0.94l1.54-37.25v0c0.03-0.7-0.49-1.29-1.19-1.36l-14.07-1.35
																				C141.42,125.98,141.38,125.98,141.34,125.98z" class="color212121 svgShape"></path><path fill="#ffffff" d="M153.46,128.36l-1.54,37.25c-0.04,1.03-0.94,1.81-1.97,1.71l-14.07-1.35
																				c-0.95-0.09-1.66-0.91-1.62-1.86l1.54-37.25c0.04-1.03,0.94-1.81,1.97-1.71l14.07,1.35
																				C152.79,126.58,153.5,127.4,153.46,128.36z" class="colorfff svgShape"></path><path fill="#212121" d="M150.13,167.81c-0.07,0-0.15,0-0.22-0.01l-14.07-1.35c-1.2-0.12-2.11-1.15-2.06-2.36
																				l1.54-37.25c0.03-0.63,0.3-1.21,0.78-1.62c0.48-0.42,1.08-0.61,1.71-0.55l14.07,1.35
																				c1.2,0.12,2.11,1.15,2.06,2.36l-1.54,37.25c-0.03,0.63-0.3,1.21-0.78,1.62
																				C151.2,167.61,150.68,167.81,150.13,167.81z M137.59,125.62c-0.32,0-0.62,0.11-0.86,0.32
																				c-0.27,0.24-0.43,0.57-0.45,0.94l-1.54,37.25c-0.03,0.7,0.49,1.29,1.19,1.36l14.07,1.35
																				c0.36,0.04,0.71-0.08,0.99-0.32c0.27-0.24,0.43-0.57,0.45-0.94l1.54-37.25v0c0.03-0.7-0.49-1.29-1.19-1.36
																				l-14.07-1.35C137.68,125.62,137.63,125.62,137.59,125.62z" class="color212121 svgShape"></path><path fill="#212121" d="M138.35,139.08c-0.2-0.02-0.38-0.16-0.51-0.38c-0.13-0.23-0.2-0.52-0.18-0.82l0.38-9.11
																					c0.02-0.6,0.35-1.06,0.74-1.06l1.68,0.16c0.41,0.04,0.72,0.58,0.7,1.2l-0.38,9.1c-0.02,0.6-0.35,1.06-0.74,1.06
																					L138.35,139.08z" class="color212121 svgShape"></path><path fill="#ffffff" d="M140.34 130.29c0 .68-.36 1.23-.81 1.23-.44 0-.81-.54-.81-1.23 0-.68.36-1.22.81-1.22C139.98 129.07 140.34 129.62 140.34 130.29zM139.77 133.48c0 .31-.17.56-.37.56-.2 0-.37-.25-.37-.56 0-.31.17-.56.37-.56C139.6 132.92 139.77 133.17 139.77 133.48zM140.07 136.65c0 .68-.36 1.23-.81 1.23-.44 0-.81-.54-.81-1.23 0-.68.36-1.22.81-1.22C139.7 135.43 140.07 135.98 140.07 136.65z" class="colorfff svgShape"></path><path fill="#212121" d="M206.45,161.56c-0.06,0-0.13-0.01-0.19-0.04c-4.67-1.98-8.6-3.48-12.37-4.73
																											c-0.25-0.08-0.39-0.36-0.31-0.61c0.08-0.25,0.36-0.39,0.61-0.31c3.79,1.26,7.75,2.78,12.44,4.76
																											c0.25,0.1,0.36,0.39,0.26,0.63C206.81,161.45,206.64,161.56,206.45,161.56z" class="color212121 svgShape"></path><path fill="#212121" d="M194.04,156.81c-0.05,0-0.1-0.01-0.15-0.02c-0.68-0.23-1.36-0.45-2.04-0.66
																											c-3.16-0.99-6.15-1.55-9.31-2.15c-3.79-0.71-7.7-1.45-12.2-2.99c-0.25-0.09-0.39-0.36-0.3-0.61
																											c0.09-0.25,0.36-0.39,0.61-0.3c4.43,1.51,8.31,2.25,12.06,2.95c3.19,0.6,6.21,1.17,9.42,2.18
																											c0.69,0.21,1.37,0.44,2.06,0.66c0.25,0.08,0.39,0.36,0.31,0.61
																											C194.43,156.69,194.24,156.81,194.04,156.81z" class="color212121 svgShape"></path><path fill="#ffffff" d="M170.5,150.54l-0.83,14.41c-1.51-0.71-9.82-3.28-10.45-3.44v-0.01
																													c-5.75-1.4-15.34-6.21-14.22-10.32c0.13-0.52,0.48-0.82,0.98-1.05c-0.93-0.62-1.49-1.39-1.24-2.28
																													c0.15-0.52,0.53-0.87,1.07-1.06c-0.44-0.48-0.65-0.98-0.48-1.62c0.08-0.31,0.26-0.56,0.49-0.78
																													c-0.23-0.26-0.37-0.59-0.38-0.99c-0.03-2.53,5.61-2.62,9.42-1.94c0,0,0,0,0.01,0
																													c1.7,0.15,1.66-2.43,1.66-2.43c0.95,2,3.06,4.1,5.61,6.29c0.01,0.01,0.02,0.01,0.03,0.03
																													C164.7,147.3,167.6,149.53,170.5,150.54z" class="colorfff svgShape"></path><path fill="#212121" d="M153.22,149.45c-0.01,0-0.02,0-0.04,0c-0.66-0.05-6.48-0.54-8.01-2.69
																												c-0.36-0.51-0.47-1.1-0.32-1.7c0.11-0.41,0.32-0.75,0.65-1.03c0.2-0.17,0.51-0.15,0.68,0.05
																												c0.17,0.2,0.15,0.51-0.05,0.68c-0.17,0.15-0.28,0.32-0.34,0.54c-0.09,0.33-0.03,0.61,0.17,0.89
																												c1.08,1.51,5.63,2.16,7.3,2.29c0.27,0.02,0.46,0.25,0.45,0.52
																												C153.68,149.26,153.47,149.45,153.22,149.45z" class="color212121 svgShape"></path><path fill="#212121" d="M151.87,152.71c-0.03,0-0.06,0-0.09-0.01c-0.6-0.11-5.9-1.12-7.26-3.32
																												c-0.33-0.54-0.42-1.1-0.25-1.68c0.18-0.64,0.66-1.11,1.37-1.37c0.25-0.09,0.53,0.04,0.62,0.29
																												c0.09,0.25-0.04,0.53-0.29,0.62c-0.42,0.16-0.68,0.4-0.78,0.74c-0.09,0.31-0.05,0.6,0.14,0.9
																												c0.96,1.55,5.1,2.6,6.61,2.88c0.26,0.05,0.44,0.3,0.39,0.56C152.3,152.55,152.09,152.71,151.87,152.71z" class="color212121 svgShape"></path><g><path fill="#212121" d="M209.29,182.1c-6.96,0-15.08-2.62-21.05-6.06c-3.08-1.77-6.25-3.56-9.32-5.29
																				c-3.13-1.76-6.36-3.58-9.5-5.39c-1.43-0.67-9.68-3.23-10.31-3.38c-4.37-1.06-11.88-4.37-14.08-8.1
																				c-0.58-0.98-0.75-1.94-0.51-2.83c0.21-0.79,0.81-1.15,1.23-1.35c0.24-0.11,0.53-0.01,0.64,0.23
																				c0.11,0.24,0.01,0.53-0.23,0.64c-0.42,0.2-0.63,0.41-0.72,0.73c-0.17,0.64-0.04,1.34,0.41,2.09
																				c1.97,3.34,9.09,6.59,13.47,7.65c0.59,0.14,8.94,2.73,10.53,3.47c3.17,1.83,6.4,3.65,9.53,5.41
																				c3.07,1.73,6.24,3.51,9.33,5.29c9.36,5.4,20.91,7.4,27.45,4.76c6.97-2.81,7.68-15.26,6.17-25.06
																				c-0.17-0.63-0.4-1.36-0.68-2.18c-0.09-0.25,0.05-0.53,0.3-0.61c0.25-0.09,0.53,0.05,0.61,0.3
																				c0.29,0.84,0.52,1.59,0.71,2.29c1.57,10.2,0.74,23.13-6.75,26.15C214.42,181.72,211.94,182.1,209.29,182.1z" class="color212121 svgShape"></path></g><g><path fill="#212121" d="M170.5,151.02c-0.05,0-0.11-0.01-0.16-0.03c-1.31-0.46-2.77-1.24-4.47-2.38
																					c0,0-0.01,0-0.01-0.01c-0.02-0.01-0.03-0.02-0.05-0.03c-0.79-0.65-1.57-1.26-2.32-1.86
																					c-2.79-2.21-5.26-4.16-6.7-6.27c-0.13,0.4-0.34,0.8-0.67,1.09c-0.39,0.34-0.88,0.47-1.44,0.38l0,0
																					c-0.01,0-0.02,0-0.03,0c-0.01,0-0.02,0-0.02,0c-3.13-0.53-6.98-0.48-8.29,0.63c-0.29,0.24-0.42,0.51-0.41,0.85
																					c0,0.26,0.09,0.49,0.26,0.67c1.23,1.38,5.92,1.25,7.62,1.08c0.27-0.02,0.5,0.17,0.53,0.43
																					c0.03,0.27-0.17,0.5-0.43,0.53c-0.68,0.07-6.66,0.59-8.43-1.39c-0.32-0.36-0.5-0.81-0.51-1.3
																					c-0.01-0.62,0.25-1.17,0.75-1.59c1.84-1.57,6.57-1.28,9.07-0.85c0.01,0,0.02,0,0.02,0c0.01,0,0.01,0,0.02,0
																					c0.28,0.04,0.49-0.01,0.66-0.16c0.47-0.41,0.56-1.42,0.56-1.78c0-0.23,0.15-0.42,0.37-0.48
																					c0.22-0.05,0.45,0.06,0.54,0.26c1.13,2.39,3.91,4.59,7.13,7.14c0.75,0.59,1.52,1.21,2.32,1.85c0,0,0,0,0,0l0,0
																					c1.63,1.09,3.03,1.83,4.26,2.27c0.25,0.09,0.38,0.36,0.29,0.62C170.88,150.9,170.69,151.02,170.5,151.02z" class="color212121 svgShape"></path></g><g><path fill="#212121" d="M194.14,156.72c-0.03,0-0.07,0-0.1-0.01c-0.26-0.05-0.43-0.32-0.37-0.58
										c0.06-0.28,0.25-0.53,0.61-0.76c0.01-0.01,0.03-0.02,0.04-0.03c0.52-0.33,1.4-0.66,2.59-0.98
										c2.9-0.79,7.58-1.53,12.53-1.97c4.99-0.45,9.76-0.56,12.74-0.29l0.53,0.05c0.26,0.03,0.46,0.27,0.43,0.53
										c-0.03,0.26-0.26,0.46-0.53,0.43l-0.52-0.05c-2.92-0.26-7.62-0.15-12.56,0.29c-4.9,0.43-9.52,1.16-12.36,1.94
										c-1.35,0.37-2,0.67-2.31,0.86c-0.01,0.01-0.02,0.01-0.02,0.02v0c-0.18,0.12-0.22,0.18-0.22,0.19
										C194.55,156.57,194.36,156.72,194.14,156.72z" class="color212121 svgShape"></path></g><g><ellipse cx="173.93" cy="124.31" fill="#212121" rx="2" ry="1.53" transform="rotate(-70.453 173.926 124.302)" class="color212121 svgShape"></ellipse></g><g><ellipse cx="172.63" cy="133.48" fill="#212121" rx="2" ry="1.53" transform="rotate(-70.453 172.625 133.477)" class="color212121 svgShape"></ellipse></g><g><path fill="#ffffff" d="M186.38,88.77c-0.43,4.51,2.6,10.79,6.77,11.4c-2.48,6.03-10.45,21.01-18.49,19.14
									c-6.87-1.59-5.25-13-4.9-14.5c4.31-1.55,5.83-7,5.2-9.26C178.78,90.12,181.75,85.82,186.38,88.77z" class="colorfff svgShape"></path><path fill="#212121" d="M176.03,119.95c-0.49,0-0.99-0.05-1.48-0.17c-6.87-1.59-5.9-12.3-5.26-15.08
									c0.04-0.16,0.15-0.29,0.31-0.35c4.14-1.49,5.43-6.76,4.9-8.68c-0.04-0.14-0.01-0.29,0.07-0.41l0.09-0.13
									c3.76-5.34,7-9.96,11.98-6.78c0.15,0.1,0.24,0.27,0.22,0.45c-0.41,4.32,2.5,10.31,6.36,10.88c0.15,0.02,0.28,0.11,0.35,0.24
									c0.07,0.13,0.08,0.28,0.03,0.42C190.69,107.41,183.5,119.95,176.03,119.95z M170.18,105.17c-0.55,2.8-1.25,12.32,4.59,13.68
									c7.4,1.71,15.07-12.16,17.71-18.32c-4.02-1.09-6.89-6.93-6.61-11.5c-3.86-2.26-6.37,0.9-10.4,6.62
									C176,98.16,174.43,103.46,170.18,105.17z" class="color212121 svgShape"></path><path fill="#ffffff" d="M167.27,69.22c-2.99,5.73-4.73,12.1-5.07,18.56c-0.11,2.2-0.04,4.52,1.04,6.45
								c1.74,3.1,5.77,4.35,9.28,3.77c3.51-0.58,6.59-2.63,9.39-4.82C207.47,83.19,189.5,66.08,167.27,69.22z" class="colorfff svgShape"></path><path fill="#212121" d="M170.8,98.62c-3.4,0-6.53-1.58-7.98-4.15c-1.17-2.08-1.22-4.56-1.11-6.71
								c0.34-6.5,2.11-12.99,5.12-18.76c0.12-0.24,0.41-0.33,0.65-0.2c0.24,0.12,0.33,0.41,0.2,0.65c-2.95,5.65-4.68,12-5.01,18.36
								c-0.1,2.01-0.07,4.32,0.98,6.19c1.76,3.13,5.78,4.02,8.78,3.53c3.5-0.58,6.6-2.71,9.17-4.72c0.21-0.16,0.51-0.13,0.68,0.08
								c0.16,0.21,0.13,0.51-0.08,0.68c-2.66,2.09-5.89,4.3-9.61,4.91C171.99,98.57,171.39,98.62,170.8,98.62z" class="color212121 svgShape"></path><path fill="#212121" d="M163.24,71.69c3.53-6.74,11.59-9.95,18.61-7.01c0.22,0.09,0.44,0.19,0.65,0.29
								c1.82,0.86,3.45,1.5,4.68,2.74c1.32,1.33,2.77,2.74,4.2,4.24c3.57,3.76,4.53,9.35,2.31,14.03c-0.01,0.02-0.02,0.05-0.03,0.07
								c-0.66,1.38-1.44,2.71-2.47,3.85c-1.02,1.13-3.02,2.17-4.48,2.62c-0.39-1.4-0.49-2.79-0.33-3.75
								c1.52-0.09,2.91-1.01,3.87-2.19c0.62-0.76,1.1-1.66,1.26-2.63c0.15-0.97-0.05-2.02-0.66-2.78c-0.72-0.9-1.99-1.32-3.1-1.03
								c-0.93,0.24-1.93,0.92-2.34,1.79c-0.12,0.25-0.38,0.19-0.65,0.11c-7.57-2.27-10.35-9.37-10.2-10.57
								c-1.88,1.23-3.98,2.23-6.22,2.39c-1.92,0.14-3.96-0.43-5.35-1.74C163.03,72.07,163.12,71.91,163.24,71.69z" class="color212121 svgShape"></path><path fill="#212121" d="M186.71,93c-0.08,0-0.16-0.02-0.23-0.06c-0.11-0.06-0.2-0.17-0.23-0.29c-0.39-1.4-0.52-2.87-0.34-3.96
								c0.04-0.22,0.22-0.39,0.45-0.4c1.26-0.08,2.55-0.81,3.53-2.02c0.63-0.77,1.03-1.6,1.15-2.4c0.14-0.89-0.07-1.79-0.56-2.41
								c-0.6-0.75-1.67-1.11-2.6-0.86c-0.88,0.23-1.71,0.86-2.02,1.53c-0.3,0.64-0.99,0.43-1.22,0.37c-6.67-2-9.84-7.77-10.44-10.22
								c-2.07,1.25-3.97,1.93-5.81,2.06c-2.17,0.16-4.3-0.54-5.72-1.87c-0.19-0.18-0.2-0.47-0.04-0.67c0.03-0.04,0.1-0.17,0.19-0.34
								c3.68-7.02,12.13-10.2,19.22-7.24c0.23,0.09,0.45,0.19,0.67,0.3c0.27,0.13,0.53,0.25,0.79,0.37c1.5,0.69,2.91,1.35,4.02,2.47
								c0.41,0.41,0.84,0.84,1.27,1.27c0.96,0.96,1.95,1.94,2.94,2.98c3.72,3.91,4.68,9.77,2.39,14.57l-0.03,0.06
								c-0.8,1.68-1.61,2.93-2.55,3.97c-1.13,1.25-3.23,2.3-4.7,2.75C186.8,92.99,186.75,93,186.71,93z M186.81,89.21
								c-0.07,0.77,0.01,1.73,0.23,2.68c1.32-0.49,2.93-1.37,3.79-2.32c0.87-0.96,1.63-2.15,2.39-3.73l0.03-0.06
								c2.12-4.46,1.23-9.88-2.22-13.5c-0.98-1.03-1.96-2.01-2.92-2.96c-0.43-0.43-0.86-0.86-1.27-1.27c-0.99-1-2.26-1.59-3.74-2.27
								c-0.26-0.12-0.53-0.25-0.8-0.37c-0.21-0.1-0.42-0.19-0.63-0.28c-6.64-2.77-14.54,0.21-18,6.79c0,0,0,0,0,0
								c-0.02,0.04-0.04,0.07-0.06,0.11c1.21,0.98,2.94,1.48,4.7,1.36c1.85-0.13,3.81-0.89,5.99-2.31c0.16-0.1,0.36-0.1,0.52,0
								c0.16,0.1,0.25,0.28,0.22,0.47c-0.11,0.82,2.41,7.81,9.86,10.05c0.02,0.01,0.08,0.02,0.13,0.04c0.47-0.89,1.47-1.65,2.6-1.94
								c1.29-0.34,2.77,0.15,3.6,1.19c0.67,0.84,0.95,1.99,0.76,3.16c-0.16,0.98-0.61,1.94-1.36,2.86
								C189.57,88.17,188.2,89,186.81,89.21z M163.24,71.69L163.24,71.69L163.24,71.69z" class="color212121 svgShape"></path><path fill="#212121" d="M187.51 86.32c-.07 0-.14-.02-.21-.05-.28-.14-.6-.29-.87-.53-.35-.31-.56-.7-.58-1.1-.03-.54.31-1.04.79-1.19.28-.08.54-.03.74 0 .11.02.2.04.27.03.12-.01.25-.11.35-.25.13-.19.2-.44.28-.68.08-.25.35-.4.6-.32.25.08.4.35.32.6-.09.29-.19.63-.4.93-.27.39-.66.64-1.07.67-.2.02-.38-.02-.53-.05-.12-.02-.24-.04-.29-.03-.04.01-.11.11-.1.21.01.14.1.3.25.43.18.16.42.27.66.39.24.12.34.4.22.64C187.86 86.22 187.69 86.32 187.51 86.32zM169.59 88.35c-.02 0-.04 0-.07 0-.67-.09-1.26-.34-1.69-.7-.54-.45-.86-1.11-.86-1.76.01-.93.64-1.61 1.19-2.22.14-.15.27-.3.4-.45.88-1.07 1.25-2.52.99-3.87-.05-.26.12-.51.39-.56.26-.05.51.12.56.39.31 1.64-.14 3.38-1.2 4.67-.14.17-.28.33-.43.49-.48.52-.93 1.02-.93 1.58 0 .35.19.74.51 1 .3.25.72.42 1.21.49.26.04.45.28.41.54C170.03 88.17 169.83 88.35 169.59 88.35zM170.08 90.11c-.13 0-.25-.01-.38-.02-.26-.03-.45-.28-.42-.54.03-.26.26-.45.54-.42 1.05.13 2.18-.58 2.51-1.58.08-.25.36-.39.61-.31.25.08.39.36.31.61C172.81 89.17 171.46 90.11 170.08 90.11zM168.04 78.69c-.06 0-.12-.01-.18-.04-1.2-.48-2.74-.57-3.92-.22-.26.08-.52-.07-.6-.33-.07-.26.07-.52.33-.6 1.67-.49 3.45-.19 4.55.26.25.1.37.38.27.63C168.41 78.58 168.23 78.69 168.04 78.69zM165.04 79.77c0 .29.26.52.58.52.32 0 .58-.24.58-.52 0-.29-.26-.52-.58-.52C165.3 79.25 165.04 79.48 165.04 79.77z" class="color212121 svgShape"></path><path fill="#212121" d="M165.61 80.78c-.58 0-1.06-.45-1.06-1s.47-1 1.06-1c.59 0 1.06.45 1.06 1S166.2 80.78 165.61 80.78zM165.52 79.77c.01.01.04.04.09.04.06 0 .1-.03.1-.04 0 0-.04-.04-.1-.04C165.56 79.73 165.53 79.76 165.52 79.77zM165.52 79.77C165.52 79.77 165.52 79.77 165.52 79.77L165.52 79.77 165.52 79.77zM177.01 79.86c-.07 0-.15-.02-.21-.05-1.16-.58-2.68-.78-3.89-.53-.26.06-.52-.11-.57-.37-.05-.26.11-.52.37-.57 1.71-.36 3.45.08 4.52.61.24.12.34.41.22.65C177.36 79.76 177.19 79.86 177.01 79.86zM173.9 80.7c-.02.28.22.54.53.57.32.03.6-.19.62-.47.02-.29-.22-.54-.54-.57C174.2 80.2 173.92 80.41 173.9 80.7z" class="color212121 svgShape"></path><path fill="#212121" d="M174.48,81.75c-0.03,0-0.06,0-0.09,0c-0.29-0.02-0.56-0.16-0.74-0.37c-0.17-0.2-0.26-0.45-0.24-0.71l0,0
								c0.02-0.27,0.16-0.53,0.38-0.7c0.21-0.16,0.48-0.24,0.75-0.22c0.58,0.05,1.03,0.53,0.98,1.08
								C175.49,81.35,175.03,81.75,174.48,81.75z M174.38,80.74c0.01,0.01,0.03,0.04,0.09,0.05c0.07,0.01,0.1-0.03,0.1-0.03
								c0,0-0.03-0.04-0.1-0.04C174.42,80.7,174.39,80.73,174.38,80.74z M174.38,80.74C174.38,80.74,174.38,80.74,174.38,80.74
								C174.38,80.74,174.38,80.74,174.38,80.74z M173.9,80.7L173.9,80.7L173.9,80.7z" class="color212121 svgShape"></path></g><g><path fill="#212121" d="M193.15,100.17c1.78,0.57,3.29,0.75,4.77,2.32c1.56,1.66,2.79,3.8,4.49,5.31
							c1.94,1.74,4.46,2.83,7.05,3.07c2.6,0.24,5.27-0.37,7.5-1.72c2.13-1.29,1.68-4.71,0.78-7.03c-0.91-2.32-2.74-4.2-4.86-5.51
							c-2.12-1.3-4.53-2.08-6.96-2.66c-1.94-0.46-3.93-0.8-5.92-0.66c-1.99,0.14-3.99,0.79-5.48,2.12L193.15,100.17z" class="color212121 svgShape"></path><path fill="#212121" d="M210.58,111.41c-0.39,0-0.77-0.02-1.16-0.05c-2.7-0.25-5.31-1.38-7.33-3.19
							c-1.02-0.91-1.88-2.03-2.71-3.12c-0.58-0.76-1.18-1.55-1.82-2.23c-1.11-1.19-2.26-1.52-3.59-1.9
							c-0.32-0.09-0.64-0.19-0.98-0.29c-0.25-0.08-0.39-0.34-0.32-0.59l1.37-4.76c0.03-0.09,0.07-0.17,0.14-0.23
							c1.44-1.29,3.49-2.08,5.77-2.24c2.23-0.15,4.41,0.28,6.06,0.68c2.98,0.71,5.23,1.57,7.1,2.72c2.39,1.47,4.18,3.52,5.06,5.75
							c1.02,2.62,1.38,6.19-0.98,7.62C215.22,110.78,212.9,111.41,210.58,111.41z M193.75,99.85c0.17,0.05,0.34,0.1,0.5,0.15
							c1.4,0.4,2.73,0.79,4.02,2.17c0.67,0.72,1.28,1.52,1.88,2.3c0.8,1.05,1.63,2.13,2.58,2.98c1.87,1.67,4.28,2.72,6.78,2.95
							c2.5,0.23,5.06-0.35,7.21-1.65c1.97-1.19,1.29-4.61,0.58-6.44c-0.8-2.04-2.46-3.91-4.67-5.28c-1.77-1.09-3.94-1.92-6.81-2.6
							c-1.59-0.38-3.68-0.8-5.77-0.65c-2.01,0.14-3.81,0.81-5.09,1.9L193.75,99.85z" class="color212121 svgShape"></path></g></g><g><path fill="#ffffff" d="M39.06,80.62c0,4.97,4.03,9,9,9s35.61,0,40.58,0c4.97,0,9-4.03,9-9c0-4.97-4.03-9-9-9
				c-0.75,0-1.48,0.09-2.17,0.27c-0.1-2.35-2.04-4.23-4.41-4.23c-0.36,0-0.7,0.04-1.04,0.12c-0.17-6.86-5.78-12.36-12.67-12.36
				s-12.51,5.51-12.67,12.36c-0.33-0.08-0.68-0.12-1.04-0.12c-2.37,0-4.31,1.88-4.41,4.23c-0.7-0.17-1.42-0.27-2.17-0.27
				C43.09,71.62,39.06,75.65,39.06,80.62z" class="colorfff svgShape"></path><path fill="#212121" d="M88.64,90.11H48.06c-5.23,0-9.49-4.26-9.49-9.49s4.26-9.49,9.49-9.49c0.59,0,1.17,0.05,1.75,0.16
				c0.37-2.35,2.4-4.12,4.84-4.12c0.19,0,0.39,0.01,0.58,0.03c0.46-6.82,6.24-12.27,13.13-12.27c6.89,0,12.67,5.46,13.13,12.27
				c0.19-0.02,0.38-0.03,0.58-0.03c2.44,0,4.47,1.77,4.84,4.12c0.57-0.11,1.16-0.16,1.75-0.16c5.23,0,9.49,4.26,9.49,9.49
				S93.87,90.11,88.64,90.11z M48.06,72.1c-4.7,0-8.52,3.82-8.52,8.52c0,4.7,3.82,8.52,8.52,8.52h40.58c4.7,0,8.52-3.82,8.52-8.52
				c0-4.7-3.82-8.52-8.52-8.52c-0.7,0-1.39,0.08-2.06,0.25c-0.14,0.03-0.29,0-0.41-0.08c-0.12-0.09-0.19-0.22-0.19-0.37
				c-0.09-2.11-1.81-3.76-3.93-3.76c-0.31,0-0.62,0.04-0.92,0.11c-0.14,0.03-0.29,0-0.41-0.09c-0.12-0.09-0.19-0.23-0.19-0.37
				c-0.16-6.56-5.63-11.89-12.19-11.89c-6.56,0-12.03,5.33-12.19,11.89c0,0.15-0.07,0.28-0.19,0.37c-0.12,0.09-0.27,0.12-0.41,0.09
				c-0.3-0.07-0.61-0.11-0.92-0.11c-2.11,0-3.84,1.65-3.93,3.76c-0.01,0.14-0.08,0.28-0.19,0.37c-0.12,0.09-0.26,0.12-0.41,0.08
				C49.45,72.18,48.76,72.1,48.06,72.1z" class="color212121 svgShape"></path></g><g><path fill="#212121" d="M80.76,70.89c-0.03,0-0.06,0-0.09-0.01c-0.26-0.05-0.43-0.3-0.38-0.56c0.14-0.75,0.21-1.52,0.21-2.27
				c0-6.7-5.45-12.15-12.15-12.15c-6.7,0-12.15,5.45-12.15,12.15c0,0.75,0.07,1.51,0.21,2.27c0.05,0.26-0.12,0.51-0.39,0.56
				c-0.26,0.05-0.51-0.12-0.56-0.39c-0.15-0.81-0.23-1.64-0.23-2.45c0-7.23,5.88-13.11,13.11-13.11s13.11,5.88,13.11,13.11
				c0,0.81-0.08,1.63-0.23,2.45C81.19,70.73,80.99,70.89,80.76,70.89z" class="color212121 svgShape"></path></g><g><path fill="#212121" d="M59.18,74.51c-0.12,0-0.25-0.05-0.34-0.14c-0.19-0.19-0.19-0.49,0-0.68c5.25-5.25,13.78-5.25,19.03-0.01
						c0.19,0.19,0.19,0.49,0,0.68c-0.19,0.19-0.49,0.19-0.68,0c-4.87-4.87-12.8-4.87-17.67,0.01C59.42,74.46,59.3,74.51,59.18,74.51
						z" class="color212121 svgShape"></path><path fill="#212121" d="M61.75,77.08c-0.12,0-0.25-0.05-0.34-0.14c-0.19-0.19-0.19-0.49,0-0.68c3.83-3.83,10.05-3.83,13.88-0.01
						c0.19,0.19,0.19,0.49,0,0.68c-0.19,0.19-0.49,0.19-0.68,0c-3.45-3.45-9.07-3.45-12.52,0.01C62,77.03,61.88,77.08,61.75,77.08z" class="color212121 svgShape"></path><path fill="#212121" d="M64.33 79.65c-.12 0-.25-.05-.34-.14-.19-.19-.19-.49 0-.68 2.41-2.41 6.33-2.41 8.73 0 .19.19.19.49 0 .68-.19.19-.49.19-.68 0-2.03-2.03-5.34-2.03-7.37 0C64.57 79.61 64.45 79.65 64.33 79.65zM70.41 83.19c0 1.14-.92 2.05-2.05 2.05-1.14 0-2.05-.92-2.05-2.05s.92-2.05 2.05-2.05S70.41 82.06 70.41 83.19z" class="color212121 svgShape"></path><path fill="#212121" d="M68.35,85.73c-0.68,0-1.31-0.26-1.79-0.74c-0.48-0.48-0.74-1.12-0.74-1.79c0-1.4,1.14-2.54,2.54-2.54
						c0,0,0,0,0,0c1.4,0,2.54,1.14,2.54,2.53c0,0.68-0.26,1.32-0.74,1.79C69.67,85.47,69.03,85.73,68.35,85.73
						C68.36,85.73,68.36,85.73,68.35,85.73z M68.35,81.62C68.35,81.62,68.35,81.62,68.35,81.62c-0.87,0-1.57,0.71-1.57,1.57
						c0,0.42,0.16,0.81,0.46,1.11c0.3,0.3,0.69,0.46,1.11,0.46c0,0,0,0,0,0c0.42,0,0.81-0.16,1.11-0.46c0.3-0.3,0.46-0.69,0.46-1.11
						C69.93,82.33,69.22,81.62,68.35,81.62z" class="color212121 svgShape"></path></g><g><path fill="#ffffff" d="M216.45,55.3c-0.13,0.03-0.13,0.2,0,0.23c1.5,0.31,2.84,1.25,3.87,2.59c0.99,1.3,1.69,2.99,1.95,4.87
				c0.02,0.13,0.21,0.13,0.23,0c0.53-3.83,2.87-6.84,5.82-7.46c0.13-0.03,0.13-0.2,0-0.23c-1.5-0.31-2.84-1.24-3.87-2.59
				c-0.99-1.3-1.69-2.99-1.95-4.87c-0.02-0.13-0.21-0.13-0.23,0c-0.26,1.88-0.96,3.57-1.95,4.87
				C219.28,54.06,217.94,54.99,216.45,55.3z" class="colorfff svgShape"></path><path fill="#212121" d="M222.38,63.58c-0.3,0-0.55-0.22-0.59-0.52c-0.24-1.76-0.89-3.37-1.86-4.65c-0.99-1.29-2.23-2.12-3.58-2.41
				c-0.28-0.06-0.48-0.3-0.48-0.59c0-0.29,0.2-0.53,0.48-0.59l0,0c1.35-0.28,2.59-1.12,3.58-2.41c0.97-1.27,1.61-2.88,1.85-4.64
				c0.04-0.3,0.29-0.52,0.59-0.52c0.3,0,0.55,0.22,0.59,0.52c0.24,1.76,0.89,3.37,1.86,4.65c0.99,1.29,2.23,2.12,3.58,2.41
				c0.28,0.06,0.48,0.3,0.48,0.59c0,0.29-0.2,0.53-0.48,0.59c-2.75,0.57-4.93,3.41-5.44,7.05
				C222.93,63.36,222.68,63.58,222.38,63.58z M217.68,55.42c1.13,0.48,2.16,1.3,3.01,2.41c0.74,0.98,1.31,2.13,1.68,3.39
				c0.8-2.74,2.53-4.88,4.69-5.8c-1.13-0.48-2.16-1.29-3.01-2.41c-0.75-0.98-1.31-2.13-1.68-3.39c-0.37,1.26-0.94,2.41-1.68,3.39
				C219.84,54.12,218.82,54.94,217.68,55.42z M228.21,55.77L228.21,55.77L228.21,55.77z M216.55,55.06
				C216.55,55.06,216.55,55.06,216.55,55.06C216.55,55.06,216.55,55.06,216.55,55.06z" class="color212121 svgShape"></path></g><g><path fill="#212121" d="M110.63,84.83c-0.26,0-0.47-0.21-0.48-0.47c-0.01-0.27,0.2-0.49,0.47-0.5c0.16,0,0.32-0.01,0.49-0.02
					c1.09-0.05,2.2-0.16,3.29-0.33c0.27-0.04,0.51,0.14,0.55,0.4c0.04,0.26-0.14,0.51-0.4,0.55c-1.13,0.17-2.27,0.29-3.4,0.34
					c-0.17,0.01-0.33,0.01-0.5,0.02C110.64,84.83,110.64,84.83,110.63,84.83z M106.78,84.7c-0.02,0-0.03,0-0.05,0
					c-1.29-0.12-2.6-0.32-3.87-0.6c-0.26-0.06-0.43-0.31-0.37-0.57c0.06-0.26,0.32-0.43,0.57-0.37c1.24,0.27,2.5,0.46,3.76,0.58
					c0.26,0.02,0.46,0.26,0.44,0.53C107.23,84.52,107.02,84.7,106.78,84.7z M118.25,83.66c-0.21,0-0.4-0.14-0.46-0.35
					c-0.07-0.26,0.08-0.52,0.33-0.6c1.22-0.34,2.43-0.77,3.59-1.25c0.25-0.1,0.53,0.01,0.63,0.26c0.1,0.25-0.01,0.53-0.26,0.63
					c-1.2,0.5-2.44,0.94-3.7,1.29C118.33,83.65,118.29,83.66,118.25,83.66z M99.25,83.07c-0.05,0-0.11-0.01-0.16-0.03
					c-0.58-0.2-1.16-0.42-1.73-0.65c-0.25-0.1-0.36-0.38-0.26-0.63c0.1-0.25,0.38-0.36,0.63-0.26c0.55,0.23,1.11,0.44,1.67,0.63
					c0.25,0.09,0.39,0.36,0.3,0.61C99.63,82.95,99.45,83.07,99.25,83.07z M125.34,80.68c-0.17,0-0.33-0.09-0.42-0.24
					c-0.13-0.23-0.05-0.53,0.18-0.66c1.11-0.64,2.17-1.35,3.15-2.11c0.21-0.16,0.51-0.12,0.68,0.09c0.16,0.21,0.12,0.51-0.09,0.68
					c-1.02,0.79-2.11,1.52-3.26,2.18C125.51,80.65,125.43,80.68,125.34,80.68z M131.41,75.95c-0.12,0-0.24-0.04-0.33-0.13
					c-0.19-0.18-0.2-0.49-0.02-0.68c0.21-0.22,0.42-0.45,0.63-0.68c-0.1,0-0.2,0.01-0.31,0.01c-0.28-0.01-0.49-0.21-0.49-0.48
					c0-0.27,0.21-0.49,0.48-0.49c0.39,0,0.79-0.03,1.17-0.07c0.32-0.41,0.61-0.82,0.88-1.23c0.15-0.22,0.44-0.29,0.67-0.14
					c0.22,0.15,0.29,0.44,0.14,0.67c-0.1,0.16-0.21,0.31-0.32,0.47c0.38-0.08,0.75-0.19,1.11-0.3c0.26-0.08,0.53,0.06,0.61,0.31
					c0.08,0.25-0.06,0.53-0.31,0.61c-0.74,0.24-1.5,0.41-2.27,0.52c-0.08,0.1-0.17,0.21-0.25,0.31c-0.33,0.39-0.68,0.78-1.04,1.16
					C131.67,75.9,131.54,75.95,131.41,75.95z M127.57,73.92c-0.05,0-0.09-0.01-0.14-0.02c-1.36-0.41-2.57-1.03-3.58-1.83
					c-0.21-0.17-0.24-0.47-0.08-0.68c0.17-0.21,0.47-0.24,0.68-0.08c0.92,0.73,2.01,1.29,3.26,1.66c0.26,0.08,0.4,0.35,0.32,0.6
					C127.97,73.79,127.78,73.92,127.57,73.92z M138.62,72.13c-0.15,0-0.31-0.07-0.4-0.21c-0.15-0.22-0.09-0.52,0.13-0.67
					c1.01-0.69,1.95-1.53,2.78-2.48c0.17-0.2,0.48-0.22,0.68-0.05c0.2,0.17,0.22,0.48,0.05,0.68c-0.88,1.02-1.88,1.91-2.96,2.65
					C138.81,72.1,138.72,72.13,138.62,72.13z M135.45,69.46c-0.04,0-0.09-0.01-0.13-0.02c-0.26-0.07-0.41-0.34-0.34-0.59
					c0.2-0.72,0.3-1.45,0.31-2.15c0-0.49-0.05-0.97-0.16-1.44c-0.06-0.26,0.11-0.52,0.37-0.58c0.26-0.06,0.52,0.11,0.58,0.37
					c0.12,0.54,0.18,1.09,0.18,1.62c0,0.01,0,0.05,0,0.06c0,0.76-0.12,1.56-0.34,2.37C135.86,69.32,135.66,69.46,135.45,69.46z
					 M121.84,69.14c-0.19,0-0.37-0.11-0.45-0.3c-0.37-0.89-0.55-1.82-0.55-2.75c0-0.44,0.04-0.88,0.13-1.31
					c0.05-0.26,0.31-0.43,0.57-0.38c0.26,0.05,0.43,0.31,0.38,0.57c-0.07,0.36-0.11,0.74-0.11,1.12c0,0.81,0.16,1.61,0.48,2.38
					c0.1,0.25-0.02,0.53-0.26,0.63C121.96,69.13,121.9,69.14,121.84,69.14z M143.63,66.37c-0.07,0-0.15-0.02-0.22-0.05
					c-0.24-0.12-0.33-0.41-0.21-0.65c0.49-0.96,0.86-1.95,1.12-2.96c0.05-0.18,0.09-0.37,0.13-0.55c0.06-0.26,0.32-0.42,0.58-0.37
					c0.26,0.06,0.42,0.32,0.37,0.58c-0.04,0.19-0.09,0.39-0.14,0.58c-0.28,1.07-0.68,2.13-1.2,3.15
					C143.98,66.27,143.81,66.37,143.63,66.37z M133.83,62.26c-0.13,0-0.26-0.05-0.35-0.15c-0.71-0.76-1.56-1.31-2.52-1.66
					c-0.17-0.06-0.34-0.11-0.51-0.16c-0.26-0.07-0.41-0.33-0.35-0.59c0.07-0.26,0.33-0.41,0.59-0.35c0.2,0.05,0.4,0.11,0.6,0.18
					c1.11,0.4,2.09,1.04,2.9,1.91c0.18,0.19,0.17,0.5-0.02,0.68C134.06,62.22,133.94,62.26,133.83,62.26z M123.34,62.07
					c-0.13,0-0.26-0.05-0.36-0.16c-0.18-0.2-0.16-0.5,0.04-0.68c0.98-0.88,2.23-1.52,3.6-1.86c0.26-0.06,0.52,0.09,0.58,0.35
					c0.06,0.26-0.09,0.52-0.35,0.58c-1.21,0.3-2.34,0.88-3.19,1.64C123.57,62.03,123.45,62.07,123.34,62.07z M145.4,58.91
					c-0.01,0-0.01,0-0.02,0c-0.27-0.01-0.48-0.23-0.47-0.5c0.01-0.26,0.01-0.51,0.01-0.77c0-0.96-0.05-1.95-0.16-3.02
					c-0.03-0.27,0.17-0.5,0.43-0.53c0.27-0.03,0.5,0.17,0.53,0.43c0.11,1.11,0.17,2.13,0.17,3.12c0,0.27,0,0.53-0.01,0.8
					C145.87,58.71,145.66,58.91,145.4,58.91z M144.69,51.24c-0.23,0-0.43-0.16-0.47-0.4c-0.22-1.23-0.47-2.44-0.76-3.77
					c-0.05-0.26,0.11-0.52,0.37-0.57c0.26-0.05,0.52,0.11,0.57,0.37c0.28,1.34,0.53,2.55,0.76,3.8c0.05,0.26-0.13,0.51-0.39,0.56
					C144.74,51.24,144.72,51.24,144.69,51.24z" class="color212121 svgShape"></path><path fill="#ffcf3d" d="M153.21,43.86c0.82,2.15,0.73,4.43-0.09,6.41c-0.88,2.16-2.62,3.95-4.96,4.85
							c-2.34,0.89-4.84,0.71-6.93-0.32c-1.93-0.94-3.51-2.58-4.33-4.73c-1.71-4.5,0.55-9.54,5.05-11.25
							C146.46,37.11,151.5,39.36,153.21,43.86z" class="colorffcf3d svgShape"></path><path fill="#ffffff" d="M144.11,51.1c-0.28,0-0.56-0.05-0.84-0.16l-1.86-0.73c-0.57-0.22-0.85-0.86-0.62-1.43
					c0.22-0.57,0.86-0.85,1.43-0.62l1.86,0.73c0.04,0.01,0.09-0.01,0.11-0.05l2.39-6.1c0.22-0.57,0.86-0.85,1.43-0.62
					c0.57,0.22,0.85,0.86,0.62,1.43l-2.39,6.1c-0.22,0.57-0.65,1.02-1.21,1.26C144.73,51.04,144.42,51.1,144.11,51.1z" class="colorfff svgShape"></path></g></svg>