<svg xmlns="http://www.w3.org/2000/svg" viewBox="0 0 124 124" width="256" height="256"><path fill="#ffffff" d="M25.355 45.251H122v61.517H25.355z" class="colorfff svgShape"></path><path fill="#ffffff" d="M113.441 97.605H33.913V39.277h79.528z" class="colorfff svgShape"></path><path fill="#e9fff4" d="M33.913 39.277h29.976v58.328H33.913z" class="colore9faff svgShape"></path><path fill="#212529" d="M95.386 47.191H69.15a1 1 0 0 1 0-2h26.236a1 1 0 0 1 0 2zm12.599 0h-7.298a1 1 0 0 1 0-2h7.298a1 1 0 0 1 0 2z" class="color303053 svgShape"></path><ellipse cx="58.493" cy="46.191" fill="#212529" rx="2.651" ry="2.621" class="color303053 svgShape"></ellipse><ellipse cx="50.257" cy="46.191" fill="#5cfaa9" rx="2.651" ry="2.621" class="color4cbbe9 svgShape"></ellipse><ellipse cx="42.02" cy="46.191" fill="#31f28f" rx="2.651" ry="2.621" class="colorf28231 svgShape"></ellipse><path fill="#6df7b0" d="M40.93 60.928h18.632v17.071H40.93zM106.425 63.91H68.253a1 1 0 0 1 0-2h38.171a1 1 0 0 1 .001 2z" class="color6dc9f7 svgShape"></path><path fill="#212529" d="M87.25 77.018H68.253a1 1 0 0 1 0-2H87.25a1 1 0 0 1 0 2z" class="color303053 svgShape"></path><path fill="#5fffad" d="M106.424 90.091H68.253a1 1 0 0 1 0-2h38.171a1 1 0 0 1 0 2zm-46.861 0H40.93a1 1 0 0 1 0-2h18.632a1 1 0 0 1 .001 2z" class="colorffa35f svgShape"></path><path fill="#acffd4" d="M21.318 25.333C10.624 25.333 2 34.703 2 46.322v9.183h38.637v-9.183c0-11.619-8.625-20.989-19.319-20.989z" class="coloracebff svgShape"></path><ellipse cx="21.123" cy="13.166" fill="#ffffff" rx="12.413" ry="12.166" class="colorfff svgShape"></ellipse><path fill="#212529" d="M122 44.251h-7.559v-4.974a1 1 0 0 0-1-1H40.222c-2.33-6.391-7.354-11.314-13.545-13.152 4.628-2.076 7.859-6.646 7.859-11.959C34.537 5.906 28.52 0 21.123 0 13.727 0 7.71 5.906 7.71 13.167c0 5.368 3.297 9.979 8.003 12.024C7.228 27.831 1 36.301 1 46.322v9.183a1 1 0 0 0 1 1h22.355v50.263a1 1 0 0 0 1 1h29.238L50.036 122h-8.49a1 1 0 0 0 0 2h64.264a1 1 0 0 0 0-2h-8.483L92.9 107.768H122a1 1 0 0 0 1-1V45.251a1 1 0 0 0-1-1zm-9.559-3.974v11.546H41.637v-5.501c0-2.096-.278-4.123-.787-6.044h71.591zM9.71 13.167C9.71 7.009 14.83 2 21.123 2s11.414 5.009 11.414 11.167c0 6.157-5.12 11.166-11.414 11.166-6.293 0-11.413-5.01-11.413-11.166zM3 54.505v-8.183C3 35.3 11.218 26.333 21.318 26.333S39.637 35.3 39.637 46.322v8.183H3zM95.231 122H52.135l4.558-14.232h34.111L95.231 122zM121 105.768H26.355V56.505h6.559v41.101a1 1 0 0 0 1 1h79.528a1 1 0 0 0 1-1V76.06a1 1 0 0 0-2 0v20.545H34.914v-40.1h5.723a1 1 0 0 0 1-1v-1.682h70.805v15.641a1 1 0 0 0 2 0V46.251H121v59.517z" class="color303053 svgShape"></path></svg>