<svg xmlns="http://www.w3.org/2000/svg" enable-background="new 0 0 32 32" viewBox="0 0 32 32" width="256" height="256"><path fill="#ffffff" d="M3.13,20v-0.04C3.12,19.97,3.12,19.98,3.13,20L3.13,20z" class="colorfff svgShape"></path><path fill="#5cfaa9" d="M20.5,17.72v5.88l-0.63,0.33c-5.56,2.91-12.19,2.91-17.75-0.01l0,0c-0.38-0.2-0.62-0.59-0.62-1.02v-5.17
					c0-1.7,1.07-3.21,2.67-3.78l4.16-1.46C8.73,12.35,9,11.97,9,11.54V9.5h4v2.03c0,0.42,0.26,0.8,0.66,0.94l4.18,1.48
					C19.43,14.51,20.5,16.02,20.5,17.72z" class="color55fb9b svgShape"></path><path fill="#43e893" d="M19.87,23.93l0.63-0.33v-5.88c0-1.7-1.07-3.21-2.66-3.77l-4.18-1.48c-0.04-0.02-0.08-0.04-0.12-0.07
					l-0.13,0.01H8.58l0.11,0.34c3.21,0,8.81,1,8.81,5.79v6.43C18.3,24.68,19.1,24.33,19.87,23.93z" class="color43e886 svgShape"></path><path fill="#ffffff" d="M3.12,19v-0.04C3.12,18.97,3.12,18.98,3.12,19L3.12,19z" class="colorfff svgShape"></path><path fill="#9beac1" d="M13.29,12.21C13.11,12.03,13,11.79,13,11.53V9.5H9v2.05c0,0.26-0.11,0.49-0.28,0.67
					c0,0.26,0.71,1.78,2.27,1.78C12.61,14,13.33,12.44,13.29,12.21z" class="coloreac89b svgShape"></path><path fill="#b2ffd8" d="M14.5,5v1c0,3.98-2.31,5-3.5,5s-3.5-1-3.5-5V5c0-1.93,1.57-3.5,3.5-3.5l0,0C12.93,1.5,14.5,3.07,14.5,5z" class="colorffe0b2 svgShape"></path><path fill="#ffffff" d="M15.13 23v-.04C15.12 22.97 15.12 22.98 15.13 23L15.13 23zM15.12 22v-.04C15.12 21.97 15.12 21.98 15.12 22L15.12 22z" class="colorfff svgShape"></path><circle cx="20" cy="20" r="6.5" fill="#ffffff" class="colorfff svgShape"></circle><polygon fill="#76ffb9" points="20 16.85 20.96 18.68 23 19.03 21.55 20.51 21.85 22.55 20 21.63 18.15 22.55 18.45 20.51 17 19.03 19.04 18.68" class="colorfff176 svgShape"></polygon><path fill="#a6ffd1" d="M20.81,18.4L20,16.85l-0.96,1.83L17,19.03l0.22,0.23c0.4,0.28,0.89,0.44,1.41,0.44
					C19.58,19.7,20.39,19.17,20.81,18.4z" class="colorfffda6 svgShape"></path><path fill="#80ffbe" d="M30.15,30.15L30.15,30.15c-0.41,0.41-1.09,0.41-1.5,0l-2.4-2.4c-0.41-0.41-0.41-1.09,0-1.5l0,0
					c0.41-0.41,1.09-0.41,1.5,0l2.4,2.4C30.56,29.06,30.56,29.74,30.15,30.15z" class="colorff8a80 svgShape"></path><g><path fill="#212529" d="M29 20.5c-.28 0-.5-.22-.5-.5 0-3.97-2.7-7.37-6.56-8.28-.27-.06-.44-.33-.37-.6.06-.27.33-.44.6-.37 4.32 1.01 7.33 4.81 7.33 9.25C29.5 20.28 29.28 20.5 29 20.5zM20.11 11.5C20.11 11.5 20.1 11.5 20.11 11.5l-.11 0c-.28 0-.5-.22-.5-.5s.22-.5.5-.5l.12 0c.28 0 .5.23.49.51C20.6 11.28 20.38 11.5 20.11 11.5zM10.99 14.5c-1.66 0-2.52-1.29-2.75-1.98-.09-.26.06-.54.32-.63.26-.09.54.06.63.32.02.06.46 1.29 1.8 1.29 1.35 0 1.82-1.27 1.84-1.33.09-.26.38-.39.64-.3s.4.38.31.63C13.75 12.59 13.06 14.5 10.99 14.5zM4.5 25.4c-.28 0-.5-.22-.5-.5v-5.4C4 19.22 4.22 19 4.5 19S5 19.22 5 19.5v5.4C5 25.18 4.78 25.4 4.5 25.4z" class="color455a64 svgShape"></path><path fill="#212529" d="M15.37,13.57c-0.06,0-0.11-0.01-0.17-0.03l-1.7-0.6c-0.6-0.21-1-0.78-1-1.41V10.3c0-0.28,0.22-0.5,0.5-0.5
					s0.5,0.22,0.5,0.5v1.23c0,0.21,0.13,0.4,0.33,0.47l1.7,0.6c0.26,0.09,0.4,0.38,0.3,0.64C15.77,13.44,15.57,13.57,15.37,13.57z" class="color455a64 svgShape"></path><path fill="#212529" d="M11 11.5c-.28 0-.5-.22-.5-.5s.22-.5.5-.5c1.04 0 3-.94 3-4.5V5c0-1.65-1.35-3-3-3S8 3.35 8 5v1c0 1.72.46 3.04 1.33 3.81.21.18.23.5.04.71-.18.21-.5.23-.71.04C7.91 9.89 7 8.55 7 6V5c0-2.21 1.79-4 4-4s4 1.79 4 4v1C15 10.35 12.38 11.5 11 11.5zM21.85 23.05c-.08 0-.15-.02-.22-.05L20 22.19 18.37 23c-.17.08-.37.07-.52-.04-.15-.11-.23-.29-.2-.48l.26-1.8-1.27-1.3c-.13-.13-.18-.33-.12-.5.06-.18.21-.31.39-.34l1.8-.31.85-1.61c.17-.33.71-.33.89 0l.85 1.61 1.8.31c.18.03.33.16.39.34.06.18.01.37-.12.5l-1.27 1.3.26 1.8c.03.18-.05.37-.2.48C22.06 23.02 21.96 23.05 21.85 23.05zM20 21.13c.08 0 .15.02.22.05l1 .49-.16-1.1c-.02-.15.03-.31.14-.42l.78-.8-1.1-.19c-.15-.03-.29-.12-.36-.26L20 17.92l-.52.99c-.07.14-.21.23-.36.26l-1.1.19.78.8c.11.11.16.27.14.42l-.16 1.1 1-.49C19.85 21.15 19.92 21.13 20 21.13z" class="color455a64 svgShape"></path><path fill="#212529" d="M11.03,26.61c-3.17,0-6.33-0.77-9.15-2.24C1.34,24.08,1,23.52,1,22.9v-5.17c0-1.9,1.21-3.61,3-4.25
					l4.16-1.46c0.2-0.07,0.34-0.26,0.34-0.47V10.2c0-0.28,0.22-0.5,0.5-0.5s0.5,0.22,0.5,0.5v1.34c0,0.64-0.4,1.21-1,1.42
					l-4.16,1.46C2.94,14.92,2,16.25,2,17.73v5.17c0,0.24,0.13,0.47,0.35,0.58c3.52,1.85,7.62,2.52,11.55,1.9
					c0.27-0.04,0.53,0.14,0.57,0.42c0.04,0.27-0.14,0.53-0.42,0.57C13.05,26.53,12.04,26.61,11.03,26.61z" class="color455a64 svgShape"></path><path fill="#212529" d="M20 27c-3.86 0-7-3.14-7-7s3.14-7 7-7 7 3.14 7 7S23.86 27 20 27zM20 14c-3.31 0-6 2.69-6 6s2.69 6 6 6 6-2.69 6-6S23.31 14 20 14zM29.4 30.96c-.4 0-.8-.15-1.1-.46l-2.4-2.4c-.61-.61-.61-1.6 0-2.21s1.6-.61 2.21 0l2.4 2.4c.61.61.61 1.6 0 2.21C30.2 30.81 29.8 30.96 29.4 30.96zM27 26.44c-.15 0-.29.06-.4.16s-.16.25-.16.4.06.29.16.4l2.4 2.4c.22.22.57.22.79 0s.22-.57 0-.79l-2.4-2.4C27.29 26.5 27.15 26.44 27 26.44z" class="color455a64 svgShape"></path><path fill="#212529" d="M26.25,26.75c-0.13,0-0.26-0.05-0.35-0.15l-1.47-1.47c-0.2-0.2-0.2-0.51,0-0.71s0.51-0.2,0.71,0l1.47,1.47
					c0.2,0.2,0.2,0.51,0,0.71C26.51,26.7,26.38,26.75,26.25,26.75z" class="color455a64 svgShape"></path></g></svg>