<svg xmlns="http://www.w3.org/2000/svg" viewBox="0 0 68 68" width="256" height="256"><path fill="#5cfaa9" d="M43.613 51.122c.9 9.23-25.64 16.87-31.6 10.78h-.01a3.95 3.95 0 0 1-1.13-2.22c-.16-11.77-.04-21.13 2.96-23.66 1.73-1.59 3.65-3.14 5.67-4.55.29 1.37 1.18 2.54 2.36 3.3 1.89 1.23 4.13 2.02 6.6 2.51l1.54-3.29.11-.24c.39-.74.81-1.69 1.22-2.75.05-.16.11-.32.17-.48.03.01.05.02.08.02-.06.16-.12.32-.17.48-.35.98-.69 1.83-.89 2.34-.04.11-.08.21-.11.28l3.08 1.64c.43-1.3.65-2.64.66-4.01 0-.17 0-.34-.01-.52.17-.01.34-.03.49-.07 1-.21 1.65-.76 1.94-1.67.2-.64.22-1.35.24-2.04l.01-.33c.02-.71.08-1.42.15-2.11.16 0 .33.01.5.01.21.01.42.02.62.04.12 0 .23.01.35.02.24.16.47.35.68.56 3.88 3.77 4.63 14.98 4.49 25.96z" class="color007aff svgShape"></path><path d="M43.613 51.122c.9 9.23-25.64 16.87-31.6 10.78 1.51.78 3.61 1.19 6.18 1.19 1.2 0 2.5-.09 3.9-.27 10.15-1.31 21.04-6.96 20.46-12.95.01-1.09.02-2.15.01-3.18-.06-10.81-1.18-17.92-3.44-21.53-.47-.75-.99-1.34-1.55-1.78.07-.76.11-1.53.08-2.3-.02-.52-.07-1.05-.12-1.56-.07-.7-.13-1.42-.13-2.12.01-.55.06-1.12.12-1.64l.1-1c.191-1.907.038-3.442-.465-4.656a9.25 9.25 0 0 0 1.496-1.323.69.69 0 0 0 .08-.108c0-.003.003-.004.004-.007.054-.089.087-.185.111-.282.004-.015.014-.027.016-.042a1.04 1.04 0 0 0 .011-.35V7.99c-.006-.047-.029-.088-.041-.133-.019-.065-.03-.132-.061-.193-.036-.072-.09-.131-.142-.193-.023-.027-.037-.06-.064-.086l-.005-.004c-.002-.001-.002-.004-.003-.005-.002-.001-.004 0-.006-.002a1.052 1.052 0 0 0-.447-.256c-1.14-.316-2.404-.89-3.757-1.708-.022-.012-.045-.028-.066-.04a33.456 33.456 0 0 1-1.444-.926l-.042-.028a20.449 20.449 0 0 1-.814-.564 9.2 9.2 0 0 0-2.432-1.268c-5.66-1.874-11.01.044-12.722 4.547-1.727 4.016-1.912 7.338-.624 11.093.647 2.48 2.301 5.849 4.253 7.812.042.045.081.092.124.135l-.21.97c-.187.193-.804.91-1.09 2.047a56.224 56.224 0 0 0-6.92 5.383c-2.93 2.48-3.19 11.01-3.07 22.06-1.78 3-1.41 5.79 1.49 7.46 5.13 2.96 17.2 3.01 25.75-1.96 7.19-4.18 9.58-10.58 7.1-14.26 0 1.08-.01 2.17-.02 3.25zm-6.48-36.41-.11.99c-.06.54-.11 1.12-.12 1.69 0 .73.06 1.47.13 2.17.05.51.1 1.03.12 1.54.02.66 0 1.33-.06 2 0 .17-.02.33-.03.5-.02.26-.05.52-.07.77-.01.05-.01.1-.02.16-.07.69-.13 1.4-.15 2.11l-.01.33c-.02.69-.04 1.4-.24 2.04-.29.91-.94 1.46-1.94 1.67-.15.04-.32.06-.49.07-.67.08-1.46.01-2.39-.18-.05-.01-.11-.02-.17-.03-.03 0-.05-.01-.08-.02-.13-.02-.27-.06-.41-.09-.37-.09-.77-.2-1.18-.33-2.2-.68-4.35-1.55-6.4-2.59-.612-.302-1.276-.655-1.88-1.105l.548-2.078c.088-.325.039-.665-.137-.955l-2.195-3.668c-.222-.368-.282-.798-.168-1.21s.383-.752.766-.957c.223-.124.479-.19.74-.19.638 0 1.221.403 1.45 1.002l.663 1.737c.16.402.576.629 1.02.564a.926.926 0 0 0 .755-.908c0-.06-.01-.12-.028-.21-.612-2.443-.107-4.73 1.462-6.619.617-.03 1.225-.068 1.829-.119.036-.007.078-.016.134-.017.616-.05 1.212-.122 1.77-.212 2.692-.398 4.825-1.119 6.487-2.184.443 1.12.578 2.547.404 4.329zm-3.64 20.569-3.053-1.633c.377-.742.767-1.628 1.133-2.596.63.14 1.33.24 2.02.24.19 0 .37-.01.56-.02a13 13 0 0 1-.66 4.009zm-12.399-8.666c.034.027.066.064.1.09.017.014.04.012.06.02.656.497 1.362.899 2.029 1.237 2.08 1.05 4.26 1.93 6.48 2.61.29.09.69.22 1.16.33-.33.95-.66 1.78-.86 2.27l-.117.294c-5.163-.953-8.135-2.98-9.093-6.204l.15-.71c.029.024.062.04.091.063zm-.721 1.337c.04-.07.08-.13.12-.18.12.33.25.65.41.96 1.17 2.27 3.5 3.86 7.05 4.81.57.14 1.16.28 1.79.4l-.028.065-.064.136-1.338 2.859c-2.55-.53-4.62-1.33-6.32-2.44-1.18-.77-2.01-1.94-2.26-3.22-.33-1.6.22-2.78.64-3.39zm-7.68 7a54.926 54.926 0 0 1 6.471-5.084c-.049.473-.039.996.079 1.574.28 1.41 1.19 2.7 2.48 3.54 1.789 1.162 3.955 1.988 6.642 2.538.727.548 1.528.901 2.347 1.033 1.05.358 2.118 6.07 1.395 15.866a.244.244 0 0 0 .05.169l1.484 1.963c.046.063.12.1.199.1.008 0 .016 0 .025-.002a.253.253 0 0 0 .2-.14l1.279-2.67a.26.26 0 0 0 .024-.11c-.07-5.557-.968-10.924-2.669-15.955.567-.572.984-1.3 1.182-2.069v-.007c.504-1.463.762-2.975.772-4.506 1.07-.2 1.99-.77 2.39-2.03.23-.71.25-1.45.27-2.17l.01-.34c.02-.7.08-1.41.15-2.11 0-.04.01-.09.01-.13.01-.14.03-.28.04-.43.2.18.39.38.57.6 2.58 3.09 3.89 10.24 3.97 21.73.01 1.15.01 2.34-.01 3.58.56 5.73-10.11 11.15-20.02 12.43-5.1.66-8.88.09-10.82-1.53-.76-.64-1.24-1.44-1.4-2.39-.01-.85-.03-1.7-.04-2.53-.09-10.24.22-18.64 2.92-20.92zm51.84-25.446c-.261-2.477-1.323-4.372-2.992-5.345-.002 0-.002-.003-.004-.005l-.017-.01-2.657-1.542c-1.698-.99-3.916-.957-6.244.087-.36.158-.747.355-1.184.603-5.63 3.262-10.19 11.167-10.17 17.623.01 3.171 1.097 5.544 3.062 6.682l1.515.883-.928 4.254c-.06.21.004.408.165.507l2.674 1.556c.04.023.083.034.126.034.004 0 .007-.003.01-.003.018.003.031.016.048.016a.474.474 0 0 0 .234-.067.712.712 0 0 0 .212-.197l3.499-4.937a.392.392 0 0 1 .125-.118c.788-.237 1.6-.594 2.41-1.062 6.083-3.513 10.81-12.371 10.116-18.96zm-6.149 7.413.614.605c.047.047.04.167-.024.286l-.788 1.377a.369.369 0 0 1-.136.136.127.127 0 0 1-.103.024l-.852-.207c-.032-.008-.064 0-.104.024a.246.246 0 0 0-.095.087 9.794 9.794 0 0 1-1.441 1.529.404.404 0 0 0-.16.278c-.04.303-.11.924-.15 1.242a.383.383 0 0 1-.184.279l-1.13.66c-.088.056-.167.024-.183-.071l-.168-1.075c-.015-.08-.071-.111-.143-.087a3.285 3.285 0 0 1-1.464.143c-.024-.008-.056 0-.088.024a.312.312 0 0 0-.112.095l-.828 1.179a.274.274 0 0 1-.111.103.127.127 0 0 1-.128.016l-.804-.454c-.063-.032-.071-.143-.023-.255l.605-1.321c.04-.096.04-.191 0-.239-.28-.342-.486-.788-.605-1.33-.024-.071-.08-.103-.152-.071l-1.019.406c-.087.04-.151-.016-.151-.112l-.016-1.305c0-.104.064-.231.16-.295l1.018-.788a.42.42 0 0 0 .151-.247 9.489 9.489 0 0 1 .598-2.03c.04-.087.04-.183 0-.223l-.613-.605c-.056-.055-.048-.175.015-.286l.789-1.385a.546.546 0 0 1 .135-.136c.04-.024.072-.032.104-.024l.851.207c.032.008.064 0 .104-.016a.366.366 0 0 0 .096-.095 9.748 9.748 0 0 1 1.448-1.52.464.464 0 0 0 .152-.28c.04-.302.111-.93.15-1.241a.445.445 0 0 1 .184-.287l1.13-.66c.088-.048.168-.017.183.071l.176 1.083c.008.08.063.111.135.087a3.283 3.283 0 0 1 1.465-.143.212.212 0 0 0 .095-.024.441.441 0 0 0 .112-.103l.82-1.179a.44.44 0 0 1 .111-.103c.048-.024.096-.032.128-.016l.812.454c.063.04.071.151.016.263l-.605 1.321c-.04.096-.04.183 0 .239.278.342.485.788.605 1.321.023.072.08.104.15.08l1.02-.406c.088-.04.151.008.151.111l.016 1.298c0 .104-.064.23-.151.303l-1.027.788a.421.421 0 0 0-.151.247 9.265 9.265 0 0 1-.598 2.022c-.04.095-.04.19.008.23zM44.578 27.166c-1.805-1.045-2.805-3.265-2.813-6.25-.02-6.297 4.43-14.008 9.919-17.187.42-.24.79-.43 1.137-.58 1.134-.51 2.235-.765 3.25-.765.934 0 1.795.217 2.54.651l.739.429c-.062-.006-.127 0-.19-.004a6.423 6.423 0 0 0-.664-.014c-.11.005-.222.016-.334.026a7.397 7.397 0 0 0-.954.14c-.208.044-.418.1-.63.162-.11.032-.22.06-.33.097-.294.098-.59.212-.889.343-.027.012-.053.02-.08.031-.343.154-.707.34-1.181.602-5.63 3.252-10.19 11.157-10.17 17.623 0 .103.015.195.018.296.01.398.027.79.072 1.16.025.214.075.408.112.612.044.24.08.486.138.711.057.218.135.414.206.618.066.19.124.387.202.565.081.188.181.355.276.53.093.172.183.348.288.507.027.039.045.087.071.125l-.733-.428zm1.718 1.58.694.405a.24.24 0 0 0 .1.028c.454.251.937.458 1.474.57l-.956 4.387-2.209-1.284.897-4.105z" fill="#212529" class="color000 svgShape"></path><path d="M54.356 13.113c-1.449.844-2.603 2.866-2.595 4.522.016 1.64 1.186 2.3 2.62 1.473 1.456-.852 2.618-2.874 2.602-4.522-.016-1.648-1.186-2.309-2.627-1.473zM6.577 4.88c-.938 0-1.702.764-1.702 1.702 0 .939.764 1.702 1.702 1.702a1.71 1.71 0 0 0 1.714-1.702A1.71 1.71 0 0 0 6.577 4.88zm53.72 29.29c-.938 0-1.702.763-1.702 1.701s.764 1.702 1.702 1.702c.945 0 1.714-.764 1.714-1.702s-.769-1.702-1.714-1.702zM12.675 25.38c.585 0 1.061-.472 1.061-1.053a1.058 1.058 0 0 0-2.115 0c0 .581.473 1.053 1.054 1.053zm40.178 21.852a.308.308 0 0 0-.435 0l-1.315 1.315a.308.308 0 0 0 0 .435l1.32 1.322c.06.058.137.09.219.09.082 0 .16-.032.218-.09l1.315-1.315a.308.308 0 0 0 0-.436l-1.322-1.321zm6.795 12.342a1.055 1.055 0 0 0 0 2.107c.586 0 1.062-.472 1.062-1.054 0-.58-.476-1.053-1.062-1.053zM5.051 38.43a1.44 1.44 0 0 0-1.44 1.44 1.446 1.446 0 0 0 2.89 0c0-.795-.65-1.44-1.45-1.44zm-.11 24.2a.258.258 0 0 0-.364.001l-1.102 1.102c-.101.101-.101.265 0 .365l1.106 1.108a.261.261 0 0 0 .366 0l1.103-1.102c.1-.1.1-.265 0-.366l-1.108-1.107z" fill="#212529" class="color000 svgShape"></path></svg>