<svg xmlns="http://www.w3.org/2000/svg" viewBox="0 0 64 64" width="256" height="256"><path d="M52.19,45.82c-.88-.36-1.73-.7-2.48-1a12.32,12.32,0,0,1-2.62-1.55H55.7c2.19,0,3.14-1,3.55-1.75.67-1.31.32-3.2-.93-4.91-1.72-2.38-5.12-9-5.21-12.75-.13-4.91-1.52-8.4-4.25-10.68S42,10,36.72,10.65A7.77,7.77,0,0,0,35.09,8.3C32.95,6.25,29.89,5.21,26,5.21s-6.95,1-9.1,3.1a8.17,8.17,0,0,0-2.38,5.83v5.73a.68.68,0,0,1-.18.37,4.54,4.54,0,0,0-.75,1.52,1,1,0,0,0,0,.25v4.93a3.39,3.39,0,0,0,1.37,2.37.52.52,0,0,1,.13.2,19.51,19.51,0,0,0,3.4,6.92V39.7A3.24,3.24,0,0,1,16.72,42c-1.46.91-9.39,5.1-9.47,5.15l-.17.11C2.75,50.82,3,57.55,3,57.83a1,1,0,0,0,1,1H60a1,1,0,0,0,1-1V53.16C61,49.36,56.3,47.48,52.19,45.82Zm-43.91,3c.95-.5,8.06-4.26,9.5-5.17a5.13,5.13,0,0,0,2.68-4V36.06a1,1,0,0,0-.26-.67A17.18,17.18,0,0,1,17,28.94a2.52,2.52,0,0,0-.69-1.11c-.65-.59-.71-.89-.72-.89V22.16a2.46,2.46,0,0,1,.35-.69,2.61,2.61,0,0,0,.61-1.6V14.14a6.15,6.15,0,0,1,1.77-4.4C20.05,8.06,22.65,7.21,26,7.21s5.95.85,7.7,2.53a6.16,6.16,0,0,1,1.78,4.4v5.73a2.62,2.62,0,0,0,.62,1.62,2.45,2.45,0,0,1,.34.68v4.77s-.06.31-.72.91A2.55,2.55,0,0,0,35,29a17.1,17.1,0,0,1-3.21,6.41,1,1,0,0,0-.26.67V39.7a5.12,5.12,0,0,0,2.68,4c1.45.91,8.56,4.67,9.5,5.17C46.35,51.09,46.9,55,47,56.79H5C5.1,55,5.64,51.1,8.28,48.85ZM59,56.79H49c-.1-2.08-.72-6.76-4.09-9.54l-.17-.11c-.08,0-8-4.23-9.48-5.15a3.24,3.24,0,0,1-1.73-2.28V36.42a19.42,19.42,0,0,0,3.39-6.88.54.54,0,0,1,.14-.23,3.39,3.39,0,0,0,1.36-2.37V22a1,1,0,0,0,0-.25,4.53,4.53,0,0,0-.74-1.51.7.7,0,0,1-.19-.38V14.14a8.55,8.55,0,0,0-.15-1.55c4.5-.52,8,.17,10.24,2.08s3.42,4.9,3.53,9.19c.1,4.53,4,11.66,5.59,13.87.76,1.05,1.08,2.22.77,2.83s-1.11.66-1.77.66H45a1,1,0,0,0-1,1.2c.07.36.65,2.26,4.82,4.17.77.35,1.65.71,2.56,1.08C54.79,49,59,50.71,59,53.16Z" data-name="Layer 2" fill="#ffffff" class="color000 svgShape"></path></svg>