<svg xmlns="http://www.w3.org/2000/svg" fill-rule="evenodd" clip-rule="evenodd" image-rendering="optimizeQuality" shape-rendering="geometricPrecision" text-rendering="geometricPrecision" version="1.0" viewBox="0 0 39.528 42.058" width="256" height="256"><path fill-rule="nonzero" d="M10.013 22.012c0,0.222 -0.183,0.403 -0.41,0.403 -0.227,0 -0.411,-0.181 -0.411,-0.403l0 -18.789c0,-0.888 0.369,-1.694 0.964,-2.278 0.594,-0.583 1.416,-0.945 2.322,-0.945l17.27 0c0.301,0 0.584,0.054 0.848,0.161l0.022 0.01c0.256,0.108 0.487,0.263 0.693,0.464l7.569 7.425c0.008,0.008 0.016,0.016 0.023,0.024 0.202,0.204 0.355,0.43 0.46,0.678l0.001 -0.001c0.109,0.259 0.164,0.537 0.164,0.832l0 25.393c0,0.888 -0.369,1.694 -0.964,2.278 -0.595,0.583 -1.416,0.945 -2.322,0.945l-17.17 0c-0.227,0 -0.411,-0.18 -0.411,-0.403 0,-0.222 0.184,-0.403 0.411,-0.403l17.17 0c0.679,0 1.295,-0.271 1.742,-0.709 0.446,-0.438 0.723,-1.042 0.723,-1.708l0 -25.393c0,-0.191 -0.034,-0.366 -0.1,-0.523l0 0 0 -0.002c-0.064,-0.151 -0.16,-0.291 -0.287,-0.42l-0.02 -0.018 -7.57 -7.425c-0.133,-0.131 -0.277,-0.229 -0.43,-0.294l-0.019 -0.007c-0.161,-0.065 -0.339,-0.098 -0.533,-0.098l-17.27 0c-0.679,0 -1.295,0.271 -1.742,0.709 -0.446,0.438 -0.723,1.042 -0.723,1.708l0 18.789zm10.04 13.843c-0.227,0 -0.411,-0.181 -0.411,-0.403 0,-0.223 0.184,-0.403 0.411,-0.403l16.189 0c0.017,0 0.033,-0.008 0.045,-0.019l0.008 -0.008c0.007,-0.01 0.011,-0.022 0.011,-0.036l0 -24.628 -4.398 0c-0.81,0 -1.545,-0.323 -2.078,-0.846 -0.532,-0.522 -0.863,-1.244 -0.863,-2.038l0 -4.314 -16.489 0c-0.017,0 -0.033,0.008 -0.045,0.019 -0.012,0.012 -0.019,0.028 -0.019,0.044l0 19.051c0,0.223 -0.184,0.403 -0.411,0.403 -0.227,0 -0.411,-0.18 -0.411,-0.403l0 -19.051c0,-0.239 0.1,-0.456 0.26,-0.613 0.161,-0.158 0.382,-0.256 0.626,-0.256l16.9 0c0.227,0 0.411,0.181 0.411,0.403l0 4.717c0,0.572 0.238,1.092 0.622,1.468 0.384,0.377 0.914,0.611 1.497,0.611l4.809 0c0.227,0 0.411,0.18 0.411,0.403l0 25.03c0,0.223 -0.088,0.427 -0.232,0.582 -0.009,0.011 -0.018,0.021 -0.028,0.031 -0.161,0.158 -0.382,0.256 -0.626,0.256l-16.189 0z" fill="#212529" class="color000 svgShape"></path><path fill="#5cfaa9" fill-rule="nonzero" d="M32.2 21.066c.226 0 .41.181.41.403 0 .223-.184.403-.41.403l-15.68 0c-.226 0-.41-.18-.41-.403 0-.222.184-.403.41-.403l15.68 0zM16.375 14.227c-.226 0-.41-.18-.41-.403 0-.222.184-.402.41-.402l10.569 0c.227 0 .411.18.411.402 0 .223-.184.403-.411.403l-10.569 0zM32.2 17.244c.226 0 .41.18.41.403 0 .222-.184.403-.41.403l-15.68 0c-.226 0-.41-.181-.41-.403 0-.223.184-.403.41-.403l15.68 0zM32.2 24.888c.226 0 .41.181.41.403 0 .223-.184.403-.41.403l-14.771 0c-.226 0-.41-.18-.41-.403 0-.222.184-.403.41-.403l14.771 0zM32.2 28.651c.226 0 .41.18.41.403 0 .222-.184.402-.41.402l-12.395 0c-.227 0-.411-.18-.411-.402 0-.223.184-.403.411-.403l12.395 0zM9.603 23.22c2.651 0 5.052 1.055 6.79 2.759 1.738 1.705 2.812 4.059 2.812 6.66 0 2.601-1.074 4.956-2.812 6.66-1.738 1.704-4.139 2.759-6.79 2.759-2.652 0-5.053-1.055-6.79-2.759-1.738-1.704-2.813-4.059-2.813-6.66 0-2.601 1.075-4.956 2.813-6.66 1.737-1.704 4.138-2.759 6.79-2.759zm6.209 3.329c-1.589-1.559-3.784-2.523-6.209-2.523-2.425 0-4.621.964-6.21 2.523-1.589 1.558-2.572 3.712-2.572 6.09 0 2.378.983 4.532 2.572 6.09 1.589 1.559 3.785 2.523 6.21 2.523 2.425 0 4.62-.964 6.209-2.523 1.589-1.558 2.572-3.712 2.572-6.09 0-2.378-.983-4.532-2.572-6.09zm-2.39.492c.54 0 1.029.215 1.384.562.354.348.573.828.573 1.358 0 .53-.219 1.01-.573 1.357-.355.348-.844.563-1.384.563-.541 0-1.03-.215-1.384-.563-.355-.347-.574-.827-.574-1.357 0-.53.219-1.01.574-1.358.354-.347.843-.562 1.384-.562zm.803 1.132c-.206-.201-.49-.326-.803-.326-.314 0-.598.125-.804.326-.205.202-.332.48-.332.788 0 .308.127.586.332.788.206.201.49.326.804.326.313 0 .597-.125.803-.326.205-.202.332-.48.332-.788 0-.308-.127-.586-.332-.788zm-8.441-1.132c.54 0 1.03.215 1.384.562.354.348.573.828.573 1.358 0 .53-.219 1.01-.573 1.357-.354.348-.844.563-1.384.563-.54 0-1.03-.215-1.384-.563-.354-.347-.574-.827-.574-1.357 0-.53.22-1.01.574-1.358.354-.347.844-.562 1.384-.562zm.803 1.132c-.205-.201-.489-.326-.803-.326-.314 0-.598.125-.803.326-.206.202-.333.48-.333.788 0 .308.127.586.333.788.205.201.489.326.803.326.314 0 .598-.125.803-.326.206-.202.333-.48.333-.788 0-.308-.127-.586-.333-.788zm8.543 9.412c.002.222-.18.403-.405.405-.226.002-.411-.177-.413-.398-.013-1.264-.545-2.408-1.397-3.235-.85-.825-2.02-1.334-3.312-1.334-1.293 0-2.463.509-3.312 1.334-.853.827-1.385 1.971-1.398 3.235-.002.221-.186.4-.412.398-.226-.002-.408-.183-.406-.405.015-1.486.639-2.828 1.638-3.798 1-.971 2.374-1.57 3.89-1.57 1.515 0 2.889.599 3.889 1.57.999.97 1.623 2.312 1.638 3.798z" class="colorff0303 svgShape"></path></svg>