<svg xmlns="http://www.w3.org/2000/svg" viewBox="0 0 48 48" width="256" height="256"><path fill="#7d9589" d="M16.16 31.09c-8.1 0-14.66-2.14-14.66-4.78v9.41c0 2.64 6.56 4.78 14.66 4.78 6.56 0 12.12-1.41 13.98-3.35l.67-.61V26.31c.01 2.64-6.56 4.78-14.65 4.78z" class="color7d8995 svgShape"></path><path d="M16.16 41.5C8.38 41.5.5 39.51.5 35.72v-9.41c0-.55.45-1 1-1s1 .45 1 1c0 1.54 5.32 3.78 13.66 3.78s13.66-2.24 13.66-3.78c0-.55.45-1 1-1s1 .45 1 1v10.23a1 1 0 0 1-.33.74l-.67.61c-2.1 2.18-7.87 3.61-14.66 3.61zM2.5 29.29v6.43c0 1.54 5.32 3.78 13.66 3.78 6.79 0 11.81-1.53 13.26-3.04l.39-.36v-6.81c-5.66 3.69-21.65 3.69-27.31 0z" fill="#000000" class="color000 svgShape"></path><path d="M4.26 32.38h1.71v2H4.26zM8.36 33.58h1.71v2H8.36z" fill="#000000" class="color000 svgShape"></path><path fill="#7d9589" d="M1.5 6.28v9.61c0 2.64 6.56 4.78 14.66 4.78s14.66-2.14 14.66-4.78V6.28H1.5z" class="color7d8995 svgShape"></path><path d="M16.16 21.68C8.38 21.68.5 19.69.5 15.9V6.28c0-.55.45-1 1-1h29.32c.55 0 1 .45 1 1v9.61c0 3.8-7.88 5.79-15.66 5.79zM2.5 7.28v8.61c0 1.54 5.32 3.78 13.66 3.78s13.66-2.24 13.66-3.78V7.28H2.5z" fill="#000000" class="color000 svgShape"></path><path d="M4.26 13.28h1.71v2H4.26zM8.36 14.48h1.71v2H8.36z" fill="#000000" class="color000 svgShape"></path><path fill="#5cfaa9" d="M16.16 20.68c-8.1 0-14.66-2.14-14.66-4.78v10.41c0 2.64 6.56 4.78 14.66 4.78 6.56 0 12.12-1.41 13.98-3.35l.67-.61V15.89c.01 2.65-6.56 4.79-14.65 4.79z" class="colorbdc3c6 svgShape"></path><path d="M16.16 32.09C8.38 32.09.5 30.1.5 26.31V15.89c0-.55.45-1 1-1s1 .45 1 1c0 1.54 5.32 3.78 13.66 3.78s13.66-2.24 13.66-3.78c0-.55.45-1 1-1s1 .45 1 1v11.23a1 1 0 0 1-.33.74l-.67.61c-2.1 2.18-7.87 3.62-14.66 3.62zM2.5 18.88v7.43c0 1.54 5.32 3.78 13.66 3.78 6.79 0 11.81-1.53 13.26-3.04l.39-.36v-7.81c-5.66 3.69-21.65 3.69-27.31 0z" fill="#000000" class="color000 svgShape"></path><path d="M4.26 22.97h1.71v2H4.26zM8.36 24.17h1.71v2H8.36z" fill="#000000" class="color000 svgShape"></path><ellipse cx="16.16" cy="6.28" fill="#212529" rx="14.66" ry="4.78" class="color424852 svgShape"></ellipse><path d="M16.16 12.07C8.38 12.07.5 10.08.5 6.29.5 2.49 8.38.51 16.16.51S31.82 2.5 31.82 6.29s-7.88 5.78-15.66 5.78zm0-9.57C7.82 2.5 2.5 4.74 2.5 6.28s5.32 3.78 13.66 3.78 13.66-2.24 13.66-3.78S24.49 2.5 16.16 2.5z" fill="#000000" class="color000 svgShape"></path><path fill="#56fda7" d="M46.5 34.95c0 6.38-5.17 11.55-11.55 11.55-6.38 0-11.56-5.17-11.56-11.55 0-4.36 2.41-8.15 5.97-10.12 1.65-.92 3.55-1.44 5.58-1.44 2.02 0 3.92.52 5.58 1.44 3.57 1.97 5.98 5.76 5.98 10.12z" class="colorfdcd56 svgShape"></path><path d="M34.95 47.5c-6.92 0-12.56-5.63-12.56-12.55 0-4.57 2.49-8.79 6.49-11 3.66-2.04 8.43-2.04 12.13 0 4 2.22 6.48 6.43 6.48 11 .01 6.92-5.62 12.55-12.54 12.55zm0-23.11c-1.79 0-3.56.45-5.1 1.31a10.572 10.572 0 0 0-5.46 9.25c0 5.82 4.74 10.55 10.56 10.55S45.5 40.77 45.5 34.95c0-3.84-2.09-7.39-5.45-9.25-1.55-.85-3.31-1.31-5.1-1.31z" fill="#000000" class="color000 svgShape"></path><path d="M42.8 25.71h-2v-7.79c0-3.22-2.62-5.85-5.85-5.85s-5.85 2.62-5.85 5.85v7.79h-2v-7.79c0-4.33 3.52-7.85 7.85-7.85s7.85 3.52 7.85 7.85v7.79z" fill="#000000" class="color000 svgShape"></path><path fill="#f4f8f6" d="M37.7 33.07c0-1.52-1.23-2.75-2.75-2.75s-2.75 1.23-2.75 2.75c0 .89.43 1.68 1.09 2.18l-.4 4.33h4.13l-.4-4.33c.65-.5 1.08-1.29 1.08-2.18z" class="colorf4f6f8 svgShape"></path><path d="M37.01 40.58h-4.13a1 1 0 0 1-.74-.33c-.19-.21-.28-.49-.26-.77l.35-3.83c-.67-.7-1.05-1.61-1.05-2.59 0-2.07 1.68-3.75 3.75-3.75S38.7 31 38.7 33.07c0 .98-.38 1.89-1.05 2.59l.35 3.83a.997.997 0 0 1-.99 1.09zm-3.03-2h1.94l-.3-3.24c-.03-.34.12-.68.39-.88.44-.34.7-.84.7-1.39 0-.97-.79-1.75-1.75-1.75s-1.75.79-1.75 1.75c0 .54.25 1.05.7 1.39.27.21.42.54.39.88l-.32 3.24z" fill="#000000" class="color000 svgShape"></path></svg>