<svg xmlns="http://www.w3.org/2000/svg" viewBox="0 0 48 48" width="256" height="256"><path fill="#7d9589" d="M16.16 31.09c-8.1 0-14.66-2.14-14.66-4.78v9.41c0 2.64 6.56 4.78 14.66 4.78 6.56 0 12.12-1.41 13.98-3.35l.67-.61V26.31c.01 2.64-6.56 4.78-14.65 4.78z" class="color7d8995 svgShape"></path><path d="M16.16 41.5C8.38 41.5.5 39.51.5 35.72v-9.41c0-.55.45-1 1-1s1 .45 1 1c0 1.54 5.32 3.78 13.66 3.78s13.66-2.24 13.66-3.78c0-.55.45-1 1-1s1 .45 1 1v10.23a1 1 0 0 1-.33.74l-.67.61c-2.09 2.18-7.87 3.61-14.66 3.61zM2.5 29.29v6.43c0 1.54 5.32 3.78 13.66 3.78 6.79 0 11.81-1.53 13.26-3.04l.39-.36v-6.81c-5.66 3.69-21.65 3.69-27.31 0z" fill="#000000" class="color000 svgShape"></path><path d="M4.26 32.38h1.71v2H4.26zM8.36 33.58h1.71v2H8.36z" fill="#000000" class="color000 svgShape"></path><path fill="#7d9589" d="M1.5 6.28v9.61c0 2.64 6.56 4.78 14.66 4.78s14.66-2.14 14.66-4.78V6.28H1.5z" class="color7d8995 svgShape"></path><path d="M16.16 21.68C8.38 21.68.5 19.69.5 15.9V6.28c0-.55.45-1 1-1h29.32c.55 0 1 .45 1 1v9.61c0 3.8-7.88 5.79-15.66 5.79zM2.5 7.28v8.61c0 1.54 5.32 3.78 13.66 3.78s13.66-2.24 13.66-3.78V7.28H2.5z" fill="#000000" class="color000 svgShape"></path><path d="M4.26 13.28h1.71v2H4.26zM8.36 14.48h1.71v2H8.36z" fill="#000000" class="color000 svgShape"></path><path fill="#bdc6c1" d="M16.16 20.68c-8.1 0-14.66-2.14-14.66-4.78v10.41c0 2.64 6.56 4.78 14.66 4.78 6.56 0 12.12-1.41 13.98-3.35l.67-.61V15.89c.01 2.65-6.56 4.79-14.65 4.79z" class="colorbdc3c6 svgShape"></path><path d="M16.16 32.09C8.38 32.09.5 30.1.5 26.3V15.89c0-.55.45-1 1-1s1 .45 1 1c0 1.54 5.32 3.78 13.66 3.78s13.66-2.24 13.66-3.78c0-.55.45-1 1-1s1 .45 1 1v11.23a1 1 0 0 1-.33.74l-.67.61c-2.09 2.18-7.87 3.62-14.66 3.62zM2.5 18.88v7.43c0 1.54 5.32 3.78 13.66 3.78 6.79 0 11.81-1.53 13.26-3.04l.39-.36v-7.81c-5.66 3.69-21.65 3.69-27.31 0z" fill="#000000" class="color000 svgShape"></path><path d="M4.26 22.97h1.71v2H4.26zM8.36 24.17h1.71v2H8.36z" fill="#000000" class="color000 svgShape"></path><ellipse cx="16.16" cy="6.28" fill="#212529" rx="14.66" ry="4.78" class="color424852 svgShape"></ellipse><path d="M16.16 12.07C8.38 12.07.5 10.08.5 6.29S8.38.5 16.16.5s15.66 1.99 15.66 5.78-7.88 5.79-15.66 5.79zm0-9.57C7.82 2.5 2.5 4.74 2.5 6.28s5.32 3.78 13.66 3.78 13.66-2.24 13.66-3.78S24.5 2.5 16.16 2.5z" fill="#000000" class="color000 svgShape"></path><path fill="#5cfaa9" d="M43.26 28.89a3.3 3.3 0 0 0-3.27-2.92c-.42 0-.81.08-1.18.22a6.119 6.119 0 0 0-5.84-4.31c-2.64 0-4.89 1.68-5.74 4.03a5.862 5.862 0 0 0-5.33 5.84c0 3.24 2.63 5.87 5.87 5.87h14.29c2.46 0 4.45-1.99 4.45-4.45a4.478 4.478 0 0 0-3.25-4.28z" class="color7bd3f3 svgShape"></path><path d="M42.05 38.63H27.76c-3.79 0-6.87-3.08-6.87-6.87 0-3.37 2.38-6.17 5.63-6.75a7.13 7.13 0 0 1 6.45-4.12c2.82 0 5.31 1.62 6.46 4.12a4.29 4.29 0 0 1 4.71 3.12c2.01.83 3.37 2.82 3.37 5.04-.01 3.01-2.46 5.46-5.46 5.46zm-9.09-15.74a5.13 5.13 0 0 0-4.8 3.37c-.13.37-.46.62-.85.66a4.837 4.837 0 0 0-4.42 4.84c0 2.68 2.18 4.87 4.87 4.87h14.29c1.9 0 3.45-1.55 3.45-3.45 0-1.54-1.03-2.9-2.51-3.32a.995.995 0 0 1-.72-.85 2.286 2.286 0 0 0-2.28-2.03c-.28 0-.55.05-.82.15-.26.1-.55.09-.8-.03a.987.987 0 0 1-.52-.61 5.098 5.098 0 0 0-4.89-3.6z" fill="#000000" class="color000 svgShape"></path><circle cx="34.19" cy="43.97" r="2.53" fill="#212529" class="color424852 svgShape"></circle><path d="M34.19 47.5a3.53 3.53 0 1 1-.001-7.061 3.53 3.53 0 0 1 .001 7.061zm0-5.05c-.84 0-1.53.69-1.53 1.53a1.53 1.53 0 1 0 1.53-1.53z" fill="#000000" class="color000 svgShape"></path><path d="M21.89 42.97h9.78v2h-9.78zM36.72 42.97h9.78v2h-9.78zM33.19 37.63h2v3.82h-2z" fill="#000000" class="color000 svgShape"></path></svg>