<svg xmlns="http://www.w3.org/2000/svg" viewBox="0 0 48 48" width="256" height="256"><path fill="#7d9589" d="M16.16 31.09c-8.1 0-14.66-2.14-14.66-4.78v9.41c0 2.64 6.56 4.78 14.66 4.78 6.56 0 12.12-1.41 13.98-3.35l.67-.61V26.31c.01 2.64-6.56 4.78-14.65 4.78z" class="color7d8995 svgShape"></path><path d="M16.16 41.5C8.38 41.5.5 39.51.5 35.72v-9.41c0-.55.45-1 1-1s1 .45 1 1c0 1.54 5.32 3.78 13.66 3.78s13.66-2.24 13.66-3.78c0-.55.45-1 1-1s1 .45 1 1v10.23a1 1 0 0 1-.33.74l-.67.61c-2.1 2.18-7.87 3.61-14.66 3.61zM2.5 29.29v6.43c0 1.54 5.32 3.78 13.66 3.78 6.79 0 11.81-1.53 13.26-3.04l.39-.36v-6.81c-5.66 3.69-21.65 3.69-27.31 0z" fill="#000000" class="color000 svgShape"></path><path d="M4.26 32.38h1.71v2H4.26zM8.36 33.58h1.71v2H8.36z" fill="#000000" class="color000 svgShape"></path><path fill="#7d9589" d="M1.5 6.28v9.61c0 2.64 6.56 4.78 14.66 4.78s14.66-2.14 14.66-4.78V6.28H1.5z" class="color7d8995 svgShape"></path><path d="M16.16 21.68C8.38 21.68.5 19.69.5 15.9V6.28c0-.55.45-1 1-1h29.32c.55 0 1 .45 1 1v9.61c0 3.8-7.88 5.79-15.66 5.79zM2.5 7.28v8.61c0 1.54 5.32 3.78 13.66 3.78s13.66-2.24 13.66-3.78V7.28H2.5z" fill="#000000" class="color000 svgShape"></path><path d="M4.26 13.28h1.71v2H4.26zM8.36 14.48h1.71v2H8.36z" fill="#000000" class="color000 svgShape"></path><path fill="#5cfaa9" d="M16.16 20.68c-8.1 0-14.66-2.14-14.66-4.78v10.41c0 2.64 6.56 4.78 14.66 4.78 6.56 0 12.12-1.41 13.98-3.35l.67-.61V15.89c.01 2.65-6.56 4.79-14.65 4.79z" class="colorbdc3c6 svgShape"></path><path d="M16.16 32.09C8.38 32.09.5 30.1.5 26.31V15.89c0-.55.45-1 1-1s1 .45 1 1c0 1.54 5.32 3.78 13.66 3.78s13.66-2.24 13.66-3.78c0-.55.45-1 1-1s1 .45 1 1v11.23a1 1 0 0 1-.33.74l-.67.61c-2.1 2.18-7.87 3.62-14.66 3.62zM2.5 18.88v7.43c0 1.54 5.32 3.78 13.66 3.78 6.79 0 11.81-1.53 13.26-3.04l.39-.36v-7.81c-5.66 3.69-21.65 3.69-27.31 0z" fill="#000000" class="color000 svgShape"></path><path d="M4.26 22.97h1.71v2H4.26zM8.36 24.17h1.71v2H8.36z" fill="#000000" class="color000 svgShape"></path><ellipse cx="16.16" cy="6.28" fill="#212529" rx="14.66" ry="4.78" class="color424852 svgShape"></ellipse><path d="M16.16 12.07C8.38 12.07.5 10.08.5 6.29.5 2.49 8.38.51 16.16.51S31.82 2.5 31.82 6.29s-7.88 5.78-15.66 5.78zm0-9.57C7.82 2.5 2.5 4.74 2.5 6.28s5.32 3.78 13.66 3.78 13.66-2.24 13.66-3.78S24.5 2.5 16.16 2.5z" fill="#000000" class="color000 svgShape"></path><path fill="#212529" d="M35 37.56c-4.23 0-7.71 2.4-8.2 5.5 2.09 2.12 4.99 3.44 8.2 3.44s6.11-1.32 8.2-3.44c-.49-3.1-3.97-5.5-8.2-5.5z" class="color424852 svgShape"></path><path d="M35 47.5c-3.38 0-6.54-1.33-8.91-3.74-.22-.23-.32-.54-.27-.86.57-3.62 4.52-6.34 9.19-6.34 4.66 0 8.61 2.73 9.19 6.34.05.31-.05.63-.27.86-2.39 2.41-5.55 3.74-8.93 3.74zm-7.1-4.77c1.94 1.79 4.45 2.77 7.1 2.77 2.66 0 5.16-.98 7.1-2.77-.7-2.41-3.64-4.17-7.1-4.17s-6.4 1.76-7.1 4.17z" fill="#000000" class="color000 svgShape"></path><path fill="#f4f8f6" d="M35 23.5c-6.35 0-11.5 5.15-11.5 11.5 0 3.14 1.26 5.98 3.3 8.06.49-3.1 3.97-5.5 8.2-5.5 4.23 0 7.71 2.4 8.2 5.5A11.47 11.47 0 0 0 46.5 35c0-6.35-5.15-11.5-11.5-11.5z" class="colorf4f6f8 svgShape"></path><path d="M43.2 44.06c-.1 0-.21-.02-.3-.05a.986.986 0 0 1-.68-.8c-.42-2.65-3.52-4.66-7.21-4.66s-6.79 2-7.21 4.66c-.06.37-.32.68-.68.8-.36.12-.75.02-1.02-.25A12.43 12.43 0 0 1 22.51 35c0-6.89 5.61-12.5 12.5-12.5S47.5 28.11 47.5 35c0 3.29-1.27 6.41-3.59 8.76-.19.19-.45.3-.71.3zm-8.2-7.5c3.83 0 7.18 1.84 8.57 4.5C44.82 39.3 45.5 37.2 45.5 35c0-5.79-4.71-10.5-10.5-10.5S24.5 29.21 24.5 35c0 2.2.68 4.3 1.93 6.06 1.39-2.66 4.74-4.5 8.57-4.5z" fill="#000000" class="color000 svgShape"></path><ellipse cx="35" cy="31.39" fill="#83febf" rx="3.45" ry="3.62" class="colorfeb183 svgShape"></ellipse><path d="M35 36.01c-2.46 0-4.46-2.07-4.46-4.62 0-2.54 2-4.62 4.46-4.62s4.45 2.07 4.45 4.62c0 2.55-1.99 4.62-4.45 4.62zm0-7.24c-1.35 0-2.46 1.17-2.46 2.62s1.1 2.62 2.46 2.62 2.45-1.17 2.45-2.62-1.1-2.62-2.45-2.62z" fill="#000000" class="color000 svgShape"></path></svg>