<svg xmlns="http://www.w3.org/2000/svg" viewBox="0 0 48 48" width="256" height="256"><path fill="#7d9589" d="M16.16 31.09c-8.1 0-14.66-2.14-14.66-4.78v9.41c0 2.64 6.56 4.78 14.66 4.78 6.56 0 12.12-1.41 13.98-3.35l.67-.61V26.31c.01 2.64-6.56 4.78-14.65 4.78z" class="color7d8995 svgShape"></path><path d="M16.16 41.5C8.38 41.5.5 39.51.5 35.72v-9.41c0-.55.45-1 1-1s1 .45 1 1c0 1.54 5.32 3.78 13.66 3.78s13.66-2.24 13.66-3.78c0-.55.45-1 1-1s1 .45 1 1v10.23a1 1 0 0 1-.33.74l-.67.61c-2.09 2.18-7.87 3.61-14.66 3.61zM2.5 29.29v6.43c0 1.54 5.32 3.78 13.66 3.78 6.79 0 11.81-1.53 13.26-3.04l.39-.36v-6.81c-5.66 3.69-21.65 3.69-27.31 0z" fill="#000000" class="color000 svgShape"></path><path d="M4.26 32.38h1.71v2H4.26zM8.36 33.58h1.71v2H8.36z" fill="#000000" class="color000 svgShape"></path><path fill="#7d9589" d="M1.5 6.28v9.61c0 2.64 6.56 4.78 14.66 4.78s14.66-2.14 14.66-4.78V6.28H1.5z" class="color7d8995 svgShape"></path><path d="M16.16 21.68C8.38 21.68.5 19.69.5 15.9V6.28c0-.55.45-1 1-1h29.32c.55 0 1 .45 1 1v9.61c0 3.8-7.88 5.79-15.66 5.79zM2.5 7.28v8.61c0 1.54 5.32 3.78 13.66 3.78s13.66-2.24 13.66-3.78V7.28H2.5z" fill="#000000" class="color000 svgShape"></path><path d="M4.26 13.28h1.71v2H4.26zM8.36 14.48h1.71v2H8.36z" fill="#000000" class="color000 svgShape"></path><path fill="#5cfaa9" d="M16.16 20.68c-8.1 0-14.66-2.14-14.66-4.78v10.41c0 2.64 6.56 4.78 14.66 4.78 6.56 0 12.12-1.41 13.98-3.35l.67-.61V15.89c.01 2.65-6.56 4.79-14.65 4.79z" class="colorbdc3c6 svgShape"></path><path d="M16.16 32.09C8.38 32.09.5 30.1.5 26.31V15.89c0-.55.45-1 1-1s1 .45 1 1c0 1.54 5.32 3.78 13.66 3.78s13.66-2.24 13.66-3.78c0-.55.45-1 1-1s1 .45 1 1v11.23a1 1 0 0 1-.33.74l-.67.61c-2.09 2.18-7.87 3.62-14.66 3.62zM2.5 18.88v7.43c0 1.54 5.32 3.78 13.66 3.78 6.79 0 11.81-1.53 13.26-3.04l.39-.36v-7.81c-5.66 3.69-21.65 3.69-27.31 0z" fill="#000000" class="color000 svgShape"></path><path d="M4.26 22.97h1.71v2H4.26zM8.36 24.17h1.71v2H8.36z" fill="#000000" class="color000 svgShape"></path><ellipse cx="16.16" cy="6.28" fill="#212529" rx="14.66" ry="4.78" class="color424852 svgShape"></ellipse><path d="M16.16 12.07C8.38 12.07.5 10.08.5 6.29.5 2.49 8.38.51 16.16.51S31.82 2.5 31.82 6.29s-7.88 5.78-15.66 5.78zm0-9.57C7.82 2.5 2.5 4.74 2.5 6.28s5.32 3.78 13.66 3.78 13.66-2.24 13.66-3.78S24.5 2.5 16.16 2.5z" fill="#000000" class="color000 svgShape"></path><path fill="#8dffc5" d="M23.5 33.59v2.83l2.39.87c.23.91.58 1.76 1.05 2.54l-1.08 2.31 2 2 2.31-1.08c.78.47 1.64.83 2.54 1.05l.87 2.39h2.83l.87-2.39c.91-.23 1.76-.58 2.54-1.05l2.31 1.08 2-2-1.08-2.31c.47-.78.83-1.64 1.05-2.54l2.39-.87v-2.83l-2.39-.87c-.23-.91-.58-1.76-1.05-2.54l1.08-2.31-2-2-2.31 1.08c-.78-.47-1.64-.83-2.54-1.05l-.87-2.39h-2.83l-.87 2.39c-.91.23-1.76.58-2.54 1.05l-2.31-1.08-2 2 1.08 2.31c-.47.78-.83 1.64-1.05 2.54l-2.39.87z" class="colorb38dff svgShape"></path><path d="M36.41 47.5h-2.83c-.42 0-.8-.26-.94-.66l-.69-1.91c-.63-.19-1.24-.45-1.82-.76l-1.84.86c-.38.18-.83.1-1.13-.2l-2-2c-.3-.3-.38-.75-.2-1.13l.86-1.84c-.31-.58-.56-1.19-.76-1.82l-1.91-.69a.992.992 0 0 1-.66-.94v-2.83c0-.42.26-.8.66-.94l1.91-.69c.19-.63.45-1.24.76-1.82l-.86-1.84c-.18-.38-.1-.83.2-1.13l2-2c.3-.3.75-.38 1.13-.2l1.84.86c.58-.31 1.19-.56 1.82-.76l.69-1.91c.14-.4.52-.66.94-.66h2.83c.42 0 .8.26.94.66l.69 1.91c.63.19 1.24.45 1.83.76l1.84-.86c.38-.18.83-.1 1.13.2l2 2c.3.3.38.75.2 1.13l-.86 1.84c.31.58.56 1.19.75 1.82l1.91.69c.4.14.66.52.66.94v2.83c0 .42-.26.8-.66.94l-1.91.69c-.19.63-.45 1.24-.75 1.82l.86 1.84c.18.38.1.83-.2 1.13l-2 2c-.3.3-.75.38-1.13.2l-1.84-.86c-.58.31-1.19.56-1.82.76l-.69 1.91c-.15.4-.53.66-.95.66zm-2.12-2h1.43l.63-1.73c.11-.31.38-.55.7-.63.8-.2 1.57-.52 2.27-.94.29-.17.64-.19.94-.05l1.67.78 1.01-1.01-.78-1.67c-.14-.3-.12-.65.05-.94.42-.71.74-1.47.94-2.27.08-.32.32-.58.63-.7l1.73-.63v-1.43l-1.73-.63c-.31-.11-.55-.38-.63-.7-.2-.8-.52-1.56-.94-2.27a1.01 1.01 0 0 1-.05-.94l.78-1.67-1.01-1.01-1.67.78c-.3.14-.65.12-.94-.05-.71-.43-1.47-.74-2.27-.94-.32-.08-.58-.32-.7-.63l-.63-1.73h-1.43l-.63 1.73c-.11.31-.37.55-.7.63-.8.2-1.56.52-2.27.94-.28.17-.64.19-.94.05l-1.67-.78-1.01 1.01.78 1.67c.14.3.12.65-.05.94a8.51 8.51 0 0 0-.94 2.27c-.08.32-.32.58-.63.7l-1.73.63v1.43l1.73.63c.31.11.55.37.63.7.2.8.52 1.57.94 2.27.17.28.19.64.05.94l-.78 1.67 1.01 1.01 1.67-.78c.3-.14.65-.12.94.05.71.42 1.47.74 2.27.94.32.08.58.32.7.63l.63 1.73z" fill="#000000" class="color000 svgShape"></path><circle cx="35" cy="35" r="4.31" fill="#65e5a3" class="color9065e5 svgShape"></circle><path d="M35 40.31c-2.93 0-5.31-2.38-5.31-5.31s2.38-5.31 5.31-5.31 5.31 2.38 5.31 5.31-2.38 5.31-5.31 5.31zm0-8.62c-1.83 0-3.31 1.48-3.31 3.31s1.49 3.31 3.31 3.31 3.31-1.48 3.31-3.31-1.48-3.31-3.31-3.31z" fill="#000000" class="color000 svgShape"></path></svg>