<svg xmlns="http://www.w3.org/2000/svg" viewBox="0 0 500 500" width="256" height="256"><path fill="#d2fee7" d="m421.535 188.477 47.795-40.22c25.989-21.87 30.272-59.66 9.568-84.406-21.554-25.763-60.961-28.191-88.016-5.423l-45.864 38.595 76.517 91.454zM42.593 378.149 7.962 458.581l85.661-19.491z" class="colord2e2fe svgShape"></path><path fill="#ffffff" d="M345.033 96.507 60.619 336.006 8.009 458.275l126.903-28.894 286.631-241.366z" class="colorfff svgShape"></path><path fill="#ffffff" d="M382.998 141.546 130.32 355.065l-60.422-27.076L345.009 96.48z" class="colorfff svgShape"></path><path fill="#ffffff" d="M382.998 141.546 130.32 355.065l16.262 64.238 274.953-231.101z" class="colorfff svgShape"></path><path fill="#212529" d="m427.926 183.15-76.78-91.801c-3.49-3.452-7.254-3.78-11.29-.986L64.744 321.872c-4.32 5.163-3.694 9.633 1.88 13.411l56.421 25.284 15.664 60.636c2.756 6.14 7.077 7.664 12.915 4.31l275.263-231.636c3.453-3.488 3.833-6.692 1.039-10.727zm-299.86 162.142-43.269-19.39 259.225-218.141 27.499 32.854-243.455 204.677zm22.709 60.03-12.067-48.08 243.103-204.38 28.734 34.112-259.77 218.348z" class="color1b2a37 svgShape"></path><path fill="#5cfaa9" d="M385.729 51.761 55.424 329.717a7.998 7.998 0 0 0-2.196 2.955L.613 454.87c-2.277 5.784 2.015 12.28 9.125 10.957l126.915-28.878a7.999 7.999 0 0 0 3.377-1.681l334.453-281.446c29.31-24.664 34.106-67.626 10.552-95.652-13.362-15.9-53.699-41.885-99.306-6.409zM44.803 392.697l34.29 40.949-57.56 13.097 23.27-54.046zm86.405 29.09-34.59 7.871-44.73-53.417 15.29-35.511L344.03 107.756l66.253 79.187-279.075 234.844zm332.969-280.196-41.654 35.052-66.253-79.188 39.765-33.463c22.303-18.768 57.404-18.657 76.726 4.437 17.851 21.336 14 54.156-8.584 73.162z" class="color448af9 svgShape"></path></svg>