<svg xmlns="http://www.w3.org/2000/svg" viewBox="0 0 24 24" width="256" height="256"><path fill="#212529" d="M17,9H13V4a1,1,0,0,1,2,0,3.0033,3.0033,0,0,0,3,3h1a1,1,0,0,0,0-2H18a1.0009,1.0009,0,0,1-1-1,3,3,0,0,0-6,0V9H7a7,7,0,1,0,3.3926,13.1226,3.2466,3.2466,0,0,1,3.2138,0A7,7,0,1,0,17,9Zm0,12a4.9955,4.9955,0,0,1-2.4219-.6255,5.2761,5.2761,0,0,0-5.1572,0A5,5,0,1,1,7,11H17a5,5,0,0,1,0,10Z" class="color212529 svgShape"></path><path fill="#5cfaa9" d="M17,13a3,3,0,1,0,3,3A3.0033,3.0033,0,0,0,17,13Zm0,4a1,1,0,1,1,1-1A1.0009,1.0009,0,0,1,17,17Z" class="color5cfaa9 svgShape"></path><path fill="#212529" d="M9,15H8V14a1,1,0,0,0-2,0v1H5a1,1,0,0,0,0,2H6v1a1,1,0,0,0,2,0V17H9a1,1,0,0,0,0-2Z" class="color212529 svgShape"></path></svg>