<svg xmlns="http://www.w3.org/2000/svg" viewBox="0 0 65 65" width="256" height="256"><path fill="#50a0f0" d="M60.5 63.5h-56c-1.7 0-3-1.3-3-3V10.6h62v49.9c0 1.7-1.3 3-3 3z" class="colorf05f50 svgShape"></path><path fill="#ffffff" d="M6.5 15.6h52v42.9h-52zM63.5 10.6h-62V4.5c0-1.7 1.3-3 3-3h56c1.7 0 3 1.3 3 3v6.1z" class="colorfff svgShape"></path><path fill="#5cfaa9" d="m31.2 28.4-9.4-7.7v3.8h-12v7.7h12v3.9z" class="color2da0da svgShape"></path><path fill="#212529" d="M60.5.5h-56c-2.2 0-4 1.8-4 4v56c0 2.2 1.8 4 4 4h56c2.2 0 4-1.8 4-4v-56c0-2.2-1.8-4-4-4zm2 60c0 1.1-.9 2-2 2h-56c-1.1 0-2-.9-2-2V11.6h60v48.9zm0-50.9h-60V4.5c0-1.1.9-2 2-2h56c1.1 0 2 .9 2 2v5.1z" class="color183651 svgShape"></path><path fill="#212529" d="M43.7 5h2v2h-2zM49.6 5h2v2h-2zM55.5 5h2v2h-2zM34 27.4h17.3v2H34zM54.2 27.4h2v2h-2zM9.8 41.1h37v2h-37zM54.2 41.1h2v2h-2zM50 41.1h2v2h-2zM9.8 49.3h37v2h-37zM54.2 49.3h2v2h-2zM50 49.3h2v2h-2z" class="color183651 svgShape"></path></svg>