<svg xmlns="http://www.w3.org/2000/svg" viewBox="0 0 64 64" width="256" height="256"><path fill="#212529" d="M32 58.65c-7.751 0-15.509-.566-17.783-7.326a.983.983 0 0 1-.052-.319v-10a1 1 0 0 1 2 0v9.832C17.9 55.672 23.518 56.65 32 56.65c5.534 0 11.677-.275 14.537-3.564a1 1 0 1 1 1.508 1.314c-3.411 3.922-9.797 4.25-16.045 4.25zm16.835-6.645a1 1 0 0 1-1-1v-10a1 1 0 0 1 2 0v10a1 1 0 0 1-1 1z" class="color546e7a svgShape"></path><path fill="#212529" d="M32 50.65c-6.224 0-11.432-1.628-14.664-4.584a1 1 0 1 1 1.35-1.475C21.548 47.208 26.277 48.65 32 48.65c8.271 0 14.21-2.977 15.888-7.963a1 1 0 0 1 1.9.637C47.819 47.164 41.171 50.65 32 50.65zm-20.07 1.355H5.592a1 1 0 0 1-.733-1.68l4.135-4.455-4.113-4.162a1 1 0 0 1 .711-1.7h9.573a1 1 0 0 1 0 2H7.986l3.1 3.14a1 1 0 0 1 .021 1.383l-3.222 3.474h4.045a1 1 0 0 1 0 2zm46.478 0h-9.573a1 1 0 0 1 0-2h7.28l-3.226-3.477a1 1 0 0 1 .021-1.383l3.1-3.14h-4.029a1 1 0 0 1 0-2h6.427a1 1 0 0 1 .711 1.7l-4.113 4.165 4.135 4.455a1 1 0 0 1-.733 1.68z" class="color546e7a svgShape"></path><path fill="#5cfaa9" d="M32 31.2a1.012 1.012 0 0 1-.438-.1L18.6 24.793a1 1 0 0 1 0-1.8l12.965-6.308a1 1 0 0 1 .875 0l12.96 6.309a1 1 0 0 1 0 1.8l-9.816 4.776a1 1 0 1 1-.875-1.8l7.968-3.876L32 18.7l-10.68 5.2 11.117 5.4A1 1 0 0 1 32 31.2zm0 14.138a1.007 1.007 0 0 1-.438-.1L18.6 38.929a1 1 0 0 1-.563-.9V27.408a1 1 0 0 1 2 0v10L32 43.226l9.5-4.626a1 1 0 1 1 .875 1.8l-9.938 4.835a1 1 0 0 1-.437.103z" class="color29b6f6 svgShape"></path><path fill="#5cfaa9" d="M44.966 39.03a1 1 0 0 1-1-1V23.894a1 1 0 0 1 2 0V38.03a1 1 0 0 1-1 1zM32 45.338a1 1 0 0 1-1-1V30.2a1 1 0 1 1 2 0v14.138a1 1 0 0 1-1 1z" class="color29b6f6 svgShape"></path><path fill="#212529" d="M32 12.589a1 1 0 0 1-1-1V6.35a1 1 0 0 1 2 0v5.239a1 1 0 0 1-1 1zm10.563 4.376a1 1 0 0 1-.707-1.707l3.7-3.7a1 1 0 0 1 1.414 1.414l-3.7 3.705a1 1 0 0 1-.707.288zm-21.126 0a1 1 0 0 1-.708-.293l-3.7-3.7a1 1 0 0 1 1.414-1.414l3.7 3.7a1 1 0 0 1-.707 1.707z" class="color546e7a svgShape"></path></svg>