<svg xmlns="http://www.w3.org/2000/svg" enable-background="new 0 0 64 64" viewBox="0 0 64 64" width="256" height="256"><path d="M32,2c-8.2592773,0-14.9785156,6.7192383-14.9785156,14.9785156v7.1616211h-1.4990234
	c-1.8676758,0-3.387207,1.519043-3.387207,3.3867188v6.9604492v6.1181641v4.9287109v6.1181641v6.9604492
	c0,1.8676758,1.5195312,3.387207,3.387207,3.387207h32.9550781c1.8676758,0,3.387207-1.5195312,3.387207-3.387207V27.5268555
	c0-1.8676758-1.5195312-3.3867188-3.387207-3.3867188h-1.4990234v-7.1616211C46.9785156,8.7192383,40.2592773,2,32,2z
	 M19.0214844,16.9785156C19.0214844,9.8222656,24.84375,4,32,4s12.9785156,5.8222656,12.9785156,12.9785156v7.1616211h-2.8549805
	v-7.1616211c0-5.5820312-4.5415039-10.1235352-10.1235352-10.1235352s-10.1235352,4.5415039-10.1235352,10.1235352v7.1616211
	h-2.8549805V16.9785156z M23.8764648,24.1401367v-7.1616211c0-4.4794922,3.644043-8.1235352,8.1235352-8.1235352
	s8.1235352,3.644043,8.1235352,8.1235352v7.1616211H23.8764648z M14.1352539,35.4873047H26.15625v4.1181641H14.1352539V35.4873047z
	 M14.1352539,46.5341797H26.15625v4.1181641H14.1352539V46.5341797z M49.8647461,27.5268555V58.612793
	c0,0.7651367-0.6220703,1.387207-1.387207,1.387207H15.5224609c-0.7651367,0-1.387207-0.6220703-1.387207-1.387207v-5.9604492
	H27.15625c0.5522461,0,1-0.4477539,1-1v-6.1181641c0-0.5522461-0.4477539-1-1-1H14.1352539v-2.9287109H27.15625
	c0.5522461,0,1-0.4477539,1-1v-6.1181641c0-0.5522461-0.4477539-1-1-1H14.1352539v-5.9604492
	c0-0.7646484,0.6220703-1.3867188,1.387207-1.3867188h2.4990234h4.8549805h18.2470703h4.8549805h2.4990234
	C49.2426758,26.1401367,49.8647461,26.762207,49.8647461,27.5268555z" fill="#ffffff" class="color000 svgShape"></path><path d="M38.5161133 28.4838867c0 .5522461.4477539 1 1 1h7.1289062v11.121582c0 .5522461.4477539 1 1 1s1-.4477539 1-1v-12.121582c0-.5522461-.4477539-1-1-1h-8.1289062C38.9638672 27.4838867 38.5161133 27.9316406 38.5161133 28.4838867zM47.6650391 43.612793h-.0102539c-.5522461 0-.9946289.4477539-.9946289 1s.4526367 1 1.0048828 1 1-.4477539 1-1S48.2172852 43.612793 47.6650391 43.612793zM47.6650391 47.5932617h-.0102539c-.5522461 0-.9946289.4477539-.9946289 1s.4526367 1 1.0048828 1 1-.4477539 1-1S48.2172852 47.5932617 47.6650391 47.5932617zM47.6650391 51.5737305h-.0102539c-.5522461 0-.9946289.4477539-.9946289 1s.4526367 1 1.0048828 1 1-.4477539 1-1S48.2172852 51.5737305 47.6650391 51.5737305z" fill="#ffffff" class="color000 svgShape"></path></svg>