<svg xmlns="http://www.w3.org/2000/svg" viewBox="0 0 48 48" width="256" height="256"><path fill="#5cfaa9" d="M24 1.5S17.8 7.3 4.7 9.1v11.2c0 12 7.8 22.6 19.3 26.1 11.5-3.4 19.3-14 19.3-26V9.1C30.2 7.3 24 1.5 24 1.5z" class="color64d3ff svgShape"></path><path fill="#ffffff" d="M14.6 23.7V33c0 .9.7 1.6 1.6 1.6h15.5c.9 0 1.6-.7 1.6-1.6v-9.3c0-.9-.7-1.6-1.6-1.6H16.2c-.9 0-1.6.7-1.6 1.6z" class="colorfff svgShape"></path><path fill="#212529" d="M23.6 47.4H24.2c12-3.7 20-14.6 20-27.1V9.1c0-.5-.4-.9-.9-1C30.9 6.4 24.8.8 24.7.8c-.4-.4-1-.4-1.4 0-.1.1-6.2 5.7-18.8 7.4-.5.1-.9.5-.9 1v11.2c.1 12.5 8.1 23.4 20 27zM5.7 10C16.1 8.4 22.1 4.3 24 2.8c1.9 1.5 7.9 5.6 18.3 7.2v10.4C42.3 31.9 35 42 24 45.5 13 41.9 5.7 31.9 5.7 20.4V10z" class="color2d4356 svgShape"></path><path fill="#212529" d="M16.2 35.6h15.5c1.4 0 2.6-1.2 2.6-2.6v-9.3c0-1.4-1.2-2.6-2.6-2.6h-.2v-3.3c0-4.2-3.4-7.5-7.5-7.5s-7.5 3.4-7.5 7.5v3.3h-.2c-1.4 0-2.6 1.2-2.6 2.6V33c-.1 1.4 1.1 2.6 2.5 2.6zm2.3-17.8c0-3.1 2.5-5.5 5.5-5.5s5.5 2.5 5.5 5.5v3.3h-11v-3.3zm-2.9 5.9c0-.3.3-.6.6-.6h15.5c.3 0 .6.3.6.6V33c0 .3-.3.6-.6.6H16.2c-.3 0-.6-.3-.6-.6v-9.3z" class="color2d4356 svgShape"></path><path fill="#212529" d="M23 27.9h2v3.3h-2z" class="color2d4356 svgShape"></path></svg>