<svg xmlns="http://www.w3.org/2000/svg" viewBox="0 0 24 24" width="256" height="256"><path fill="#5cfaa9" d="M13.293,9.293l-2,2a1,1,0,1,0,1.414,1.414l2-2a1,1,0,0,0-1.414-1.414Z" class="color5cfaa9 svgShape"></path><path fill="#212529" d="M19.7979,4.2512c-.0083-.009-.0109-.0208-.02-.0295s-.0205-.0113-.03-.02a10.9768,10.9768,0,0,0-15.4976,0c-.009.0083-.0208.0109-.0295.02s-.0113.0205-.02.0295a11,11,0,1,0,15.5958,0ZM12,5a7.0078,7.0078,0,0,0-7,7c0,.21.01.417.0278.623a1.0294,1.0294,0,0,1-.6928,1.1006.9717.9717,0,0,1-.8467-.09.9358.9358,0,0,1-.4212-.6473.9888.9888,0,0,0-.01-1.975A8.9519,8.9519,0,0,1,4.9828,6.3788a.9885.9885,0,0,0,1.396-1.396,8.9519,8.9519,0,0,1,4.6327-1.9255.99.99,0,0,0,1.977,0,8.9519,8.9519,0,0,1,4.6327,1.9255.9882.9882,0,0,0,1.396,1.396,8.9519,8.9519,0,0,1,1.9255,4.6327.9888.9888,0,0,0-.0095,1.975.9365.9365,0,0,1-.4215.6473,1.0251,1.0251,0,0,1-1.54-1.0112C18.99,12.417,19,12.21,19,12A7.0078,7.0078,0,0,0,12,5ZM9,20.4749V20a1.0009,1.0009,0,0,1,1-1h4a1.0009,1.0009,0,0,1,1,1v.4749a8.8323,8.8323,0,0,1-6,0Zm7.95-.9665A2.9977,2.9977,0,0,0,14,17H10a2.9977,2.9977,0,0,0-2.95,2.5084,9.05,9.05,0,0,1-3.2152-3.747,3.18,3.18,0,0,0,1.2607-.1862A2.9824,2.9824,0,0,0,7.02,12.4458Q7,12.2253,7,12a5,5,0,0,1,10,0q0,.2256-.02.4453A3.05,3.05,0,0,0,20,15.7842c.0537,0,.1069-.0084.16-.0113A9.05,9.05,0,0,1,16.95,19.5084Z" class="color212529 svgShape"></path></svg>