<svg xmlns="http://www.w3.org/2000/svg" viewBox="0 0 32 32" width="256" height="256"><g data-name="Layer 8"><path fill="#5cfaa9" d="M16,16.5A1.5,1.5,0,0,1,14.5,15V11A5.51,5.51,0,0,1,20,5.5a1.5,1.5,0,0,1,0,3A2.5,2.5,0,0,0,17.5,11v4A1.5,1.5,0,0,1,16,16.5Z" class="color52dde8 svgShape"></path><path fill="#212529" d="M4,16H8a0,0,0,0,1,0,0v8a0,0,0,0,1,0,0H4a2,2,0,0,1-2-2V18A2,2,0,0,1,4,16Z" class="color445377 svgShape"></path><path fill="#212529" d="M26,16h4a0,0,0,0,1,0,0v8a0,0,0,0,1,0,0H26a2,2,0,0,1-2-2V18A2,2,0,0,1,26,16Z" transform="rotate(-180 27 20)" class="color445377 svgShape"></path><rect width="22" height="16" x="5" y="12" fill="#9fffce" rx="4" class="color9fd8ff svgShape"></rect><rect width="16" height="8" x="8" y="16" fill="#212529" rx="4" class="color445377 svgShape"></rect><circle cx="12.5" cy="20" r="1.5" fill="#4bf79f" class="colorf7cd4b svgShape"></circle><circle cx="19.5" cy="20" r="1.5" fill="#4bf79f" class="colorf7cd4b svgShape"></circle><circle cx="21" cy="7" r="3" fill="#50ffa5" class="color50a8ff svgShape"></circle></g></svg>