<svg xmlns="http://www.w3.org/2000/svg" viewBox="0 0 24 24" width="256" height="256"><path fill="#212529" d="M12,14a3,3,0,1,1,3-3A3.0033,3.0033,0,0,1,12,14Zm0-4a1,1,0,1,0,1,1A1.0006,1.0006,0,0,0,12,10Z" class="color212529 svgShape"></path><path fill="#212529" d="M14.9785,16.6211a3.0029,3.0029,0,0,0-5.957,0l-.9551-.126L7.03,16.5v-.01a.9743.9743,0,0,1,.0088-.1308,5.0024,5.0024,0,0,1,9.9218,0,.9743.9743,0,0,1,.0088.1308l-1.0381.0049Z" class="color212529 svgShape"></path><path fill="#212529" d="M12 19a7 7 0 117-7A7.0085 7.0085 0 0112 19zM12 7a5 5 0 105 5A5.0059 5.0059 0 0012 7zM4 7A3 3 0 117 4 3.0033 3.0033 0 014 7zM4 3A1 1 0 105 4 1.0006 1.0006 0 004 3zM20 23a3 3 0 113-3A3.0033 3.0033 0 0120 23zm0-4a1 1 0 101 1A1.0006 1.0006 0 0020 19z" class="color212529 svgShape"></path><rect width="2.319" height="2" x="15.901" y="5.94" fill="#212529" transform="rotate(-45 17.06 6.94)" class="color212529 svgShape"></rect><rect width="2.659" height="2" x="5.731" y="15.94" fill="#212529" transform="rotate(-45 7.06 16.94)" class="color212529 svgShape"></rect><rect width="2" height="3.323" x="5.585" y="4.923" fill="#212529" transform="rotate(-45 6.585 6.585)" class="color212529 svgShape"></rect><rect width="2" height="3.663" x="16.295" y="15.464" fill="#212529" transform="rotate(-45 17.295 17.295)" class="color212529 svgShape"></rect><path fill="#5cfaa9" d="M20 8a4 4 0 114-4A4.0039 4.0039 0 0120 8zm0-6a2 2 0 102 2A2.0027 2.0027 0 0020 2zM4 24a4 4 0 114-4A4.0039 4.0039 0 014 24zm0-6a2 2 0 102 2A2.0027 2.0027 0 004 18z" class="color5cfaa9 svgShape"></path></svg>