<svg xmlns="http://www.w3.org/2000/svg" enable-background="new 0 0 512 512" viewBox="0 0 512 512" width="256" height="256"><path fill="#5cfaa9" d="M473.3,42.3c0-7.1-2.5-13.9-7-19c-7.9-8.9-20.2-12-31.4-7.8c-42.7,16.1-81.5,21.2-115.2,15.4
		c-26.2-4.5-42.3-14.6-49.7-20.2c-8.3-6.3-19.8-6.3-28.1,0l-0.1,0.1c-7.3,5.6-23.5,15.6-49.6,20.1c-33.7,5.8-72.5,0.6-115.2-15.4
		c-11.2-4.2-23.5-1.1-31.4,7.8c-4.5,5.1-7,11.9-7,19l0,262.7c0,24.8,7.1,48.5,20.4,68.4c25.6,38.2,84.6,106.1,191.5,131.3l5.3,1.2
		l5.3-1.2c107-25.2,165.9-93.1,191.5-131.3c13.4-20,20.4-43.6,20.4-68.4L473.3,42.3z M421.9,352C399.6,385.3,348.5,444.4,256,468
		C163.5,444.4,112.4,385.3,90.1,352c-8.7-12.9-13.2-28.4-13.2-44.8l0-249.4c43.4,13,83.9,16.4,120.7,10.1
		c25.9-4.5,45.4-13.1,58.4-20.7c13,7.5,32.6,16.2,58.4,20.7c36.8,6.4,77.4,3,120.7-10.1l0,249.4C435.2,323.6,430.6,339.1,421.9,352z
		" class="color38ada9 svgShape"></path><path fill="#212529" d="M301,232.7c3.5,0.1,7,0.1,10.5,0.2c3.8-13.5,13.9-25.1,15.4-39c0.4-4.1,0.1-8.2-0.2-12.3
			c-0.7-8.1-1.5-16.4-3.6-24.2c-1-3.9-2.4-7.6-4.3-11.3c-7.3-14.4-21.7-24.6-37.4-29.8c-21.7-7.1-46.5-4.9-66.5,5.9
			c-11.5,6.2-21.8,15.7-25.2,28c-2.1,7.7-1.4,15.9-0.5,23.9c2.4,22.4,5.7,44.9,14.4,65.8c6.2,15,15.5,29.3,29.6,37.9
			c14.1,8.6,33.7,10,47,0.3c-2.1-2.6-4.1-5.1-6.2-7.7c-9.9,7.1-24.4,5.8-34.9-0.6c-10.4-6.4-17.5-16.8-22.9-27.6
			c-7.9-15.5-13-32.2-15.4-49.2c-1.3-9.1-6.1-49.7,15.2-32.9c4.3,3.4,7.1,8.4,11.4,11.8c8.9,7,21.7,5.8,33.1,4.3
			c0-4.4,0.1-8.8,0.1-13.3c11.5,0,22.9-0.1,34.4-0.1c2,0,4,0,5.8,0.7c2.6,1,4.4,3.2,5.8,5.5c8.3,13.7,3.9,31-0.6,46.3
			C304.4,221.2,302.7,226.9,301,232.7z" class="color0a3d62 svgShape"></path><path fill="#212529" d="M179.3 228.8v-58.3c4.7-12.8 8.6-26 15.7-37.4 13.6-21.7 38.9-35 64.1-33.8 25.1 1.2 49.2 16.6 61.2 39.2 5.4 10.1 8.5 21.4 12.4 32.3v46c0 0 0 0 0 0-2.8 11.4-11.1 21.3-21.8 26.2-8.6 3.9-18.1 4.6-27.4 4.3-2-.1-7.3-1.2-10.7-1.2-2.5-5.6-8.1-9.5-14.7-9.5-8.9 0-16.1 7.2-16.1 16.1s7.2 16.1 16.1 16.1c6.6 0 12.3-4 14.8-9.8 14.7-.6 30 2.6 43.8-2.6 13.4-5 22.9-17.1 28.6-30.5 10.4-4.8 17.7-15.3 17.7-27.5 0-11.6-6.6-21.5-16.2-26.6-.3-1.2-.6-2.4-.9-3.6-.3-1.1-.7-2.2-1.1-3.3-3.5-10.1-7.9-19.8-13.1-29.1-8.5-15-19.4-29-33.6-38.3-14.3-9.3-31.7-13.6-48.6-12.1-42.7 3.8-67.9 41-81.8 78.8-.9 2.5-1.8 5-2.4 7.6-9.5 5.1-16.1 15-16.1 26.5C149.1 215.3 162.6 228.8 179.3 228.8zM308.7 300.7l-24.7 97.2-7.4 14.7-11-90.5h-19.4l-11 90.5-7.4-14.7-24.7-97.2c0 0-56.9-6.7-77.4 65.5 26 29 67.8 62.9 130.1 79.8 62.3-16.9 104.2-50.8 130.1-79.8C365.6 294 308.7 300.7 308.7 300.7z" class="color0a3d62 svgShape"></path></svg>