<svg xmlns="http://www.w3.org/2000/svg" enable-background="new 0 0 32 32" viewBox="0 0 32 32" width="256" height="256"><path fill="#ffffff" d="M4.5 28C4.224 28 4 27.776 4 27.5v-6.849l-.876-1.32c-.152-.23-.09-.541.141-.693.228-.152.539-.091.693.14l.959 1.446C4.971 20.306 5 20.402 5 20.5v7C5 27.776 4.776 28 4.5 28zM11 28c-.276 0-.5-.224-.5-.5v-11c0-.276.224-.5.5-.5s.5.224.5.5v11C11.5 27.776 11.276 28 11 28z" class="colorffffff svgShape"></path><path fill="#ffffff" d="M1.5 28C1.224 28 1 27.776 1 27.5v-7.768c0-1.761 1.352-3.666 3.014-4.248l4.11-1.439.271-2.17c.034-.275.3-.468.558-.434C9.228 11.476 9.422 11.726 9.388 12l-.31 2.478c-.023.188-.151.347-.331.41l-4.403 1.542C3.073 16.873 2 18.386 2 19.732V27.5C2 27.776 1.776 28 1.5 28zM15.521 15.651c-.055 0-.11-.009-.165-.028l-2.103-.736c-.18-.063-.308-.222-.331-.41l-.31-2.48c-.034-.274.16-.524.435-.558.268-.037.523.16.558.434l.271 2.173 1.81.633c.261.091.398.376.307.637C15.92 15.522 15.728 15.651 15.521 15.651z" class="colorffffff svgShape"></path><path fill="#ffffff" d="M11 13.039c-.276 0-.5-.224-.5-.5s.224-.5.5-.5c1.115 0 3.191 0 3.201-5.471.002-.959-.068-1.893-.934-2.76C12.757 3.298 11.994 3.039 11 3.039s-1.757.259-2.268.77c-.865.867-.936 1.8-.934 2.76.005 2.583.476 4.257 1.399 4.974.218.169.258.483.088.702C9.115 12.462 8.8 12.5 8.585 12.333c-1.196-.929-1.78-2.814-1.786-5.762C6.797 5.489 6.89 4.239 8.025 3.102 8.73 2.396 9.731 2.039 11 2.039s2.27.357 2.975 1.063c1.136 1.138 1.229 2.387 1.227 3.469C15.192 11.044 13.897 13.039 11 13.039zM10.997 17.152c-.122 0-.244-.044-.34-.133l-2.415-2.237c-.202-.188-.215-.504-.027-.707.189-.203.505-.214.707-.027l2.075 1.923 2.081-1.923c.205-.188.52-.173.707.028.188.203.175.519-.028.707l-2.42 2.237C11.24 17.108 11.119 17.152 10.997 17.152z" class="colorffffff svgShape"></path><path fill="#ffffff" d="M12.812 6.916c-1.421 0-2.901-.501-3.717-1.235C8.89 5.496 8.873 5.18 9.059 4.975S9.56 4.753 9.765 4.938c.983.886 3.347 1.346 4.7.622.241-.13.547-.039.677.204.131.244.039.546-.204.677C14.321 6.771 13.575 6.916 12.812 6.916zM27 31c-.276 0-.5-.224-.5-.5S26.724 30 27 30c.552 0 1-.449 1-1V14c0-.364.098-.706.269-1H19c-.552 0-1 .449-1 1v11.5c0 .276-.224.5-.5.5S17 25.776 17 25.5V14c0-1.103.897-2 2-2h11c.276 0 .5.224.5.5S30.276 13 30 13c-.552 0-1 .449-1 1v15C29 30.103 28.103 31 27 31z" class="colorffffff svgShape"></path><path fill="#ffffff" d="M27 31H17c-1.103 0-2-.897-2-2v-1.5c0-.276.224-.5.5-.5h10c.276 0 .5.224.5.5V29c0 .551.448 1 1 1 .276 0 .5.224.5.5S27.276 31 27 31zM16 28v1c0 .551.448 1 1 1h8.269C25.098 29.706 25 29.364 25 29v-1H16zM25.5 25h-5c-.276 0-.5-.224-.5-.5s.224-.5.5-.5h5c.276 0 .5.224.5.5S25.776 25 25.5 25zM25.5 22h-5c-.276 0-.5-.224-.5-.5s.224-.5.5-.5h5c.276 0 .5.224.5.5S25.776 22 25.5 22zM25.5 19h-5c-.276 0-.5-.224-.5-.5s.224-.5.5-.5h5c.276 0 .5.224.5.5S25.776 19 25.5 19zM25.5 16h-5c-.276 0-.5-.224-.5-.5s.224-.5.5-.5h5c.276 0 .5.224.5.5S25.776 16 25.5 16zM30.5 13.084c-.055 0-.111-.009-.166-.028C30.229 13.02 30.114 13 30 13c-.276 0-.5-.224-.5-.5S29.724 12 30 12c.229 0 .453.038.666.113.261.092.397.377.306.638C30.899 12.956 30.706 13.084 30.5 13.084zM21.5 11h-.101c-.276 0-.5-.224-.5-.5s.224-.5.5-.5H21.5c.276 0 .5.224.5.5S21.776 11 21.5 11zM23.5 11h-.101c-.276 0-.5-.224-.5-.5s.224-.5.5-.5H23.5c.276 0 .5.224.5.5S23.776 11 23.5 11zM25.5 11h-.101c-.276 0-.5-.224-.5-.5s.224-.5.5-.5H25.5c.276 0 .5.224.5.5S25.776 11 25.5 11z" class="colorffffff svgShape"></path><g><path fill="#ffffff" d="M13.5,28h-12C1.224,28,1,27.776,1,27.5S1.224,27,1.5,27h12c0.276,0,0.5,0.224,0.5,0.5S13.776,28,13.5,28z" class="colorffffff svgShape"></path></g></svg>