<svg xmlns="http://www.w3.org/2000/svg" data-name="Layer 5" viewBox="0 0 24 24" width="256" height="256"><path fill="#5cfaa9" d="M2.62,17A2.6236,2.6236,0,0,1,0,14.38V6A5.0059,5.0059,0,0,1,5,1H15a5.0059,5.0059,0,0,1,5,5V8H18V6a3.0033,3.0033,0,0,0-3-3H5A3.0033,3.0033,0,0,0,2,6v8.38a.6337.6337,0,0,0,.8906.5566l1.6621-.831.8946,1.789-1.66.83A2.6191,2.6191,0,0,1,2.62,17Z" class="color5cfaa9 svgShape"></path><path fill="#212529" d="M21.3818,23a2.6326,2.6326,0,0,1-1.1709-.2764l-3.3164-1.6582A.6158.6158,0,0,0,16.6182,21H9a5.0059,5.0059,0,0,1-5-5V12A5.0059,5.0059,0,0,1,9,7H19a5.0059,5.0059,0,0,1,5,5v8.3818A2.6215,2.6215,0,0,1,21.3818,23ZM9,9a3.0033,3.0033,0,0,0-3,3v4a3.0033,3.0033,0,0,0,3,3h7.6182a2.6326,2.6326,0,0,1,1.1709.2764l3.3164,1.6582A.6364.6364,0,0,0,22,20.3818V12a3.0033,3.0033,0,0,0-3-3Z" class="color212529 svgShape"></path></svg>