<svg xmlns="http://www.w3.org/2000/svg" viewBox="0 0 24 24" width="256" height="256"><g data-name="Layer 5"><rect width="6" height="6" x="1" y="9" fill="#c5e8d6" rx="1" class="colore8dbc5 svgShape"></rect><rect width="6" height="6" x="9" y="9" fill="#c5e8d6" rx="1" class="colore8dbc5 svgShape"></rect><rect width="6" height="6" x="17" y="9" fill="#c5e8d6" rx="1" class="colore8dbc5 svgShape"></rect><path fill="#5cfaa9" d="M2.51 15H2a1.0029 1.0029 0 0 1-1-1V10A1.0029 1.0029 0 0 1 2 9h.51A1.2264 1.2264 0 0 0 2 10v4A1.2264 1.2264 0 0 0 2.51 15zM10.51 15H10a1.0029 1.0029 0 0 1-1-1V10a1.0029 1.0029 0 0 1 1-1h.51A1.2264 1.2264 0 0 0 10 10v4A1.2264 1.2264 0 0 0 10.51 15zM18.51 15H18a1.0029 1.0029 0 0 1-1-1V10a1.0029 1.0029 0 0 1 1-1h.51A1.2264 1.2264 0 0 0 18 10v4A1.2264 1.2264 0 0 0 18.51 15z" class="colord9cdb9 svgShape"></path><path fill="#edfff6" d="M18.76,11.0049a.7849.7849,0,0,1-.23-.0352A.7366.7366,0,0,1,18,10.25V9h4v1.25a.7383.7383,0,0,1-.5322.7207A.7911.7911,0,0,1,21.24,11a.7148.7148,0,0,1-.6113-.3369.7688.7688,0,0,0-1.2559-.0039A.7192.7192,0,0,1,18.76,11.0049Z" class="coloredf2ff svgShape"></path><circle cx="20" cy="20" r="3" fill="#edfff6" class="coloredf2ff svgShape"></circle><ellipse cx="20" cy="21.5" fill="#82fabc" rx="2.595" ry="1.5" class="colorfa8f82 svgShape"></ellipse><circle cx="12" cy="4" r="3" fill="#edfff6" class="coloredf2ff svgShape"></circle><ellipse cx="12" cy="5.5" fill="#82fabc" rx="2.595" ry="1.5" class="colorfa8f82 svgShape"></ellipse><circle cx="12" cy="3" r="1" fill="#c5e8d6" class="colore8dbc5 svgShape"></circle><path fill="#5cfaa9" d="M12,4a1,1,0,0,1,0-2,1.25,1.25,0,0,0,0,2Z" class="colord9cdb9 svgShape"></path><circle cx="12" cy="20" r="3" fill="#edfff6" class="coloredf2ff svgShape"></circle><ellipse cx="12" cy="21.5" fill="#82fabc" rx="2.595" ry="1.5" class="colorfa8f82 svgShape"></ellipse><circle cx="4" cy="20" r="3" fill="#edfff6" class="coloredf2ff svgShape"></circle><ellipse cx="4" cy="21.5" fill="#82fabc" rx="2.595" ry="1.5" class="colorfa8f82 svgShape"></ellipse><circle cx="20" cy="19" r="1" fill="#c5e8d6" class="colore8dbc5 svgShape"></circle><circle cx="12" cy="19" r="1" fill="#c5e8d6" class="colore8dbc5 svgShape"></circle><circle cx="4" cy="19" r="1" fill="#c5e8d6" class="colore8dbc5 svgShape"></circle><path fill="#5cfaa9" d="M20 20a1 1 0 0 1 0-2 1.25 1.25 0 0 0 0 2zM12 20a1 1 0 0 1 0-2 1.25 1.25 0 0 0 0 2zM4 20a1 1 0 0 1 0-2 1.25 1.25 0 0 0 0 2z" class="colord9cdb9 svgShape"></path><path fill="#edfff6" d="M10.76 11.0049a.7849.7849 0 0 1-.23-.0352A.7366.7366 0 0 1 10 10.25V9h4v1.25a.7383.7383 0 0 1-.5322.7207A.7911.7911 0 0 1 13.24 11a.7148.7148 0 0 1-.6113-.3369.7688.7688 0 0 0-1.2559-.0039A.7192.7192 0 0 1 10.76 11.0049zM2.76 11.0049a.7849.7849 0 0 1-.2295-.0352A.7366.7366 0 0 1 2 10.25V9H6v1.25a.7383.7383 0 0 1-.5322.7207A.7911.7911 0 0 1 5.24 11a.7148.7148 0 0 1-.6113-.3369.7688.7688 0 0 0-1.2559-.0039A.7192.7192 0 0 1 2.76 11.0049z" class="coloredf2ff svgShape"></path></g><path fill="#212529" d="M22,15.25A1.2511,1.2511,0,0,0,23.25,14V10A1.2511,1.2511,0,0,0,22,8.75H18A1.2511,1.2511,0,0,0,16.75,10v1.75h-1.5V10A1.2511,1.2511,0,0,0,14,8.75H12.25V7.2247A3.2438,3.2438,0,0,0,15.25,4a.25.25,0,0,0-.5,0,2.7267,2.7267,0,0,1-.1932.9949,3.2648,3.2648,0,0,0-1.6687-1.1181,1.25,1.25,0,1,0-1.7762,0A3.2648,3.2648,0,0,0,9.4432,4.9949a2.7471,2.7471,0,1,1,5.15-1.9119.25.25,0,0,0,.4716-.166A3.248,3.248,0,1,0,11.75,7.2247V8.75H10A1.2511,1.2511,0,0,0,8.75,10v1.75H7.25V10A1.2511,1.2511,0,0,0,6,8.75H2A1.2511,1.2511,0,0,0,.75,10v3a.25.25,0,0,0,.5,0V10a.7452.7452,0,0,1,.5-.6993v.9483a1,1,0,0,0,1.834.5518.5124.5124,0,0,1,.834.0029.98.98,0,0,0,.8208.4473,1.0453,1.0453,0,0,0,.3008-.0449.9828.9828,0,0,0,.71-.9571V9.3007A.7452.7452,0,0,1,6.75,10v4a.7511.7511,0,0,1-.75.75H2A.7511.7511,0,0,1,1.25,14a.25.25,0,0,0-.5,0A1.2511,1.2511,0,0,0,2,15.25H3.75v1.5253a3.25,3.25,0,1,0,.5,0V15.25H6A1.2511,1.2511,0,0,0,7.25,14V12.25h1.5V14A1.2511,1.2511,0,0,0,10,15.25h1.75v1.52A3.2489,3.2489,0,0,0,8.9351,18.917a.25.25,0,0,0,.4716.166,2.7474,2.7474,0,1,1,5.15,1.9119,3.2648,3.2648,0,0,0-1.6687-1.1181,1.25,1.25,0,1,0-1.7762,0,3.2648,3.2648,0,0,0-1.6687,1.1181A2.7267,2.7267,0,0,1,9.25,20a.25.25,0,0,0-.5,0,3.25,3.25,0,1,0,3.5-3.2247V15.25H14A1.2511,1.2511,0,0,0,15.25,14V12.25h1.5V14A1.2511,1.2511,0,0,0,18,15.25h1.75v1.5253a3.25,3.25,0,1,0,.5,0V15.25ZM11.25,3a.75.75,0,1,1,.75.75A.7511.7511,0,0,1,11.25,3ZM9.7054,5.5093a2.72,2.72,0,0,1,4.5892,0,2.7422,2.7422,0,0,1-4.5892,0ZM5.3945,10.7275a.4908.4908,0,0,1-.5625-.2041,1.0344,1.0344,0,0,0-1.666.003.5.5,0,0,1-.916-.2774V9.25h3.5v.999A.4867.4867,0,0,1,5.3945,10.7275ZM4,22.75a2.747,2.747,0,0,1-2.2946-1.2407,2.72,2.72,0,0,1,4.5892,0A2.747,2.747,0,0,1,4,22.75ZM3.25,19a.75.75,0,1,1,.75.75A.7511.7511,0,0,1,3.25,19Zm3.5,1a2.7267,2.7267,0,0,1-.1932.9949,3.2648,3.2648,0,0,0-1.6687-1.1181,1.25,1.25,0,1,0-1.7762,0,3.2648,3.2648,0,0,0-1.6687,1.1181A2.7472,2.7472,0,1,1,6.75,20Zm4.5-1a.75.75,0,1,1,.75.75A.7511.7511,0,0,1,11.25,19ZM12,22.75a2.747,2.747,0,0,1-2.2946-1.2407,2.72,2.72,0,0,1,4.5892,0A2.747,2.747,0,0,1,12,22.75ZM10.25,9.25h3.5v.999a.5.5,0,0,1-.918.2744,1.0344,1.0344,0,0,0-1.666.003.5.5,0,0,1-.916-.2774ZM14.75,14a.7511.7511,0,0,1-.75.75H10A.7511.7511,0,0,1,9.25,14V10a.7452.7452,0,0,1,.5-.6993v.9483a1,1,0,0,0,1.834.5518.5124.5124,0,0,1,.834.0029.98.98,0,0,0,.8208.4473,1.0453,1.0453,0,0,0,.3008-.0449.9828.9828,0,0,0,.71-.9571V9.3007a.7452.7452,0,0,1,.5.6993ZM20,22.75a2.747,2.747,0,0,1-2.2946-1.2407,2.72,2.72,0,0,1,4.5892,0A2.747,2.747,0,0,1,20,22.75ZM19.25,19a.75.75,0,1,1,.75.75A.7511.7511,0,0,1,19.25,19Zm3.5,1a2.7267,2.7267,0,0,1-.1932.9949,3.2648,3.2648,0,0,0-1.6687-1.1181,1.25,1.25,0,1,0-1.7762,0,3.2648,3.2648,0,0,0-1.6687,1.1181A2.7472,2.7472,0,1,1,22.75,20ZM18.25,9.25h3.5v.999a.5.5,0,0,1-.918.2744,1.0344,1.0344,0,0,0-1.666.003.5.5,0,0,1-.916-.2774Zm-1,4.75V10a.7452.7452,0,0,1,.5-.6993v.9483a1,1,0,0,0,1.834.5518.5124.5124,0,0,1,.834.0029.98.98,0,0,0,.8208.4473,1.0453,1.0453,0,0,0,.3008-.0449.9828.9828,0,0,0,.71-.9571V9.3007a.7452.7452,0,0,1,.5.6993v4a.7511.7511,0,0,1-.75.75H18A.7511.7511,0,0,1,17.25,14Z" data-name="Layer 9" class="color231f20 svgShape"></path></svg>