<svg xmlns="http://www.w3.org/2000/svg" enable-background="new 0 0 481.278 504" viewBox="0 0 481.278 504" width="256" height="256"><path fill="#5affaa" d="M396.579,250.82c0,42.9-17.33,81.76-45.37,109.95c-15.35,13.63-30.2,24.62-44.24,31.21h-132.66
		c-14.43-6.71-29.19-17.23-44.24-31.21c-8.14-8.18-15.37-17.26-21.54-27.08c-15.1-24.01-23.83-52.42-23.83-82.87
		c0-30.45,8.73-58.86,23.83-82.87c27.58-43.9,76.44-73.07,132.11-73.07C326.759,94.88,396.579,164.7,396.579,250.82z" class="colorffc05a svgShape"></path><path fill="#32f993" d="M321.585,117.51C286.203,248.107,212.75,316.169,108.529,333.69c6.17,9.82,13.4,18.9,21.54,27.08
		c15.05,13.98,29.81,24.5,44.24,31.21h132.66c14.04-6.59,28.89-17.58,44.24-31.21c28.04-28.19,45.37-67.05,45.37-109.95
		C396.579,194.34,366.549,144.871,321.585,117.51z" class="colorf9b132 svgShape"></path><path fill="#5cfaa9" d="M276.919,462.7c10.3,0,18.64,8.35,18.64,18.65c0,5.15-2.08,9.81-5.46,13.19
		c-3.37,3.37-8.03,5.46-13.18,5.46h-72.56c-10.3,0-18.64-8.35-18.64-18.65c0-5.15,2.08-9.81,5.46-13.19
		c3.37-3.37,8.03-5.46,13.18-5.46C228.546,454.306,252.732,454.306,276.919,462.7z" class="color9c9d9c svgShape"></path><path fill="#b6b7b6" d="M285.479,425.4c10.3,0,18.65,8.35,18.65,18.65c0,5.15-2.09,9.81-5.46,13.19
		c-3.38,3.37-8.04,5.46-13.19,5.46h-8.56h-72.56h-8.56c-10.3,0-18.65-8.35-18.65-18.65c0-5.15,2.09-9.81,5.46-13.19
		c3.38-3.37,8.04-5.46,13.19-5.46C225.692,408.867,255.586,408.867,285.479,425.4z" class="colorb6b6b7 svgShape"></path><path fill="#d1d2d1" d="M306.969,391.98c4.42,3.41,7.26,8.76,7.26,14.77c0,5.15-2.09,9.81-5.46,13.19
		c-3.38,3.37-8.04,5.46-13.19,5.46h-10.1h-89.68h-10.1c-10.3,0-18.65-8.35-18.65-18.65c0-5.15,2.09-9.81,5.46-13.19
		c0.56-0.56,1.16-1.09,1.8-1.58c3.15-2.43,7.1-3.88,11.39-3.88h18.85h72.18h18.85C299.869,388.1,303.819,389.55,306.969,391.98z" class="colord2d2d1 svgShape"></path><path fill="#85f9be" d="M312.289,233.84l-44.29,32.17c7.99,24.57,16.92,52.05,16.92,52.05l-44.28-32.17l-44.28,32.17
		l16.92-52.05l-44.29-32.17h54.74l16.91-52.05c0,0,8.93,27.48,16.91,52.05H312.289z" class="colorf9d285 svgShape"></path><path fill="#26ef88" d="M267.999,266.01c23.29,0,57.13,5.46,56.09,31.42c-1.03,25.95-47.36,40.7-47.36,73.02v17.65h-72.18
		v-17.65c0-32.32-46.33-47.07-47.36-73.02c-1.04-25.96,32.8-31.42,56.09-31.42l-16.92,52.05l44.28-32.17l44.28,32.17
		C284.919,318.06,275.989,290.58,267.999,266.01z" class="coloref9d26 svgShape"></path><path fill="#212529" d="M240.639 90.883c-88.189 0-159.936 71.747-159.936 159.936 0 30.939 8.849 60.958 25.59 86.814 13.248 20.461 30.871 37.531 51.54 50.05l9.776 5.463c-2.859 3.791-4.557 8.505-4.557 13.609 0 10.288 6.897 18.989 16.307 21.739-3.847 4.061-6.214 9.537-6.214 15.56 0 9.856 6.331 18.258 15.138 21.363-4.059 4.095-6.571 9.727-6.571 15.935 0 12.489 10.16 22.649 22.649 22.649h72.552c12.489 0 22.649-10.16 22.649-22.649 0-6.208-2.512-11.839-6.571-15.935 8.807-3.105 15.138-11.507 15.138-21.363 0-6.022-2.367-11.498-6.214-15.56 9.411-2.75 16.307-11.452 16.307-21.739 0-5.104-1.698-9.817-4.557-13.609l9.776-5.463c20.669-12.518 38.292-29.589 51.54-50.05 16.741-25.855 25.59-55.875 25.59-86.814C400.574 162.63 328.828 90.883 240.639 90.883zM276.915 496h-72.552c-8.078 0-14.649-6.571-14.649-14.649s6.571-14.649 14.649-14.649h72.552c8.078 0 14.649 6.571 14.649 14.649S284.992 496 276.915 496zM285.482 458.701h-89.687c-8.078 0-14.649-6.571-14.649-14.648 0-8.078 6.571-14.649 14.649-14.649h89.687c8.078 0 14.649 6.571 14.649 14.649C300.131 452.13 293.56 458.701 285.482 458.701zM295.575 421.403H185.702c-8.078 0-14.649-6.571-14.649-14.649s6.572-14.649 14.649-14.649h109.873c8.078 0 14.649 6.571 14.649 14.649S303.653 421.403 295.575 421.403zM181.731 326.522c-10.353-9.646-20.131-18.756-20.548-29.256-.23-5.779 1.501-10.507 5.292-14.45 9.451-9.834 29.191-12.202 41.258-12.69l-15.172 46.695c-.536 1.648.051 3.454 1.453 4.473.701.509 1.526.764 2.351.764s1.65-.255 2.351-.764l41.924-30.458 41.924 30.458c1.402 1.018 3.301 1.018 4.702 0 1.402-1.019 1.989-2.824 1.453-4.473l-15.172-46.695c12.067.488 31.807 2.856 41.258 12.69 3.791 3.943 5.521 8.671 5.292 14.45-.417 10.5-10.196 19.61-20.548 29.256-12.573 11.714-26.823 24.99-26.823 43.924v13.658h-64.171v-13.658C208.554 351.513 194.304 338.236 181.731 326.522zM264.199 267.248l13.106 40.338-34.316-24.931c-1.402-1.018-3.3-1.018-4.702 0l-34.316 24.931 13.106-40.338c.536-1.648-.051-3.454-1.453-4.473l-34.33-24.94h42.434c1.733 0 3.269-1.116 3.804-2.764l13.105-40.334 13.105 40.334c.536 1.648 2.071 2.764 3.804 2.764h42.434l-34.33 24.94C264.251 263.794 263.664 265.6 264.199 267.248zM390.123 277.855c-8.585 46.995-39.173 88.157-82.842 109.516-3.418-2.072-7.425-3.267-11.706-3.267h-14.851v-13.658c0-15.452 12.341-26.951 24.276-38.07 11.592-10.8 22.541-21.001 23.089-34.791.316-7.959-2.213-14.793-7.518-20.313-9.738-10.132-26.977-13.684-40.891-14.8l34.964-25.401c1.402-1.019 1.989-2.824 1.453-4.472-.536-1.648-2.071-2.764-3.804-2.764h-51.839l-16.012-49.279c-.536-1.648-2.071-2.764-3.804-2.764s-3.269 1.116-3.804 2.764l-16.012 49.279h-51.839c-1.733 0-3.269 1.116-3.804 2.764-.536 1.648.051 3.454 1.453 4.472l34.964 25.401c-13.914 1.116-31.153 4.668-40.891 14.8-5.304 5.52-7.833 12.354-7.518 20.313.548 13.79 11.497 23.991 23.089 34.791 11.935 11.119 24.276 22.618 24.276 38.07v13.658h-14.851c-4.281 0-8.288 1.194-11.706 3.267-43.669-21.359-74.257-62.521-82.842-109.516-.005-.026-.008-.052-.013-.077-1.461-8.888-2.422-17.851-2.438-26.959 0-83.777 68.158-151.936 151.936-151.936s151.936 68.158 151.936 151.936c-.079 9.859-.955 18.77-2.438 26.959C390.131 277.803 390.128 277.829 390.123 277.855zM240.639 72.594c2.209 0 4-1.791 4-4V4c0-2.209-1.791-4-4-4s-4 1.791-4 4v64.594C236.639 70.803 238.43 72.594 240.639 72.594zM348.393 98.441c.584.3 1.209.443 1.824.443 1.452 0 2.853-.793 3.562-2.174l30.084-58.586c1.009-1.965.234-4.376-1.731-5.385-1.964-1.01-4.376-.234-5.385 1.731l-30.084 58.586C345.653 95.021 346.428 97.433 348.393 98.441zM480.851 165.742c-.992-1.974-3.396-2.77-5.37-1.778l-61.045 30.669c-1.974.992-2.77 3.396-1.778 5.37.702 1.398 2.113 2.205 3.577 2.205.604 0 1.217-.137 1.793-.427l61.045-30.669C481.047 170.121 481.843 167.716 480.851 165.742zM127.499 96.71c.709 1.381 2.109 2.174 3.562 2.174.615 0 1.239-.143 1.824-.443 1.965-1.009 2.74-3.42 1.731-5.385L104.531 34.47c-1.01-1.966-3.421-2.742-5.385-1.731-1.965 1.009-2.74 3.42-1.731 5.385L127.499 96.71zM66.842 194.633L5.797 163.964c-1.972-.991-4.378-.195-5.37 1.778-.992 1.974-.195 4.378 1.778 5.37l61.045 30.669c.576.29 1.189.427 1.793.427 1.464 0 2.875-.808 3.577-2.205C69.612 198.029 68.816 195.625 66.842 194.633z" class="color3a322b svgShape"></path></svg>