<svg xmlns="http://www.w3.org/2000/svg" viewBox="0 0 510.66 510.66" width="256" height="256"><g data-name="Layer 2"><g data-name="5716 - Data Insight"><path fill="#ffffff" d="M500.66,510.66H10a10,10,0,0,1,0-20H500.66a10,10,0,0,1,0,20Z" class="colorffffff svgShape"></path><path fill="#ffffff" d="M85 510.66H30a10 10 0 01-10-10V170.22a10 10 0 0110-10H85a10 10 0 0110 10V500.66A10 10 0 0185 510.66zM40 490.66H75V180.22H40zM183.89 510.66H128.94a10 10 0 01-10-10V340.44a10 10 0 0110-10h54.95a10 10 0 0110 10V500.66A10 10 0 01183.89 510.66zm-44.95-20h34.95V350.44H138.94zM282.81 510.66h-55a10 10 0 01-10-10V340.9a10 10 0 0120 0V490.66h35V389.81a10 10 0 0120 0V500.66A10 10 0 01282.81 510.66zM381.72 510.66h-55a10 10 0 01-10-10V392a10 10 0 0120 0v98.66h35V413.35a10 10 0 0120 0v87.31A10 10 0 01381.72 510.66zM480.63 455.16a10 10 0 01-10-10V240.3H435.68V390.2a10 10 0 01-20 0V230.3a10 10 0 0110-10h54.95a10 10 0 0110 10V445.16A10 10 0 01480.63 455.16zM425.68 510.66a10 10 0 01-10-10V457.31a10 10 0 0120 0v43.35A10 10 0 01425.68 510.66z" class="colorffffff svgShape"></path><path fill="#ffffff" d="M476.94,508.75a33.5,33.5,0,0,1-23.83-9.87l-82.64-82.64a10,10,0,0,1,0-14.15L404,368.54a10,10,0,0,1,14.14,0l82.65,82.65a33.73,33.73,0,0,1,0,47.64l-.08.08A33.45,33.45,0,0,1,476.94,508.75Zm-85.26-99.59,75.57,75.58a13.7,13.7,0,0,0,19.37,0l.07-.08h0a13.71,13.71,0,0,0,0-19.33l-75.57-75.57Z" class="colorffffff svgShape"></path><path fill="#ffffff" d="M394.31,402.39a10,10,0,0,1-7.07-2.93l-23.39-23.39A10,10,0,0,1,378,361.93l23.38,23.39a10,10,0,0,1-7.07,17.07Z" class="colorffffff svgShape"></path><path fill="#ffffff" d="M309.06,403.77A98.78,98.78,0,1,1,407.83,305,98.89,98.89,0,0,1,309.06,403.77Zm0-177.55A78.78,78.78,0,1,0,387.83,305,78.86,78.86,0,0,0,309.06,226.22Z" class="colorffffff svgShape"></path><path fill="#ffffff" d="M309.06 364.46a10 10 0 010-20 38.76 38.76 0 0038.72-38.72 10 10 0 0120 0A58.78 58.78 0 01309.06 364.46zM260.34 315.74a10 10 0 01-10-10A58.78 58.78 0 01309.06 247a10 10 0 110 20 38.76 38.76 0 00-38.72 38.72A10 10 0 01260.34 315.74zM300.39 60.05H110.13a10 10 0 010-20H300.39a10 10 0 010 20zM300.39 100.11H110.13a10 10 0 010-20H300.39a10 10 0 010 20z" class="colorffffff svgShape"></path><path fill="#ffffff" d="M280.36,190.23a10,10,0,0,1-7.8-3.75L235.5,140.16H94.89a34.85,34.85,0,0,1-34.81-34.81V34.81A34.85,34.85,0,0,1,94.89,0H315.63a34.85,34.85,0,0,1,34.81,34.81v70.54a34.85,34.85,0,0,1-34.37,34.81l-27.13,45.21a10,10,0,0,1-7.9,4.84ZM94.89,20A14.83,14.83,0,0,0,80.08,34.81v70.54a14.83,14.83,0,0,0,14.81,14.81H240.31a10,10,0,0,1,7.81,3.75l31.07,38.84L301.83,125a10,10,0,0,1,8.57-4.86h5.23a14.82,14.82,0,0,0,14.81-14.81V34.81A14.82,14.82,0,0,0,315.63,20Z" class="colorffffff svgShape"></path></g></g></svg>