<svg xmlns="http://www.w3.org/2000/svg" viewBox="0 0 32 32" width="256" height="256"><g stroke="#212529" stroke-linecap="round" stroke-linejoin="round" class="colorStroke373449 svgStroke"><path fill="#5cfaa9" d="M20.475 7.305a6 6 0 0 0-7.56 9.094l-.922 1.597.366 1.366-1.366.366.366 1.366-1.366.366.366 1.366-1.35.34.35 1.392-1.366.366-.5.866.982 2.3 2.482-.3 5.422-9.39a6 6 0 0 0 4.096-11.095zm-1.5 2.598a1.5 1.5 0 1 1-1.5 2.598 1.5 1.5 0 0 1 1.5-2.598z" class="color9fceea svgShape"></path><path fill="#cde1d7" d="M22 7.5a6 6 0 0 0-2 11.656V21l1 1-1 1 1 1-1 1 1 1-1 .969 1 1.03-1 1v1l2 1.5 2-1.5V19.157A6 6 0 0 0 22 7.5zm0 3a1.5 1.5 0 1 1 0 3 1.5 1.5 0 0 1 0-3z" class="colorcde1e1 svgShape"></path><path fill="none" stroke-width=".959" d="M15.772 6.597a5.745 5.745 0 1 1 6.67 4.446" transform="matrix(1.0427 0 0 1.04234 -2.795 .865)"></path></g></svg>